<svg width="24" height="24" viewBox="0 0 24 24" fill="none" xmlns="http://www.w3.org/2000/svg">
<path d="M20.87 14.7113C20.7225 13.9085 20.3294 13.2369 19.7068 12.7126C19.2481 12.3195 18.7075 12.0737 18.1341 11.8935C17.5608 11.7133 16.971 11.6314 16.3812 11.5331C15.9225 11.4676 15.4802 11.402 15.0215 11.3038C14.4973 11.1891 14.0222 10.9925 13.6126 10.6321C13.5962 10.6157 13.5799 10.5829 13.5471 10.5993C13.5307 10.6157 13.5307 10.6321 13.5307 10.6321C13.5307 10.8123 13.5143 10.9925 13.5307 11.1727C13.5635 11.7788 13.7928 12.2867 14.2024 12.729C14.4809 13.0239 14.8249 13.2696 15.1689 13.4662C15.6768 13.7611 16.201 14.0068 16.758 14.2198C17.3642 14.4655 17.9539 14.7113 18.5437 14.9898C18.8877 15.1536 19.2317 15.3502 19.543 15.5795C20.0509 15.9727 20.3621 16.4805 20.3949 17.1358C20.3949 17.1686 20.3949 17.2014 20.4276 17.2341C20.4604 17.2177 20.4768 17.2014 20.4768 17.185C20.6242 16.9065 20.7553 16.6116 20.8372 16.3003C20.8864 16.1201 20.9027 15.9399 20.9027 15.7597C20.9191 15.4157 20.9355 15.0717 20.87 14.7113Z" fill="white"/>
<path d="M19.1456 16.415C18.7852 16.0874 18.3756 15.8089 17.9497 15.5632C17.3763 15.2191 16.7702 14.9242 16.1968 14.5638C16.0821 14.4983 16.0657 14.5147 16.033 14.6294C15.9838 14.8096 15.9511 14.9898 15.9347 15.17C15.9019 15.6942 16.033 16.2021 16.2459 16.6772C16.4098 17.0376 16.6391 17.3488 16.8521 17.6765C17.1797 18.1679 17.5238 18.643 17.8186 19.1509C17.9989 19.4621 18.1627 19.7734 18.261 20.1174C18.3756 20.4778 18.4084 20.8382 18.3593 21.215C18.3265 21.4935 18.2282 21.7393 18.1135 21.985C18.0808 22.0669 18.0316 22.1324 18.0152 22.2307C18.0644 22.2307 18.0971 22.2144 18.1299 22.198C18.6705 21.9359 19.1292 21.5591 19.4733 21.0676C19.85 20.527 20.0958 19.9208 20.1449 19.2492C20.1613 18.9707 20.1777 18.6758 20.1449 18.3973C20.063 17.6109 19.719 16.9556 19.1456 16.415Z" fill="white"/>
<path d="M16.1323 23.5085C15.7883 23.6232 15.4442 23.6887 15.0838 23.6396C14.707 23.5904 14.4122 23.443 14.2156 23.1153C14.1173 22.9679 14.0518 22.8041 14.0026 22.6402C13.9207 22.3945 13.9043 22.1324 13.8552 21.8703C13.806 21.5262 13.7405 21.1658 13.6422 20.8382C13.4948 20.3631 13.2818 19.9535 12.8886 19.6259C12.6101 19.3966 12.2989 19.2327 11.9548 19.1017C11.6108 18.9706 11.2504 18.9378 10.89 18.9215C10.6606 18.9051 10.4149 18.9215 10.1855 18.9542C9.85789 19.0034 9.53025 19.0853 9.21899 19.2C9.05516 19.2491 8.90772 19.3146 8.7439 19.3802C8.72752 19.3802 8.71114 19.3802 8.69475 19.3966C8.67837 19.3966 8.66199 19.3966 8.64561 19.4129C8.64561 19.4129 8.64561 19.4129 8.62923 19.4129C8.61284 19.4129 8.61284 19.4129 8.59646 19.4293C8.59646 19.4293 8.59646 19.4293 8.58008 19.4293C8.5637 19.4293 8.5637 19.4457 8.54731 19.4457H8.53093C8.51455 19.4457 8.51455 19.4621 8.49817 19.4621H8.48179L8.4654 19.4785H8.44902L8.43264 19.4948H8.41626C8.39987 19.4948 8.38349 19.4948 8.36711 19.5112L8.35073 19.5276H8.33435L8.31796 19.544H8.30158L8.2852 19.5604H8.26882C8.25243 19.5604 8.25243 19.5768 8.23605 19.5768H8.21967C8.20329 19.5768 8.20329 19.5931 8.18691 19.5931C8.18691 19.5931 8.18691 19.5931 8.17052 19.5931C8.15414 19.5931 8.15414 19.5931 8.13776 19.6095C8.12138 19.6095 8.10499 19.6095 8.10499 19.6259C8.08861 19.6259 8.07223 19.6259 8.05585 19.6423L8.03946 19.6587H8.02308C8.0067 19.6587 8.0067 19.675 7.99032 19.675C7.97394 19.675 7.95755 19.675 7.95755 19.6914L7.94117 19.7078C7.94117 19.7078 7.92479 19.7242 7.92479 19.7078C7.90841 19.7078 7.90841 19.7242 7.89202 19.7242C7.89202 19.7242 7.89202 19.7242 7.87564 19.7242C7.85926 19.7242 7.85926 19.7242 7.84288 19.7406L7.8265 19.757C7.8265 19.757 7.81011 19.7733 7.81011 19.757C7.79373 19.757 7.79373 19.7733 7.77735 19.7733C7.76097 19.7733 7.74458 19.7733 7.74458 19.7897L7.7282 19.8061C7.7282 19.8061 7.7282 19.8061 7.71182 19.8061C7.69544 19.8061 7.69544 19.8061 7.67906 19.8225L7.66267 19.8389C7.66267 19.8389 7.66267 19.8389 7.64629 19.8389C7.62991 19.8389 7.62991 19.8389 7.62991 19.8553L7.61353 19.8716C7.61353 19.8716 7.61353 19.8716 7.59714 19.8716C7.58076 19.8716 7.58076 19.8716 7.58076 19.888L7.56438 19.9044C7.56438 19.9044 7.56438 19.9044 7.548 19.9044C7.53161 19.9044 7.53162 19.9044 7.51523 19.9208C7.51523 19.9208 7.49885 19.9208 7.49885 19.9372C7.48247 19.9372 7.46609 19.9372 7.46609 19.9699C7.4497 19.9699 7.4497 19.9863 7.4497 19.9863L7.43332 20.0027C7.43332 20.0027 7.43332 20.0191 7.41694 20.0027C7.40056 20.0027 7.40056 20.0027 7.38417 20.0191C7.36779 20.0191 7.36779 20.0355 7.36779 20.0355L7.35141 20.0518C7.35141 20.0518 7.35141 20.0682 7.33503 20.0682C7.31865 20.0682 7.31865 20.0846 7.30226 20.0846C7.28588 20.0846 7.28588 20.101 7.28588 20.101L7.2695 20.1174C7.2695 20.1174 7.2695 20.1338 7.25312 20.1338C7.23673 20.1338 7.23673 20.1338 7.22035 20.1501C7.20397 20.1501 7.20397 20.1665 7.20397 20.1665L7.18759 20.1829C7.17121 20.1829 7.15482 20.1829 7.15482 20.2157C7.13844 20.2157 7.13844 20.232 7.13844 20.232C7.12206 20.232 7.12206 20.2484 7.12206 20.2484L7.10568 20.2648L7.08929 20.2812C7.08929 20.2812 7.08929 20.2976 7.07291 20.2976C7.05653 20.2976 7.05653 20.314 7.04015 20.314C7.02377 20.314 7.02377 20.3303 7.02377 20.3303C7.00738 20.3303 7.00738 20.3467 7.00738 20.3467C6.991 20.3467 6.991 20.3631 6.991 20.3631C6.97462 20.3631 6.97462 20.3795 6.97462 20.3795C6.95824 20.3795 6.95824 20.3959 6.95824 20.3959C6.94185 20.3959 6.94185 20.4123 6.94185 20.4123C6.92547 20.4123 6.92547 20.4286 6.92547 20.4286L6.90909 20.445L6.89271 20.4614L6.87632 20.4778L6.85994 20.4942C6.84356 20.4942 6.84356 20.5105 6.85994 20.5105C6.87633 20.5433 6.90909 20.5269 6.92547 20.5269C6.94185 20.5269 6.95824 20.5269 6.97462 20.5269C6.991 20.5433 7.02377 20.5433 7.04015 20.5433C7.05653 20.5433 7.07291 20.5433 7.08929 20.5433C7.12206 20.5761 7.15482 20.5597 7.17121 20.5597C7.18759 20.5597 7.20397 20.5597 7.23673 20.5597C7.25312 20.5761 7.28588 20.5761 7.30226 20.5761C7.31865 20.5761 7.33503 20.5761 7.36779 20.5761C7.38417 20.5925 7.41694 20.5925 7.43332 20.5925C7.4497 20.5925 7.46609 20.5925 7.46609 20.5925C7.48247 20.6088 7.51523 20.6088 7.53161 20.6088C7.548 20.6088 7.548 20.6088 7.56438 20.6088C7.58076 20.6252 7.61353 20.6252 7.62991 20.6252C7.64629 20.6252 7.64629 20.6252 7.66267 20.6252C7.67906 20.6416 7.71182 20.6416 7.7282 20.6416C7.74458 20.6416 7.76097 20.6416 7.76097 20.6416C7.77735 20.658 7.79373 20.658 7.81011 20.658H7.8265C7.84288 20.6744 7.87564 20.6744 7.89202 20.6744H7.90841H7.92479C7.94117 20.6907 7.95755 20.6907 7.97394 20.6907C7.99032 20.7071 8.0067 20.7071 8.02308 20.7071C8.03946 20.7071 8.03946 20.7071 8.05585 20.7071C8.07223 20.7071 8.07223 20.7235 8.08861 20.7235C8.10499 20.7399 8.12138 20.7399 8.13776 20.7399H8.15414C8.17052 20.7563 8.1869 20.7563 8.20329 20.7563H8.21967C8.23605 20.7563 8.23605 20.7727 8.25243 20.7727H8.26882C8.26882 20.789 8.2852 20.789 8.30158 20.789C8.31796 20.8054 8.31796 20.8054 8.35073 20.8054C8.36711 20.8218 8.36711 20.8218 8.39987 20.8218C8.41626 20.8382 8.41626 20.8382 8.44902 20.8382C8.44902 20.8546 8.4654 20.8546 8.48179 20.8546C8.49817 20.8546 8.49817 20.871 8.51455 20.871H8.53093L8.54731 20.8873C8.54731 20.9037 8.5637 20.9037 8.58008 20.9037C8.59646 20.9037 8.59646 20.9201 8.59646 20.9201C8.59646 20.9365 8.61284 20.9365 8.62923 20.9365L8.64561 20.9529C8.64561 20.9692 8.66199 20.9692 8.67837 20.9692C8.67837 20.9692 8.69475 20.9692 8.69475 20.9856C8.69475 21.002 8.71114 21.002 8.72752 21.002C8.72752 21.002 8.7439 21.002 8.7439 21.0184L8.76028 21.0348L8.77667 21.0512C8.77667 21.0675 8.79305 21.0675 8.79305 21.0675C8.79305 21.0839 8.80943 21.0839 8.82581 21.0839C8.82581 21.0839 8.8422 21.0839 8.8422 21.1003L8.85858 21.1167L8.87496 21.1331L8.89134 21.1495C8.89134 21.1658 8.90772 21.1658 8.90772 21.1658C8.90772 21.1822 8.92411 21.1822 8.92411 21.1822C8.92411 21.1986 8.94049 21.1986 8.94049 21.1986C8.94049 21.1986 8.94049 21.1986 8.95687 21.1986C8.95687 21.1986 8.97325 21.1986 8.97325 21.215L8.98964 21.2314L9.00602 21.2477L9.0224 21.2641L9.03878 21.2805L9.05516 21.2969L9.07155 21.3133C9.07155 21.3297 9.08793 21.3297 9.08793 21.3297C9.08793 21.346 9.10431 21.346 9.10431 21.346C9.10431 21.3624 9.12069 21.3624 9.12069 21.3624C9.12069 21.3788 9.13708 21.3788 9.13708 21.3788C9.13708 21.3952 9.15346 21.3952 9.15346 21.3952C9.15346 21.4116 9.16984 21.4116 9.16984 21.4116C9.16984 21.428 9.18622 21.428 9.18622 21.428C9.18622 21.4443 9.2026 21.4443 9.2026 21.4443C9.2026 21.4607 9.21899 21.4607 9.21899 21.4607C9.21899 21.4771 9.23537 21.4771 9.23537 21.4771C9.23537 21.4935 9.25175 21.4935 9.25175 21.4935C9.25175 21.5099 9.26813 21.5099 9.26813 21.5099C9.26813 21.5262 9.28452 21.5262 9.28452 21.5262C9.28452 21.5426 9.3009 21.5426 9.3009 21.5426C9.33366 21.559 9.35004 21.5754 9.36643 21.5918C9.49749 21.7228 9.61216 21.8375 9.7596 21.9522C10.0381 22.1979 10.3657 22.329 10.7425 22.329C11.0538 22.3454 11.3323 22.2307 11.5616 22.0177C11.8729 21.7228 11.9384 21.3624 11.8729 20.9529C11.8565 20.8218 11.8074 20.7071 11.7091 20.6252C11.4634 20.3631 11.1521 20.2484 10.8081 20.3303C10.5951 20.3795 10.4313 20.4942 10.3494 20.7071C10.2838 20.871 10.3002 21.0184 10.4149 21.1658C10.464 21.2314 10.5296 21.2805 10.5951 21.2969C10.6115 21.3133 10.6442 21.3133 10.677 21.3133C10.6606 21.2969 10.6442 21.2805 10.6279 21.2805C10.5623 21.2477 10.4968 21.1986 10.4477 21.1495C10.3166 20.8873 10.4477 20.5761 10.7589 20.4942C10.9719 20.445 11.1685 20.4942 11.3487 20.6088C11.4961 20.7071 11.5944 20.8382 11.6108 21.0348C11.6272 21.1331 11.6272 21.2314 11.5944 21.3297C11.4961 21.7228 11.1357 21.9358 10.7917 21.903C10.5459 21.8703 10.3166 21.772 10.1364 21.5918C9.92342 21.3952 9.82513 21.1495 9.84151 20.8546C9.87428 20.4778 10.0872 20.1993 10.4313 20.0518C10.6934 19.9372 10.9719 19.9208 11.2668 19.9863C11.6272 20.0518 11.9057 20.2484 12.1678 20.4778C12.3971 20.6907 12.561 20.9529 12.7084 21.2314C12.8722 21.5426 13.0033 21.8703 13.1507 22.1979C13.2818 22.4928 13.4456 22.7713 13.6586 23.0006C14.1009 23.4921 14.6415 23.6723 15.2804 23.5576C15.6736 23.4921 16.0012 23.2955 16.2961 23.0498C16.3125 23.0498 16.3125 23.0334 16.3125 23.017C16.2961 23.443 16.2142 23.4757 16.1323 23.5085Z" fill="white"/>
<path d="M13.9713 16.9557C13.6273 17.1359 13.2669 17.2342 12.8901 17.2997C12.4314 17.3816 11.9891 17.4471 11.5304 17.5454C10.9734 17.6601 10.4655 17.8731 9.97405 18.168C9.9249 18.2007 9.87576 18.2171 9.85938 18.2662C9.90852 18.2662 9.95767 18.2499 9.99043 18.2335C10.5147 18.0533 11.0553 17.955 11.5959 17.9222C12.0546 17.8895 12.5133 17.8567 12.972 17.8239C13.3324 17.7912 13.6764 17.7092 14.0041 17.5946C14.6758 17.3325 15.1672 16.8738 15.4293 16.1857C15.4621 16.0874 15.4949 15.9891 15.5113 15.8908C15.5276 15.6779 15.5276 15.4649 15.5276 15.2519C15.5276 15.1536 15.5113 15.0389 15.4785 14.9406C15.3638 14.613 15.2328 14.2854 14.987 14.0232C14.987 14.0069 14.9706 13.9905 14.9543 13.9905C14.9379 14.0069 14.9379 14.0232 14.9543 14.0396C15.0198 14.2526 15.0853 14.4819 15.1181 14.7113C15.1836 15.1209 15.1508 15.4976 14.987 15.8744C14.7904 16.3823 14.43 16.7263 13.9713 16.9557Z" fill="white"/>
<path d="M15.8561 7.02801C16.0527 7.1263 16.2657 7.2246 16.4622 7.32289C16.7244 7.45395 16.9865 7.60139 17.2158 7.78159C17.4779 7.97818 17.609 8.2403 17.6582 8.55156C17.6909 8.83006 17.6909 9.10856 17.6909 9.37067C17.6909 9.63279 17.6909 9.8949 17.5762 10.157C17.5599 10.1734 17.5435 10.2062 17.5599 10.2225C17.5762 10.2389 17.5926 10.2062 17.5926 10.1898C17.6254 10.1406 17.6418 10.1079 17.6745 10.0587C17.8056 9.78023 17.8711 9.50173 17.8875 9.19047C17.9039 8.99388 17.9039 8.81368 17.9039 8.61709C17.9039 8.56794 17.9039 8.50241 17.9203 8.45327C17.953 8.35497 18.0186 8.32221 18.1169 8.37135C18.1988 8.40412 18.2643 8.45327 18.3298 8.50241C18.6083 8.71538 18.8704 8.92835 19.1326 9.1577C19.1489 9.19047 19.1817 9.22323 19.2145 9.23961C19.2309 9.256 19.2309 9.27238 19.2636 9.27238C19.2636 9.23961 19.2472 9.22323 19.2309 9.20685C19.2145 9.17409 19.1981 9.14132 19.1653 9.12494C19.1326 9.09217 19.1162 9.05941 19.0834 9.02664C18.8541 8.74815 18.6083 8.48603 18.3462 8.22391C18.2152 8.07647 18.0677 7.94542 17.953 7.79798C17.822 7.65054 17.7564 7.47033 17.7073 7.27374C17.6909 7.20822 17.6909 7.14269 17.6745 7.07716C17.6254 6.68398 17.5926 6.29081 17.7237 5.91402C17.7401 5.89763 17.7401 5.88125 17.7401 5.84849C17.7401 5.83211 17.7564 5.83211 17.7564 5.81572C17.7564 5.79934 17.7564 5.78296 17.7564 5.78296C17.7401 5.78296 17.7237 5.79934 17.7237 5.81572C17.7073 5.83211 17.6909 5.84849 17.6909 5.88125C17.6254 5.99593 17.5762 6.1106 17.5435 6.22528C17.4616 6.4874 17.4288 6.76589 17.4124 7.04439C17.4124 7.17545 17.396 7.30651 17.3797 7.42118C17.3633 7.48671 17.3469 7.5031 17.265 7.48671C17.2322 7.48671 17.1995 7.47033 17.1667 7.45395C17.0356 7.4048 16.9046 7.35566 16.7735 7.30651C16.4786 7.19183 16.1674 7.09354 15.8561 7.02801C15.8233 7.01163 15.7906 6.99525 15.7578 7.01163C15.8233 7.02801 15.8397 7.02801 15.8561 7.02801Z" fill="white"/>
<path d="M19.2969 9.27234C19.2969 9.28872 19.2969 9.28872 19.3133 9.28872C19.3133 9.28872 19.3133 9.27234 19.2969 9.27234Z" fill="white"/>
<path d="M7.95855 6.32353C7.95855 6.40544 7.95855 6.48735 7.95855 6.56927C7.95855 6.6348 7.94216 6.70032 7.97493 6.76585C7.97493 6.78224 7.99131 6.79862 7.97493 6.815C7.97493 6.84776 7.95855 6.89691 7.99131 6.92968C7.99131 6.94606 7.99131 6.96244 7.99131 6.96244C7.99131 6.9952 7.97493 7.04435 8.00769 7.07712V7.0935C8.00769 7.12626 7.99131 7.15903 8.02407 7.17541V7.19179C8.02407 7.22456 8.00769 7.25732 8.04046 7.2737C8.04046 7.2737 8.04046 7.2737 8.04046 7.29009C8.04046 7.32285 8.02407 7.33923 8.05684 7.35561C8.05684 7.35561 8.05684 7.35561 8.05684 7.372C8.05684 7.40476 8.05684 7.42114 8.07322 7.43753C8.07322 7.43753 8.07322 7.43753 8.07322 7.45391C8.07322 7.47029 8.07322 7.48667 8.0896 7.50305V7.51944C8.0896 7.53582 8.0896 7.56858 8.10599 7.58497C8.10599 7.60135 8.10599 7.61773 8.12237 7.63411V7.6505C8.13875 7.68326 8.15513 7.71602 8.15513 7.74879C8.26981 8.07643 8.41725 8.40408 8.61384 8.69896C8.90872 9.14128 9.28551 9.48531 9.74421 9.73104C9.89165 9.81295 10.0391 9.8621 10.2029 9.87848C10.2848 9.89486 10.3504 9.87848 10.4323 9.8621C10.5142 9.84572 10.5469 9.78019 10.5142 9.69828C10.4978 9.64913 10.4814 9.61637 10.4486 9.5836C10.3176 9.38701 10.1865 9.19043 10.0882 8.97746C10.0227 8.8464 9.95718 8.69896 9.92442 8.55152C9.85889 8.2894 9.80974 8.02729 9.74421 7.76517C9.64592 7.33923 9.53124 6.91329 9.23636 6.55288C9.23636 6.5365 9.21998 6.5365 9.21998 6.5365L9.2036 6.52012L9.18721 6.50374L9.17083 6.48735L9.15445 6.47097L9.13807 6.45459C9.13807 6.43821 9.12169 6.43821 9.12169 6.43821C9.12169 6.42183 9.1053 6.42183 9.08892 6.42183H9.07254L9.05616 6.40544L9.03977 6.38906C9.03977 6.37268 9.02339 6.37268 9.00701 6.37268H8.99063L8.97424 6.3563C8.97424 6.33991 8.95786 6.33991 8.94148 6.33991H8.9251L8.90872 6.32353C8.90872 6.30715 8.89233 6.30715 8.87595 6.30715C8.87595 6.29077 8.85957 6.29077 8.84319 6.29077H8.82681C8.81042 6.29077 8.81042 6.27439 8.79404 6.27439H8.77766C8.76128 6.27439 8.76128 6.258 8.74489 6.258H8.72851C8.72851 6.24162 8.71213 6.24162 8.69575 6.24162H8.67936C8.66298 6.22524 8.6466 6.22524 8.63022 6.22524C8.61384 6.20886 8.59745 6.20886 8.58107 6.20886H8.56469C8.54831 6.19247 8.53192 6.19247 8.53192 6.19247C8.51554 6.17609 8.49916 6.17609 8.48278 6.17609H8.4664C8.45001 6.15971 8.43363 6.15971 8.41725 6.15971H8.40087C8.38448 6.14333 8.3681 6.14333 8.35172 6.14333H8.33534C8.31896 6.12695 8.30257 6.12695 8.28619 6.12695H8.26981C8.25343 6.11056 8.23704 6.11056 8.22066 6.11056H8.20428C8.1879 6.09418 8.15513 6.09418 8.13875 6.09418C8.12237 6.09418 8.10599 6.09418 8.10599 6.09418C8.0896 6.0778 8.05684 6.0778 8.04046 6.0778C8.02407 6.0778 8.00769 6.0778 8.00769 6.0778H7.99131C7.94216 6.06142 7.92578 6.0778 7.92578 6.12695C7.92578 6.14333 7.92578 6.17609 7.92578 6.19247C7.92578 6.22524 7.92578 6.24162 7.92578 6.27439C7.94216 6.20886 7.97493 6.27439 7.95855 6.32353Z" fill="white"/>
<path d="M8.07504 5.43886C8.09142 5.43886 8.1078 5.43886 8.12418 5.43886C8.14056 5.45524 8.17333 5.45524 8.18971 5.45524C8.20609 5.45524 8.22248 5.45524 8.25524 5.45524C8.27162 5.47163 8.30439 5.47163 8.32077 5.47163C8.33715 5.47163 8.35353 5.47163 8.36992 5.47163C8.3863 5.48801 8.41906 5.48801 8.43545 5.48801C8.45183 5.48801 8.46821 5.48801 8.46821 5.48801C8.48459 5.50439 8.51736 5.50439 8.53374 5.50439C8.55012 5.50439 8.5665 5.50439 8.5665 5.50439C8.58289 5.52077 8.59927 5.52077 8.61565 5.52077C8.63203 5.52077 8.63203 5.52077 8.64841 5.52077C8.6648 5.53716 8.68118 5.53716 8.69756 5.53716C8.71394 5.53716 8.71394 5.53716 8.73033 5.53716C8.74671 5.55354 8.76309 5.55354 8.77947 5.55354H8.79586C8.81224 5.56992 8.82862 5.56992 8.845 5.56992C8.86138 5.56992 8.86138 5.56992 8.87777 5.56992C8.89415 5.5863 8.91053 5.5863 8.92691 5.5863H8.9433C8.95968 5.60268 8.97606 5.60268 8.99244 5.60268H9.00882H9.02521C9.04159 5.61907 9.05797 5.61907 9.07435 5.61907H9.09074C9.10712 5.61907 9.10712 5.63545 9.1235 5.63545C9.13988 5.65183 9.15626 5.65183 9.17265 5.65183H9.18903C9.20541 5.66821 9.22179 5.66821 9.23818 5.66821C9.25456 5.6846 9.27094 5.6846 9.28732 5.6846H9.30371C9.30371 5.70098 9.32009 5.70098 9.33647 5.70098C9.35285 5.71736 9.36923 5.71736 9.38562 5.71736C9.402 5.73374 9.41838 5.73374 9.43476 5.73374H9.45115L9.46753 5.75012H9.48391L9.50029 5.76651H9.51667L9.53306 5.78289H9.54944L9.56582 5.79927C9.56582 5.81565 9.5822 5.81565 9.61497 5.81565C9.63135 5.83204 9.63135 5.83204 9.64773 5.83204C9.64773 5.84842 9.66411 5.84842 9.6805 5.84842C9.69688 5.84842 9.69688 5.8648 9.71326 5.8648H9.72964L9.74603 5.88118C9.74603 5.89757 9.76241 5.89757 9.77879 5.89757C9.81156 5.91395 9.84432 5.93033 9.87708 5.94671C10.2211 6.17606 10.5324 6.43818 10.8109 6.73306C11.204 7.12623 11.5317 7.56856 11.8757 8.01088C12.2034 8.43681 12.531 8.87914 12.9078 9.27231C13.2682 9.6491 13.6778 9.97675 14.1692 10.1733C14.6279 10.3699 15.1194 10.4846 15.6109 10.5501C16.1187 10.6157 16.6102 10.6484 17.118 10.6812C17.4457 10.6976 17.7569 10.7303 18.0846 10.7795C18.5433 10.8614 18.9365 11.0744 19.2477 11.4184C19.346 11.5331 19.4279 11.6477 19.5098 11.7788C19.5262 11.8116 19.5426 11.8443 19.5754 11.8443C19.5426 11.3365 19.3624 10.8614 19.1167 10.4191C18.8873 9.97675 18.5924 9.56719 18.232 9.1904C18.1993 9.32146 18.1665 9.43613 18.1501 9.55081C18.0846 9.79654 18.0027 10.0259 17.8552 10.2389C17.7897 10.3535 17.7078 10.4518 17.5931 10.5174C17.3965 10.632 17.1508 10.5501 17.0689 10.3372C17.0361 10.2389 17.0361 10.1406 17.0853 10.0423C17.1508 9.91122 17.2163 9.79654 17.2491 9.6491C17.3474 9.22316 17.2982 8.79722 17.2163 8.37129C17.2 8.30576 17.1672 8.24023 17.1017 8.20746C17.0689 8.19108 17.0525 8.1747 17.0197 8.15832C16.0532 7.53579 14.9883 7.22453 13.8416 7.17538C13.2846 7.14262 12.7276 7.19176 12.1706 7.29006C11.9576 7.32282 12.0232 7.3392 11.8921 7.17538C11.4825 6.7003 11.0238 6.25797 10.4996 5.89757C10.3522 5.79927 10.1883 5.71736 10.0409 5.61907H10.0245C10.0245 5.60268 10.0081 5.60268 9.99176 5.60268H9.97538C9.97538 5.5863 9.959 5.5863 9.94261 5.5863H9.92623C9.90985 5.56992 9.89347 5.56992 9.87708 5.56992C9.8607 5.55354 9.84432 5.55354 9.82794 5.55354H9.81156C9.79517 5.55354 9.79517 5.53716 9.77879 5.53716H9.76241C9.74603 5.52077 9.72964 5.52077 9.71326 5.52077H9.69688L9.6805 5.50439H9.66411C9.64773 5.48801 9.63135 5.48801 9.61497 5.48801H9.59859C9.5822 5.47163 9.56582 5.47163 9.54944 5.47163H9.53306C9.5822 5.56992 9.56582 5.56992 9.54944 5.56992H9.53306C9.51667 5.55354 9.50029 5.55354 9.48391 5.55354H9.46753C9.45115 5.53716 9.43476 5.53716 9.41838 5.53716C9.402 5.53716 9.402 5.53716 9.38562 5.53716C9.36923 5.52077 9.35285 5.52077 9.33647 5.52077C9.32009 5.52077 9.30371 5.52077 9.30371 5.52077C9.28732 5.50439 9.27094 5.50439 9.25456 5.50439C9.23818 5.50439 9.22179 5.50439 9.22179 5.50439C9.20541 5.48801 9.17265 5.48801 9.15627 5.48801C9.13988 5.48801 9.1235 5.48801 9.1235 5.48801C9.10712 5.47163 9.07435 5.47163 9.05797 5.47163C9.04159 5.47163 9.02521 5.47163 9.00882 5.47163C8.97606 5.43886 8.9433 5.45524 8.92691 5.45524C8.89415 5.45524 8.87777 5.45524 8.845 5.45524C8.79586 5.38972 8.76309 5.4061 8.73033 5.4061C8.69756 5.4061 8.6648 5.4061 8.63203 5.4061C8.58289 5.37333 8.53374 5.38972 8.48459 5.38972C8.48459 5.38972 8.48459 5.38972 8.50098 5.38972C8.50098 5.38972 8.50097 5.38972 8.48459 5.38972C8.3863 5.38972 8.28801 5.38972 8.18971 5.38972C8.15695 5.38972 8.12418 5.37333 8.09142 5.4061C8.07504 5.4061 8.05865 5.4061 8.04227 5.4061C8.00951 5.43886 8.05865 5.43886 8.07504 5.43886Z" fill="white"/>
<path d="M2.97732 16.6935C2.97732 16.7099 2.96094 16.7099 2.96094 16.7262C2.96094 16.7099 2.96094 16.7099 2.97732 16.6935Z" fill="white"/>
<path d="M3.07422 16.4641L3.0906 16.4478C3.0906 16.4478 3.0906 16.4478 3.07422 16.4641Z" fill="white"/>
<path d="M6.76208 19.8061L6.77847 19.7898L6.79485 19.7734L6.81123 19.757L6.82761 19.7406L6.84399 19.7242L6.86038 19.7079L6.87676 19.6915C6.89314 19.6915 6.89314 19.6751 6.89314 19.6751C6.90952 19.6751 6.90952 19.6587 6.90952 19.6587C6.92591 19.6587 6.92591 19.6423 6.92591 19.6423C6.94229 19.6423 6.94229 19.6259 6.95867 19.6096L6.97505 19.5932L6.99144 19.5768C7.00782 19.5768 7.00782 19.5604 7.00782 19.544V19.5276L7.0242 19.5113C7.04058 19.5113 7.04058 19.4949 7.04058 19.4949C7.05696 19.4949 7.05696 19.4785 7.05696 19.4621C7.07335 19.4621 7.07335 19.4457 7.07335 19.4294C7.08973 19.4294 7.08973 19.413 7.08973 19.3966C7.10611 19.3802 7.10611 19.3638 7.10611 19.3474C7.12249 19.3311 7.12249 19.3147 7.12249 19.2983C7.15526 19.2819 7.13888 19.2491 7.13888 19.2328V19.2164C7.17164 19.1836 7.15526 19.1509 7.15526 19.1017C7.15526 19.1017 7.15526 19.1017 7.15526 19.1181C7.15526 19.1181 7.15526 19.1181 7.15526 19.1017C7.15526 19.0853 7.15526 19.0689 7.15526 19.0689C7.15526 19.0526 7.17164 19.0526 7.17164 19.0362C7.17164 18.8887 7.17164 18.7413 7.17164 18.6102C7.17164 18.5939 7.15526 18.5939 7.15526 18.5775C7.15526 18.5611 7.15526 18.5611 7.15526 18.5447C7.15526 18.5119 7.17164 18.4792 7.13888 18.4628C7.13888 18.4464 7.13888 18.4137 7.12249 18.3973C7.12249 18.3809 7.12249 18.3645 7.10611 18.3481C7.10611 18.3481 7.10611 18.3481 7.10611 18.3317C7.10611 18.3154 7.10611 18.299 7.08973 18.2826C7.08973 18.2662 7.08973 18.2498 7.07335 18.2334L7.05696 18.2171C7.05696 18.2171 7.05696 18.2171 7.05696 18.2007C7.05696 18.1843 7.05696 18.1843 7.04058 18.1679C6.87676 17.9386 6.68017 17.7747 6.45082 17.6109C6.36891 17.5454 6.287 17.4962 6.1887 17.4307C5.97574 17.2833 5.76277 17.1195 5.58256 16.9229C5.30406 16.6116 5.17301 16.2676 5.18939 15.858C5.18939 15.6287 5.2713 15.4157 5.35321 15.2191C5.46789 14.9242 5.61533 14.6294 5.74638 14.3345C5.92659 13.9413 6.05765 13.5317 6.09041 13.0894C6.12318 12.8437 6.12318 12.5816 6.17232 12.3358C6.20509 12.172 6.23785 12.0082 6.35253 11.8608C6.49997 11.6805 6.68017 11.5986 6.89314 11.5659C7.12249 11.5331 7.35184 11.5003 7.5812 11.4348C7.94161 11.3365 8.25287 11.1727 8.51499 10.8942C8.66243 10.7468 8.76072 10.5666 8.80986 10.37C8.85901 10.1898 8.84263 10.0096 8.85901 9.81297C8.85901 9.78021 8.84263 9.76382 8.80986 9.73106C8.56413 9.45256 8.30202 9.17406 8.05628 8.89556C7.89246 8.69898 7.71225 8.51877 7.54843 8.32218C7.54843 8.3058 7.53205 8.3058 7.53205 8.3058C7.53205 8.28942 7.51567 8.28942 7.51567 8.28942C7.51567 8.27304 7.49928 8.27304 7.49928 8.27304L7.4829 8.25666L7.46652 8.24027L7.45014 8.22389L7.43376 8.20751C7.43376 8.19113 7.43376 8.17474 7.40099 8.17474C7.40099 8.15836 7.38461 8.15836 7.38461 8.15836C7.38461 8.14198 7.36823 8.14198 7.36823 8.14198C7.36823 8.1256 7.35184 8.1256 7.35184 8.1256C7.35184 8.10921 7.33546 8.10922 7.33546 8.10922C7.33546 8.09283 7.31908 8.09283 7.31908 8.09283L7.3027 8.07645L7.28632 8.06007L7.26993 8.04369L7.25355 8.0273C7.25355 8.0273 7.23717 8.0273 7.23717 8.01092C7.23717 7.99454 7.22079 7.99454 7.22079 7.97816C7.22079 7.96178 7.2044 7.96177 7.2044 7.96177C7.2044 7.94539 7.18802 7.94539 7.18802 7.94539C7.18802 7.92901 7.17164 7.92901 7.17164 7.92901C7.17164 7.91263 7.15526 7.91263 7.15526 7.91263L7.13888 7.89625L7.12249 7.87986L7.10611 7.86348L7.08973 7.8471C7.08973 7.83072 7.08973 7.81433 7.05696 7.81433C7.05696 7.79795 7.04058 7.79795 7.04058 7.79795C7.04058 7.78157 7.0242 7.78157 7.0242 7.78157C7.0242 7.76519 7.00782 7.76519 7.00782 7.76519C7.00782 7.74881 6.99144 7.74881 6.99144 7.74881C6.99144 7.73242 6.97505 7.73242 6.97505 7.73242L6.95867 7.71604L6.94229 7.69966L6.92591 7.68328L6.90952 7.66689C6.90952 7.65051 6.89314 7.63413 6.87676 7.63413C6.87676 7.61775 6.86038 7.61775 6.86038 7.61775C6.86038 7.60137 6.84399 7.60137 6.84399 7.60137C6.84399 7.58498 6.82761 7.58498 6.82761 7.58498C6.82761 7.5686 6.81123 7.5686 6.81123 7.5686C6.81123 7.55222 6.79485 7.55222 6.79485 7.55222L6.77847 7.53584L6.76208 7.51945L6.7457 7.50307L6.72932 7.48669C6.72932 7.48669 6.71294 7.48669 6.71294 7.47031C6.71294 7.45393 6.69656 7.45393 6.69656 7.43754C6.69656 7.42116 6.68017 7.42116 6.68017 7.42116C6.68017 7.40478 6.66379 7.40478 6.66379 7.40478C6.66379 7.3884 6.64741 7.3884 6.64741 7.3884C6.64741 7.37201 6.63103 7.37201 6.63103 7.37201L6.61464 7.35563L6.59826 7.33925L6.58188 7.32287L6.5655 7.30648C6.5655 7.2901 6.5655 7.27372 6.53273 7.27372C6.53273 7.25734 6.51635 7.25734 6.51635 7.25734C6.51635 7.24096 6.49997 7.24096 6.49997 7.24096C6.49997 7.22457 6.48359 7.22457 6.48359 7.22457C6.48359 7.20819 6.4672 7.20819 6.4672 7.20819C6.4672 7.19181 6.45082 7.19181 6.45082 7.19181L6.43444 7.17543L6.41806 7.15904L6.40167 7.14266L6.38529 7.12628C6.38529 7.1099 6.38529 7.09352 6.35253 7.09352C6.35253 7.07713 6.33615 7.07713 6.33615 7.07713C6.33615 7.06075 6.31976 7.06075 6.31976 7.06075C6.31976 7.04437 6.30338 7.04437 6.30338 7.04437C6.30338 7.02799 6.287 7.02799 6.287 7.02799C6.287 7.0116 6.27062 7.0116 6.27062 7.0116L6.25423 6.99522L6.23785 6.97884L6.22147 6.96246L6.20509 6.94608C6.20509 6.92969 6.1887 6.91331 6.17232 6.91331C6.17232 6.89693 6.15594 6.89693 6.15594 6.89693C6.15594 6.88055 6.13956 6.88055 6.13956 6.88055C6.13956 6.86416 6.12318 6.86416 6.12318 6.86416C6.12318 6.84778 6.10679 6.84778 6.10679 6.84778C6.10679 6.8314 6.09041 6.8314 6.09041 6.8314L6.07403 6.81502L6.05765 6.79864L6.04127 6.78225L6.02488 6.76587C6.02488 6.76587 6.0085 6.76587 6.0085 6.74949V6.73311C6.0085 6.73311 6.0085 6.73311 5.99212 6.73311C5.99212 6.71672 5.97574 6.71672 5.97574 6.71672C5.97574 6.70034 5.95935 6.70034 5.95935 6.70034C5.95935 6.68396 5.94297 6.68396 5.94297 6.68396C5.94297 6.66758 5.92659 6.66758 5.92659 6.66758C5.92659 6.6512 5.91021 6.65119 5.91021 6.65119L5.89382 6.63481L5.87744 6.61843L5.86106 6.60205L5.84468 6.58567C5.84468 6.58567 5.8283 6.58567 5.8283 6.56928C5.8283 6.5529 5.81191 6.5529 5.81191 6.53652C5.81191 6.52014 5.79553 6.52014 5.79553 6.52014C5.79553 6.50375 5.77915 6.50375 5.77915 6.50375C5.77915 6.48737 5.76277 6.48737 5.76277 6.48737C5.76277 6.47099 5.74638 6.47099 5.74638 6.47099L5.73 6.45461L5.71362 6.43823L5.69724 6.42184L5.68086 6.40546L5.66447 6.38908C5.66447 6.38908 5.64809 6.38908 5.64809 6.3727C5.64809 6.35631 5.63171 6.35631 5.63171 6.33993C5.63171 6.32355 5.61533 6.32355 5.61533 6.32355C5.61533 6.30717 5.59894 6.30717 5.59894 6.30717C5.59894 6.29079 5.58256 6.29079 5.58256 6.29079C5.58256 6.2744 5.56618 6.2744 5.56618 6.2744L5.5498 6.25802L5.53341 6.24164L5.51703 6.22526L5.50065 6.20887L5.48427 6.19249C5.48427 6.19249 5.46789 6.19249 5.46789 6.17611C5.46789 6.15973 5.4515 6.15973 5.4515 6.14334C5.4515 6.12696 5.43512 6.12696 5.43512 6.12696C5.43512 6.11058 5.41874 6.11058 5.41874 6.11058C5.41874 6.0942 5.40236 6.0942 5.40236 6.0942C5.40236 6.07782 5.38597 6.07782 5.38597 6.07782L5.36959 6.06143L5.35321 6.04505L5.33683 6.02867L5.32045 6.01229C5.32045 5.9959 5.32045 5.97952 5.28768 5.97952C5.28768 5.96314 5.2713 5.96314 5.2713 5.96314C5.2713 5.94676 5.25492 5.94676 5.25492 5.94676C5.25492 5.93038 5.23853 5.93038 5.23853 5.93038C5.23853 5.91399 5.22215 5.91399 5.22215 5.91399C5.22215 5.89761 5.20577 5.89761 5.20577 5.89761L5.18939 5.88123L5.17301 5.86485L5.15662 5.84846L5.14024 5.83208C5.14024 5.8157 5.14024 5.79932 5.10748 5.79932C5.10748 5.78294 5.09109 5.78294 5.09109 5.78294C5.09109 5.76655 5.07471 5.76655 5.07471 5.76655C5.07471 5.75017 5.05833 5.75017 5.05833 5.75017C5.05833 5.73379 5.04195 5.73379 5.04195 5.73379C5.04195 5.71741 5.02557 5.71741 5.02557 5.71741L5.00918 5.70102L4.9928 5.68464L4.97642 5.66826L4.96004 5.65188C4.96004 5.6355 4.96004 5.61911 4.92727 5.61911C4.92727 5.60273 4.91089 5.60273 4.91089 5.60273C4.91089 5.58635 4.89451 5.58635 4.89451 5.58635C4.89451 5.56997 4.87812 5.56997 4.87812 5.56997C4.87812 5.55358 4.86174 5.55358 4.86174 5.55358C4.86174 5.5372 4.84536 5.5372 4.84536 5.5372L4.82898 5.52082L4.8126 5.50444L4.79621 5.48805L4.77983 5.47167L4.76345 5.45529C4.76345 5.45529 4.74707 5.45529 4.74707 5.43891C4.74707 5.42253 4.73068 5.42253 4.73068 5.40614C4.73068 5.38976 4.7143 5.38976 4.7143 5.38976C4.7143 5.37338 4.69792 5.37338 4.69792 5.37338C4.69792 5.357 4.68154 5.357 4.68154 5.357C4.68154 5.34061 4.66516 5.34061 4.66516 5.34061L4.64877 5.32423L4.63239 5.30785L4.61601 5.29147L4.59963 5.27509L4.58324 5.2587C4.58324 5.2587 4.56686 5.2587 4.56686 5.24232C4.56686 5.22594 4.55048 5.22594 4.55048 5.20956C4.55048 5.19317 4.5341 5.19317 4.5341 5.19317C4.5341 5.17679 4.51772 5.17679 4.51772 5.17679C4.51772 5.16041 4.50133 5.16041 4.50133 5.16041C4.50133 5.14403 4.48495 5.14403 4.48495 5.14403L4.46857 5.12765L4.45219 5.11126L4.4358 5.09488L4.41942 5.0785L4.40304 5.06212C4.40304 5.06212 4.38666 5.06212 4.38666 5.04573C4.38666 5.02935 4.37028 5.02935 4.37028 5.01297C4.37028 4.99659 4.35389 4.99659 4.35389 4.99659C4.35389 4.98021 4.33751 4.98021 4.33751 4.98021C4.33751 4.96382 4.32113 4.96382 4.32113 4.96382C4.32113 4.94744 4.30475 4.94744 4.30475 4.94744C4.30475 4.93106 4.28836 4.93106 4.28836 4.93106L4.27198 4.91468L4.2556 4.89829L4.23922 4.88191L4.22283 4.86553C4.22283 4.86553 4.20645 4.86553 4.20645 4.84915C4.20645 4.84915 4.20645 4.84915 4.20645 4.83276C4.20645 4.83276 4.19007 4.83276 4.19007 4.81638C4.19007 4.8 4.17369 4.8 4.17369 4.8C4.17369 4.78362 4.15731 4.78362 4.15731 4.78362C4.15731 4.76724 4.14092 4.76724 4.14092 4.76724C4.14092 4.75085 4.12454 4.75085 4.12454 4.75085C4.12454 4.73447 4.10816 4.73447 4.10816 4.73447L4.09178 4.71809L4.07539 4.70171L4.05901 4.68532L4.04263 4.66894C4.04263 4.65256 4.04263 4.63618 4.00987 4.63618C4.00987 4.6198 3.99348 4.6198 3.99348 4.6198C3.99348 4.60341 3.9771 4.60341 3.9771 4.60341C3.9771 4.58703 3.96072 4.58703 3.96072 4.58703C3.96072 4.57065 3.94434 4.57065 3.94434 4.57065C3.94434 4.55427 3.92795 4.55427 3.92795 4.55427L3.91157 4.53788L3.89519 4.5215L3.87881 4.50512L3.86243 4.48874C3.86243 4.47235 3.86243 4.45597 3.82966 4.45597C3.82966 4.43959 3.81328 4.43959 3.81328 4.43959C3.81328 4.42321 3.7969 4.42321 3.7969 4.42321C3.7969 4.40683 3.78051 4.40683 3.78051 4.40683C3.78051 4.39044 3.76413 4.39044 3.76413 4.39044C3.76413 4.37406 3.74775 4.37406 3.74775 4.37406L3.73137 4.35768L3.71498 4.3413L3.6986 4.32491L3.68222 4.30853C3.68222 4.29215 3.68222 4.27577 3.64946 4.27577C3.64946 4.25939 3.63307 4.25939 3.63307 4.25939C3.63307 4.243 3.61669 4.243 3.61669 4.243C3.61669 4.22662 3.60031 4.22662 3.60031 4.22662C3.60031 4.21024 3.58393 4.21024 3.58393 4.21024C3.58393 4.19386 3.56754 4.19386 3.56754 4.19386L3.55116 4.17747L3.53478 4.16109L3.5184 4.14471L3.50202 4.12833L3.48563 4.11195C3.48563 4.11195 3.46925 4.11195 3.46925 4.09556C3.46925 4.07918 3.45287 4.07918 3.45287 4.0628C3.45287 4.04642 3.43649 4.04642 3.43649 4.04642C3.43649 4.03003 3.4201 4.03003 3.4201 4.03003C3.4201 4.01365 3.40372 4.01365 3.40372 4.01365C3.40372 3.99727 3.38734 3.99727 3.38734 3.99727C3.38734 3.98089 3.37096 3.98089 3.37096 3.98089L3.35458 3.96451L3.33819 3.94812L3.32181 3.93174L3.30543 3.91536C3.30543 3.89898 3.28905 3.88259 3.27266 3.88259C3.27266 3.86621 3.25628 3.86621 3.25628 3.86621C3.25628 3.84983 3.2399 3.84983 3.2399 3.84983C3.2399 3.83345 3.22352 3.83345 3.22352 3.83345C3.22352 3.81707 3.20714 3.81706 3.20714 3.81706C3.20714 3.80068 3.19075 3.80068 3.19075 3.80068L3.17437 3.7843L3.15799 3.76792L3.14161 3.75154L3.12522 3.73515C3.12522 3.71877 3.12522 3.70239 3.09246 3.70239C3.09246 3.68601 3.07608 3.68601 3.07608 3.68601C3.07608 3.66962 3.0597 3.66962 3.0597 3.66962C3.0597 3.65324 3.04331 3.65324 3.04331 3.65324C3.04331 3.63686 3.02693 3.63686 3.02693 3.63686C3.02693 3.62048 3.01055 3.62048 3.01055 3.62048L2.99417 3.6041L2.97778 3.58771L2.9614 3.57133L2.94502 3.55495L2.92864 3.53857C2.92864 3.53857 2.91225 3.53857 2.91225 3.52218C2.91225 3.52218 2.91225 3.52218 2.91225 3.5058C2.91225 3.5058 2.91225 3.5058 2.89587 3.5058C2.89587 3.48942 2.87949 3.48942 2.87949 3.48942C2.87949 3.47304 2.86311 3.47304 2.86311 3.47304C2.86311 3.45666 2.84673 3.45666 2.84673 3.45666C2.84673 3.44027 2.83034 3.44027 2.83034 3.44027C2.83034 3.42389 2.81396 3.42389 2.81396 3.42389L2.79758 3.40751L2.7812 3.39113L2.76481 3.37474L2.74843 3.35836C2.74843 3.34198 2.74843 3.3256 2.71567 3.3256C2.71567 3.30922 2.69929 3.30922 2.69929 3.30922C2.69929 3.29283 2.6829 3.29283 2.6829 3.29283C2.6829 3.27645 2.66652 3.27645 2.66652 3.27645C2.66652 3.26007 2.65014 3.26007 2.65014 3.26007C2.65014 3.24369 2.63376 3.24369 2.63376 3.24369L2.61737 3.2273L2.60099 3.21092L2.58461 3.19454L2.56823 3.17816L2.55185 3.16177C2.55185 3.16177 2.53546 3.16177 2.53546 3.14539C2.53546 3.12901 2.51908 3.12901 2.51908 3.11263C2.51908 3.09625 2.5027 3.09625 2.5027 3.09625C2.5027 3.07986 2.48632 3.07986 2.48632 3.07986C2.48632 3.06348 2.46993 3.06348 2.46993 3.06348C2.46993 3.0471 2.45355 3.0471 2.45355 3.0471C2.45355 3.03072 2.43717 3.03072 2.43717 3.03072L2.42079 3.01433L2.4044 2.99795L2.38802 2.98157L2.37164 2.96519C2.37164 2.94881 2.37164 2.93242 2.33888 2.93242C1.56891 1.5727 1.55253 1.5727 1.55253 1.5727C1.55253 1.55631 1.53615 1.55631 1.53615 1.55631C1.53615 1.53993 1.51976 1.53993 1.51976 1.53993C1.51976 1.52355 1.50338 1.52355 1.50338 1.52355C1.50338 1.50717 1.487 1.50717 1.487 1.50717L1.47062 1.49079L1.45423 1.4744L1.43785 1.45802L1.42147 1.44164L1.40509 1.42526C1.40509 1.40887 1.40509 1.39249 1.37232 1.39249C1.37232 1.37611 1.35594 1.37611 1.35594 1.37611C1.35594 1.35973 1.33956 1.35973 1.33956 1.35973C1.33956 1.34334 1.32318 1.34334 1.32318 1.34334C1.32318 1.32696 1.30679 1.32696 1.30679 1.32696C1.30679 1.31058 1.29041 1.31058 1.29041 1.31058L1.27403 1.2942L1.25765 1.27782L1.24126 1.26143L1.22488 1.24505L1.2085 1.22867C1.2085 1.21229 1.19212 1.1959 1.17574 1.1959C1.17574 1.17952 1.15935 1.17952 1.15935 1.17952C1.15935 1.16314 1.14297 1.16314 1.14297 1.16314C1.06106 1.03208 1.06106 1.03208 1.04468 1.0157C1.04468 0.999317 1.0283 0.999317 1.0283 0.999317C1.01191 0.999317 1.01191 0.982935 1.01191 0.982935L0.995531 0.966553L0.979149 0.950171L0.962767 0.933788L0.946384 0.917406L0.930002 0.901024C0.897238 0.851877 0.897238 0.835495 0.880855 0.835495C0.880855 0.819113 0.864473 0.819113 0.848091 0.819113C0.848091 0.80273 0.831709 0.80273 0.831709 0.80273C0.831709 0.786348 0.815326 0.786348 0.815326 0.786348C0.815326 0.769966 0.798944 0.769966 0.798944 0.769966C0.798944 0.753584 0.782562 0.753584 0.782562 0.753584L0.76618 0.737201L0.749797 0.720819L0.733415 0.704437L0.717033 0.688055L0.700651 0.671672C0.700651 0.65529 0.700651 0.638908 0.667886 0.638908C0.667886 0.622526 0.651504 0.622526 0.651504 0.622526C0.651504 0.606143 0.635122 0.606143 0.635122 0.606143C0.635122 0.589761 0.618739 0.589761 0.618739 0.589761C0.585975 0.50785 0.569593 0.50785 0.569593 0.491468C0.55321 0.491468 0.55321 0.491468 0.536828 0.475085C0.536828 0.458703 0.520446 0.458703 0.520446 0.458703L0.504064 0.442321L0.487681 0.425939L0.471299 0.409556L0.454917 0.393174L0.438535 0.376792C0.422152 0.327645 0.40577 0.311263 0.389388 0.311263C0.389388 0.294881 0.373006 0.294881 0.373006 0.294881C0.373006 0.278498 0.356623 0.278498 0.356623 0.278498C0.356623 0.262116 0.340241 0.262116 0.340241 0.262116L0.323859 0.245734L0.307477 0.229352L0.291094 0.212969L0.274712 0.196587L0.25833 0.180205L0.241948 0.163823L0.225565 0.14744C0.225565 0.14744 0.225565 0.131058 0.209183 0.131058C0.160036 0.0819113 0.160036 0.065529 0.143654 0.065529V0.0491468C0.143654 0.0327645 0.127272 0.0327645 0.127272 0.0327645H0.11089C0.0945073 0 0.0945073 0 0.078125 0V0.0163823C0.078125 0.0327645 0.0945073 0.0491468 0.0945073 0.0491468L0.11089 0.065529L0.127272 0.0819113L0.143654 0.0982935C0.143654 0.0982935 0.143654 0.114676 0.160036 0.114676C0.160036 0.114676 0.160036 0.131058 0.176419 0.131058C0.176419 0.14744 0.192801 0.14744 0.192801 0.163823C0.192801 0.180205 0.209183 0.180205 0.209183 0.180205C0.241948 0.212969 0.241948 0.212969 0.241948 0.229352L0.25833 0.245734L0.274712 0.262116C0.274712 0.278498 0.291094 0.278498 0.291094 0.294881C0.291094 0.311263 0.307477 0.311263 0.307477 0.311263L0.323859 0.327645L0.340241 0.344027C0.340241 0.36041 0.340241 0.376792 0.373006 0.376792C0.373006 0.393174 0.389388 0.393174 0.389388 0.393174C0.40577 0.425939 0.40577 0.425939 0.422152 0.442321L0.438535 0.458703C0.438535 0.475085 0.438535 0.491468 0.471299 0.491468C0.471299 0.50785 0.487681 0.50785 0.487681 0.50785C0.487681 0.524232 0.504064 0.524232 0.504064 0.524232L0.520446 0.540614C0.520446 0.556997 0.520446 0.573379 0.55321 0.573379C0.55321 0.589761 0.569593 0.589761 0.569593 0.589761C0.569593 0.606143 0.585975 0.606143 0.585975 0.606143L0.602357 0.622526L0.618739 0.638908C0.618739 0.638908 0.635122 0.638908 0.635122 0.65529C0.635122 0.671672 0.635122 0.671672 0.651504 0.688055C0.651504 0.704437 0.667886 0.704437 0.667886 0.704437C0.667886 0.720819 0.684268 0.720819 0.684268 0.720819L0.700651 0.737201C0.700651 0.753584 0.700651 0.769966 0.733415 0.769966C0.733415 0.786348 0.749797 0.786348 0.749797 0.786348C0.749797 0.80273 0.76618 0.80273 0.76618 0.80273L0.782562 0.819113L0.798944 0.835495C0.798944 0.851877 0.798944 0.868259 0.831709 0.868259C0.831709 0.884642 0.848091 0.884642 0.848091 0.884642C0.848091 0.901024 0.864473 0.901024 0.864473 0.901024L0.880855 0.917406L0.897238 0.933788C0.897238 0.933788 0.91362 0.933788 0.91362 0.950171C0.91362 0.966553 0.91362 0.966553 0.930002 0.982935C0.930002 0.999317 0.946384 0.999317 0.946384 0.999317C0.946384 1.0157 0.962767 1.0157 0.962767 1.0157L0.979149 1.03208C0.979149 1.04846 0.979149 1.06485 1.01191 1.06485C1.01191 1.08123 1.0283 1.08123 1.0283 1.08123C1.0283 1.09761 1.04468 1.09761 1.04468 1.09761C1.04468 1.09761 1.04468 1.09761 1.04468 1.11399C1.04468 1.11399 1.04468 1.13038 1.06106 1.13038L1.07744 1.14676C1.07744 1.16314 1.07744 1.17952 1.11021 1.17952C1.11021 1.1959 1.12659 1.1959 1.12659 1.1959C1.12659 1.21229 1.14297 1.21229 1.14297 1.21229L1.15935 1.22867L1.17574 1.24505C1.17574 1.24505 1.19212 1.24505 1.19212 1.26143C1.19212 1.27782 1.19212 1.27782 1.2085 1.2942C1.2085 1.31058 1.22488 1.31058 1.22488 1.31058L1.24126 1.32696L1.25765 1.34334C1.25765 1.35973 1.25765 1.37611 1.29041 1.37611C1.29041 1.39249 1.30679 1.39249 1.30679 1.39249C1.30679 1.40887 1.32318 1.40887 1.32318 1.40887L1.33956 1.42526L1.35594 1.44164C1.35594 1.44164 1.37232 1.44164 1.37232 1.45802C1.37232 1.4744 1.37232 1.4744 1.38871 1.49079C1.38871 1.50717 1.40509 1.50717 1.40509 1.50717C1.40509 1.52355 1.42147 1.52355 1.42147 1.52355L1.43785 1.53993C1.43785 1.55631 1.43785 1.5727 1.47062 1.5727C1.47062 1.58908 1.487 1.58908 1.487 1.58908C1.487 1.60546 1.50338 1.60546 1.50338 1.60546C1.50338 1.60546 1.50338 1.60546 1.50338 1.62184C1.50338 1.62184 1.50338 1.63823 1.51976 1.63823L1.53615 1.65461C1.53615 1.67099 1.53615 1.68737 1.56891 1.68737C1.56891 1.70375 1.58529 1.70375 1.58529 1.70375C1.58529 1.72014 1.60167 1.72014 1.60167 1.72014L1.61806 1.73652C1.61806 1.7529 1.61806 1.76928 1.65082 1.76928C1.65082 1.78567 1.6672 1.78567 1.6672 1.78567C1.6672 1.80205 1.68359 1.80205 1.68359 1.80205L1.69997 1.81843L1.71635 1.83481C1.71635 1.85119 1.71635 1.86758 1.74911 1.86758C1.74911 1.88396 1.7655 1.88396 1.7655 1.88396C1.7655 1.90034 1.78188 1.90034 1.78188 1.90034L1.79826 1.91672L1.81464 1.93311C1.81464 1.93311 1.83103 1.93311 1.83103 1.94949C1.83103 1.96587 1.83103 1.96587 1.84741 1.98225C1.84741 1.99863 1.86379 1.99863 1.86379 1.99863C1.86379 2.01502 1.88017 2.01502 1.88017 2.01502L1.89655 2.0314C1.89655 2.04778 1.89655 2.06416 1.92932 2.06416C1.92932 2.08055 1.9457 2.08055 1.9457 2.08055C1.9457 2.09693 1.96208 2.09693 1.96208 2.09693L1.97847 2.11331L1.99485 2.12969C1.99485 2.12969 2.01123 2.12969 2.01123 2.14608C2.01123 2.16246 2.01123 2.16246 2.02761 2.17884C2.02761 2.19522 2.044 2.19522 2.044 2.19522C2.044 2.2116 2.06038 2.2116 2.06038 2.2116L2.07676 2.22799C2.07676 2.24437 2.07676 2.26075 2.10952 2.26075C2.10952 2.27713 2.12591 2.27713 2.12591 2.27713C2.12591 2.29352 2.14229 2.29352 2.14229 2.29352C2.14229 2.29352 2.14229 2.29352 2.14229 2.3099C2.14229 2.3099 2.14229 2.32628 2.15867 2.32628L2.17505 2.34266C2.17505 2.34266 2.19144 2.34266 2.17505 2.35904C2.17505 2.37543 2.19144 2.37543 2.19144 2.39181C2.19144 2.40819 2.20782 2.40819 2.20782 2.40819C2.20782 2.42457 2.2242 2.42457 2.2242 2.42457L2.24058 2.44096C2.24058 2.45734 2.24058 2.47372 2.27335 2.47372C2.27335 2.4901 2.28973 2.4901 2.28973 2.4901C2.28973 2.50648 2.30611 2.50648 2.30611 2.50648C2.30611 2.50648 2.30611 2.52287 2.32249 2.52287L2.33888 2.53925C2.33888 2.55563 2.33888 2.57201 2.37164 2.57201C2.37164 2.5884 2.38802 2.5884 2.38802 2.5884C2.38802 2.60478 2.4044 2.60478 2.4044 2.60478L2.42079 2.62116L2.43717 2.63754C2.43717 2.63754 2.45355 2.63754 2.45355 2.65393C2.45355 2.67031 2.45355 2.67031 2.46993 2.68669C2.46993 2.70307 2.48632 2.70307 2.48632 2.70307L2.5027 2.71945L2.51908 2.73584C2.51908 2.75222 2.51908 2.7686 2.55185 2.7686C2.55185 2.78498 2.56823 2.78498 2.56823 2.78498C2.56823 2.80137 2.58461 2.80137 2.58461 2.80137L2.60099 2.81775L2.61737 2.83413C2.61737 2.83413 2.63376 2.83413 2.63376 2.85051C2.63376 2.86689 2.63376 2.86689 2.65014 2.88328C2.65014 2.89966 2.66652 2.89966 2.66652 2.89966C2.66652 2.91604 2.6829 2.91604 2.6829 2.91604L2.69929 2.93242C2.69929 2.94881 2.69929 2.96519 2.73205 2.96519C2.73205 2.98157 2.74843 2.98157 2.74843 2.98157C2.74843 2.99795 2.76481 2.99795 2.76481 2.99795L2.7812 3.01433L2.79758 3.03072C2.79758 3.03072 2.81396 3.03072 2.81396 3.0471C2.81396 3.06348 2.81396 3.06348 2.83034 3.07986C2.83034 3.09625 2.84673 3.09625 2.84673 3.09625C2.84673 3.11263 2.86311 3.11263 2.86311 3.11263L2.87949 3.12901C2.87949 3.14539 2.87949 3.16177 2.91225 3.16177C2.91225 3.17816 2.92864 3.17816 2.92864 3.17816C2.92864 3.19454 2.94502 3.19454 2.94502 3.19454L2.9614 3.21092L2.97778 3.2273C2.97778 3.2273 2.99417 3.2273 2.99417 3.24369C2.99417 3.26007 2.99417 3.26007 3.01055 3.27645C3.01055 3.29283 3.02693 3.29283 3.02693 3.29283C3.02693 3.30922 3.04331 3.30922 3.04331 3.30922L3.0597 3.3256C3.0597 3.34198 3.05969 3.35836 3.09246 3.35836C3.09246 3.37474 3.10884 3.37474 3.10884 3.37474C3.10884 3.39113 3.12522 3.39113 3.12522 3.39113L3.14161 3.40751L3.15799 3.42389C3.15799 3.42389 3.17437 3.42389 3.17437 3.44027C3.17437 3.45666 3.17437 3.45666 3.19075 3.47304C3.19075 3.48942 3.20714 3.48942 3.20714 3.48942C3.20714 3.5058 3.22352 3.5058 3.22352 3.5058L3.2399 3.52218C3.2399 3.53857 3.2399 3.55495 3.27266 3.55495C3.27266 3.57133 3.28905 3.57133 3.28905 3.57133C3.28905 3.58771 3.30543 3.58771 3.30543 3.58771L3.32181 3.6041L3.33819 3.62048C3.33819 3.62048 3.35458 3.62048 3.35458 3.63686C3.35458 3.65324 3.35458 3.65324 3.37096 3.66962C3.37096 3.68601 3.38734 3.68601 3.38734 3.68601C3.38734 3.70239 3.40372 3.70239 3.40372 3.70239L3.4201 3.71877C3.4201 3.73515 3.4201 3.75154 3.45287 3.75154C3.45287 3.76792 3.46925 3.76792 3.46925 3.76792C3.46925 3.7843 3.48563 3.7843 3.48563 3.7843L3.50202 3.80068L3.5184 3.81706C3.5184 3.81706 3.53478 3.81707 3.5184 3.83345C3.5184 3.84983 3.5184 3.84983 3.53478 3.86621C3.53478 3.88259 3.55116 3.88259 3.55116 3.88259C3.55116 3.89898 3.56754 3.89898 3.56754 3.89898L3.58393 3.91536C3.58393 3.93174 3.58393 3.94812 3.61669 3.94812C3.61669 3.96451 3.63307 3.96451 3.63307 3.96451C3.66584 3.98089 3.68222 4.01365 3.6986 4.03003C4.02625 4.43959 4.37028 4.83276 4.69792 5.24232C5.73 6.52014 6.76208 7.78157 7.79417 9.05939C7.84331 9.10853 7.87608 9.15768 7.90884 9.22321C8.00713 9.38703 7.99075 9.53447 7.85969 9.66553C7.79417 9.74744 7.69587 9.79659 7.61396 9.82935C7.45014 9.89488 7.28632 9.94403 7.12249 9.97679C7.04058 9.99317 6.97505 9.99317 6.89314 9.99317C6.64741 9.96041 6.43444 9.84573 6.287 9.63276C6.05765 9.3215 5.84468 9.01024 5.63171 8.68259C4.91089 7.58498 4.20645 6.45461 3.48563 5.357C3.46925 5.34061 3.46925 5.32423 3.45287 5.30785C3.45287 5.29147 3.45287 5.29147 3.43649 5.27509L3.4201 5.2587C3.4201 5.2587 3.40372 5.2587 3.4201 5.24232C3.4201 5.22594 3.4201 5.22594 3.40372 5.20956C3.40372 5.19317 3.40372 5.17679 3.38734 5.17679C3.38734 5.16041 3.38734 5.16041 3.37096 5.16041C3.37096 5.14403 3.37096 5.12765 3.35458 5.12765C3.35458 5.11126 3.33819 5.11126 3.33819 5.11126C3.33819 5.09488 3.33819 5.0785 3.32181 5.0785C3.32181 5.06212 3.30543 5.06212 3.30543 5.06212C3.30543 5.04573 3.30543 5.02935 3.28905 5.02935C3.28905 5.01297 3.27266 5.01297 3.27266 5.01297C3.27266 4.99659 3.27266 4.98021 3.25628 4.98021L3.2399 4.96382C3.2399 4.96382 3.2399 4.96382 3.2399 4.94744C3.2399 4.93106 3.2399 4.93106 3.22352 4.91468L3.20714 4.89829C3.19075 4.89829 3.19075 4.93106 3.19075 4.94744L3.20714 4.96382V4.98021L3.22352 4.99659V5.01297L3.2399 5.02935C3.2399 5.02935 3.2399 5.02935 3.2399 5.04573C3.2399 5.06212 3.2399 5.06212 3.25628 5.0785C3.25628 5.0785 3.25628 5.0785 3.25628 5.09488C3.25628 5.11126 3.25628 5.11126 3.27266 5.12765C3.27266 5.14403 3.27266 5.16041 3.28905 5.16041C3.28905 5.17679 3.28905 5.19317 3.30543 5.20956C3.30543 5.22594 3.30543 5.24232 3.32181 5.2587L3.33819 5.27509C3.33819 5.27509 3.33819 5.27509 3.33819 5.29147C3.33819 5.30785 3.33819 5.30785 3.35458 5.32423C3.35458 5.32423 3.35458 5.32423 3.35458 5.34061C3.35458 5.357 3.35458 5.357 3.37096 5.37338C3.37096 5.38976 3.37096 5.40614 3.38734 5.42253C3.38734 5.43891 3.38734 5.45529 3.40372 5.47167L3.4201 5.48805C3.4201 5.48805 3.4201 5.48805 3.4201 5.50444C3.4201 5.52082 3.43649 5.52082 3.43649 5.5372C3.43649 5.5372 3.43649 5.5372 3.43649 5.55358C3.43649 5.56997 3.43649 5.56997 3.45287 5.58635C3.45287 5.60273 3.45287 5.61911 3.46925 5.61911C3.46925 5.6355 3.46925 5.65188 3.48563 5.66826L3.50202 5.68464C3.50202 5.68464 3.50202 5.68464 3.50202 5.70102C3.50202 5.71741 3.5184 5.71741 3.5184 5.73379C3.5184 5.73379 3.5184 5.73379 3.5184 5.75017C3.5184 5.76655 3.5184 5.76655 3.53478 5.78294C3.53478 5.79932 3.53478 5.8157 3.55116 5.8157C3.55116 5.83208 3.55116 5.84846 3.56754 5.86485L3.58393 5.88123C3.58393 5.88123 3.58393 5.88123 3.58393 5.89761C3.58393 5.91399 3.60031 5.91399 3.60031 5.93038C3.60031 5.93038 3.60031 5.93038 3.60031 5.94676C3.60031 5.96314 3.60031 5.96314 3.61669 5.97952C3.61669 5.9959 3.61669 6.01229 3.63307 6.02867C3.63307 6.04505 3.63307 6.06143 3.64946 6.07782C3.64946 6.07782 3.64946 6.0942 3.66584 6.0942C3.66584 6.0942 3.66584 6.0942 3.66584 6.11058C3.66584 6.12696 3.66584 6.12696 3.68222 6.14334C3.68222 6.14334 3.68222 6.14334 3.68222 6.15973C3.68222 6.17611 3.68222 6.17611 3.6986 6.19249C3.6986 6.20887 3.6986 6.22526 3.71498 6.24164C3.71498 6.25802 3.71498 6.2744 3.73137 6.29079C3.73137 6.29079 3.73137 6.30717 3.74775 6.30717C3.74775 6.30717 3.74775 6.30717 3.74775 6.32355C3.74775 6.33993 3.74775 6.33993 3.76413 6.35631C3.76413 6.3727 3.76413 6.38908 3.78051 6.38908C3.78051 6.40546 3.78051 6.42184 3.7969 6.43823C3.7969 6.45461 3.7969 6.47099 3.81328 6.48737L3.82966 6.50375C3.82966 6.50375 3.82966 6.50375 3.82966 6.52014C3.82966 6.53652 3.82966 6.53652 3.84604 6.5529C3.84604 6.56928 3.84604 6.58567 3.86243 6.58567C3.86243 6.60205 3.86243 6.61843 3.87881 6.63481L3.89519 6.65119C3.89519 6.65119 3.89519 6.6512 3.89519 6.66758C3.89519 6.68396 3.91157 6.68396 3.91157 6.70034C3.91157 6.70034 3.91157 6.70034 3.91157 6.71672C3.91157 6.73311 3.91157 6.73311 3.92795 6.74949C3.92795 6.76587 3.92795 6.78225 3.94434 6.78225C3.94434 6.79864 3.94434 6.81502 3.96072 6.8314L3.9771 6.84778C3.9771 6.84778 3.9771 6.84778 3.9771 6.86416C3.9771 6.88055 3.99348 6.88055 3.99348 6.89693C3.99348 6.91331 3.99348 6.92969 4.00987 6.92969C4.00987 6.94608 4.00987 6.96246 4.02625 6.96246C4.02625 6.97884 4.02625 6.99522 4.04263 7.0116L4.05901 7.02799C4.05901 7.02799 4.05901 7.02799 4.05901 7.04437C4.05901 7.06075 4.05901 7.06075 4.07539 7.07713C4.07539 7.09352 4.07539 7.1099 4.09178 7.1099C4.09178 7.12628 4.09178 7.14266 4.10816 7.15904C4.10816 7.17543 4.10816 7.19181 4.12454 7.19181C4.12454 7.20819 4.12454 7.20819 4.14092 7.20819C4.14092 7.20819 4.14092 7.20819 4.14092 7.22457C4.14092 7.24096 4.14092 7.24096 4.15731 7.25734C4.15731 7.27372 4.15731 7.2901 4.17369 7.2901C4.17369 7.30648 4.17369 7.32287 4.19007 7.33925C4.19007 7.33925 4.19007 7.33925 4.19007 7.35563C4.19007 7.35563 4.19007 7.37201 4.20645 7.37201C4.20645 7.37201 4.20645 7.37201 4.20645 7.3884C4.20645 7.40478 4.22283 7.40478 4.22283 7.42116C4.22283 7.42116 4.22283 7.42116 4.22283 7.43754C4.22283 7.45393 4.22283 7.45393 4.23922 7.47031C4.23922 7.48669 4.23922 7.50307 4.2556 7.51945C4.2556 7.53584 4.2556 7.55222 4.27198 7.5686L4.28836 7.58498C4.28836 7.58498 4.28836 7.58498 4.28836 7.60137C4.28836 7.61775 4.28836 7.61775 4.30475 7.63413C4.30475 7.65051 4.30475 7.66689 4.32113 7.66689C4.32113 7.68328 4.32113 7.69966 4.33751 7.71604C4.33751 7.73242 4.33751 7.74881 4.35389 7.76519C4.35389 7.78157 4.37028 7.78157 4.37028 7.78157C4.37028 7.78157 4.37028 7.78157 4.37028 7.79795C4.37028 7.81433 4.37028 7.81433 4.38666 7.83072C4.38666 7.8471 4.38666 7.86348 4.40304 7.86348C4.40304 7.87986 4.40304 7.89625 4.41942 7.91263C4.41942 7.91263 4.41942 7.92901 4.4358 7.92901C4.4358 7.92901 4.4358 7.92901 4.4358 7.94539C4.4358 7.96177 4.4358 7.96178 4.45219 7.97816C4.45219 7.97816 4.45219 7.97816 4.45219 7.99454C4.45219 8.01092 4.45219 8.01092 4.46857 8.0273C4.46857 8.04369 4.46857 8.06007 4.48495 8.07645C4.48495 8.09283 4.48495 8.10921 4.50133 8.1256L4.51772 8.14198C4.51772 8.14198 4.51772 8.14198 4.51772 8.15836C4.51772 8.17474 4.51772 8.17474 4.5341 8.19113C4.5341 8.20751 4.5341 8.22389 4.55048 8.22389C4.55048 8.24027 4.55048 8.25666 4.56686 8.27304C4.56686 8.28942 4.56686 8.3058 4.58324 8.32218L4.59963 8.33857C4.59963 8.33857 4.59963 8.33857 4.59963 8.35495C4.59963 8.37133 4.59963 8.37133 4.61601 8.38771C4.61601 8.4041 4.61601 8.42048 4.63239 8.42048C4.63239 8.43686 4.63239 8.45324 4.64877 8.46963C4.64877 8.48601 4.64877 8.50239 4.66516 8.51877L4.68154 8.53515C4.68154 8.53515 4.68154 8.53515 4.68154 8.55154C4.68154 8.56792 4.68154 8.56792 4.69792 8.5843C4.69792 8.60068 4.69792 8.61706 4.7143 8.61706C4.7143 8.63345 4.7143 8.64983 4.73068 8.66621C4.73068 8.68259 4.73068 8.69898 4.74707 8.71536L4.76345 8.73174C4.76345 8.73174 4.76345 8.73174 4.76345 8.74812C4.76345 8.76451 4.76345 8.76451 4.77983 8.78089C4.77983 8.79727 4.77983 8.81365 4.79621 8.81365C4.79621 8.83003 4.79621 8.84642 4.8126 8.8628C4.8126 8.87918 4.8126 8.89556 4.82898 8.91195L4.84536 8.92833C4.84536 8.92833 4.84536 8.92833 4.84536 8.94471C4.84536 8.96109 4.86174 8.96109 4.86174 8.97747C4.86174 8.97747 4.86174 8.97748 4.86174 8.99386C4.86174 9.01024 4.86174 9.01024 4.87812 9.02662C4.87812 9.043 4.87812 9.05939 4.89451 9.05939C4.89451 9.07577 4.89451 9.09215 4.91089 9.10853C4.91089 9.12492 4.91089 9.1413 4.92727 9.15768C4.92727 9.15768 4.92727 9.17406 4.94365 9.17406C4.94365 9.17406 4.94365 9.17406 4.94365 9.19044C4.94365 9.20683 4.96004 9.20683 4.96004 9.22321C4.96004 9.22321 4.96004 9.22321 4.96004 9.23959C4.96004 9.25597 4.96004 9.25597 4.97642 9.27236C4.97642 9.28874 4.97642 9.30512 4.9928 9.30512C4.9928 9.3215 4.9928 9.33788 5.00918 9.35427C5.00918 9.37065 5.00918 9.38703 5.02557 9.40341C5.02557 9.4198 5.02556 9.43618 5.04195 9.45256L5.05833 9.46894C5.05833 9.46894 5.05833 9.46894 5.05833 9.48532C5.05833 9.50171 5.07471 9.50171 5.07471 9.51809C5.07471 9.51809 5.07471 9.51809 5.07471 9.53447C5.07471 9.55085 5.07471 9.55085 5.09109 9.56724C5.09109 9.56724 5.09109 9.56724 5.09109 9.58362C5.09109 9.6 5.09109 9.6 5.10748 9.61638C5.10748 9.63276 5.10748 9.64915 5.12386 9.66553C5.12386 9.68191 5.12386 9.69829 5.14024 9.71468C5.14024 9.73106 5.14024 9.74744 5.15662 9.76382C5.15662 9.7802 5.15662 9.79659 5.17301 9.81297C5.17301 9.82935 5.17301 9.84573 5.18939 9.86212C5.18939 9.8785 5.18939 9.89488 5.20577 9.91126C5.20577 9.92765 5.20577 9.94403 5.22215 9.96041C5.22215 9.97679 5.22215 9.99317 5.23853 10.0096C5.23853 10.0259 5.23853 10.0423 5.25492 10.0587C5.25492 10.0751 5.25492 10.0915 5.2713 10.1079C5.2713 10.1242 5.2713 10.1406 5.28768 10.157C5.28768 10.1734 5.28768 10.1898 5.30406 10.2061C5.30406 10.2061 5.30406 10.2061 5.30406 10.2225C5.30406 10.2389 5.30406 10.2553 5.32045 10.2717C5.32045 10.3044 5.32045 10.3536 5.32045 10.3863C5.32045 10.4027 5.32045 10.4027 5.32045 10.4191C5.30406 10.4355 5.30406 10.4519 5.30406 10.4683V10.4846C5.30406 10.501 5.28768 10.501 5.28768 10.5174V10.5338L5.2713 10.5502C5.25492 10.5502 5.25492 10.5666 5.23853 10.5829C5.23853 10.5829 5.23853 10.5993 5.22215 10.5993C5.20577 10.5993 5.20577 10.6157 5.20577 10.6157C5.18939 10.6157 5.18939 10.6321 5.17301 10.6485L5.15662 10.6648L5.14024 10.6812L5.12386 10.6976C5.81191 10.9597 5.81191 10.9597 5.81191 10.9761C5.79553 10.9761 5.79553 10.9925 5.79553 10.9925C5.77915 10.9925 5.77915 11.0089 5.77915 11.0253C5.77915 11.0253 5.77915 11.0416 5.76277 11.0416L5.74638 11.058L5.73 11.0744L5.71362 11.0908C5.69724 11.0908 5.69724 11.1072 5.69724 11.1236V11.1399L5.68086 11.1563C5.66447 11.1563 5.66447 11.1727 5.66447 11.1727C5.64809 11.1727 5.64809 11.1891 5.64809 11.2055C5.63171 11.2055 5.63171 11.2218 5.63171 11.2382V11.2546L5.61533 11.271C5.59894 11.271 5.59894 11.2874 5.59894 11.3201C5.58256 11.3201 5.58256 11.3365 5.58256 11.3529C5.56618 11.3529 5.56618 11.3693 5.56618 11.3857V11.402C5.48427 11.4184 5.48427 11.4348 5.48427 11.4512C5.46789 11.4676 5.46789 11.484 5.46789 11.5003C5.4515 11.5167 5.4515 11.5331 5.4515 11.5495V11.5659C5.43512 11.5823 5.43512 11.5986 5.43512 11.615C5.41874 11.6314 5.41874 11.6478 5.41874 11.6642C5.40236 11.6805 5.40236 11.6969 5.40236 11.7297C5.36959 11.7461 5.38597 11.7788 5.38597 11.7952V11.8116C5.36959 11.828 5.36959 11.8444 5.36959 11.8608V11.8771C5.32045 11.8935 5.32045 11.9263 5.32045 11.9427V11.959C5.28768 11.9754 5.30406 12.0082 5.30406 12.041V12.0573C5.2713 12.0737 5.28768 12.1065 5.28768 12.1392V12.1556C5.25492 12.1884 5.2713 12.2212 5.2713 12.2539C5.2713 12.2703 5.2713 12.2703 5.2713 12.2867C5.23853 12.3195 5.25492 12.3522 5.25492 12.385C5.25492 12.4014 5.25492 12.4014 5.25492 12.4177C5.22215 12.4505 5.23853 12.4833 5.23853 12.5324C5.23853 12.5488 5.23853 12.5488 5.23853 12.5652C5.20577 12.598 5.22215 12.6471 5.22215 12.6962C5.22215 12.6962 5.22215 12.6962 5.22215 12.6799C5.22215 12.6799 5.22215 12.6799 5.22215 12.6962C5.22215 12.7126 5.22215 12.729 5.22215 12.729C5.18939 12.7618 5.20577 12.7945 5.20577 12.8273C5.20577 12.8437 5.20577 12.8437 5.20577 12.8601C5.17301 12.8928 5.18939 12.9256 5.18939 12.9584C5.18939 12.9747 5.18939 12.9747 5.18939 12.9911C5.15662 13.0075 5.17301 13.0403 5.17301 13.0567C5.17301 13.073 5.17301 13.073 5.17301 13.0894C5.15662 13.1058 5.15662 13.1386 5.15662 13.155V13.1713C5.12386 13.1877 5.14024 13.2205 5.14024 13.2369V13.2532C5.12386 13.2696 5.12386 13.3024 5.12386 13.3188V13.3352C5.10748 13.3515 5.10748 13.3679 5.10748 13.3843V13.4007C5.09109 13.4171 5.09109 13.4334 5.09109 13.4662C5.05833 13.4826 5.07471 13.499 5.07471 13.5317C4.9928 13.5481 4.9928 13.5645 4.9928 13.5809V13.5973C4.97642 13.6137 4.97642 13.63 4.97642 13.6464V13.6628C4.96004 13.6792 4.96004 13.6956 4.96004 13.7119C4.94365 13.7283 4.94365 13.7447 4.94365 13.7611V13.7775C4.92727 13.7939 4.92727 13.8102 4.92727 13.8266C4.91089 13.843 4.91089 13.8594 4.91089 13.8758C4.89451 13.8921 4.89451 13.9085 4.89451 13.9249V13.9413C4.89451 13.9577 4.87812 13.9577 4.87812 13.9741V13.9904C4.86174 13.9904 4.86174 14.0068 4.86174 14.0232V14.0396C4.84536 14.0396 4.84536 14.056 4.84536 14.0724V14.0887C4.82898 14.0887 4.82898 14.1051 4.82898 14.1215V14.1379C4.8126 14.1379 4.8126 14.1543 4.8126 14.1706V14.187C4.79621 14.187 4.79621 14.2034 4.79621 14.2198V14.2362L4.77983 14.2526C4.76345 14.2526 4.76345 14.2689 4.76345 14.3017C4.74707 14.3017 4.74707 14.3181 4.74707 14.3345C4.73068 14.3345 4.73068 14.3509 4.73068 14.3672C4.73068 14.3836 4.7143 14.3836 4.7143 14.3836C4.69792 14.3836 4.69792 14.4 4.69792 14.4164C4.68154 14.4164 4.68154 14.4328 4.68154 14.4491L4.66516 14.4655C4.64877 14.4655 4.64877 14.4819 4.64877 14.4983C4.63239 14.4983 4.63239 14.5147 4.63239 14.5311V14.5474L4.61601 14.5638C4.59963 14.5638 4.59963 14.5802 4.59963 14.5966C4.59963 14.5966 4.59963 14.5966 4.59963 14.613C4.59963 14.613 4.59963 14.6294 4.58324 14.6294C4.56686 14.6294 4.56686 14.6457 4.56686 14.6621C4.56686 14.6621 4.56686 14.6621 4.56686 14.6785C4.56686 14.6785 4.56686 14.6949 4.55048 14.6949C4.5341 14.6949 4.5341 14.7113 4.5341 14.7276C4.5341 14.7276 4.5341 14.7276 4.51772 14.744C4.51772 14.744 4.51771 14.744 4.50133 14.7604C4.48495 14.7604 4.48495 14.7768 4.48495 14.7932V14.8096L4.46857 14.8259C4.45219 14.8259 4.45219 14.8423 4.45219 14.8423C4.4358 14.8423 4.4358 14.8587 4.4358 14.8751L4.41942 14.8915C4.40304 14.8915 4.40304 14.9079 4.38666 14.9242L4.37028 14.9406C4.35389 14.9406 4.35389 14.957 4.35389 14.957C4.33751 14.957 4.33751 14.9734 4.32113 14.9898C4.32113 14.9898 4.32113 14.9898 4.32113 15.0061C4.32113 15.0061 4.32113 15.0061 4.30475 15.0225C4.28836 15.0225 4.28836 15.0389 4.28836 15.0389C4.27198 15.0389 4.27198 15.0553 4.2556 15.0717L4.23922 15.0881C4.22283 15.0881 4.22283 15.1044 4.22283 15.1044C4.20645 15.1044 4.20645 15.1208 4.19007 15.1372L4.17369 15.1536C4.15731 15.1536 4.15731 15.17 4.15731 15.17C4.14092 15.17 4.14092 15.1863 4.12454 15.2027L4.10816 15.2191L4.09178 15.2355C4.07539 15.2355 4.07539 15.2519 4.07539 15.2519C4.05901 15.2519 4.05901 15.2683 4.04263 15.2846L4.02625 15.301L4.00987 15.3174C3.99348 15.3174 3.99348 15.3338 3.99348 15.3338C3.9771 15.3338 3.9771 15.3502 3.96072 15.3666L3.94434 15.3829L3.92795 15.3993C3.91157 15.3993 3.91157 15.4157 3.91157 15.4157C3.89519 15.4157 3.89519 15.4321 3.87881 15.4485L3.86243 15.4648L3.84604 15.4812C3.82966 15.4812 3.82966 15.4976 3.82966 15.4976C3.81328 15.4976 3.81328 15.514 3.7969 15.5304L3.78051 15.5468L3.76413 15.5631C3.74775 15.5631 3.74775 15.5795 3.74775 15.5795C3.73137 15.5795 3.73137 15.5959 3.71498 15.6123L3.6986 15.6287L3.68222 15.6451C3.66584 15.6451 3.66584 15.6614 3.66584 15.6778C3.66584 15.6778 3.66584 15.6942 3.64946 15.6942L3.63307 15.7106C3.63307 15.7106 3.63307 15.727 3.61669 15.727C3.61669 15.727 3.61669 15.727 3.61669 15.7433C3.60031 15.7433 3.60031 15.7597 3.60031 15.7597C3.58393 15.7597 3.58393 15.7761 3.56754 15.7925L3.55116 15.8089L3.53478 15.8253C3.5184 15.8253 3.5184 15.8416 3.5184 15.858V15.8744C3.35458 16.0546 3.35458 16.0546 3.35458 16.0546L3.33819 16.071C3.32181 16.071 3.32181 16.0874 3.32181 16.0874C3.30543 16.0874 3.30543 16.1038 3.28905 16.1201L3.27266 16.1365C3.25628 16.1365 3.25628 16.1529 3.2399 16.1693L3.22352 16.1857C3.20714 16.1857 3.20714 16.202 3.20714 16.2184V16.2348L3.19075 16.2512C3.17437 16.2512 3.17437 16.2676 3.17437 16.284V16.3003L3.15799 16.3167C3.14161 16.3167 3.14161 16.3331 3.14161 16.3495C3.12522 16.3495 3.12522 16.3659 3.12522 16.3823V16.3986C3.12522 16.415 3.12522 16.415 3.10884 16.415C3.10884 16.4314 3.10884 16.4478 3.09246 16.4642C3.09246 16.4805 3.09246 16.4969 3.07608 16.5133C3.07608 16.5297 3.07608 16.5461 3.0597 16.5625C3.0597 16.5788 3.05969 16.5952 3.04331 16.6116C3.04331 16.628 3.04331 16.6444 3.02693 16.6608V16.6771C3.02693 16.6935 3.02693 16.6935 3.01055 16.7099V16.7263C3.01055 16.7427 3.01055 16.759 2.99417 16.7754C2.99417 16.7918 2.99417 16.8082 2.97778 16.8246C2.97778 16.841 2.97778 16.8573 2.9614 16.8737V16.8901C2.9614 16.9065 2.9614 16.9229 2.94502 16.9393V16.9556C2.94502 16.972 2.94502 16.9884 2.92864 17.0048V17.0212C2.92864 17.0539 2.92864 17.0703 2.91225 17.0867V17.1031C2.91225 17.1358 2.91225 17.1522 2.89587 17.185V17.2014C2.89587 17.2341 2.89587 17.2833 2.87949 17.316C2.87949 17.3324 2.87949 17.3324 2.87949 17.3488C2.87949 17.4143 2.87949 17.4635 2.86311 17.529C2.87949 17.5618 2.86311 17.6109 2.86311 17.6437C2.86311 17.7584 2.86311 17.873 2.86311 17.9713C2.86311 18.0041 2.87949 18.0369 2.86311 18.0696C2.87949 18.1188 2.87949 18.1515 2.87949 18.2007C2.87949 18.2171 2.87949 18.2334 2.87949 18.2334C2.89587 18.2662 2.89587 18.299 2.89587 18.3317V18.3481C2.91225 18.3809 2.91225 18.4137 2.91225 18.43C2.91225 18.43 2.91225 18.43 2.91225 18.4464C2.92864 18.4628 2.92864 18.4956 2.92864 18.5119V18.5283C2.94502 18.5447 2.94502 18.5775 2.94502 18.5939C2.94502 18.5939 2.94502 18.5939 2.94502 18.6102C2.9614 18.6266 2.9614 18.643 2.9614 18.6594V18.6758C2.97778 18.6922 2.97778 18.7249 2.97778 18.7413C2.99417 18.7577 2.99417 18.7741 2.99417 18.7904V18.8068C3.01055 18.8232 3.01055 18.8396 3.01055 18.856V18.8724C3.02693 18.8887 3.02693 18.9051 3.02693 18.9215C3.02693 18.9215 3.02693 18.9215 3.02693 18.9379C3.04331 18.9543 3.04331 18.9706 3.04331 18.987C3.04331 19.0034 3.04331 19.0362 3.0597 19.0526C3.0597 19.0689 3.05969 19.0853 3.07608 19.1017C3.07608 19.1181 3.07608 19.1345 3.09246 19.1345V19.1509C3.09246 19.1672 3.09246 19.1836 3.10884 19.2C3.10884 19.2164 3.10884 19.2328 3.12522 19.2491C3.12522 19.2655 3.12522 19.2819 3.14161 19.2983C3.14161 19.3147 3.14161 19.3311 3.15799 19.3474C3.15799 19.3638 3.15799 19.3802 3.17437 19.3966C3.17437 19.413 3.17437 19.4294 3.19075 19.4457C3.19075 19.4457 3.19075 19.4457 3.19075 19.4621C3.19075 19.4621 3.19075 19.4621 3.19075 19.4785C3.19075 19.4785 3.19075 19.4785 3.19075 19.4949C3.19075 19.5113 3.20714 19.5113 3.20714 19.5276C3.20714 19.5276 3.20714 19.5276 3.20714 19.544C3.20714 19.5604 3.20714 19.5604 3.22352 19.5768C3.22352 19.5932 3.22352 19.6096 3.2399 19.6259L3.25628 19.6423C3.25628 19.6423 3.25628 19.6423 3.25628 19.6587C3.25628 19.6751 3.25628 19.6751 3.27266 19.6915C3.27266 19.7078 3.27266 19.7242 3.28905 19.7242L3.30543 19.7406C3.30543 19.7406 3.30543 19.7406 3.30543 19.757C3.30543 19.7734 3.30543 19.7734 3.32181 19.7898C3.32181 19.8061 3.32181 19.8225 3.33819 19.8225C3.33819 19.8389 3.33819 19.8389 3.35458 19.8389C3.35458 19.8553 3.35458 19.8717 3.37096 19.8717C3.37096 19.8881 3.38734 19.8881 3.38734 19.8881C3.38734 19.9044 3.38734 19.9208 3.40372 19.9208C3.40372 19.9208 3.40372 19.9372 3.4201 19.9372C3.4201 19.9536 3.4201 19.97 3.43649 19.97L3.45287 19.9863C3.45287 19.9863 3.45287 19.9863 3.45287 20.0027C3.45287 20.0191 3.45287 20.0191 3.46925 20.0355C3.46925 20.0519 3.46925 20.0683 3.48563 20.0683C3.48563 20.0846 3.48563 20.0846 3.50202 20.0846C3.50202 20.101 3.50202 20.1174 3.5184 20.1174L3.53478 20.1338C3.53478 20.1338 3.53478 20.1338 3.53478 20.1502C3.53478 20.1666 3.53478 20.1666 3.55116 20.1829C3.55116 20.1993 3.55116 20.2157 3.56754 20.2157C3.56754 20.2157 3.56754 20.2321 3.58393 20.2321C3.58393 20.2321 3.58393 20.2321 3.58393 20.2485C3.58393 20.2648 3.58393 20.2648 3.60031 20.2812C3.60031 20.2976 3.60031 20.314 3.61669 20.314C3.61669 20.3304 3.61669 20.3468 3.63307 20.3631L3.64946 20.3795C3.64946 20.3795 3.64946 20.3795 3.64946 20.3959C3.64946 20.4123 3.64946 20.4123 3.66584 20.4287C3.66584 20.4287 3.66584 20.4287 3.66584 20.4451C3.66584 20.4614 3.66584 20.4614 3.68222 20.4778C3.68222 20.4942 3.68222 20.5106 3.6986 20.527C3.6986 20.5433 3.6986 20.5597 3.71498 20.5761C3.71498 20.5925 3.71498 20.6089 3.73137 20.6253C3.73137 20.6416 3.73137 20.658 3.74775 20.6744C3.74775 20.6744 3.74775 20.6744 3.74775 20.6908C3.74775 20.7072 3.74775 20.7236 3.76413 20.7399C3.76413 20.7563 3.76413 20.7727 3.78051 20.7891V20.8055C3.78051 20.8382 3.76413 20.8874 3.7969 20.9201V20.9365C3.7969 20.9529 3.81328 20.9529 3.81328 20.9693C3.84604 21.002 3.89519 21.002 3.94434 20.9693C3.96072 20.9693 3.9771 20.9693 4.00987 20.9693C4.02625 20.9693 4.05901 20.9693 4.07539 20.9529C4.09178 20.9529 4.09178 20.9529 4.10816 20.9529C4.12454 20.9529 4.15731 20.9529 4.17369 20.9365C4.19007 20.9365 4.19007 20.9365 4.20645 20.9365C4.22283 20.9365 4.23922 20.9365 4.2556 20.9201C4.27198 20.9201 4.28836 20.9201 4.28836 20.9201C4.30475 20.9201 4.32113 20.9201 4.33751 20.9038C4.35389 20.9038 4.37028 20.9038 4.37028 20.9038C4.38666 20.9038 4.40304 20.9038 4.41942 20.8874C4.4358 20.8874 4.45219 20.8874 4.45219 20.8874C4.46857 20.8874 4.48495 20.8874 4.50133 20.871C4.51771 20.871 4.51772 20.871 4.5341 20.871C4.55048 20.871 4.56686 20.871 4.58324 20.8546H4.59963C4.61601 20.8546 4.64877 20.8546 4.66516 20.8382H4.68154C4.69792 20.8382 4.7143 20.8382 4.73068 20.8218H4.74707C4.76345 20.8218 4.77983 20.8218 4.79621 20.8055C4.8126 20.8055 4.8126 20.8055 4.82898 20.8055C4.84536 20.8055 4.86174 20.8055 4.87812 20.7891C4.89451 20.7891 4.91089 20.7891 4.92727 20.7727C4.94365 20.7727 4.96004 20.7727 4.97642 20.7563C4.9928 20.7563 5.00918 20.7563 5.02557 20.7399C5.04195 20.7399 5.04195 20.7236 5.05833 20.7236H5.07471C5.09109 20.7236 5.10748 20.7236 5.12386 20.7072H5.14024H5.15662C5.17301 20.7072 5.18939 20.7072 5.20577 20.6908H5.22215C5.23853 20.6908 5.25492 20.6908 5.2713 20.6744C5.28768 20.6744 5.30406 20.6744 5.32045 20.658H5.33683C5.33683 20.658 5.35321 20.658 5.35321 20.6416H5.36959C5.38597 20.6416 5.40236 20.6416 5.41874 20.6253C5.43512 20.6253 5.43512 20.6089 5.4515 20.6089H5.46789C5.48427 20.6089 5.50065 20.6089 5.51703 20.5925C5.53341 20.5925 5.5498 20.5925 5.56618 20.5761C5.58256 20.5761 5.59894 20.5761 5.61533 20.5597C5.63171 20.5597 5.63171 20.5597 5.64809 20.5433C5.66447 20.5433 5.66447 20.5433 5.68086 20.527C5.69724 20.527 5.69724 20.527 5.71362 20.5106C5.73 20.5106 5.73 20.5106 5.74638 20.4942C5.76277 20.4942 5.76277 20.4942 5.77915 20.4778C5.79553 20.4778 5.79553 20.4778 5.81191 20.4614C5.8283 20.4614 5.84468 20.4614 5.84468 20.4451C5.86106 20.4451 5.87744 20.4451 5.89382 20.4287C5.89382 20.4287 5.91021 20.4287 5.91021 20.4123C5.91021 20.4123 5.91021 20.4123 5.92659 20.4123C5.94297 20.4123 5.94297 20.4123 5.95935 20.3959C5.97574 20.3959 5.99212 20.3959 5.99212 20.3795C5.99212 20.3795 6.0085 20.3795 6.0085 20.3631C6.0085 20.3631 6.0085 20.3631 6.02488 20.3631C6.04126 20.3631 6.04126 20.3631 6.05765 20.3468L6.07403 20.3304C6.07403 20.3304 6.09041 20.314 6.09041 20.3304C6.10679 20.3304 6.10679 20.3304 6.12318 20.314L6.13956 20.2976C6.13956 20.2976 6.15594 20.2812 6.15594 20.2976C6.17232 20.2976 6.17232 20.2976 6.1887 20.2812L6.20509 20.2648C6.20509 20.2648 6.20509 20.2485 6.22147 20.2648C6.23785 20.2648 6.23785 20.2648 6.25423 20.2485C6.27062 20.2485 6.27062 20.2321 6.27062 20.2321L6.287 20.2157C6.287 20.2157 6.287 20.1993 6.30338 20.1993C6.31976 20.1993 6.31976 20.1829 6.33615 20.1829C6.35253 20.1829 6.35253 20.1666 6.35253 20.1666L6.36891 20.1502L6.38529 20.1338C6.38529 20.1338 6.38529 20.1174 6.40167 20.1174C6.41806 20.1174 6.41806 20.101 6.43444 20.101C6.45082 20.101 6.45082 20.0846 6.45082 20.0846C6.4672 20.0846 6.4672 20.0683 6.4672 20.0683C6.7457 19.8225 6.76208 19.8225 6.76208 19.8061ZM4.35389 18.0369C4.32113 18.1515 4.23922 18.2498 4.12454 18.3154C4.00987 18.3809 3.86243 18.3645 3.76413 18.2826C3.6986 18.2171 3.66584 18.1515 3.6986 18.0532C3.71498 18.0041 3.74775 17.955 3.76413 17.9058C3.82966 17.7911 3.81328 17.742 3.6986 17.6765C3.64946 17.6437 3.60031 17.6109 3.60031 17.5454C3.60031 17.4799 3.64946 17.4307 3.6986 17.398C3.74775 17.3652 3.81328 17.3652 3.86243 17.3652C4.22283 17.3816 4.45219 17.7092 4.35389 18.0369Z" fill="white"/>
<path d="M10.5163 12.8273C10.6146 12.729 10.6473 12.6144 10.6473 12.4669C10.6473 12.3523 10.5982 12.2376 10.549 12.1393C10.3197 11.7297 9.95927 11.5659 9.50057 11.5823C9.33675 11.5823 9.20569 11.6314 9.07463 11.7297C8.71422 12.0082 8.56678 12.3523 8.63231 12.7946C8.68146 13.0731 8.87804 13.2041 9.09101 13.2205C9.17292 13.2205 9.23845 13.2205 9.32036 13.2205C9.61524 13.2369 9.91012 13.1714 10.1722 13.0567C10.3197 13.0075 10.4344 12.9256 10.5163 12.8273ZM10.0412 12.3031C9.81183 12.4669 9.51695 12.4669 9.2876 12.3031C9.10739 12.172 9.10739 11.9918 9.27122 11.8444C9.38589 11.7461 9.51695 11.7133 9.66439 11.7133C9.81183 11.7133 9.94289 11.7625 10.0576 11.8608C10.205 12.0082 10.205 12.1884 10.0412 12.3031Z" fill="white"/>
</svg>
