<svg width="520" height="300" viewBox="0 0 520 300" fill="none" xmlns="http://www.w3.org/2000/svg">
<g clip-path="url(#clip0_5280_10140)">
<g filter="url(#filter0_di_5280_10140)">
<rect x="189.039" y="150" width="100" height="100" rx="24" transform="rotate(-45 189.039 150)" fill="url(#paint0_radial_5280_10140)"/>
</g>
<path d="M241.819 146.907C240.387 148.339 240.387 150.661 241.819 152.092C243.251 153.524 245.573 153.524 247.005 152.092C248.437 150.661 248.437 148.339 247.005 146.907C245.573 145.475 243.251 145.475 241.819 146.907Z" fill="white"/>
<path d="M249.362 159.635C247.93 158.203 247.93 155.881 249.362 154.45C250.794 153.018 253.115 153.018 254.547 154.45C255.979 155.881 255.979 158.203 254.547 159.635C253.115 161.067 250.794 161.067 249.362 159.635Z" fill="white"/>
<path d="M256.904 161.992C255.472 163.424 255.472 165.746 256.904 167.177C258.336 168.609 260.658 168.609 262.09 167.177C263.522 165.746 263.522 163.424 262.09 161.992C260.658 160.56 258.336 160.56 256.904 161.992Z" fill="white"/>
<path d="M249.362 144.55C247.93 143.118 247.93 140.796 249.362 139.365C250.794 137.933 253.115 137.933 254.547 139.365C255.979 140.796 255.979 143.118 254.547 144.55C253.115 145.982 250.794 145.982 249.362 144.55Z" fill="white"/>
<path d="M256.904 146.907C255.472 148.339 255.472 150.661 256.904 152.092C258.336 153.524 260.658 153.524 262.09 152.092C263.522 150.661 263.522 148.339 262.09 146.907C260.658 145.475 258.336 145.475 256.904 146.907Z" fill="white"/>
<path d="M264.447 159.635C263.015 158.203 263.015 155.881 264.447 154.45C265.879 153.018 268.2 153.018 269.632 154.45C271.064 155.881 271.064 158.203 269.632 159.635C268.2 161.067 265.879 161.067 264.447 159.635Z" fill="white"/>
<path d="M256.904 131.822C255.472 133.254 255.472 135.576 256.904 137.008C258.336 138.439 260.658 138.439 262.09 137.008C263.522 135.576 263.522 133.254 262.09 131.822C260.658 130.39 258.336 130.39 256.904 131.822Z" fill="white"/>
<path d="M264.447 144.55C263.015 143.118 263.015 140.796 264.447 139.365C265.879 137.933 268.2 137.933 269.632 139.365C271.064 140.796 271.064 143.118 269.632 144.55C268.2 145.982 265.879 145.982 264.447 144.55Z" fill="white"/>
<path d="M271.989 146.907C270.557 148.339 270.557 150.661 271.989 152.092C273.421 153.524 275.743 153.524 277.175 152.092C278.607 150.661 278.607 148.339 277.175 146.907C275.743 145.475 273.421 145.475 271.989 146.907Z" fill="white"/>
<g filter="url(#filter1_di_5280_10140)">
<rect x="98.5352" y="58.7832" width="99" height="99" rx="23.5" transform="rotate(-45 98.5352 58.7832)" stroke="url(#paint1_linear_5280_10140)" shape-rendering="crispEdges"/>
</g>
<g filter="url(#filter2_di_5280_10140)">
<rect x="6.99617" y="150.318" width="99" height="99" rx="23.5" transform="rotate(-45 6.99617 150.318)" stroke="url(#paint2_linear_5280_10140)" shape-rendering="crispEdges"/>
</g>
<g filter="url(#filter3_di_5280_10140)">
<rect x="280.965" y="241.217" width="99" height="99" rx="23.5" transform="rotate(-45 280.965 241.217)" stroke="url(#paint3_linear_5280_10140)" shape-rendering="crispEdges"/>
</g>
<g filter="url(#filter4_di_5280_10140)">
<rect x="98.2071" y="241.534" width="99" height="99" rx="23.5" transform="rotate(-45 98.2071 241.534)" stroke="url(#paint4_linear_5280_10140)" shape-rendering="crispEdges"/>
</g>
<g filter="url(#filter5_di_5280_10140)">
<rect x="281.285" y="58.4656" width="99" height="99" rx="23.5" transform="rotate(-45 281.285 58.4656)" stroke="url(#paint5_linear_5280_10140)" shape-rendering="crispEdges"/>
</g>
<g filter="url(#filter6_di_5280_10140)">
<rect x="372.496" y="149.682" width="99" height="99" rx="23.5" transform="rotate(-45 372.496 149.682)" stroke="url(#paint6_linear_5280_10140)" shape-rendering="crispEdges"/>
</g>
<rect width="519.5" height="80" fill="url(#paint7_linear_5280_10140)"/>
<rect width="519.5" height="80" transform="matrix(1 0 0 -1 0 300)" fill="url(#paint8_linear_5280_10140)"/>
<path d="M130.026 203.349L115.18 188.503" stroke="white" stroke-width="2" stroke-linecap="round" stroke-linejoin="bevel"/>
<path d="M115.188 112.135L130.357 96.9661" stroke="white" stroke-width="2" stroke-linecap="round" stroke-linejoin="bevel"/>
<path d="M221.565 111.815L206.719 96.9683" stroke="white" stroke-width="2" stroke-linecap="round" stroke-linejoin="bevel"/>
<path d="M221.568 188.183L206.398 203.352" stroke="white" stroke-width="2" stroke-linecap="round" stroke-linejoin="bevel"/>
<path d="M297.93 188.183L312.78 203.033" stroke="white" stroke-width="2" stroke-linecap="round" stroke-linejoin="bevel"/>
<path d="M297.938 111.817L313.107 96.6484" stroke="white" stroke-width="2" stroke-linecap="round" stroke-linejoin="bevel"/>
<path d="M404.322 111.497L389.477 96.6504" stroke="white" stroke-width="2" stroke-linecap="round" stroke-linejoin="bevel"/>
<path d="M404.313 187.867L389.148 203.032" stroke="white" stroke-width="2" stroke-linecap="round" stroke-linejoin="bevel"/>
</g>
<defs>
<filter id="filter0_di_5280_10140" x="158.977" y="53.2305" width="201.539" height="201.539" filterUnits="userSpaceOnUse" color-interpolation-filters="sRGB">
<feFlood flood-opacity="0" result="BackgroundImageFix"/>
<feColorMatrix in="SourceAlpha" type="matrix" values="0 0 0 0 0 0 0 0 0 0 0 0 0 0 0 0 0 0 127 0" result="hardAlpha"/>
<feOffset dy="4"/>
<feGaussianBlur stdDeviation="20"/>
<feComposite in2="hardAlpha" operator="out"/>
<feColorMatrix type="matrix" values="0 0 0 0 0.647059 0 0 0 0 0.411765 0 0 0 0 1 0 0 0 0.4 0"/>
<feBlend mode="normal" in2="BackgroundImageFix" result="effect1_dropShadow_5280_10140"/>
<feBlend mode="normal" in="SourceGraphic" in2="effect1_dropShadow_5280_10140" result="shape"/>
<feColorMatrix in="SourceAlpha" type="matrix" values="0 0 0 0 0 0 0 0 0 0 0 0 0 0 0 0 0 0 127 0" result="hardAlpha"/>
<feOffset dy="-3"/>
<feGaussianBlur stdDeviation="2"/>
<feComposite in2="hardAlpha" operator="arithmetic" k2="-1" k3="1"/>
<feColorMatrix type="matrix" values="0 0 0 0 1 0 0 0 0 1 0 0 0 0 1 0 0 0 0.15 0"/>
<feBlend mode="normal" in2="shape" result="effect2_innerShadow_5280_10140"/>
</filter>
<filter id="filter1_di_5280_10140" x="67.7656" y="-37.9863" width="201.539" height="201.539" filterUnits="userSpaceOnUse" color-interpolation-filters="sRGB">
<feFlood flood-opacity="0" result="BackgroundImageFix"/>
<feColorMatrix in="SourceAlpha" type="matrix" values="0 0 0 0 0 0 0 0 0 0 0 0 0 0 0 0 0 0 127 0" result="hardAlpha"/>
<feOffset dy="4"/>
<feGaussianBlur stdDeviation="20"/>
<feComposite in2="hardAlpha" operator="out"/>
<feColorMatrix type="matrix" values="0 0 0 0 0.647059 0 0 0 0 0.411765 0 0 0 0 1 0 0 0 0.4 0"/>
<feBlend mode="normal" in2="BackgroundImageFix" result="effect1_dropShadow_5280_10140"/>
<feBlend mode="normal" in="SourceGraphic" in2="effect1_dropShadow_5280_10140" result="shape"/>
<feColorMatrix in="SourceAlpha" type="matrix" values="0 0 0 0 0 0 0 0 0 0 0 0 0 0 0 0 0 0 127 0" result="hardAlpha"/>
<feOffset dy="-3"/>
<feGaussianBlur stdDeviation="2"/>
<feComposite in2="hardAlpha" operator="arithmetic" k2="-1" k3="1"/>
<feColorMatrix type="matrix" values="0 0 0 0 1 0 0 0 0 1 0 0 0 0 1 0 0 0 0.25 0"/>
<feBlend mode="normal" in2="shape" result="effect2_innerShadow_5280_10140"/>
</filter>
<filter id="filter2_di_5280_10140" x="-23.7734" y="53.5481" width="201.539" height="201.539" filterUnits="userSpaceOnUse" color-interpolation-filters="sRGB">
<feFlood flood-opacity="0" result="BackgroundImageFix"/>
<feColorMatrix in="SourceAlpha" type="matrix" values="0 0 0 0 0 0 0 0 0 0 0 0 0 0 0 0 0 0 127 0" result="hardAlpha"/>
<feOffset dy="4"/>
<feGaussianBlur stdDeviation="20"/>
<feComposite in2="hardAlpha" operator="out"/>
<feColorMatrix type="matrix" values="0 0 0 0 0.647059 0 0 0 0 0.411765 0 0 0 0 1 0 0 0 0.4 0"/>
<feBlend mode="normal" in2="BackgroundImageFix" result="effect1_dropShadow_5280_10140"/>
<feBlend mode="normal" in="SourceGraphic" in2="effect1_dropShadow_5280_10140" result="shape"/>
<feColorMatrix in="SourceAlpha" type="matrix" values="0 0 0 0 0 0 0 0 0 0 0 0 0 0 0 0 0 0 127 0" result="hardAlpha"/>
<feOffset dy="-3"/>
<feGaussianBlur stdDeviation="2"/>
<feComposite in2="hardAlpha" operator="arithmetic" k2="-1" k3="1"/>
<feColorMatrix type="matrix" values="0 0 0 0 1 0 0 0 0 1 0 0 0 0 1 0 0 0 0.25 0"/>
<feBlend mode="normal" in2="shape" result="effect2_innerShadow_5280_10140"/>
</filter>
<filter id="filter3_di_5280_10140" x="250.195" y="144.447" width="201.539" height="201.539" filterUnits="userSpaceOnUse" color-interpolation-filters="sRGB">
<feFlood flood-opacity="0" result="BackgroundImageFix"/>
<feColorMatrix in="SourceAlpha" type="matrix" values="0 0 0 0 0 0 0 0 0 0 0 0 0 0 0 0 0 0 127 0" result="hardAlpha"/>
<feOffset dy="4"/>
<feGaussianBlur stdDeviation="20"/>
<feComposite in2="hardAlpha" operator="out"/>
<feColorMatrix type="matrix" values="0 0 0 0 0.647059 0 0 0 0 0.411765 0 0 0 0 1 0 0 0 0.4 0"/>
<feBlend mode="normal" in2="BackgroundImageFix" result="effect1_dropShadow_5280_10140"/>
<feBlend mode="normal" in="SourceGraphic" in2="effect1_dropShadow_5280_10140" result="shape"/>
<feColorMatrix in="SourceAlpha" type="matrix" values="0 0 0 0 0 0 0 0 0 0 0 0 0 0 0 0 0 0 127 0" result="hardAlpha"/>
<feOffset dy="-3"/>
<feGaussianBlur stdDeviation="2"/>
<feComposite in2="hardAlpha" operator="arithmetic" k2="-1" k3="1"/>
<feColorMatrix type="matrix" values="0 0 0 0 1 0 0 0 0 1 0 0 0 0 1 0 0 0 0.25 0"/>
<feBlend mode="normal" in2="shape" result="effect2_innerShadow_5280_10140"/>
</filter>
<filter id="filter4_di_5280_10140" x="67.4375" y="144.765" width="201.539" height="201.539" filterUnits="userSpaceOnUse" color-interpolation-filters="sRGB">
<feFlood flood-opacity="0" result="BackgroundImageFix"/>
<feColorMatrix in="SourceAlpha" type="matrix" values="0 0 0 0 0 0 0 0 0 0 0 0 0 0 0 0 0 0 127 0" result="hardAlpha"/>
<feOffset dy="4"/>
<feGaussianBlur stdDeviation="20"/>
<feComposite in2="hardAlpha" operator="out"/>
<feColorMatrix type="matrix" values="0 0 0 0 0.647059 0 0 0 0 0.411765 0 0 0 0 1 0 0 0 0.4 0"/>
<feBlend mode="normal" in2="BackgroundImageFix" result="effect1_dropShadow_5280_10140"/>
<feBlend mode="normal" in="SourceGraphic" in2="effect1_dropShadow_5280_10140" result="shape"/>
<feColorMatrix in="SourceAlpha" type="matrix" values="0 0 0 0 0 0 0 0 0 0 0 0 0 0 0 0 0 0 127 0" result="hardAlpha"/>
<feOffset dy="-3"/>
<feGaussianBlur stdDeviation="2"/>
<feComposite in2="hardAlpha" operator="arithmetic" k2="-1" k3="1"/>
<feColorMatrix type="matrix" values="0 0 0 0 1 0 0 0 0 1 0 0 0 0 1 0 0 0 0.25 0"/>
<feBlend mode="normal" in2="shape" result="effect2_innerShadow_5280_10140"/>
</filter>
<filter id="filter5_di_5280_10140" x="250.516" y="-38.304" width="201.539" height="201.539" filterUnits="userSpaceOnUse" color-interpolation-filters="sRGB">
<feFlood flood-opacity="0" result="BackgroundImageFix"/>
<feColorMatrix in="SourceAlpha" type="matrix" values="0 0 0 0 0 0 0 0 0 0 0 0 0 0 0 0 0 0 127 0" result="hardAlpha"/>
<feOffset dy="4"/>
<feGaussianBlur stdDeviation="20"/>
<feComposite in2="hardAlpha" operator="out"/>
<feColorMatrix type="matrix" values="0 0 0 0 0.647059 0 0 0 0 0.411765 0 0 0 0 1 0 0 0 0.4 0"/>
<feBlend mode="normal" in2="BackgroundImageFix" result="effect1_dropShadow_5280_10140"/>
<feBlend mode="normal" in="SourceGraphic" in2="effect1_dropShadow_5280_10140" result="shape"/>
<feColorMatrix in="SourceAlpha" type="matrix" values="0 0 0 0 0 0 0 0 0 0 0 0 0 0 0 0 0 0 127 0" result="hardAlpha"/>
<feOffset dy="-3"/>
<feGaussianBlur stdDeviation="2"/>
<feComposite in2="hardAlpha" operator="arithmetic" k2="-1" k3="1"/>
<feColorMatrix type="matrix" values="0 0 0 0 1 0 0 0 0 1 0 0 0 0 1 0 0 0 0.25 0"/>
<feBlend mode="normal" in2="shape" result="effect2_innerShadow_5280_10140"/>
</filter>
<filter id="filter6_di_5280_10140" x="341.727" y="52.9128" width="201.539" height="201.539" filterUnits="userSpaceOnUse" color-interpolation-filters="sRGB">
<feFlood flood-opacity="0" result="BackgroundImageFix"/>
<feColorMatrix in="SourceAlpha" type="matrix" values="0 0 0 0 0 0 0 0 0 0 0 0 0 0 0 0 0 0 127 0" result="hardAlpha"/>
<feOffset dy="4"/>
<feGaussianBlur stdDeviation="20"/>
<feComposite in2="hardAlpha" operator="out"/>
<feColorMatrix type="matrix" values="0 0 0 0 0.647059 0 0 0 0 0.411765 0 0 0 0 1 0 0 0 0.4 0"/>
<feBlend mode="normal" in2="BackgroundImageFix" result="effect1_dropShadow_5280_10140"/>
<feBlend mode="normal" in="SourceGraphic" in2="effect1_dropShadow_5280_10140" result="shape"/>
<feColorMatrix in="SourceAlpha" type="matrix" values="0 0 0 0 0 0 0 0 0 0 0 0 0 0 0 0 0 0 127 0" result="hardAlpha"/>
<feOffset dy="-3"/>
<feGaussianBlur stdDeviation="2"/>
<feComposite in2="hardAlpha" operator="arithmetic" k2="-1" k3="1"/>
<feColorMatrix type="matrix" values="0 0 0 0 1 0 0 0 0 1 0 0 0 0 1 0 0 0 0.25 0"/>
<feBlend mode="normal" in2="shape" result="effect2_innerShadow_5280_10140"/>
</filter>
<radialGradient id="paint0_radial_5280_10140" cx="0" cy="0" r="1" gradientUnits="userSpaceOnUse" gradientTransform="translate(193.939 164.363) rotate(64.0256) scale(95.7929)">
<stop stop-color="#C0A3FF"/>
<stop offset="0.558284" stop-color="#7C40FF"/>
<stop offset="1" stop-color="#4106C0"/>
</radialGradient>
<linearGradient id="paint1_linear_5280_10140" x1="198.32" y1="108.783" x2="98.3199" y2="108.783" gradientUnits="userSpaceOnUse">
<stop stop-color="#7C40FF"/>
<stop offset="1" stop-color="#4E01F4"/>
</linearGradient>
<linearGradient id="paint2_linear_5280_10140" x1="106.781" y1="200.318" x2="6.7808" y2="200.318" gradientUnits="userSpaceOnUse">
<stop stop-color="#7C40FF"/>
<stop offset="1" stop-color="#4E01F4"/>
</linearGradient>
<linearGradient id="paint3_linear_5280_10140" x1="380.75" y1="291.217" x2="280.75" y2="291.217" gradientUnits="userSpaceOnUse">
<stop stop-color="#7C40FF"/>
<stop offset="1" stop-color="#4E01F4"/>
</linearGradient>
<linearGradient id="paint4_linear_5280_10140" x1="197.992" y1="291.534" x2="97.9917" y2="291.534" gradientUnits="userSpaceOnUse">
<stop stop-color="#7C40FF"/>
<stop offset="1" stop-color="#4E01F4"/>
</linearGradient>
<linearGradient id="paint5_linear_5280_10140" x1="381.07" y1="108.466" x2="281.07" y2="108.466" gradientUnits="userSpaceOnUse">
<stop stop-color="#7C40FF"/>
<stop offset="1" stop-color="#4E01F4"/>
</linearGradient>
<linearGradient id="paint6_linear_5280_10140" x1="472.281" y1="199.682" x2="372.281" y2="199.682" gradientUnits="userSpaceOnUse">
<stop stop-color="#7C40FF"/>
<stop offset="1" stop-color="#4E01F4"/>
</linearGradient>
<linearGradient id="paint7_linear_5280_10140" x1="259.75" y1="0" x2="259.75" y2="80" gradientUnits="userSpaceOnUse">
<stop stop-color="#15101B"/>
<stop offset="1" stop-color="#15101B" stop-opacity="0"/>
</linearGradient>
<linearGradient id="paint8_linear_5280_10140" x1="259.75" y1="0" x2="259.75" y2="80" gradientUnits="userSpaceOnUse">
<stop stop-color="#15101B"/>
<stop offset="1" stop-color="#15101B" stop-opacity="0"/>
</linearGradient>
<clipPath id="clip0_5280_10140">
<rect width="520" height="300" fill="white"/>
</clipPath>
</defs>
</svg>
