<svg width="520" height="300" viewBox="0 0 520 300" fill="none" xmlns="http://www.w3.org/2000/svg">
<g clip-path="url(#clip0_5280_10330)">
<circle cx="259.996" cy="182" r="173.152" fill="url(#paint0_radial_5280_10330)"/>
<line x1="131.492" y1="256.344" x2="143.377" y2="249.213" stroke="white" stroke-opacity="0.2" stroke-width="1.15502"/>
<line x1="121.189" y1="234.111" x2="129.849" y2="230.888" stroke="white" stroke-opacity="0.2" stroke-width="1.15502"/>
<line x1="114.359" y1="209.515" x2="123.431" y2="207.762" stroke="white" stroke-opacity="0.2" stroke-width="1.15502"/>
<line x1="111" y1="184.651" x2="120.24" y2="184.651" stroke="white" stroke-opacity="0.2" stroke-width="1.15502"/>
<line x1="113.392" y1="160.401" x2="122.545" y2="161.668" stroke="white" stroke-opacity="0.2" stroke-width="1.15502"/>
<line x1="128.578" y1="113.096" x2="136.91" y2="117.09" stroke="white" stroke-opacity="0.2" stroke-width="1.15502"/>
<line x1="141.838" y1="91.5968" x2="149.242" y2="97.1239" stroke="white" stroke-opacity="0.2" stroke-width="1.15502"/>
<line x1="157.996" y1="73.4742" x2="164.62" y2="79.9174" stroke="white" stroke-opacity="0.2" stroke-width="1.15502"/>
<line x1="177.897" y1="58.4766" x2="183.333" y2="65.9484" stroke="white" stroke-opacity="0.2" stroke-width="1.15502"/>
<line x1="223.589" y1="38.3913" x2="225.973" y2="47.3187" stroke="white" stroke-opacity="0.2" stroke-width="1.15502"/>
<line x1="247.866" y1="33.9006" x2="248.184" y2="43.1353" stroke="white" stroke-opacity="0.2" stroke-width="1.15502"/>
<line x1="272.607" y1="33.9695" x2="271.959" y2="43.1869" stroke="white" stroke-opacity="0.2" stroke-width="1.15502"/>
<line x1="297.658" y1="38.6937" x2="295.204" y2="47.602" stroke="white" stroke-opacity="0.2" stroke-width="1.15502"/>
<line x1="343.16" y1="58.5074" x2="337.854" y2="66.0719" stroke="white" stroke-opacity="0.2" stroke-width="1.15502"/>
<line x1="362.231" y1="74.1657" x2="355.608" y2="80.6089" stroke="white" stroke-opacity="0.2" stroke-width="1.15502"/>
<line x1="378.541" y1="92.1283" x2="371.23" y2="97.7794" stroke="white" stroke-opacity="0.2" stroke-width="1.15502"/>
<line x1="392.088" y1="112.977" x2="383.839" y2="117.14" stroke="white" stroke-opacity="0.2" stroke-width="1.15502"/>
<line x1="407.382" y1="160.762" x2="398.209" y2="161.872" stroke="white" stroke-opacity="0.2" stroke-width="1.15502"/>
<line x1="408.961" y1="185.206" x2="399.721" y2="185.206" stroke="white" stroke-opacity="0.2" stroke-width="1.15502"/>
<line x1="406.47" y1="210.376" x2="397.349" y2="208.899" stroke="white" stroke-opacity="0.2" stroke-width="1.15502"/>
<line x1="399.103" y1="234.499" x2="390.592" y2="230.9" stroke="white" stroke-opacity="0.2" stroke-width="1.15502"/>
<line x1="118.172" y1="135.901" x2="131.406" y2="140.018" stroke="white" stroke-opacity="0.2" stroke-width="1.15502"/>
<line x1="199.296" y1="46.3629" x2="205.599" y2="58.707" stroke="white" stroke-opacity="0.2" stroke-width="1.15502"/>
<line x1="321.093" y1="46.8878" x2="314.798" y2="59.236" stroke="white" stroke-opacity="0.2" stroke-width="1.15502"/>
<line x1="401.432" y1="136.105" x2="388.408" y2="140.848" stroke="white" stroke-opacity="0.2" stroke-width="1.15502"/>
<line x1="389.357" y1="256.441" x2="377.509" y2="249.248" stroke="white" stroke-opacity="0.2" stroke-width="1.15502"/>
<path d="M201.723 155.693V151.628H218.17V155.324L209.078 177.5H204.606L213.55 155.693H201.723ZM223.961 161.385H227.214C229.678 161.385 231.76 162.124 233.46 163.603C235.16 165.057 236.011 167.077 236.011 169.664C236.011 172.252 235.136 174.284 233.386 175.763C231.662 177.241 229.518 177.98 226.955 177.98C224.861 177.98 223.037 177.5 221.485 176.539C219.933 175.578 218.824 174.21 218.159 172.436L221.818 170.33C222.532 172.67 224.245 173.841 226.955 173.841C228.409 173.841 229.567 173.471 230.43 172.732C231.317 171.968 231.76 170.946 231.76 169.664C231.76 168.408 231.329 167.41 230.466 166.671C229.604 165.907 228.458 165.525 227.029 165.525H219.489L220.487 151.628H234.902V155.619H224.405L223.961 161.385ZM241.2 172.399C241.963 172.399 242.616 172.67 243.158 173.213C243.701 173.755 243.972 174.408 243.972 175.171C243.972 175.935 243.701 176.588 243.158 177.13C242.616 177.672 241.963 177.944 241.2 177.944C240.436 177.944 239.783 177.672 239.241 177.13C238.699 176.588 238.427 175.935 238.427 175.171C238.427 174.408 238.686 173.755 239.204 173.213C239.746 172.67 240.411 172.399 241.2 172.399ZM263.879 174.321C262.105 176.761 259.616 177.98 256.413 177.98C253.234 177.98 250.733 176.761 248.91 174.321C247.136 171.882 246.249 168.629 246.249 164.564C246.249 160.498 247.136 157.246 248.91 154.806C250.733 152.367 253.234 151.147 256.413 151.147C259.616 151.147 262.105 152.367 263.879 154.806C265.678 157.221 266.577 160.473 266.577 164.564C266.577 168.654 265.678 171.907 263.879 174.321ZM256.413 173.841C258.335 173.841 259.801 173.04 260.811 171.438C261.821 169.837 262.327 167.545 262.327 164.564C262.327 161.582 261.821 159.291 260.811 157.689C259.801 156.087 258.335 155.287 256.413 155.287C254.516 155.287 253.049 156.087 252.015 157.689C251.004 159.291 250.499 161.582 250.499 164.564C250.499 167.545 251.004 169.837 252.015 171.438C253.049 173.04 254.516 173.841 256.413 173.841ZM287.16 174.321C285.386 176.761 282.897 177.98 279.694 177.98C276.515 177.98 274.014 176.761 272.191 174.321C270.417 171.882 269.53 168.629 269.53 164.564C269.53 160.498 270.417 157.246 272.191 154.806C274.014 152.367 276.515 151.147 279.694 151.147C282.897 151.147 285.386 152.367 287.16 154.806C288.959 157.221 289.858 160.473 289.858 164.564C289.858 168.654 288.959 171.907 287.16 174.321ZM279.694 173.841C281.616 173.841 283.082 173.04 284.092 171.438C285.102 169.837 285.608 167.545 285.608 164.564C285.608 161.582 285.102 159.291 284.092 157.689C283.082 156.087 281.616 155.287 279.694 155.287C277.796 155.287 276.33 156.087 275.295 157.689C274.285 159.291 273.78 161.582 273.78 164.564C273.78 167.545 274.285 169.837 275.295 171.438C276.33 173.04 277.796 173.841 279.694 173.841ZM302.807 152.847C303.965 154.005 304.544 155.41 304.544 157.061C304.544 158.712 303.965 160.116 302.807 161.274C301.674 162.408 300.245 162.974 298.52 162.974C296.77 162.974 295.329 162.408 294.195 161.274C293.037 160.116 292.458 158.712 292.458 157.061C292.458 155.434 293.037 154.042 294.195 152.884C295.353 151.726 296.795 151.147 298.52 151.147C300.245 151.147 301.674 151.714 302.807 152.847ZM298.483 159.722C299.271 159.722 299.912 159.475 300.405 158.983C300.898 158.465 301.144 157.825 301.144 157.061C301.144 156.297 300.898 155.656 300.405 155.139C299.912 154.621 299.271 154.363 298.483 154.363C297.719 154.363 297.091 154.621 296.598 155.139C296.105 155.656 295.859 156.297 295.859 157.061C295.859 157.8 296.105 158.428 296.598 158.946C297.115 159.463 297.744 159.722 298.483 159.722ZM296.635 174.876L294.639 173.693L311.678 154.732L313.674 155.878L296.635 174.876ZM310.347 177.944C308.598 177.944 307.156 177.377 306.023 176.243C304.865 175.085 304.286 173.681 304.286 172.03C304.286 170.404 304.865 169.011 306.023 167.853C307.181 166.695 308.622 166.116 310.347 166.116C312.047 166.116 313.477 166.695 314.635 167.853C315.793 169.011 316.372 170.404 316.372 172.03C316.372 173.681 315.793 175.085 314.635 176.243C313.501 177.377 312.072 177.944 310.347 177.944ZM310.31 174.691C311.099 174.691 311.739 174.445 312.232 173.952C312.725 173.434 312.971 172.794 312.971 172.03C312.971 171.266 312.725 170.625 312.232 170.108C311.739 169.59 311.099 169.332 310.31 169.332C309.546 169.332 308.918 169.59 308.425 170.108C307.932 170.625 307.686 171.266 307.686 172.03C307.686 172.769 307.932 173.397 308.425 173.915C308.943 174.432 309.571 174.691 310.31 174.691Z" fill="#FAFAFA"/>
<path opacity="0.5" d="M234.659 205.752C233.255 205.752 232.103 205.356 231.203 204.564C230.303 203.772 229.853 202.71 229.853 201.378V192.9H232.319V201.18C232.319 201.852 232.511 202.38 232.895 202.764C233.291 203.136 233.879 203.322 234.659 203.322C235.439 203.322 236.021 203.136 236.405 202.764C236.801 202.38 236.999 201.852 236.999 201.18V192.9H239.483V201.378C239.483 202.71 239.033 203.772 238.133 204.564C237.233 205.356 236.075 205.752 234.659 205.752ZM241.901 192.9H246.599C247.799 192.9 248.819 193.308 249.659 194.124C250.487 194.94 250.901 195.942 250.901 197.13C250.901 198.318 250.487 199.32 249.659 200.136C248.819 200.952 247.799 201.36 246.599 201.36H244.385V205.5H241.901V192.9ZM244.385 199.038H246.599C247.127 199.038 247.565 198.858 247.913 198.498C248.261 198.126 248.435 197.67 248.435 197.13C248.435 196.578 248.261 196.122 247.913 195.762C247.565 195.402 247.127 195.222 246.599 195.222H244.385V199.038ZM251.534 192.9H260.804V195.276H257.402V205.5H254.918V195.276H251.534V192.9ZM262.37 205.5V192.9H264.854V205.5H262.37ZM277.141 192.9H279.697V205.5H277.231V197.328L273.685 203.178H273.397L269.851 197.346V205.5H267.367V192.9H269.923L273.541 198.858L277.141 192.9ZM284.708 200.298V203.124H290.018V205.5H282.224V192.9H289.928V195.276H284.708V197.958H289.478V200.298H284.708Z" fill="white"/>
<rect x="386.914" y="267.603" width="4.62009" height="13.8603" rx="2.31004" transform="rotate(-58.1414 386.914 267.603)" fill="#F6FBFD" fill-opacity="0.1"/>
<rect x="391.125" y="260.644" width="4.62009" height="13.8603" rx="2.31004" transform="rotate(-61.1946 391.125 260.644)" fill="#F6FBFD" fill-opacity="0.1"/>
<rect x="394.953" y="253.491" width="4.62009" height="13.8603" rx="2.31004" transform="rotate(-64.2363 394.953 253.491)" fill="#F6FBFD" fill-opacity="0.1"/>
<rect x="398.508" y="245.906" width="4.62009" height="13.8603" rx="2.31004" transform="rotate(-67.3404 398.508 245.906)" fill="#F6FBFD" fill-opacity="0.1"/>
<rect x="401.539" y="238.403" width="4.62009" height="13.8603" rx="2.31004" transform="rotate(-70.365 401.539 238.403)" fill="#F6FBFD" fill-opacity="0.1"/>
<rect x="404.18" y="230.745" width="4.62009" height="13.8603" rx="2.31004" transform="rotate(-73.3849 404.18 230.745)" fill="#F6FBFD" fill-opacity="0.1"/>
<rect x="406.469" y="222.712" width="4.62009" height="13.8603" rx="2.31004" transform="rotate(-76.4745 406.469 222.712)" fill="#F6FBFD" fill-opacity="0.1"/>
<rect x="408.281" y="214.793" width="4.62009" height="13.8603" rx="2.31004" transform="rotate(-79.4928 408.281 214.793)" fill="#F6FBFD" fill-opacity="0.1"/>
<rect x="409.711" y="206.547" width="4.62009" height="13.8603" rx="2.31004" transform="rotate(-82.5862 409.711 206.547)" fill="#F6FBFD" fill-opacity="0.1"/>
<rect x="410.672" y="198.438" width="4.62009" height="13.8603" rx="2.31004" transform="rotate(-85.6133 410.672 198.438)" fill="#F6FBFD" fill-opacity="0.1"/>
<rect x="411.211" y="190.064" width="4.62009" height="13.8603" rx="2.31004" transform="rotate(-88.7203 411.211 190.064)" fill="#F6FBFD" fill-opacity="0.1"/>
<rect x="411.297" y="181.869" width="4.62009" height="13.8603" rx="2.31004" transform="rotate(-91.7534 411.297 181.869)" fill="#F6FBFD" fill-opacity="0.1"/>
<rect x="410.953" y="173.699" width="4.62009" height="13.8603" rx="2.31004" transform="rotate(-94.7787 410.953 173.699)" fill="#F6FBFD" fill-opacity="0.1"/>
<rect x="410.164" y="165.404" width="4.62009" height="13.8603" rx="2.31004" transform="rotate(-97.8703 410.164 165.404)" fill="#F6FBFD" fill-opacity="0.1"/>
<rect x="408.953" y="157.34" width="4.62009" height="13.8603" rx="2.31004" transform="rotate(-100.887 408.953 157.34)" fill="#F6FBFD" fill-opacity="0.1"/>
<rect x="407.289" y="149.207" width="4.62009" height="13.8603" rx="2.31004" transform="rotate(-103.975 407.289 149.207)" fill="#F6FBFD" fill-opacity="0.1"/>
<rect x="405.227" y="141.317" width="4.62009" height="13.8603" rx="2.31004" transform="rotate(-106.993 405.227 141.317)" fill="#F6FBFD" fill-opacity="0.1"/>
<rect x="402.711" y="133.419" width="4.62009" height="13.8603" rx="2.31004" transform="rotate(-110.088 402.711 133.419)" fill="#F6FBFD" fill-opacity="0.1"/>
<rect x="399.812" y="125.78" width="4.62009" height="13.8603" rx="2.31004" transform="rotate(-113.118 399.812 125.78)" fill="#F6FBFD" fill-opacity="0.1"/>
<rect x="396.508" y="118.292" width="4.62009" height="13.8603" rx="2.31004" transform="rotate(-116.158 396.508 118.292)" fill="#F6FBFD" fill-opacity="0.1"/>
<rect x="392.672" y="110.721" width="4.62009" height="13.8603" rx="2.31004" transform="rotate(-119.355 392.672 110.721)" fill="#F6FBFD" fill-opacity="0.1"/>
<rect x="388.57" y="103.633" width="4.62009" height="13.8603" rx="2.31004" transform="rotate(-122.407 388.57 103.633)" fill="#F6FBFD" fill-opacity="0.1"/>
<rect x="384.109" y="96.7792" width="4.62009" height="13.8603" rx="2.31004" transform="rotate(-125.455 384.109 96.7792)" fill="#F6FBFD" fill-opacity="0.1"/>
<rect x="379.234" y="90.1206" width="4.62009" height="13.8603" rx="2.31004" transform="rotate(-128.573 379.234 90.1206)" fill="#F6FBFD" fill-opacity="0.1"/>
<rect x="374.062" y="83.7911" width="4.62009" height="13.8603" rx="2.31004" transform="rotate(-131.619 374.062 83.7911)" fill="#F6FBFD" fill-opacity="0.1"/>
<rect x="368.516" y="77.7061" width="4.62009" height="13.8603" rx="2.31004" transform="rotate(-134.739 368.516 77.7061)" fill="#F6FBFD" fill-opacity="0.1"/>
<rect x="362.656" y="71.9351" width="4.62009" height="13.8603" rx="2.31004" transform="rotate(-137.864 362.656 71.9351)" fill="#F6FBFD" fill-opacity="0.1"/>
<rect x="356.492" y="66.494" width="4.62009" height="13.8603" rx="2.31004" transform="rotate(-140.996 356.492 66.494)" fill="#F6FBFD" fill-opacity="0.1"/>
<rect x="350.07" y="61.4177" width="4.62009" height="13.8603" rx="2.31004" transform="rotate(-144.065 350.07 61.4177)" fill="#F6FBFD" fill-opacity="0.1"/>
<rect x="343.352" y="56.6774" width="4.62009" height="13.8603" rx="2.31004" transform="rotate(-147.218 343.352 56.6774)" fill="#F6FBFD" fill-opacity="0.1"/>
<rect x="336.242" y="52.2256" width="4.62009" height="13.8603" rx="2.31004" transform="rotate(-150.383 336.242 52.2256)" fill="#F6FBFD" fill-opacity="0.1"/>
<rect x="329.047" y="48.2571" width="4.62009" height="13.8603" rx="2.31004" transform="rotate(-153.546 329.047 48.2571)" fill="#F6FBFD" fill-opacity="0.1"/>
<rect x="321.656" y="44.6909" width="4.62009" height="13.8603" rx="2.31004" transform="rotate(-156.705 321.656 44.6909)" fill="#F6FBFD" fill-opacity="0.1"/>
<rect x="314.086" y="41.5403" width="4.62009" height="13.8603" rx="2.31004" transform="rotate(-159.787 314.086 41.5403)" fill="#F6FBFD" fill-opacity="0.1"/>
<rect x="306.352" y="38.8054" width="4.62009" height="13.8603" rx="2.31004" transform="rotate(-162.941 306.352 38.8054)" fill="#F6FBFD" fill-opacity="0.1"/>
<rect x="298.477" y="36.5" width="4.62009" height="13.8603" rx="2.31004" transform="rotate(-166.097 298.477 36.5)" fill="#F6FBFD" fill-opacity="0.1"/>
<rect x="290.484" y="34.6311" width="4.62009" height="13.8603" rx="2.31004" transform="rotate(-169.256 290.484 34.6311)" fill="#F6FBFD" fill-opacity="0.1"/>
<rect x="282.406" y="33.2046" width="4.62009" height="13.8603" rx="2.31004" transform="rotate(-172.419 282.406 33.2046)" fill="#F6FBFD" fill-opacity="0.1"/>
<rect x="274.273" y="32.2246" width="4.62009" height="13.8603" rx="2.31004" transform="rotate(-175.59 274.273 32.2246)" fill="#F6FBFD" fill-opacity="0.1"/>
<rect x="266.078" y="31.6973" width="4.62009" height="13.8603" rx="2.31004" transform="rotate(-178.696 266.078 31.6973)" fill="#F6FBFD" fill-opacity="0.1"/>
<rect x="257.688" y="31.6221" width="4.62009" height="13.8603" rx="2.31004" transform="rotate(178.044 257.688 31.6221)" fill="#F6FBFD" fill-opacity="0.1"/>
<rect x="249.5" y="32.0059" width="4.62009" height="13.8603" rx="2.31004" transform="rotate(174.866 249.5 32.0059)" fill="#F6FBFD" fill-opacity="0.1"/>
<rect x="241.336" y="32.8403" width="4.62009" height="13.8603" rx="2.31004" transform="rotate(171.696 241.336 32.8403)" fill="#F6FBFD" fill-opacity="0.1"/>
<rect x="233.242" y="34.1233" width="4.62009" height="13.8603" rx="2.31004" transform="rotate(168.534 233.242 34.1233)" fill="#F6FBFD" fill-opacity="0.1"/>
<rect x="225.227" y="35.8535" width="4.62009" height="13.8603" rx="2.31004" transform="rotate(165.449 225.227 35.8535)" fill="#F6FBFD" fill-opacity="0.1"/>
<rect x="217.312" y="38.0181" width="4.62009" height="13.8603" rx="2.31004" transform="rotate(162.294 217.312 38.0181)" fill="#F6FBFD" fill-opacity="0.1"/>
<rect x="209.531" y="40.6135" width="4.62009" height="13.8603" rx="2.31004" transform="rotate(159.139 209.531 40.6135)" fill="#F6FBFD" fill-opacity="0.1"/>
<rect x="201.906" y="43.6321" width="4.62009" height="13.8603" rx="2.31004" transform="rotate(155.984 201.906 43.6321)" fill="#F6FBFD" fill-opacity="0.1"/>
<rect x="194.453" y="47.0652" width="4.62009" height="13.8603" rx="2.31004" transform="rotate(152.825 194.453 47.0652)" fill="#F6FBFD" fill-opacity="0.1"/>
<rect x="187.211" y="50.8967" width="4.62009" height="13.8603" rx="2.31004" transform="rotate(149.735 187.211 50.8967)" fill="#F6FBFD" fill-opacity="0.1"/>
<rect x="180.008" y="55.2302" width="4.62009" height="13.8603" rx="2.31004" transform="rotate(146.498 180.008 55.2302)" fill="#F6FBFD" fill-opacity="0.1"/>
<rect x="173.234" y="59.8326" width="4.62009" height="13.8603" rx="2.31004" transform="rotate(143.42 173.234 59.8326)" fill="#F6FBFD" fill-opacity="0.1"/>
<rect x="166.703" y="64.8113" width="4.62009" height="13.8603" rx="2.31004" transform="rotate(140.28 166.703 64.8113)" fill="#F6FBFD" fill-opacity="0.1"/>
<rect x="160.445" y="70.1404" width="4.62009" height="13.8603" rx="2.31004" transform="rotate(137.149 160.445 70.1404)" fill="#F6FBFD" fill-opacity="0.1"/>
<rect x="154.523" y="75.769" width="4.62009" height="13.8603" rx="2.31004" transform="rotate(134.098 154.523 75.769)" fill="#F6FBFD" fill-opacity="0.1"/>
<rect x="148.875" y="81.7451" width="4.62009" height="13.8603" rx="2.31004" transform="rotate(130.978 148.875 81.7451)" fill="#F6FBFD" fill-opacity="0.1"/>
<rect x="143.562" y="88.0254" width="4.62009" height="13.8603" rx="2.31004" transform="rotate(127.861 143.562 88.0254)" fill="#F6FBFD" fill-opacity="0.1"/>
<rect x="138.625" y="94.533" width="4.62009" height="13.8603" rx="2.31004" transform="rotate(124.816 138.625 94.533)" fill="#F6FBFD" fill-opacity="0.1"/>
<rect x="133.992" y="101.368" width="4.62009" height="13.8603" rx="2.31004" transform="rotate(121.696 133.992 101.368)" fill="#F6FBFD" fill-opacity="0.1"/>
<rect x="129.773" y="108.382" width="4.62009" height="13.8603" rx="2.31004" transform="rotate(118.643 129.773 108.382)" fill="#F6FBFD" fill-opacity="0.1"/>
<rect x="125.852" y="115.786" width="4.62009" height="13.8603" rx="2.31004" transform="rotate(115.521 125.852 115.786)" fill="#F6FBFD" fill-opacity="0.1"/>
<rect x="122.414" y="123.199" width="4.62009" height="13.8603" rx="2.31004" transform="rotate(112.482 122.414 123.199)" fill="#F6FBFD" fill-opacity="0.1"/>
<rect x="119.344" y="130.888" width="4.62009" height="13.8603" rx="2.31004" transform="rotate(109.38 119.344 130.888)" fill="#F6FBFD" fill-opacity="0.1"/>
<rect x="116.734" y="138.607" width="4.62009" height="13.8603" rx="2.31004" transform="rotate(106.358 116.734 138.607)" fill="#F6FBFD" fill-opacity="0.1"/>
<rect x="114.492" y="146.585" width="4.62009" height="13.8603" rx="2.31004" transform="rotate(103.269 114.492 146.585)" fill="#F6FBFD" fill-opacity="0.1"/>
<rect x="112.719" y="154.531" width="4.62009" height="13.8603" rx="2.31004" transform="rotate(100.253 112.719 154.531)" fill="#F6FBFD" fill-opacity="0.1"/>
<rect x="111.336" y="162.722" width="4.62009" height="13.8603" rx="2.31004" transform="rotate(97.1646 111.336 162.722)" fill="#F6FBFD" fill-opacity="0.1"/>
<rect x="110.414" y="170.822" width="4.62009" height="13.8603" rx="2.31004" transform="rotate(94.1446 110.414 170.822)" fill="#F6FBFD" fill-opacity="0.1"/>
<rect x="109.914" y="178.97" width="4.62009" height="13.8603" rx="2.31004" transform="rotate(91.1186 109.914 178.97)" fill="#F6FBFD" fill-opacity="0.1"/>
<rect x="109.859" y="187.347" width="4.62009" height="13.8603" rx="2.31004" transform="rotate(88.0048 109.859 187.347)" fill="#F6FBFD" fill-opacity="0.1"/>
<rect x="110.258" y="195.674" width="4.62009" height="13.8603" rx="2.31004" transform="rotate(84.5952 110.258 195.674)" fill="#F6FBFD" fill-opacity="0.1"/>
<rect x="111.117" y="203.712" width="4.62009" height="13.8603" rx="2.31004" transform="rotate(81.3204 111.117 203.712)" fill="#F6FBFD" fill-opacity="0.1"/>
<rect x="112.469" y="211.877" width="4.62009" height="13.8603" rx="2.31004" transform="rotate(78.0328 112.469 211.877)" fill="#F6FBFD" fill-opacity="0.1"/>
<rect x="114.227" y="219.71" width="4.62009" height="13.8603" rx="2.31004" transform="rotate(74.8918 114.227 219.71)" fill="#F6FBFD" fill-opacity="0.1"/>
<rect x="116.477" y="227.667" width="4.62009" height="13.8603" rx="2.31004" transform="rotate(71.7518 116.477 227.667)" fill="#F6FBFD" fill-opacity="0.1"/>
<rect x="119.164" y="235.511" width="4.62009" height="13.8603" rx="2.31004" transform="rotate(68.6908 119.164 235.511)" fill="#F6FBFD" fill-opacity="0.1"/>
<rect x="122.172" y="242.98" width="4.62009" height="13.8603" rx="2.31004" transform="rotate(65.7777 122.172 242.98)" fill="#F6FBFD" fill-opacity="0.1"/>
<rect x="125.688" y="250.569" width="4.62009" height="13.8603" rx="2.31004" transform="rotate(62.8725 125.688 250.569)" fill="#F6FBFD" fill-opacity="0.1"/>
<rect x="129.461" y="257.762" width="4.62009" height="13.8603" rx="2.31004" transform="rotate(60.1078 129.461 257.762)" fill="#F6FBFD" fill-opacity="0.1"/>
<rect x="132.945" y="263.729" width="4.62009" height="13.8603" rx="2.31004" transform="rotate(57.8563 132.945 263.729)" fill="#F6FBFD" fill-opacity="0.1"/>
<rect x="386.906" y="267.603" width="4.62009" height="13.8603" rx="2.31004" transform="rotate(-58.1414 386.906 267.603)" fill="#F6FBFD" fill-opacity="0.1"/>
<rect x="391.125" y="260.644" width="4.62009" height="13.8603" rx="2.31004" transform="rotate(-61.1946 391.125 260.644)" fill="#F6FBFD" fill-opacity="0.1"/>
<rect x="394.953" y="253.491" width="4.62009" height="13.8603" rx="2.31004" transform="rotate(-64.2363 394.953 253.491)" fill="#F6FBFD" fill-opacity="0.1"/>
<rect x="398.5" y="245.906" width="4.62009" height="13.8603" rx="2.31004" transform="rotate(-67.3404 398.5 245.906)" fill="#F6FBFD" fill-opacity="0.1"/>
<rect x="401.539" y="238.403" width="4.62009" height="13.8603" rx="2.31004" transform="rotate(-70.365 401.539 238.403)" fill="#F6FBFD" fill-opacity="0.1"/>
<rect x="404.172" y="230.745" width="4.62009" height="13.8603" rx="2.31004" transform="rotate(-73.3849 404.172 230.745)" fill="#F6FBFD" fill-opacity="0.1"/>
<rect x="406.469" y="222.712" width="4.62009" height="13.8603" rx="2.31004" transform="rotate(-76.4745 406.469 222.712)" fill="#F6FBFD" fill-opacity="0.1"/>
<rect x="408.281" y="214.793" width="4.62009" height="13.8603" rx="2.31004" transform="rotate(-79.4928 408.281 214.793)" fill="#F6FBFD" fill-opacity="0.1"/>
<rect x="409.703" y="206.547" width="4.62009" height="13.8603" rx="2.31004" transform="rotate(-82.5862 409.703 206.547)" fill="#F6FBFD" fill-opacity="0.1"/>
<rect x="410.672" y="198.438" width="4.62009" height="13.8603" rx="2.31004" transform="rotate(-85.6133 410.672 198.438)" fill="#F6FBFD" fill-opacity="0.1"/>
<rect x="411.211" y="190.064" width="4.62009" height="13.8603" rx="2.31004" transform="rotate(-88.7203 411.211 190.064)" fill="#F6FBFD" fill-opacity="0.1"/>
<rect x="411.297" y="181.869" width="4.62009" height="13.8603" rx="2.31004" transform="rotate(-91.7534 411.297 181.869)" fill="#F6FBFD" fill-opacity="0.1"/>
<rect x="410.953" y="173.699" width="4.62009" height="13.8603" rx="2.31004" transform="rotate(-94.7787 410.953 173.699)" fill="#F6FBFD" fill-opacity="0.1"/>
<rect x="410.156" y="165.404" width="4.62009" height="13.8603" rx="2.31004" transform="rotate(-97.8703 410.156 165.404)" fill="#F6FBFD" fill-opacity="0.1"/>
<rect x="408.953" y="157.34" width="4.62009" height="13.8603" rx="2.31004" transform="rotate(-100.887 408.953 157.34)" fill="#F6FBFD" fill-opacity="0.1"/>
<rect x="407.281" y="149.207" width="4.62009" height="13.8603" rx="2.31004" transform="rotate(-103.975 407.281 149.207)" fill="#F6FBFD" fill-opacity="0.1"/>
<rect x="405.219" y="141.317" width="4.62009" height="13.8603" rx="2.31004" transform="rotate(-106.993 405.219 141.317)" fill="#F6FBFD" fill-opacity="0.1"/>
<rect x="402.703" y="133.419" width="4.62009" height="13.8603" rx="2.31004" transform="rotate(-110.088 402.703 133.419)" fill="#F6FBFD" fill-opacity="0.1"/>
<rect x="399.812" y="125.78" width="4.62009" height="13.8603" rx="2.31004" transform="rotate(-113.118 399.812 125.78)" fill="#F6FBFD" fill-opacity="0.1"/>
<rect x="396.508" y="118.292" width="4.62009" height="13.8603" rx="2.31004" transform="rotate(-116.158 396.508 118.292)" fill="#F6FBFD" fill-opacity="0.1"/>
<g filter="url(#filter0_di_5280_10330)">
<path d="M394.684 109.589C393.572 110.214 392.163 109.82 391.538 108.708V108.708C390.913 107.596 391.307 106.187 392.419 105.562L400.473 101.032C401.585 100.407 402.993 100.801 403.619 101.913V101.913C404.244 103.025 403.85 104.434 402.738 105.059L394.684 109.589Z" fill="url(#paint1_angular_5280_10330)"/>
<path d="M390.523 102.395C389.446 103.079 388.019 102.76 387.335 101.683V101.683C386.651 100.606 386.97 99.1781 388.047 98.4944L395.848 93.5422C396.925 92.8585 398.353 93.1774 399.036 94.2545V94.2545C399.72 95.3316 399.401 96.759 398.324 97.4428L390.523 102.395Z" fill="url(#paint2_angular_5280_10330)"/>
<path d="M385.99 95.4391C384.95 96.1792 383.508 95.9367 382.768 94.8974V94.8974C382.028 93.8582 382.27 92.4158 383.31 91.6758L390.836 86.3159C391.876 85.5758 393.318 85.8183 394.058 86.8576V86.8576C394.798 87.8968 394.556 89.3392 393.516 90.0792L385.99 95.4391Z" fill="url(#paint3_angular_5280_10330)"/>
<path d="M381.043 88.6803C380.045 89.4757 378.592 89.312 377.797 88.3146V88.3146C377.001 87.3171 377.165 85.8637 378.162 85.0682L385.386 79.3068C386.384 78.5114 387.837 78.6751 388.633 79.6725V79.6725C389.428 80.67 389.264 82.1234 388.267 82.9189L381.043 88.6803Z" fill="url(#paint4_angular_5280_10330)"/>
<path d="M375.792 82.2568C374.838 83.1042 373.378 83.0179 372.531 82.0641V82.0641C371.683 81.1104 371.77 79.6503 372.723 78.8029L379.631 72.6659C380.585 71.8186 382.045 71.9048 382.892 72.8586V72.8586C383.74 73.8124 383.654 75.2725 382.7 76.1198L375.792 82.2568Z" fill="url(#paint5_angular_5280_10330)"/>
<path d="M370.159 76.08C369.253 76.978 367.79 76.9714 366.892 76.0651V76.0651C365.994 75.1589 366.001 73.6963 366.907 72.7983L373.471 66.2943C374.377 65.3963 375.839 65.403 376.737 66.3092V66.3092C377.635 67.2155 377.629 68.6781 376.723 69.5761L370.159 76.08Z" fill="url(#paint6_angular_5280_10330)"/>
<path d="M364.209 70.2221C363.353 71.1682 361.892 71.2412 360.946 70.3853V70.3853C360 69.5294 359.927 68.0686 360.783 67.1225L366.982 60.2704C367.838 59.3243 369.298 59.2513 370.245 60.1072V60.1072C371.191 60.9631 371.264 62.4239 370.408 63.37L364.209 70.2221Z" fill="url(#paint7_angular_5280_10330)"/>
<path d="M357.949 64.6989C357.146 65.6903 355.691 65.8431 354.7 65.0401V65.0401C353.708 64.2372 353.555 62.7825 354.358 61.7911L360.174 54.6105C360.977 53.6191 362.431 53.4663 363.423 54.2693V54.2693C364.414 55.0722 364.567 56.5269 363.764 57.5183L357.949 64.6989Z" fill="url(#paint8_angular_5280_10330)"/>
<path d="M351.425 59.5474C350.676 60.5803 349.232 60.8108 348.199 60.062V60.062C347.166 59.3133 346.935 57.8689 347.684 56.836L353.107 49.3544C353.855 48.3214 355.3 48.0909 356.333 48.8397V48.8397C357.366 49.5884 357.596 51.0328 356.847 52.0658L351.425 59.5474Z" fill="url(#paint9_angular_5280_10330)"/>
<path d="M344.601 54.7352C343.91 55.8078 342.481 56.1174 341.408 55.4266V55.4266C340.335 54.7358 340.026 53.3063 340.717 52.2337L345.72 44.4652C346.411 43.3926 347.84 43.083 348.913 43.7738V43.7738C349.985 44.4646 350.295 45.8941 349.604 46.9667L344.601 54.7352Z" fill="url(#paint10_angular_5280_10330)"/>
<path d="M337.382 50.2173C336.752 51.3264 335.342 51.7144 334.233 51.0839V51.0839C333.123 50.4534 332.735 49.0431 333.366 47.934L337.933 39.9011C338.563 38.792 339.973 38.404 341.082 39.0345V39.0345C342.191 39.665 342.579 41.0753 341.949 42.1844L337.382 50.2173Z" fill="url(#paint11_angular_5280_10330)"/>
<path d="M330.078 46.1889C329.51 47.3312 328.123 47.7964 326.981 47.228V47.228C325.839 46.6597 325.374 45.273 325.942 44.1308L330.058 35.8581C330.627 34.7159 332.013 34.2507 333.156 34.8191V34.8191C334.298 35.3874 334.763 36.7741 334.195 37.9163L330.078 46.1889Z" fill="url(#paint12_angular_5280_10330)"/>
<path d="M322.572 42.5691C322.068 43.7409 320.709 44.2819 319.537 43.7773V43.7773C318.365 43.2728 317.824 41.9138 318.329 40.742L321.983 32.2551C322.488 31.0833 323.847 30.5424 325.018 31.047V31.047C326.19 31.5515 326.731 32.9105 326.227 34.0822L322.572 42.5691Z" fill="url(#paint13_angular_5280_10330)"/>
<path d="M314.887 39.3726C314.446 40.5698 313.118 41.183 311.921 40.7422V40.7422C310.723 40.3014 310.11 38.9735 310.551 37.7763L313.744 29.1052C314.184 27.908 315.512 27.2948 316.71 27.7356V27.7356C317.907 28.1764 318.52 29.5043 318.079 30.7015L314.887 39.3726Z" fill="url(#paint14_angular_5280_10330)"/>
<path d="M307.028 36.5971C306.654 37.8168 305.361 38.5021 304.142 38.1279V38.1279C302.922 37.7536 302.237 36.4615 302.611 35.2418L305.322 26.4081C305.696 25.1885 306.988 24.5031 308.208 24.8774V24.8774C309.427 25.2516 310.113 26.5438 309.738 27.7634L307.028 36.5971Z" fill="url(#paint15_angular_5280_10330)"/>
<path d="M299.03 34.2577C298.724 35.4961 297.471 36.2516 296.233 35.945V35.945C294.994 35.6385 294.239 34.386 294.545 33.1476L296.766 24.1781C297.072 22.9397 298.325 22.1843 299.563 22.4908V22.4908C300.802 22.7974 301.557 24.0498 301.25 25.2882L299.03 34.2577Z" fill="url(#paint16_angular_5280_10330)"/>
<path d="M290.918 32.3616C290.68 33.6151 289.471 34.4384 288.217 34.2005V34.2005C286.964 33.9627 286.141 32.7538 286.378 31.5003L288.101 22.4221C288.339 21.1687 289.548 20.3454 290.801 20.5832V20.5832C292.055 20.8211 292.878 22.03 292.64 23.2834L290.918 32.3616Z" fill="url(#paint17_angular_5280_10330)"/>
<path d="M282.713 30.9147C282.545 32.1794 281.384 33.0681 280.119 32.8998V32.8998C278.854 32.7315 277.965 31.5699 278.134 30.3052L279.353 21.1458C279.521 19.8812 280.683 18.9924 281.947 19.1607V19.1607C283.212 19.329 284.101 20.4906 283.932 21.7553L282.713 30.9147Z" fill="url(#paint18_angular_5280_10330)"/>
<path d="M274.45 29.9215C274.352 31.1935 273.241 32.1452 271.969 32.0471V32.0471C270.697 31.949 269.745 30.8383 269.843 29.5663L270.554 20.3535C270.652 19.0814 271.763 18.1298 273.035 18.2279V18.2279C274.307 18.326 275.258 19.4367 275.16 20.7087L274.45 29.9215Z" fill="url(#paint19_angular_5280_10330)"/>
<path d="M266.129 29.3878C266.1 30.6632 265.043 31.6737 263.767 31.6446V31.6446C262.492 31.6156 261.481 30.558 261.51 29.2826L261.721 20.0448C261.75 18.7693 262.807 17.7589 264.083 17.7879V17.7879C265.358 17.817 266.369 18.8745 266.34 20.15L266.129 29.3878Z" fill="url(#paint20_angular_5280_10330)"/>
<path d="M257.611 29.3134C257.655 30.5885 256.656 31.6574 255.381 31.7009V31.7009C254.106 31.7445 253.037 30.7461 252.994 29.471L252.678 20.2363C252.635 18.9612 253.633 17.8923 254.908 17.8487V17.8487C256.183 17.8052 257.252 18.8035 257.296 20.0786L257.611 29.3134Z" fill="url(#paint21_angular_5280_10330)"/>
<path d="M249.292 29.705C249.406 30.9757 248.469 32.0984 247.198 32.2125V32.2125C245.927 32.3267 244.805 31.3891 244.69 30.1185L243.864 20.9153C243.749 19.6447 244.687 18.522 245.958 18.4079V18.4079C247.228 18.2937 248.351 19.2313 248.465 20.5019L249.292 29.705Z" fill="url(#paint22_angular_5280_10330)"/>
<path d="M241.005 30.5546C241.189 31.817 240.315 32.9898 239.053 33.174V33.174C237.79 33.3583 236.617 32.4842 236.433 31.2218L235.099 22.0785C234.914 20.8161 235.789 19.6433 237.051 19.4591V19.4591C238.313 19.2748 239.486 20.1489 239.67 21.4113L241.005 30.5546Z" fill="url(#paint23_angular_5280_10330)"/>
<path d="M232.782 31.8593C233.035 33.1096 232.227 34.3288 230.977 34.5825V34.5825C229.727 34.8361 228.507 34.0281 228.254 32.7777L226.417 23.722C226.163 22.4717 226.971 21.2525 228.222 20.9988V20.9988C229.472 20.7452 230.691 21.5532 230.945 22.8036L232.782 31.8593Z" fill="url(#paint24_angular_5280_10330)"/>
<path d="M224.645 33.6176C224.965 34.8525 224.224 36.1134 222.989 36.434V36.434C221.754 36.7545 220.493 36.0133 220.173 34.7784L217.851 25.8346C217.531 24.5997 218.272 23.3388 219.507 23.0183V23.0183C220.742 22.6978 222.003 23.439 222.323 24.6739L224.645 33.6176Z" fill="url(#paint25_angular_5280_10330)"/>
<path d="M216.612 35.8174C217 37.0328 216.33 38.3326 215.114 38.7206V38.7206C213.899 39.1086 212.599 38.4379 212.211 37.2225L209.401 28.4201C209.013 27.2047 209.684 25.9049 210.899 25.5169V25.5169C212.114 25.1289 213.414 25.7996 213.802 27.0149L216.612 35.8174Z" fill="url(#paint26_angular_5280_10330)"/>
<path d="M208.707 38.4549C209.162 39.647 208.563 40.9818 207.371 41.4361V41.4361C206.179 41.8904 204.844 41.2922 204.39 40.1L201.1 31.4656C200.645 30.2734 201.243 28.9386 202.436 28.4843V28.4843C203.628 28.03 204.963 28.6282 205.417 29.8204L208.707 38.4549Z" fill="url(#paint27_angular_5280_10330)"/>
<path d="M200.965 41.522C201.484 42.6874 200.96 44.053 199.795 44.5722V44.5722C198.629 45.0915 197.264 44.5677 196.745 43.4024L192.984 34.9621C192.465 33.7967 192.988 32.4311 194.154 31.9119V31.9119C195.319 31.3926 196.685 31.9164 197.204 33.0817L200.965 41.522Z" fill="url(#paint28_angular_5280_10330)"/>
<path d="M193.397 45.0101C193.979 46.1451 193.532 47.5375 192.397 48.1201V48.1201C191.262 48.7028 189.869 48.2551 189.287 47.1201L185.067 38.8999C184.484 37.7649 184.932 36.3725 186.067 35.7898V35.7898C187.202 35.2072 188.594 35.6549 189.177 36.7899L193.397 45.0101Z" fill="url(#paint29_angular_5280_10330)"/>
<path d="M186.045 48.9015C186.688 50.0035 186.316 51.418 185.214 52.061V52.061C184.112 52.704 182.698 52.332 182.055 51.2301L177.398 43.2492C176.755 42.1473 177.127 40.7328 178.229 40.0898V40.0898C179.331 39.4468 180.745 39.8188 181.388 40.9207L186.045 48.9015Z" fill="url(#paint30_angular_5280_10330)"/>
<path d="M178.735 53.3039C179.439 54.3678 179.148 55.8011 178.084 56.5053V56.5053C177.02 57.2095 175.587 56.9179 174.883 55.8541L169.782 48.149C169.078 47.0851 169.37 45.6518 170.434 44.9476V44.9476C171.498 44.2434 172.931 44.535 173.635 45.5988L178.735 53.3039Z" fill="url(#paint31_angular_5280_10330)"/>
<path d="M171.86 57.9776C172.621 59.0021 172.406 60.449 171.382 61.2093V61.2093C170.357 61.9696 168.91 61.7554 168.15 60.7309L162.644 53.3108C161.883 52.2863 162.097 50.8394 163.122 50.0791V50.0791C164.146 49.3188 165.593 49.533 166.354 50.5575L171.86 57.9776Z" fill="url(#paint32_angular_5280_10330)"/>
<path d="M165.229 63.0344C166.045 64.0157 165.91 65.4722 164.929 66.2875V66.2875C163.947 67.1027 162.491 66.9682 161.676 65.9868L155.771 58.8795C154.956 57.8982 155.09 56.4418 156.072 55.6265V55.6265C157.053 54.8112 158.509 54.9458 159.325 55.9271L165.229 63.0344Z" fill="url(#paint33_angular_5280_10330)"/>
<path d="M158.877 68.4468C159.744 69.3821 159.69 70.8437 158.754 71.7114V71.7114C157.819 72.579 156.357 72.5242 155.49 71.5889L149.205 64.8147C148.338 63.8793 148.393 62.4177 149.328 61.5501V61.5501C150.263 60.6824 151.725 60.7372 152.593 61.6726L158.877 68.4468Z" fill="url(#paint34_angular_5280_10330)"/>
<path d="M152.867 74.1615C153.783 75.0493 153.806 76.5118 152.918 77.428V77.428C152.031 78.3442 150.568 78.3673 149.652 77.4795L143.016 71.0494C142.1 70.1615 142.077 68.6991 142.965 67.7829V67.7829C143.852 66.8666 145.315 66.8436 146.231 67.7314L152.867 74.1615Z" fill="url(#paint35_angular_5280_10330)"/>
<path d="M147.134 80.2303C148.097 81.0669 148.199 82.526 147.363 83.4892V83.4892C146.526 84.4523 145.067 84.5549 144.104 83.7183L137.128 77.6588C136.165 76.8222 136.062 75.3631 136.899 74.4V74.4C137.735 73.4368 139.194 73.3342 140.158 74.1708L147.134 80.2303Z" fill="url(#paint36_angular_5280_10330)"/>
<path d="M141.737 86.6076C142.745 87.3907 142.926 88.842 142.143 89.8492V89.8492C141.36 90.8565 139.909 91.0382 138.902 90.2552L131.607 84.5841C130.599 83.801 130.418 82.3497 131.201 81.3425V81.3425C131.984 80.3352 133.435 80.1535 134.442 80.9365L141.737 86.6076Z" fill="url(#paint37_angular_5280_10330)"/>
<path d="M136.727 93.2141C137.774 93.9425 138.033 95.3821 137.305 96.4295V96.4295C136.576 97.4769 135.137 97.7355 134.089 97.0071L126.503 91.7315C125.456 91.0031 125.197 89.5635 125.926 88.5161V88.5161C126.654 87.4687 128.094 87.2101 129.141 87.9385L136.727 93.2141Z" fill="url(#paint38_angular_5280_10330)"/>
<path d="M132.025 100.155C133.111 100.825 133.447 102.248 132.777 103.334V103.334C132.107 104.419 130.683 104.756 129.598 104.086L121.736 99.2307C120.65 98.5604 120.314 97.137 120.984 96.0515V96.0515C121.654 94.9659 123.078 94.6294 124.163 95.2997L132.025 100.155Z" fill="url(#paint39_angular_5280_10330)"/>
<path d="M127.749 107.275C128.868 107.886 129.28 109.29 128.669 110.41V110.41C128.057 111.529 126.654 111.941 125.534 111.33L117.425 106.9C116.305 106.289 115.893 104.885 116.505 103.766V103.766C117.116 102.646 118.52 102.234 119.639 102.846L127.749 107.275Z" fill="url(#paint40_angular_5280_10330)"/>
<path d="M123.766 114.791C124.917 115.34 125.405 116.719 124.855 117.87V117.87C124.305 119.022 122.926 119.509 121.775 118.96L113.436 114.979C112.285 114.429 111.797 113.05 112.347 111.899V111.899C112.897 110.748 114.276 110.26 115.427 110.81L123.766 114.791Z" fill="url(#paint41_angular_5280_10330)"/>
<path d="M120.282 122.316C121.461 122.804 122.021 124.155 121.533 125.334V125.334C121.045 126.512 119.694 127.073 118.515 126.585L109.977 123.051C108.799 122.564 108.238 121.212 108.726 120.034V120.034C109.214 118.855 110.565 118.295 111.744 118.782L120.282 122.316Z" fill="url(#paint42_angular_5280_10330)"/>
<path d="M117.167 130.121C118.371 130.545 119.003 131.864 118.58 133.067V133.067C118.156 134.271 116.837 134.903 115.634 134.48L106.917 131.414C105.714 130.99 105.081 129.671 105.505 128.468V128.468C105.928 127.264 107.247 126.632 108.451 127.055L117.167 130.121Z" fill="url(#paint43_angular_5280_10330)"/>
<path d="M114.516 137.957C115.741 138.316 116.442 139.6 116.082 140.824V140.824C115.723 142.048 114.439 142.749 113.215 142.39L104.349 139.787C103.125 139.428 102.424 138.144 102.783 136.92V136.92C103.142 135.696 104.426 134.995 105.65 135.354L114.516 137.957Z" fill="url(#paint44_angular_5280_10330)"/>
<path d="M112.246 146.055C113.488 146.348 114.257 147.592 113.964 148.834V148.834C113.672 150.075 112.428 150.845 111.186 150.552L102.192 148.431C100.951 148.138 100.181 146.894 100.474 145.652V145.652C100.767 144.411 102.011 143.641 103.253 143.934L112.246 146.055Z" fill="url(#paint45_angular_5280_10330)"/>
<path d="M110.444 154.119C111.7 154.346 112.533 155.548 112.306 156.804V156.804C112.079 158.059 110.877 158.893 109.622 158.666L100.529 157.021C99.2738 156.794 98.4401 155.592 98.6672 154.337V154.337C98.8943 153.081 100.096 152.248 101.352 152.475L110.444 154.119Z" fill="url(#paint46_angular_5280_10330)"/>
<path d="M109.043 162.434C110.308 162.593 111.206 163.748 111.046 165.014V165.014C110.887 166.28 109.732 167.177 108.466 167.018L99.2983 165.866C98.0324 165.707 97.1353 164.551 97.2944 163.286V163.286C97.4535 162.02 98.6087 161.123 99.8745 161.282L109.043 162.434Z" fill="url(#paint47_angular_5280_10330)"/>
<path d="M108.109 170.655C109.381 170.748 110.338 171.854 110.246 173.126V173.126C110.153 174.399 109.047 175.356 107.775 175.263L98.5587 174.596C97.2863 174.503 96.3295 173.397 96.4217 172.125V172.125C96.5139 170.852 97.6202 169.895 98.8926 169.988L108.109 170.655Z" fill="url(#paint48_angular_5280_10330)"/>
<path d="M107.607 178.925C108.883 178.95 109.896 180.005 109.871 181.28V181.28C109.847 182.556 108.792 183.57 107.517 183.545L98.2784 183.364C97.0028 183.339 95.9889 182.285 96.0138 181.01V181.01C96.0388 179.734 97.093 178.72 98.3685 178.745L107.607 178.925Z" fill="url(#paint49_angular_5280_10330)"/>
<path d="M107.549 187.427C108.824 187.383 109.894 188.381 109.938 189.656V189.656C109.983 190.931 108.985 192 107.71 192.045L98.4756 192.366C97.2006 192.411 96.131 191.413 96.0865 190.138V190.138C96.0421 188.863 97.0397 187.793 98.3148 187.749L107.549 187.427Z" fill="url(#paint50_angular_5280_10330)"/>
<path d="M107.957 195.892C109.227 195.772 110.354 196.704 110.474 197.974V197.974C110.594 199.244 109.662 200.371 108.392 200.491L99.1927 201.362C97.9226 201.482 96.7955 200.55 96.6754 199.279V199.279C96.5552 198.009 97.4874 196.882 98.7575 196.762L107.957 195.892Z" fill="url(#paint51_angular_5280_10330)"/>
<path d="M108.832 204.06C110.093 203.868 111.272 204.734 111.464 205.995V205.995C111.657 207.256 110.791 208.435 109.529 208.627L100.395 210.022C99.1339 210.214 97.9554 209.348 97.7629 208.087V208.087C97.5703 206.826 98.4367 205.647 99.6978 205.455L108.832 204.06Z" fill="url(#paint52_angular_5280_10330)"/>
<path d="M110.208 212.356C111.456 212.091 112.682 212.889 112.946 214.137V214.137C113.211 215.385 112.414 216.611 111.165 216.876L102.126 218.792C100.878 219.056 99.6518 218.259 99.3873 217.011V217.011C99.1228 215.763 99.9201 214.536 101.168 214.272L110.208 212.356Z" fill="url(#paint53_angular_5280_10330)"/>
<path d="M111.995 220.312C113.227 219.979 114.495 220.708 114.827 221.94V221.94C115.16 223.172 114.431 224.44 113.199 224.772L104.278 227.181C103.047 227.513 101.779 226.784 101.446 225.553V225.553C101.114 224.321 101.842 223.053 103.074 222.72L111.995 220.312Z" fill="url(#paint54_angular_5280_10330)"/>
<path d="M114.281 228.391C115.493 227.991 116.799 228.649 117.199 229.861V229.861C117.598 231.073 116.94 232.379 115.728 232.778L106.953 235.672C105.741 236.071 104.435 235.413 104.035 234.201V234.201C103.636 232.99 104.294 231.683 105.506 231.284L114.281 228.391Z" fill="url(#paint55_angular_5280_10330)"/>
<path d="M117.011 236.35C118.199 235.887 119.539 236.474 120.002 237.663V237.663C120.466 238.852 119.878 240.191 118.689 240.655L110.081 244.012C108.892 244.476 107.553 243.888 107.089 242.7V242.7C106.626 241.511 107.214 240.172 108.402 239.708L117.011 236.35Z" fill="url(#paint56_angular_5280_10330)"/>
<path d="M120.064 243.928C121.227 243.404 122.595 243.923 123.118 245.087V245.087C123.642 246.25 123.123 247.618 121.959 248.141L113.533 251.932C112.369 252.456 111.002 251.937 110.478 250.773V250.773C109.955 249.61 110.474 248.242 111.637 247.719L120.064 243.928Z" fill="url(#paint57_angular_5280_10330)"/>
<path d="M123.634 251.622C124.77 251.04 126.162 251.489 126.743 252.625V252.625C127.325 253.76 126.876 255.152 125.741 255.734L117.517 259.947C116.382 260.529 114.99 260.08 114.408 258.944V258.944C113.826 257.809 114.275 256.417 115.41 255.835L123.634 251.622Z" fill="url(#paint58_angular_5280_10330)"/>
<path d="M127.461 258.913C128.567 258.277 129.979 258.658 130.615 259.764V259.764C131.251 260.87 130.869 262.282 129.763 262.918L121.752 267.523C120.646 268.159 119.234 267.778 118.598 266.672V266.672C117.963 265.566 118.344 264.154 119.45 263.518L127.461 258.913Z" fill="url(#paint59_angular_5280_10330)"/>
<path d="M130.992 264.959C132.072 264.28 133.498 264.605 134.177 265.686V265.686C134.856 266.766 134.53 268.192 133.45 268.871L125.626 273.787C124.546 274.465 123.12 274.14 122.441 273.06V273.06C121.762 271.98 122.088 270.554 123.168 269.875L130.992 264.959Z" fill="url(#paint60_angular_5280_10330)"/>
</g>
<circle cx="259.996" cy="182" r="208.168" stroke="white" stroke-opacity="0.15"/>
<circle cx="260.004" cy="182" r="243.113" stroke="white" stroke-opacity="0.15"/>
<circle cx="260" cy="182" r="280.922" stroke="white" stroke-opacity="0.15"/>
<path d="M90.2223 282.053L105.925 272.631M76.6154 252.679L88.0564 248.419M67.5814 220.182L79.5676 217.865M63.1484 187.331H75.3565M66.3032 155.292L78.3959 156.967M86.3668 92.7938L97.3758 98.07M103.891 64.3891L113.674 71.6916M125.235 40.4457L133.985 48.9583M151.532 20.631L158.714 30.5027M211.906 -5.90547L215.055 5.88936M243.975 -11.8389L244.394 0.361991M276.658 -11.7476L275.801 0.430391M309.76 -5.50598L306.518 6.26359M369.877 20.6717L362.866 30.6658M395.073 41.3592L386.323 49.8719M416.621 65.0914L406.963 72.5576M434.526 92.637L423.626 98.1365M454.726 155.77L442.607 157.237M456.813 188.065H444.604M453.527 221.319L441.476 219.368M443.789 253.19L432.544 248.436M72.6286 122.924L90.1142 128.363M179.804 4.62644L188.132 20.9354M340.716 5.31996L332.399 21.6344M446.86 123.193L429.654 129.459M430.911 282.18L415.258 272.677" stroke="white" stroke-width="1.15502"/>
<path d="M21.8398 321.223L43.8679 308.006M2.75148 280.016L18.8014 274.041M-9.92189 234.428L6.89298 231.179M-16.1406 188.344H0.985399M-11.715 143.398L5.24919 145.747M16.4312 55.7225L31.8752 63.1242M41.0148 15.875L54.7391 26.1193M70.9568 -17.7139L83.2324 -5.77194M107.848 -45.5108L117.924 -31.6623M192.543 -82.7374L196.961 -66.1911M237.531 -91.061L238.12 -73.9451M283.38 -90.933L282.179 -73.8492M329.818 -82.177L325.269 -65.6661M414.152 -45.4537L404.317 -31.4336M449.498 -16.4324L437.223 -4.49036M479.728 16.8602L466.178 27.3341M504.844 55.5026L489.554 63.2174M533.183 144.068L516.181 146.126M536.109 189.373H518.983M531.5 236.024L514.594 233.286M517.839 280.734L502.065 274.065M-2.84144 97.9899L21.6882 105.62M147.509 -67.9628L159.192 -45.0838M373.244 -66.9898L361.577 -44.1032M522.148 98.3678L498.01 107.158M499.774 321.403L477.815 308.071" stroke="white" stroke-width="1.15502"/>
<rect width="519.5" height="80" fill="url(#paint61_linear_5280_10330)"/>
<path d="M1.31134e-05 300L0 3.49691e-06L80 0L80 300H1.31134e-05Z" fill="url(#paint62_linear_5280_10330)"/>
<path d="M520 300L520 3.49691e-06L440 0L440 300H520Z" fill="url(#paint63_linear_5280_10330)"/>
<rect width="519.5" height="80" transform="matrix(1 0 0 -1 0 300)" fill="url(#paint64_linear_5280_10330)"/>
</g>
<defs>
<filter id="filter0_di_5280_10330" x="86.0156" y="7.78735" width="327.898" height="276.354" filterUnits="userSpaceOnUse" color-interpolation-filters="sRGB">
<feFlood flood-opacity="0" result="BackgroundImageFix"/>
<feColorMatrix in="SourceAlpha" type="matrix" values="0 0 0 0 0 0 0 0 0 0 0 0 0 0 0 0 0 0 127 0" result="hardAlpha"/>
<feOffset/>
<feGaussianBlur stdDeviation="5"/>
<feComposite in2="hardAlpha" operator="out"/>
<feColorMatrix type="matrix" values="0 0 0 0 0.356863 0 0 0 0 0.0784314 0 0 0 0 0.956863 0 0 0 1 0"/>
<feBlend mode="normal" in2="BackgroundImageFix" result="effect1_dropShadow_5280_10330"/>
<feBlend mode="normal" in="SourceGraphic" in2="effect1_dropShadow_5280_10330" result="shape"/>
<feColorMatrix in="SourceAlpha" type="matrix" values="0 0 0 0 0 0 0 0 0 0 0 0 0 0 0 0 0 0 127 0" result="hardAlpha"/>
<feOffset/>
<feGaussianBlur stdDeviation="1.5"/>
<feComposite in2="hardAlpha" operator="arithmetic" k2="-1" k3="1"/>
<feColorMatrix type="matrix" values="0 0 0 0 1 0 0 0 0 1 0 0 0 0 1 0 0 0 0.25 0"/>
<feBlend mode="normal" in2="shape" result="effect2_innerShadow_5280_10330"/>
</filter>
<radialGradient id="paint0_radial_5280_10330" cx="0" cy="0" r="1" gradientUnits="userSpaceOnUse" gradientTransform="translate(259.996 182) rotate(90) scale(173.152)">
<stop stop-color="#282230"/>
<stop offset="1" stop-color="#15101B"/>
</radialGradient>
<radialGradient id="paint1_angular_5280_10330" cx="0" cy="0" r="1" gradientUnits="userSpaceOnUse" gradientTransform="translate(259.118 180.182) rotate(143.17) scale(169.478 167.39)">
<stop offset="0.00122236" stop-color="#C0A3FF"/>
<stop offset="0.471855" stop-color="#7C40FF"/>
<stop offset="0.575925" stop-color="#4106C0"/>
</radialGradient>
<radialGradient id="paint2_angular_5280_10330" cx="0" cy="0" r="1" gradientUnits="userSpaceOnUse" gradientTransform="translate(259.118 180.182) rotate(143.17) scale(169.478 167.39)">
<stop offset="0.00122236" stop-color="#C0A3FF"/>
<stop offset="0.471855" stop-color="#7C40FF"/>
<stop offset="0.575925" stop-color="#4106C0"/>
</radialGradient>
<radialGradient id="paint3_angular_5280_10330" cx="0" cy="0" r="1" gradientUnits="userSpaceOnUse" gradientTransform="translate(259.118 180.182) rotate(143.17) scale(169.478 167.39)">
<stop offset="0.00122236" stop-color="#C0A3FF"/>
<stop offset="0.471855" stop-color="#7C40FF"/>
<stop offset="0.575925" stop-color="#4106C0"/>
</radialGradient>
<radialGradient id="paint4_angular_5280_10330" cx="0" cy="0" r="1" gradientUnits="userSpaceOnUse" gradientTransform="translate(259.118 180.182) rotate(143.17) scale(169.478 167.39)">
<stop offset="0.00122236" stop-color="#C0A3FF"/>
<stop offset="0.471855" stop-color="#7C40FF"/>
<stop offset="0.575925" stop-color="#4106C0"/>
</radialGradient>
<radialGradient id="paint5_angular_5280_10330" cx="0" cy="0" r="1" gradientUnits="userSpaceOnUse" gradientTransform="translate(259.118 180.182) rotate(143.17) scale(169.478 167.39)">
<stop offset="0.00122236" stop-color="#C0A3FF"/>
<stop offset="0.471855" stop-color="#7C40FF"/>
<stop offset="0.575925" stop-color="#4106C0"/>
</radialGradient>
<radialGradient id="paint6_angular_5280_10330" cx="0" cy="0" r="1" gradientUnits="userSpaceOnUse" gradientTransform="translate(259.118 180.182) rotate(143.17) scale(169.478 167.39)">
<stop offset="0.00122236" stop-color="#C0A3FF"/>
<stop offset="0.471855" stop-color="#7C40FF"/>
<stop offset="0.575925" stop-color="#4106C0"/>
</radialGradient>
<radialGradient id="paint7_angular_5280_10330" cx="0" cy="0" r="1" gradientUnits="userSpaceOnUse" gradientTransform="translate(259.118 180.182) rotate(143.17) scale(169.478 167.39)">
<stop offset="0.00122236" stop-color="#C0A3FF"/>
<stop offset="0.471855" stop-color="#7C40FF"/>
<stop offset="0.575925" stop-color="#4106C0"/>
</radialGradient>
<radialGradient id="paint8_angular_5280_10330" cx="0" cy="0" r="1" gradientUnits="userSpaceOnUse" gradientTransform="translate(259.118 180.182) rotate(143.17) scale(169.478 167.39)">
<stop offset="0.00122236" stop-color="#C0A3FF"/>
<stop offset="0.471855" stop-color="#7C40FF"/>
<stop offset="0.575925" stop-color="#4106C0"/>
</radialGradient>
<radialGradient id="paint9_angular_5280_10330" cx="0" cy="0" r="1" gradientUnits="userSpaceOnUse" gradientTransform="translate(259.118 180.182) rotate(143.17) scale(169.478 167.39)">
<stop offset="0.00122236" stop-color="#C0A3FF"/>
<stop offset="0.471855" stop-color="#7C40FF"/>
<stop offset="0.575925" stop-color="#4106C0"/>
</radialGradient>
<radialGradient id="paint10_angular_5280_10330" cx="0" cy="0" r="1" gradientUnits="userSpaceOnUse" gradientTransform="translate(259.118 180.182) rotate(143.17) scale(169.478 167.39)">
<stop offset="0.00122236" stop-color="#C0A3FF"/>
<stop offset="0.471855" stop-color="#7C40FF"/>
<stop offset="0.575925" stop-color="#4106C0"/>
</radialGradient>
<radialGradient id="paint11_angular_5280_10330" cx="0" cy="0" r="1" gradientUnits="userSpaceOnUse" gradientTransform="translate(259.118 180.182) rotate(143.17) scale(169.478 167.39)">
<stop offset="0.00122236" stop-color="#C0A3FF"/>
<stop offset="0.471855" stop-color="#7C40FF"/>
<stop offset="0.575925" stop-color="#4106C0"/>
</radialGradient>
<radialGradient id="paint12_angular_5280_10330" cx="0" cy="0" r="1" gradientUnits="userSpaceOnUse" gradientTransform="translate(259.118 180.182) rotate(143.17) scale(169.478 167.39)">
<stop offset="0.00122236" stop-color="#C0A3FF"/>
<stop offset="0.471855" stop-color="#7C40FF"/>
<stop offset="0.575925" stop-color="#4106C0"/>
</radialGradient>
<radialGradient id="paint13_angular_5280_10330" cx="0" cy="0" r="1" gradientUnits="userSpaceOnUse" gradientTransform="translate(259.118 180.182) rotate(143.17) scale(169.478 167.39)">
<stop offset="0.00122236" stop-color="#C0A3FF"/>
<stop offset="0.471855" stop-color="#7C40FF"/>
<stop offset="0.575925" stop-color="#4106C0"/>
</radialGradient>
<radialGradient id="paint14_angular_5280_10330" cx="0" cy="0" r="1" gradientUnits="userSpaceOnUse" gradientTransform="translate(259.118 180.182) rotate(143.17) scale(169.478 167.39)">
<stop offset="0.00122236" stop-color="#C0A3FF"/>
<stop offset="0.471855" stop-color="#7C40FF"/>
<stop offset="0.575925" stop-color="#4106C0"/>
</radialGradient>
<radialGradient id="paint15_angular_5280_10330" cx="0" cy="0" r="1" gradientUnits="userSpaceOnUse" gradientTransform="translate(259.118 180.182) rotate(143.17) scale(169.478 167.39)">
<stop offset="0.00122236" stop-color="#C0A3FF"/>
<stop offset="0.471855" stop-color="#7C40FF"/>
<stop offset="0.575925" stop-color="#4106C0"/>
</radialGradient>
<radialGradient id="paint16_angular_5280_10330" cx="0" cy="0" r="1" gradientUnits="userSpaceOnUse" gradientTransform="translate(259.118 180.182) rotate(143.17) scale(169.478 167.39)">
<stop offset="0.00122236" stop-color="#C0A3FF"/>
<stop offset="0.471855" stop-color="#7C40FF"/>
<stop offset="0.575925" stop-color="#4106C0"/>
</radialGradient>
<radialGradient id="paint17_angular_5280_10330" cx="0" cy="0" r="1" gradientUnits="userSpaceOnUse" gradientTransform="translate(259.118 180.182) rotate(143.17) scale(169.478 167.39)">
<stop offset="0.00122236" stop-color="#C0A3FF"/>
<stop offset="0.471855" stop-color="#7C40FF"/>
<stop offset="0.575925" stop-color="#4106C0"/>
</radialGradient>
<radialGradient id="paint18_angular_5280_10330" cx="0" cy="0" r="1" gradientUnits="userSpaceOnUse" gradientTransform="translate(259.118 180.182) rotate(143.17) scale(169.478 167.39)">
<stop offset="0.00122236" stop-color="#C0A3FF"/>
<stop offset="0.471855" stop-color="#7C40FF"/>
<stop offset="0.575925" stop-color="#4106C0"/>
</radialGradient>
<radialGradient id="paint19_angular_5280_10330" cx="0" cy="0" r="1" gradientUnits="userSpaceOnUse" gradientTransform="translate(259.118 180.182) rotate(143.17) scale(169.478 167.39)">
<stop offset="0.00122236" stop-color="#C0A3FF"/>
<stop offset="0.471855" stop-color="#7C40FF"/>
<stop offset="0.575925" stop-color="#4106C0"/>
</radialGradient>
<radialGradient id="paint20_angular_5280_10330" cx="0" cy="0" r="1" gradientUnits="userSpaceOnUse" gradientTransform="translate(259.118 180.182) rotate(143.17) scale(169.478 167.39)">
<stop offset="0.00122236" stop-color="#C0A3FF"/>
<stop offset="0.471855" stop-color="#7C40FF"/>
<stop offset="0.575925" stop-color="#4106C0"/>
</radialGradient>
<radialGradient id="paint21_angular_5280_10330" cx="0" cy="0" r="1" gradientUnits="userSpaceOnUse" gradientTransform="translate(259.118 180.182) rotate(143.17) scale(169.478 167.39)">
<stop offset="0.00122236" stop-color="#C0A3FF"/>
<stop offset="0.471855" stop-color="#7C40FF"/>
<stop offset="0.575925" stop-color="#4106C0"/>
</radialGradient>
<radialGradient id="paint22_angular_5280_10330" cx="0" cy="0" r="1" gradientUnits="userSpaceOnUse" gradientTransform="translate(259.118 180.182) rotate(143.17) scale(169.478 167.39)">
<stop offset="0.00122236" stop-color="#C0A3FF"/>
<stop offset="0.471855" stop-color="#7C40FF"/>
<stop offset="0.575925" stop-color="#4106C0"/>
</radialGradient>
<radialGradient id="paint23_angular_5280_10330" cx="0" cy="0" r="1" gradientUnits="userSpaceOnUse" gradientTransform="translate(259.118 180.182) rotate(143.17) scale(169.478 167.39)">
<stop offset="0.00122236" stop-color="#C0A3FF"/>
<stop offset="0.471855" stop-color="#7C40FF"/>
<stop offset="0.575925" stop-color="#4106C0"/>
</radialGradient>
<radialGradient id="paint24_angular_5280_10330" cx="0" cy="0" r="1" gradientUnits="userSpaceOnUse" gradientTransform="translate(259.118 180.182) rotate(143.17) scale(169.478 167.39)">
<stop offset="0.00122236" stop-color="#C0A3FF"/>
<stop offset="0.471855" stop-color="#7C40FF"/>
<stop offset="0.575925" stop-color="#4106C0"/>
</radialGradient>
<radialGradient id="paint25_angular_5280_10330" cx="0" cy="0" r="1" gradientUnits="userSpaceOnUse" gradientTransform="translate(259.118 180.182) rotate(143.17) scale(169.478 167.39)">
<stop offset="0.00122236" stop-color="#C0A3FF"/>
<stop offset="0.471855" stop-color="#7C40FF"/>
<stop offset="0.575925" stop-color="#4106C0"/>
</radialGradient>
<radialGradient id="paint26_angular_5280_10330" cx="0" cy="0" r="1" gradientUnits="userSpaceOnUse" gradientTransform="translate(259.118 180.182) rotate(143.17) scale(169.478 167.39)">
<stop offset="0.00122236" stop-color="#C0A3FF"/>
<stop offset="0.471855" stop-color="#7C40FF"/>
<stop offset="0.575925" stop-color="#4106C0"/>
</radialGradient>
<radialGradient id="paint27_angular_5280_10330" cx="0" cy="0" r="1" gradientUnits="userSpaceOnUse" gradientTransform="translate(259.118 180.182) rotate(143.17) scale(169.478 167.39)">
<stop offset="0.00122236" stop-color="#C0A3FF"/>
<stop offset="0.471855" stop-color="#7C40FF"/>
<stop offset="0.575925" stop-color="#4106C0"/>
</radialGradient>
<radialGradient id="paint28_angular_5280_10330" cx="0" cy="0" r="1" gradientUnits="userSpaceOnUse" gradientTransform="translate(259.118 180.182) rotate(143.17) scale(169.478 167.39)">
<stop offset="0.00122236" stop-color="#C0A3FF"/>
<stop offset="0.471855" stop-color="#7C40FF"/>
<stop offset="0.575925" stop-color="#4106C0"/>
</radialGradient>
<radialGradient id="paint29_angular_5280_10330" cx="0" cy="0" r="1" gradientUnits="userSpaceOnUse" gradientTransform="translate(259.118 180.182) rotate(143.17) scale(169.478 167.39)">
<stop offset="0.00122236" stop-color="#C0A3FF"/>
<stop offset="0.471855" stop-color="#7C40FF"/>
<stop offset="0.575925" stop-color="#4106C0"/>
</radialGradient>
<radialGradient id="paint30_angular_5280_10330" cx="0" cy="0" r="1" gradientUnits="userSpaceOnUse" gradientTransform="translate(259.118 180.182) rotate(143.17) scale(169.478 167.39)">
<stop offset="0.00122236" stop-color="#C0A3FF"/>
<stop offset="0.471855" stop-color="#7C40FF"/>
<stop offset="0.575925" stop-color="#4106C0"/>
</radialGradient>
<radialGradient id="paint31_angular_5280_10330" cx="0" cy="0" r="1" gradientUnits="userSpaceOnUse" gradientTransform="translate(259.118 180.182) rotate(143.17) scale(169.478 167.39)">
<stop offset="0.00122236" stop-color="#C0A3FF"/>
<stop offset="0.471855" stop-color="#7C40FF"/>
<stop offset="0.575925" stop-color="#4106C0"/>
</radialGradient>
<radialGradient id="paint32_angular_5280_10330" cx="0" cy="0" r="1" gradientUnits="userSpaceOnUse" gradientTransform="translate(259.118 180.182) rotate(143.17) scale(169.478 167.39)">
<stop offset="0.00122236" stop-color="#C0A3FF"/>
<stop offset="0.471855" stop-color="#7C40FF"/>
<stop offset="0.575925" stop-color="#4106C0"/>
</radialGradient>
<radialGradient id="paint33_angular_5280_10330" cx="0" cy="0" r="1" gradientUnits="userSpaceOnUse" gradientTransform="translate(259.118 180.182) rotate(143.17) scale(169.478 167.39)">
<stop offset="0.00122236" stop-color="#C0A3FF"/>
<stop offset="0.471855" stop-color="#7C40FF"/>
<stop offset="0.575925" stop-color="#4106C0"/>
</radialGradient>
<radialGradient id="paint34_angular_5280_10330" cx="0" cy="0" r="1" gradientUnits="userSpaceOnUse" gradientTransform="translate(259.118 180.182) rotate(143.17) scale(169.478 167.39)">
<stop offset="0.00122236" stop-color="#C0A3FF"/>
<stop offset="0.471855" stop-color="#7C40FF"/>
<stop offset="0.575925" stop-color="#4106C0"/>
</radialGradient>
<radialGradient id="paint35_angular_5280_10330" cx="0" cy="0" r="1" gradientUnits="userSpaceOnUse" gradientTransform="translate(259.118 180.182) rotate(143.17) scale(169.478 167.39)">
<stop offset="0.00122236" stop-color="#C0A3FF"/>
<stop offset="0.471855" stop-color="#7C40FF"/>
<stop offset="0.575925" stop-color="#4106C0"/>
</radialGradient>
<radialGradient id="paint36_angular_5280_10330" cx="0" cy="0" r="1" gradientUnits="userSpaceOnUse" gradientTransform="translate(259.118 180.182) rotate(143.17) scale(169.478 167.39)">
<stop offset="0.00122236" stop-color="#C0A3FF"/>
<stop offset="0.471855" stop-color="#7C40FF"/>
<stop offset="0.575925" stop-color="#4106C0"/>
</radialGradient>
<radialGradient id="paint37_angular_5280_10330" cx="0" cy="0" r="1" gradientUnits="userSpaceOnUse" gradientTransform="translate(259.118 180.182) rotate(143.17) scale(169.478 167.39)">
<stop offset="0.00122236" stop-color="#C0A3FF"/>
<stop offset="0.471855" stop-color="#7C40FF"/>
<stop offset="0.575925" stop-color="#4106C0"/>
</radialGradient>
<radialGradient id="paint38_angular_5280_10330" cx="0" cy="0" r="1" gradientUnits="userSpaceOnUse" gradientTransform="translate(259.118 180.182) rotate(143.17) scale(169.478 167.39)">
<stop offset="0.00122236" stop-color="#C0A3FF"/>
<stop offset="0.471855" stop-color="#7C40FF"/>
<stop offset="0.575925" stop-color="#4106C0"/>
</radialGradient>
<radialGradient id="paint39_angular_5280_10330" cx="0" cy="0" r="1" gradientUnits="userSpaceOnUse" gradientTransform="translate(259.118 180.182) rotate(143.17) scale(169.478 167.39)">
<stop offset="0.00122236" stop-color="#C0A3FF"/>
<stop offset="0.471855" stop-color="#7C40FF"/>
<stop offset="0.575925" stop-color="#4106C0"/>
</radialGradient>
<radialGradient id="paint40_angular_5280_10330" cx="0" cy="0" r="1" gradientUnits="userSpaceOnUse" gradientTransform="translate(259.118 180.182) rotate(143.17) scale(169.478 167.39)">
<stop offset="0.00122236" stop-color="#C0A3FF"/>
<stop offset="0.471855" stop-color="#7C40FF"/>
<stop offset="0.575925" stop-color="#4106C0"/>
</radialGradient>
<radialGradient id="paint41_angular_5280_10330" cx="0" cy="0" r="1" gradientUnits="userSpaceOnUse" gradientTransform="translate(259.118 180.182) rotate(143.17) scale(169.478 167.39)">
<stop offset="0.00122236" stop-color="#C0A3FF"/>
<stop offset="0.471855" stop-color="#7C40FF"/>
<stop offset="0.575925" stop-color="#4106C0"/>
</radialGradient>
<radialGradient id="paint42_angular_5280_10330" cx="0" cy="0" r="1" gradientUnits="userSpaceOnUse" gradientTransform="translate(259.118 180.182) rotate(143.17) scale(169.478 167.39)">
<stop offset="0.00122236" stop-color="#C0A3FF"/>
<stop offset="0.471855" stop-color="#7C40FF"/>
<stop offset="0.575925" stop-color="#4106C0"/>
</radialGradient>
<radialGradient id="paint43_angular_5280_10330" cx="0" cy="0" r="1" gradientUnits="userSpaceOnUse" gradientTransform="translate(259.118 180.182) rotate(143.17) scale(169.478 167.39)">
<stop offset="0.00122236" stop-color="#C0A3FF"/>
<stop offset="0.471855" stop-color="#7C40FF"/>
<stop offset="0.575925" stop-color="#4106C0"/>
</radialGradient>
<radialGradient id="paint44_angular_5280_10330" cx="0" cy="0" r="1" gradientUnits="userSpaceOnUse" gradientTransform="translate(259.118 180.182) rotate(143.17) scale(169.478 167.39)">
<stop offset="0.00122236" stop-color="#C0A3FF"/>
<stop offset="0.471855" stop-color="#7C40FF"/>
<stop offset="0.575925" stop-color="#4106C0"/>
</radialGradient>
<radialGradient id="paint45_angular_5280_10330" cx="0" cy="0" r="1" gradientUnits="userSpaceOnUse" gradientTransform="translate(259.118 180.182) rotate(143.17) scale(169.478 167.39)">
<stop offset="0.00122236" stop-color="#C0A3FF"/>
<stop offset="0.471855" stop-color="#7C40FF"/>
<stop offset="0.575925" stop-color="#4106C0"/>
</radialGradient>
<radialGradient id="paint46_angular_5280_10330" cx="0" cy="0" r="1" gradientUnits="userSpaceOnUse" gradientTransform="translate(259.118 180.182) rotate(143.17) scale(169.478 167.39)">
<stop offset="0.00122236" stop-color="#C0A3FF"/>
<stop offset="0.471855" stop-color="#7C40FF"/>
<stop offset="0.575925" stop-color="#4106C0"/>
</radialGradient>
<radialGradient id="paint47_angular_5280_10330" cx="0" cy="0" r="1" gradientUnits="userSpaceOnUse" gradientTransform="translate(259.118 180.182) rotate(143.17) scale(169.478 167.39)">
<stop offset="0.00122236" stop-color="#C0A3FF"/>
<stop offset="0.471855" stop-color="#7C40FF"/>
<stop offset="0.575925" stop-color="#4106C0"/>
</radialGradient>
<radialGradient id="paint48_angular_5280_10330" cx="0" cy="0" r="1" gradientUnits="userSpaceOnUse" gradientTransform="translate(259.118 180.182) rotate(143.17) scale(169.478 167.39)">
<stop offset="0.00122236" stop-color="#C0A3FF"/>
<stop offset="0.471855" stop-color="#7C40FF"/>
<stop offset="0.575925" stop-color="#4106C0"/>
</radialGradient>
<radialGradient id="paint49_angular_5280_10330" cx="0" cy="0" r="1" gradientUnits="userSpaceOnUse" gradientTransform="translate(259.118 180.182) rotate(143.17) scale(169.478 167.39)">
<stop offset="0.00122236" stop-color="#C0A3FF"/>
<stop offset="0.471855" stop-color="#7C40FF"/>
<stop offset="0.575925" stop-color="#4106C0"/>
</radialGradient>
<radialGradient id="paint50_angular_5280_10330" cx="0" cy="0" r="1" gradientUnits="userSpaceOnUse" gradientTransform="translate(259.118 180.182) rotate(143.17) scale(169.478 167.39)">
<stop offset="0.00122236" stop-color="#C0A3FF"/>
<stop offset="0.471855" stop-color="#7C40FF"/>
<stop offset="0.575925" stop-color="#4106C0"/>
</radialGradient>
<radialGradient id="paint51_angular_5280_10330" cx="0" cy="0" r="1" gradientUnits="userSpaceOnUse" gradientTransform="translate(259.118 180.182) rotate(143.17) scale(169.478 167.39)">
<stop offset="0.00122236" stop-color="#C0A3FF"/>
<stop offset="0.471855" stop-color="#7C40FF"/>
<stop offset="0.575925" stop-color="#4106C0"/>
</radialGradient>
<radialGradient id="paint52_angular_5280_10330" cx="0" cy="0" r="1" gradientUnits="userSpaceOnUse" gradientTransform="translate(259.118 180.182) rotate(143.17) scale(169.478 167.39)">
<stop offset="0.00122236" stop-color="#C0A3FF"/>
<stop offset="0.471855" stop-color="#7C40FF"/>
<stop offset="0.575925" stop-color="#4106C0"/>
</radialGradient>
<radialGradient id="paint53_angular_5280_10330" cx="0" cy="0" r="1" gradientUnits="userSpaceOnUse" gradientTransform="translate(259.118 180.182) rotate(143.17) scale(169.478 167.39)">
<stop offset="0.00122236" stop-color="#C0A3FF"/>
<stop offset="0.471855" stop-color="#7C40FF"/>
<stop offset="0.575925" stop-color="#4106C0"/>
</radialGradient>
<radialGradient id="paint54_angular_5280_10330" cx="0" cy="0" r="1" gradientUnits="userSpaceOnUse" gradientTransform="translate(259.118 180.182) rotate(143.17) scale(169.478 167.39)">
<stop offset="0.00122236" stop-color="#C0A3FF"/>
<stop offset="0.471855" stop-color="#7C40FF"/>
<stop offset="0.575925" stop-color="#4106C0"/>
</radialGradient>
<radialGradient id="paint55_angular_5280_10330" cx="0" cy="0" r="1" gradientUnits="userSpaceOnUse" gradientTransform="translate(259.118 180.182) rotate(143.17) scale(169.478 167.39)">
<stop offset="0.00122236" stop-color="#C0A3FF"/>
<stop offset="0.471855" stop-color="#7C40FF"/>
<stop offset="0.575925" stop-color="#4106C0"/>
</radialGradient>
<radialGradient id="paint56_angular_5280_10330" cx="0" cy="0" r="1" gradientUnits="userSpaceOnUse" gradientTransform="translate(259.118 180.182) rotate(143.17) scale(169.478 167.39)">
<stop offset="0.00122236" stop-color="#C0A3FF"/>
<stop offset="0.471855" stop-color="#7C40FF"/>
<stop offset="0.575925" stop-color="#4106C0"/>
</radialGradient>
<radialGradient id="paint57_angular_5280_10330" cx="0" cy="0" r="1" gradientUnits="userSpaceOnUse" gradientTransform="translate(259.118 180.182) rotate(143.17) scale(169.478 167.39)">
<stop offset="0.00122236" stop-color="#C0A3FF"/>
<stop offset="0.471855" stop-color="#7C40FF"/>
<stop offset="0.575925" stop-color="#4106C0"/>
</radialGradient>
<radialGradient id="paint58_angular_5280_10330" cx="0" cy="0" r="1" gradientUnits="userSpaceOnUse" gradientTransform="translate(259.118 180.182) rotate(143.17) scale(169.478 167.39)">
<stop offset="0.00122236" stop-color="#C0A3FF"/>
<stop offset="0.471855" stop-color="#7C40FF"/>
<stop offset="0.575925" stop-color="#4106C0"/>
</radialGradient>
<radialGradient id="paint59_angular_5280_10330" cx="0" cy="0" r="1" gradientUnits="userSpaceOnUse" gradientTransform="translate(259.118 180.182) rotate(143.17) scale(169.478 167.39)">
<stop offset="0.00122236" stop-color="#C0A3FF"/>
<stop offset="0.471855" stop-color="#7C40FF"/>
<stop offset="0.575925" stop-color="#4106C0"/>
</radialGradient>
<radialGradient id="paint60_angular_5280_10330" cx="0" cy="0" r="1" gradientUnits="userSpaceOnUse" gradientTransform="translate(259.118 180.182) rotate(143.17) scale(169.478 167.39)">
<stop offset="0.00122236" stop-color="#C0A3FF"/>
<stop offset="0.471855" stop-color="#7C40FF"/>
<stop offset="0.575925" stop-color="#4106C0"/>
</radialGradient>
<linearGradient id="paint61_linear_5280_10330" x1="259.75" y1="0" x2="259.75" y2="80" gradientUnits="userSpaceOnUse">
<stop stop-color="#15101B"/>
<stop offset="1" stop-color="#15101B" stop-opacity="0"/>
</linearGradient>
<linearGradient id="paint62_linear_5280_10330" x1="-6.55671e-06" y1="150" x2="80" y2="150" gradientUnits="userSpaceOnUse">
<stop stop-color="#15101B"/>
<stop offset="1" stop-color="#15101B" stop-opacity="0"/>
</linearGradient>
<linearGradient id="paint63_linear_5280_10330" x1="520" y1="150" x2="440" y2="150" gradientUnits="userSpaceOnUse">
<stop stop-color="#15101B"/>
<stop offset="1" stop-color="#15101B" stop-opacity="0"/>
</linearGradient>
<linearGradient id="paint64_linear_5280_10330" x1="259.75" y1="0" x2="259.75" y2="80" gradientUnits="userSpaceOnUse">
<stop stop-color="#15101B"/>
<stop offset="1" stop-color="#15101B" stop-opacity="0"/>
</linearGradient>
<clipPath id="clip0_5280_10330">
<rect width="520" height="300" fill="white"/>
</clipPath>
</defs>
</svg>
