<svg width="520" height="300" viewBox="0 0 520 300" fill="none" xmlns="http://www.w3.org/2000/svg">
<g clip-path="url(#clip0_5280_10637)">
<g clip-path="url(#clip1_5280_10637)">
<rect x="10" width="500" height="300" rx="12" fill="#14181F"/>
<rect x="30" y="20" width="4" height="4" rx="2" fill="#1E2229"/>
<rect x="54" y="20" width="4" height="4" rx="2" fill="#1E2229"/>
<rect x="78" y="20" width="4" height="4" rx="2" fill="#1E2229"/>
<rect x="102" y="20" width="4" height="4" rx="2" fill="#1E2229"/>
<rect x="126" y="20" width="4" height="4" rx="2" fill="#1E2229"/>
<rect x="150" y="20" width="4" height="4" rx="2" fill="#1E2229"/>
<rect x="174" y="20" width="4" height="4" rx="2" fill="#1E2229"/>
<rect x="198" y="20" width="4" height="4" rx="2" fill="#1E2229"/>
<rect x="222" y="20" width="4" height="4" rx="2" fill="#1E2229"/>
<rect x="246" y="20" width="4" height="4" rx="2" fill="#1E2229"/>
<rect x="270" y="20" width="4" height="4" rx="2" fill="#1E2229"/>
<rect x="294" y="20" width="4" height="4" rx="2" fill="#1E2229"/>
<rect x="318" y="20" width="4" height="4" rx="2" fill="#1E2229"/>
<rect x="342" y="20" width="4" height="4" rx="2" fill="#1E2229"/>
<rect x="366" y="20" width="4" height="4" rx="2" fill="#1E2229"/>
<rect x="390" y="20" width="4" height="4" rx="2" fill="#1E2229"/>
<rect x="414" y="20" width="4" height="4" rx="2" fill="#1E2229"/>
<rect x="438" y="20" width="4" height="4" rx="2" fill="#1E2229"/>
<rect x="462" y="20" width="4" height="4" rx="2" fill="#1E2229"/>
<rect x="486" y="20" width="4" height="4" rx="2" fill="#1E2229"/>
<rect x="30" y="44" width="4" height="4" rx="2" fill="#1E2229"/>
<rect x="54" y="44" width="4" height="4" rx="2" fill="#1E2229"/>
<rect x="78" y="44" width="4" height="4" rx="2" fill="#1E2229"/>
<rect x="102" y="44" width="4" height="4" rx="2" fill="#1E2229"/>
<rect x="126" y="44" width="4" height="4" rx="2" fill="#1E2229"/>
<rect x="150" y="44" width="4" height="4" rx="2" fill="#1E2229"/>
<rect x="174" y="44" width="4" height="4" rx="2" fill="#1E2229"/>
<rect x="198" y="44" width="4" height="4" rx="2" fill="#1E2229"/>
<rect x="222" y="44" width="4" height="4" rx="2" fill="#1E2229"/>
<rect x="246" y="44" width="4" height="4" rx="2" fill="#1E2229"/>
<rect x="270" y="44" width="4" height="4" rx="2" fill="#1E2229"/>
<rect x="294" y="44" width="4" height="4" rx="2" fill="#1E2229"/>
<rect x="318" y="44" width="4" height="4" rx="2" fill="#1E2229"/>
<rect x="342" y="44" width="4" height="4" rx="2" fill="#1E2229"/>
<rect x="366" y="44" width="4" height="4" rx="2" fill="#1E2229"/>
<rect x="390" y="44" width="4" height="4" rx="2" fill="#1E2229"/>
<rect x="414" y="44" width="4" height="4" rx="2" fill="#1E2229"/>
<rect x="438" y="44" width="4" height="4" rx="2" fill="#1E2229"/>
<rect x="462" y="44" width="4" height="4" rx="2" fill="#1E2229"/>
<rect x="486" y="44" width="4" height="4" rx="2" fill="#1E2229"/>
<rect x="30" y="68" width="4" height="4" rx="2" fill="#1E2229"/>
<rect x="54" y="68" width="4" height="4" rx="2" fill="#1E2229"/>
<rect x="78" y="68" width="4" height="4" rx="2" fill="#1E2229"/>
<rect x="102" y="68" width="4" height="4" rx="2" fill="#1E2229"/>
<rect x="126" y="68" width="4" height="4" rx="2" fill="#1E2229"/>
<rect x="150" y="68" width="4" height="4" rx="2" fill="#1E2229"/>
<rect x="174" y="68" width="4" height="4" rx="2" fill="#1E2229"/>
<rect x="198" y="68" width="4" height="4" rx="2" fill="#1E2229"/>
<rect x="222" y="68" width="4" height="4" rx="2" fill="#1E2229"/>
<rect x="246" y="68" width="4" height="4" rx="2" fill="#1E2229"/>
<rect x="270" y="68" width="4" height="4" rx="2" fill="#1E2229"/>
<rect x="294" y="68" width="4" height="4" rx="2" fill="#1E2229"/>
<rect x="318" y="68" width="4" height="4" rx="2" fill="#1E2229"/>
<rect x="342" y="68" width="4" height="4" rx="2" fill="#1E2229"/>
<rect x="366" y="68" width="4" height="4" rx="2" fill="#1E2229"/>
<rect x="390" y="68" width="4" height="4" rx="2" fill="#1E2229"/>
<rect x="414" y="68" width="4" height="4" rx="2" fill="#1E2229"/>
<rect x="438" y="68" width="4" height="4" rx="2" fill="#1E2229"/>
<rect x="462" y="68" width="4" height="4" rx="2" fill="#1E2229"/>
<rect x="486" y="68" width="4" height="4" rx="2" fill="#1E2229"/>
<rect x="30" y="92" width="4" height="4" rx="2" fill="#1E2229"/>
<rect x="54" y="92" width="4" height="4" rx="2" fill="#1E2229"/>
<rect x="78" y="92" width="4" height="4" rx="2" fill="#1E2229"/>
<rect x="102" y="92" width="4" height="4" rx="2" fill="#1E2229"/>
<rect x="126" y="92" width="4" height="4" rx="2" fill="#1E2229"/>
<rect x="150" y="92" width="4" height="4" rx="2" fill="#1E2229"/>
<rect x="174" y="92" width="4" height="4" rx="2" fill="#1E2229"/>
<rect x="198" y="92" width="4" height="4" rx="2" fill="#1E2229"/>
<rect x="222" y="92" width="4" height="4" rx="2" fill="#1E2229"/>
<rect x="246" y="92" width="4" height="4" rx="2" fill="#1E2229"/>
<rect x="270" y="92" width="4" height="4" rx="2" fill="#1E2229"/>
<rect x="294" y="92" width="4" height="4" rx="2" fill="#1E2229"/>
<rect x="318" y="92" width="4" height="4" rx="2" fill="#1E2229"/>
<rect x="342" y="92" width="4" height="4" rx="2" fill="#1E2229"/>
<rect x="366" y="92" width="4" height="4" rx="2" fill="#1E2229"/>
<rect x="390" y="92" width="4" height="4" rx="2" fill="#1E2229"/>
<rect x="414" y="92" width="4" height="4" rx="2" fill="#1E2229"/>
<rect x="438" y="92" width="4" height="4" rx="2" fill="#1E2229"/>
<rect x="462" y="92" width="4" height="4" rx="2" fill="#1E2229"/>
<rect x="486" y="92" width="4" height="4" rx="2" fill="#1E2229"/>
<rect x="30" y="116" width="4" height="4" rx="2" fill="#1E2229"/>
<rect x="54" y="116" width="4" height="4" rx="2" fill="#1E2229"/>
<rect x="78" y="116" width="4" height="4" rx="2" fill="#1E2229"/>
<rect x="102" y="116" width="4" height="4" rx="2" fill="#1E2229"/>
<rect x="126" y="116" width="4" height="4" rx="2" fill="#1E2229"/>
<rect x="150" y="116" width="4" height="4" rx="2" fill="#1E2229"/>
<rect x="174" y="116" width="4" height="4" rx="2" fill="#1E2229"/>
<rect x="198" y="116" width="4" height="4" rx="2" fill="#1E2229"/>
<rect x="222" y="116" width="4" height="4" rx="2" fill="#1E2229"/>
<rect x="246" y="116" width="4" height="4" rx="2" fill="#1E2229"/>
<rect x="270" y="116" width="4" height="4" rx="2" fill="#1E2229"/>
<rect x="294" y="116" width="4" height="4" rx="2" fill="#1E2229"/>
<rect x="318" y="116" width="4" height="4" rx="2" fill="#1E2229"/>
<rect x="342" y="116" width="4" height="4" rx="2" fill="#1E2229"/>
<rect x="366" y="116" width="4" height="4" rx="2" fill="#1E2229"/>
<rect x="390" y="116" width="4" height="4" rx="2" fill="#1E2229"/>
<rect x="414" y="116" width="4" height="4" rx="2" fill="#1E2229"/>
<rect x="438" y="116" width="4" height="4" rx="2" fill="#1E2229"/>
<rect x="462" y="116" width="4" height="4" rx="2" fill="#1E2229"/>
<rect x="486" y="116" width="4" height="4" rx="2" fill="#1E2229"/>
<rect x="30" y="140" width="4" height="4" rx="2" fill="#1E2229"/>
<rect x="54" y="140" width="4" height="4" rx="2" fill="#1E2229"/>
<rect x="78" y="140" width="4" height="4" rx="2" fill="#1E2229"/>
<rect x="102" y="140" width="4" height="4" rx="2" fill="#1E2229"/>
<rect x="126" y="140" width="4" height="4" rx="2" fill="#1E2229"/>
<rect x="150" y="140" width="4" height="4" rx="2" fill="#1E2229"/>
<rect x="174" y="140" width="4" height="4" rx="2" fill="#1E2229"/>
<rect x="198" y="140" width="4" height="4" rx="2" fill="#1E2229"/>
<rect x="222" y="140" width="4" height="4" rx="2" fill="#1E2229"/>
<rect x="246" y="140" width="4" height="4" rx="2" fill="#1E2229"/>
<rect x="270" y="140" width="4" height="4" rx="2" fill="#1E2229"/>
<rect x="294" y="140" width="4" height="4" rx="2" fill="#1E2229"/>
<rect x="318" y="140" width="4" height="4" rx="2" fill="#1E2229"/>
<rect x="342" y="140" width="4" height="4" rx="2" fill="#1E2229"/>
<rect x="366" y="140" width="4" height="4" rx="2" fill="#1E2229"/>
<rect x="390" y="140" width="4" height="4" rx="2" fill="#1E2229"/>
<rect x="414" y="140" width="4" height="4" rx="2" fill="#1E2229"/>
<rect x="438" y="140" width="4" height="4" rx="2" fill="#1E2229"/>
<rect x="462" y="140" width="4" height="4" rx="2" fill="#1E2229"/>
<rect x="486" y="140" width="4" height="4" rx="2" fill="#1E2229"/>
<rect x="30" y="164" width="4" height="4" rx="2" fill="#1E2229"/>
<rect x="54" y="164" width="4" height="4" rx="2" fill="#1E2229"/>
<rect x="78" y="164" width="4" height="4" rx="2" fill="#1E2229"/>
<rect x="102" y="164" width="4" height="4" rx="2" fill="#1E2229"/>
<rect x="126" y="164" width="4" height="4" rx="2" fill="#1E2229"/>
<rect x="150" y="164" width="4" height="4" rx="2" fill="#1E2229"/>
<rect x="174" y="164" width="4" height="4" rx="2" fill="#1E2229"/>
<rect x="198" y="164" width="4" height="4" rx="2" fill="#1E2229"/>
<rect x="222" y="164" width="4" height="4" rx="2" fill="#1E2229"/>
<rect x="246" y="164" width="4" height="4" rx="2" fill="#1E2229"/>
<rect x="270" y="164" width="4" height="4" rx="2" fill="#1E2229"/>
<rect x="294" y="164" width="4" height="4" rx="2" fill="#1E2229"/>
<rect x="318" y="164" width="4" height="4" rx="2" fill="#1E2229"/>
<rect x="342" y="164" width="4" height="4" rx="2" fill="#1E2229"/>
<rect x="366" y="164" width="4" height="4" rx="2" fill="#1E2229"/>
<rect x="390" y="164" width="4" height="4" rx="2" fill="#1E2229"/>
<rect x="414" y="164" width="4" height="4" rx="2" fill="#1E2229"/>
<rect x="438" y="164" width="4" height="4" rx="2" fill="#1E2229"/>
<rect x="462" y="164" width="4" height="4" rx="2" fill="#1E2229"/>
<rect x="486" y="164" width="4" height="4" rx="2" fill="#1E2229"/>
<rect x="30" y="188" width="4" height="4" rx="2" fill="#1E2229"/>
<rect x="54" y="188" width="4" height="4" rx="2" fill="#1E2229"/>
<rect x="78" y="188" width="4" height="4" rx="2" fill="#1E2229"/>
<rect x="102" y="188" width="4" height="4" rx="2" fill="#1E2229"/>
<rect x="126" y="188" width="4" height="4" rx="2" fill="#1E2229"/>
<rect x="150" y="188" width="4" height="4" rx="2" fill="#1E2229"/>
<rect x="174" y="188" width="4" height="4" rx="2" fill="#1E2229"/>
<rect x="198" y="188" width="4" height="4" rx="2" fill="#1E2229"/>
<rect x="222" y="188" width="4" height="4" rx="2" fill="#1E2229"/>
<rect x="246" y="188" width="4" height="4" rx="2" fill="#1E2229"/>
<rect x="270" y="188" width="4" height="4" rx="2" fill="#1E2229"/>
<rect x="294" y="188" width="4" height="4" rx="2" fill="#1E2229"/>
<rect x="318" y="188" width="4" height="4" rx="2" fill="#1E2229"/>
<rect x="342" y="188" width="4" height="4" rx="2" fill="#1E2229"/>
<rect x="366" y="188" width="4" height="4" rx="2" fill="#1E2229"/>
<rect x="390" y="188" width="4" height="4" rx="2" fill="#1E2229"/>
<rect x="414" y="188" width="4" height="4" rx="2" fill="#1E2229"/>
<rect x="438" y="188" width="4" height="4" rx="2" fill="#1E2229"/>
<rect x="462" y="188" width="4" height="4" rx="2" fill="#1E2229"/>
<rect x="486" y="188" width="4" height="4" rx="2" fill="#1E2229"/>
<rect x="30" y="212" width="4" height="4" rx="2" fill="#1E2229"/>
<rect x="54" y="212" width="4" height="4" rx="2" fill="#1E2229"/>
<rect x="78" y="212" width="4" height="4" rx="2" fill="#1E2229"/>
<rect x="102" y="212" width="4" height="4" rx="2" fill="#1E2229"/>
<rect x="126" y="212" width="4" height="4" rx="2" fill="#1E2229"/>
<rect x="150" y="212" width="4" height="4" rx="2" fill="#1E2229"/>
<rect x="174" y="212" width="4" height="4" rx="2" fill="#1E2229"/>
<rect x="198" y="212" width="4" height="4" rx="2" fill="#1E2229"/>
<rect x="222" y="212" width="4" height="4" rx="2" fill="#1E2229"/>
<rect x="246" y="212" width="4" height="4" rx="2" fill="#1E2229"/>
<rect x="270" y="212" width="4" height="4" rx="2" fill="#1E2229"/>
<rect x="294" y="212" width="4" height="4" rx="2" fill="#1E2229"/>
<rect x="318" y="212" width="4" height="4" rx="2" fill="#1E2229"/>
<rect x="342" y="212" width="4" height="4" rx="2" fill="#1E2229"/>
<rect x="366" y="212" width="4" height="4" rx="2" fill="#1E2229"/>
<rect x="390" y="212" width="4" height="4" rx="2" fill="#1E2229"/>
<rect x="414" y="212" width="4" height="4" rx="2" fill="#1E2229"/>
<rect x="438" y="212" width="4" height="4" rx="2" fill="#1E2229"/>
<rect x="462" y="212" width="4" height="4" rx="2" fill="#1E2229"/>
<rect x="486" y="212" width="4" height="4" rx="2" fill="#1E2229"/>
<rect x="30" y="236" width="4" height="4" rx="2" fill="#1E2229"/>
<rect x="54" y="236" width="4" height="4" rx="2" fill="#1E2229"/>
<rect x="78" y="236" width="4" height="4" rx="2" fill="#1E2229"/>
<rect x="102" y="236" width="4" height="4" rx="2" fill="#1E2229"/>
<rect x="126" y="236" width="4" height="4" rx="2" fill="#1E2229"/>
<rect x="150" y="236" width="4" height="4" rx="2" fill="#1E2229"/>
<rect x="174" y="236" width="4" height="4" rx="2" fill="#1E2229"/>
<rect x="198" y="236" width="4" height="4" rx="2" fill="#1E2229"/>
<rect x="222" y="236" width="4" height="4" rx="2" fill="#1E2229"/>
<rect x="246" y="236" width="4" height="4" rx="2" fill="#1E2229"/>
<rect x="270" y="236" width="4" height="4" rx="2" fill="#1E2229"/>
<rect x="294" y="236" width="4" height="4" rx="2" fill="#1E2229"/>
<rect x="318" y="236" width="4" height="4" rx="2" fill="#1E2229"/>
<rect x="342" y="236" width="4" height="4" rx="2" fill="#1E2229"/>
<rect x="366" y="236" width="4" height="4" rx="2" fill="#1E2229"/>
<rect x="390" y="236" width="4" height="4" rx="2" fill="#1E2229"/>
<rect x="414" y="236" width="4" height="4" rx="2" fill="#1E2229"/>
<rect x="438" y="236" width="4" height="4" rx="2" fill="#1E2229"/>
<rect x="462" y="236" width="4" height="4" rx="2" fill="#1E2229"/>
<rect x="486" y="236" width="4" height="4" rx="2" fill="#1E2229"/>
<rect x="30" y="260" width="4" height="4" rx="2" fill="#1E2229"/>
<rect x="54" y="260" width="4" height="4" rx="2" fill="#1E2229"/>
<rect x="78" y="260" width="4" height="4" rx="2" fill="#1E2229"/>
<rect x="102" y="260" width="4" height="4" rx="2" fill="#1E2229"/>
<rect x="126" y="260" width="4" height="4" rx="2" fill="#1E2229"/>
<rect x="150" y="260" width="4" height="4" rx="2" fill="#1E2229"/>
<rect x="174" y="260" width="4" height="4" rx="2" fill="#1E2229"/>
<rect x="198" y="260" width="4" height="4" rx="2" fill="#1E2229"/>
<rect x="222" y="260" width="4" height="4" rx="2" fill="#1E2229"/>
<rect x="246" y="260" width="4" height="4" rx="2" fill="#1E2229"/>
<rect x="270" y="260" width="4" height="4" rx="2" fill="#1E2229"/>
<rect x="294" y="260" width="4" height="4" rx="2" fill="#1E2229"/>
<rect x="318" y="260" width="4" height="4" rx="2" fill="#1E2229"/>
<rect x="342" y="260" width="4" height="4" rx="2" fill="#1E2229"/>
<rect x="366" y="260" width="4" height="4" rx="2" fill="#1E2229"/>
<rect x="390" y="260" width="4" height="4" rx="2" fill="#1E2229"/>
<rect x="414" y="260" width="4" height="4" rx="2" fill="#1E2229"/>
<rect x="438" y="260" width="4" height="4" rx="2" fill="#1E2229"/>
<rect x="462" y="260" width="4" height="4" rx="2" fill="#1E2229"/>
<rect x="486" y="260" width="4" height="4" rx="2" fill="#1E2229"/>
<rect x="30" y="284" width="4" height="4" rx="2" fill="#1E2229"/>
<rect x="54" y="284" width="4" height="4" rx="2" fill="#1E2229"/>
<rect x="78" y="284" width="4" height="4" rx="2" fill="#1E2229"/>
<rect x="102" y="284" width="4" height="4" rx="2" fill="#1E2229"/>
<rect x="126" y="284" width="4" height="4" rx="2" fill="#1E2229"/>
<rect x="150" y="284" width="4" height="4" rx="2" fill="#1E2229"/>
<rect x="174" y="284" width="4" height="4" rx="2" fill="#1E2229"/>
<rect x="198" y="284" width="4" height="4" rx="2" fill="#1E2229"/>
<rect x="222" y="284" width="4" height="4" rx="2" fill="#1E2229"/>
<rect x="246" y="284" width="4" height="4" rx="2" fill="#1E2229"/>
<rect x="270" y="284" width="4" height="4" rx="2" fill="#1E2229"/>
<rect x="294" y="284" width="4" height="4" rx="2" fill="#1E2229"/>
<rect x="318" y="284" width="4" height="4" rx="2" fill="#1E2229"/>
<rect x="342" y="284" width="4" height="4" rx="2" fill="#1E2229"/>
<rect x="366" y="284" width="4" height="4" rx="2" fill="#1E2229"/>
<rect x="390" y="284" width="4" height="4" rx="2" fill="#1E2229"/>
<rect x="414" y="284" width="4" height="4" rx="2" fill="#1E2229"/>
<rect x="438" y="284" width="4" height="4" rx="2" fill="#1E2229"/>
<rect x="462" y="284" width="4" height="4" rx="2" fill="#1E2229"/>
<rect x="486" y="284" width="4" height="4" rx="2" fill="#1E2229"/>
</g>
<rect x="10.5" y="0.5" width="499" height="299" rx="11.5" stroke="#1E2229"/>
<rect y="139.5" width="298" height="48" rx="24" fill="#1E2229"/>
<path d="M37 158.5L39.3642 156.136M24.6362 170.864L27.0002 168.5M27.0004 158.5L24.6362 156.136M39.3642 170.864L37.0002 168.5M38.6566 163.5H42M22 163.5H25.3431M32 156.843V153.5M32 173.5V170.157" stroke="white" stroke-width="1.5" stroke-linecap="round" stroke-linejoin="round"/>
<path d="M58.416 169.208C56.7307 169.208 55.3333 168.653 54.224 167.544C53.1147 166.413 52.56 165.032 52.56 163.4C52.56 161.757 53.1147 160.381 54.224 159.272C55.3227 158.152 56.72 157.592 58.416 157.592C59.4293 157.592 60.3627 157.832 61.216 158.312C62.08 158.792 62.752 159.443 63.232 160.264L61.632 161.192C61.3333 160.637 60.896 160.2 60.32 159.88C59.7547 159.549 59.12 159.384 58.416 159.384C57.232 159.384 56.2613 159.763 55.504 160.52C54.768 161.267 54.4 162.227 54.4 163.4C54.4 164.573 54.768 165.533 55.504 166.28C56.2613 167.037 57.232 167.416 58.416 167.416C59.12 167.416 59.76 167.256 60.336 166.936C60.912 166.605 61.344 166.163 61.632 165.608L63.232 166.52C62.7733 167.331 62.1067 167.987 61.232 168.488C60.3893 168.968 59.4507 169.208 58.416 169.208ZM66.1348 161V162.344C66.5721 161.352 67.3934 160.856 68.5988 160.856V162.728C67.9481 162.685 67.3721 162.845 66.8708 163.208C66.3801 163.56 66.1348 164.147 66.1348 164.968V169H64.4068V161H66.1348ZM76.9085 165.736H70.5405C70.6685 166.333 70.9565 166.797 71.4045 167.128C71.8632 167.459 72.4285 167.624 73.1005 167.624C74.0072 167.624 74.6952 167.293 75.1645 166.632L76.5885 167.464C75.8098 168.627 74.6418 169.208 73.0845 169.208C71.7938 169.208 70.7432 168.813 69.9325 168.024C69.1325 167.224 68.7325 166.216 68.7325 165C68.7325 163.816 69.1272 162.819 69.9165 162.008C70.6952 161.197 71.7085 160.792 72.9565 160.792C74.1192 160.792 75.0792 161.203 75.8365 162.024C76.5938 162.845 76.9725 163.843 76.9725 165.016C76.9725 165.229 76.9512 165.469 76.9085 165.736ZM70.5245 164.328H75.2285C75.1112 163.699 74.8445 163.213 74.4285 162.872C74.0232 162.531 73.5272 162.36 72.9405 162.36C72.3005 162.36 71.7672 162.536 71.3405 162.888C70.9138 163.24 70.6418 163.72 70.5245 164.328ZM84.4621 162.136V161H86.1901V169H84.4621V167.848C83.8115 168.755 82.8781 169.208 81.6621 169.208C80.5635 169.208 79.6248 168.803 78.8461 167.992C78.0675 167.181 77.6781 166.184 77.6781 165C77.6781 163.816 78.0675 162.819 78.8461 162.008C79.6248 161.197 80.5635 160.792 81.6621 160.792C82.8781 160.792 83.8115 161.24 84.4621 162.136ZM80.1261 166.84C80.6061 167.32 81.2088 167.56 81.9341 167.56C82.6595 167.56 83.2621 167.32 83.7421 166.84C84.2221 166.349 84.4621 165.736 84.4621 165C84.4621 164.264 84.2221 163.656 83.7421 163.176C83.2621 162.685 82.6595 162.44 81.9341 162.44C81.2088 162.44 80.6061 162.685 80.1261 163.176C79.6461 163.656 79.4061 164.264 79.4061 165C79.4061 165.725 79.6461 166.339 80.1261 166.84ZM92.3483 161V162.664H90.3643V166.504C90.3643 166.835 90.4389 167.075 90.5883 167.224C90.7376 167.363 90.9563 167.443 91.2443 167.464C91.5429 167.475 91.9109 167.469 92.3483 167.448V169C91.0256 169.16 90.0763 169.048 89.5003 168.664C88.9243 168.269 88.6363 167.549 88.6363 166.504V162.664H87.1643V161H88.6363V159.272L90.3643 158.76V161H92.3483ZM95.2275 159.48C95.0142 159.693 94.7582 159.8 94.4595 159.8C94.1608 159.8 93.8995 159.693 93.6755 159.48C93.4622 159.256 93.3555 158.995 93.3555 158.696C93.3555 158.397 93.4622 158.141 93.6755 157.928C93.8888 157.704 94.1502 157.592 94.4595 157.592C94.7688 157.592 95.0302 157.704 95.2435 157.928C95.4568 158.141 95.5635 158.397 95.5635 158.696C95.5635 158.995 95.4515 159.256 95.2275 159.48ZM95.3235 169H93.5955V161H95.3235V169ZM101.218 160.792C102.146 160.792 102.887 161.091 103.442 161.688C104.007 162.275 104.29 163.075 104.29 164.088V169H102.562V164.264C102.562 163.667 102.402 163.208 102.082 162.888C101.762 162.568 101.325 162.408 100.77 162.408C100.141 162.408 99.6445 162.605 99.2819 163C98.9192 163.384 98.7379 163.955 98.7379 164.712V169H97.0099V161H98.7379V162.024C99.2712 161.203 100.098 160.792 101.218 160.792ZM112.198 162.184V161H113.894V168.632C113.894 169.848 113.494 170.781 112.694 171.432C111.905 172.083 110.934 172.408 109.782 172.408C107.937 172.408 106.673 171.763 105.99 170.472L107.478 169.608C107.894 170.429 108.673 170.84 109.814 170.84C110.561 170.84 111.142 170.643 111.558 170.248C111.985 169.864 112.198 169.325 112.198 168.632V167.656C111.548 168.584 110.62 169.048 109.414 169.048C108.294 169.048 107.34 168.648 106.55 167.848C105.772 167.037 105.382 166.061 105.382 164.92C105.382 163.768 105.772 162.797 106.55 162.008C107.329 161.197 108.284 160.792 109.414 160.792C110.62 160.792 111.548 161.256 112.198 162.184ZM107.83 166.712C108.321 167.192 108.929 167.432 109.654 167.432C110.38 167.432 110.982 167.192 111.462 166.712C111.953 166.232 112.198 165.635 112.198 164.92C112.198 164.205 111.953 163.608 111.462 163.128C110.982 162.648 110.38 162.408 109.654 162.408C108.929 162.408 108.321 162.648 107.83 163.128C107.35 163.608 107.11 164.205 107.11 164.92C107.11 165.635 107.35 166.232 107.83 166.712ZM125.605 162.136V161H127.333V169H125.605V167.848C124.954 168.755 124.021 169.208 122.805 169.208C121.706 169.208 120.767 168.803 119.989 167.992C119.21 167.181 118.821 166.184 118.821 165C118.821 163.816 119.21 162.819 119.989 162.008C120.767 161.197 121.706 160.792 122.805 160.792C124.021 160.792 124.954 161.24 125.605 162.136ZM121.269 166.84C121.749 167.32 122.351 167.56 123.077 167.56C123.802 167.56 124.405 167.32 124.885 166.84C125.365 166.349 125.605 165.736 125.605 165C125.605 164.264 125.365 163.656 124.885 163.176C124.405 162.685 123.802 162.44 123.077 162.44C122.351 162.44 121.749 162.685 121.269 163.176C120.789 163.656 120.549 164.264 120.549 165C120.549 165.725 120.789 166.339 121.269 166.84ZM133.235 160.792C134.163 160.792 134.904 161.091 135.459 161.688C136.024 162.275 136.307 163.075 136.307 164.088V169H134.579V164.264C134.579 163.667 134.419 163.208 134.099 162.888C133.779 162.568 133.341 162.408 132.787 162.408C132.157 162.408 131.661 162.605 131.299 163C130.936 163.384 130.755 163.955 130.755 164.712V169H129.027V161H130.755V162.024C131.288 161.203 132.115 160.792 133.235 160.792ZM144.183 162.136V157.8H145.911V169H144.183V167.848C143.533 168.755 142.599 169.208 141.383 169.208C140.285 169.208 139.346 168.803 138.567 167.992C137.789 167.181 137.399 166.184 137.399 165C137.399 163.816 137.789 162.819 138.567 162.008C139.346 161.197 140.285 160.792 141.383 160.792C142.599 160.792 143.533 161.24 144.183 162.136ZM139.847 166.84C140.327 167.32 140.93 167.56 141.655 167.56C142.381 167.56 142.983 167.32 143.463 166.84C143.943 166.349 144.183 165.736 144.183 165C144.183 164.264 143.943 163.656 143.463 163.176C142.983 162.685 142.381 162.44 141.655 162.44C140.93 162.44 140.327 162.685 139.847 163.176C139.367 163.656 139.127 164.264 139.127 165C139.127 165.725 139.367 166.339 139.847 166.84ZM155.061 169.208C153.856 169.208 152.848 168.803 152.037 167.992C151.237 167.171 150.837 166.173 150.837 165C150.837 163.805 151.237 162.808 152.037 162.008C152.848 161.197 153.856 160.792 155.061 160.792C155.84 160.792 156.549 160.979 157.189 161.352C157.829 161.725 158.309 162.227 158.629 162.856L157.141 163.72C156.96 163.336 156.683 163.037 156.309 162.824C155.947 162.6 155.525 162.488 155.045 162.488C154.341 162.488 153.749 162.728 153.269 163.208C152.8 163.699 152.565 164.296 152.565 165C152.565 165.704 152.8 166.301 153.269 166.792C153.749 167.272 154.341 167.512 155.045 167.512C155.515 167.512 155.936 167.405 156.309 167.192C156.693 166.968 156.981 166.664 157.173 166.28L158.661 167.128C158.32 167.768 157.824 168.275 157.173 168.648C156.533 169.021 155.829 169.208 155.061 169.208ZM166.233 167.992C165.423 168.803 164.425 169.208 163.241 169.208C162.057 169.208 161.06 168.803 160.249 167.992C159.428 167.171 159.017 166.173 159.017 165C159.017 163.827 159.428 162.829 160.249 162.008C161.06 161.197 162.057 160.792 163.241 160.792C164.425 160.792 165.423 161.197 166.233 162.008C167.055 162.829 167.465 163.827 167.465 165C167.465 166.173 167.055 167.171 166.233 167.992ZM160.745 165C160.745 165.725 160.985 166.328 161.465 166.808C161.945 167.288 162.537 167.528 163.241 167.528C163.945 167.528 164.537 167.288 165.017 166.808C165.497 166.328 165.737 165.725 165.737 165C165.737 164.275 165.497 163.672 165.017 163.192C164.537 162.712 163.945 162.472 163.241 162.472C162.537 162.472 161.945 162.712 161.465 163.192C160.985 163.672 160.745 164.275 160.745 165ZM172.916 160.792C173.844 160.792 174.585 161.091 175.14 161.688C175.705 162.275 175.988 163.075 175.988 164.088V169H174.26V164.264C174.26 163.667 174.1 163.208 173.78 162.888C173.46 162.568 173.023 162.408 172.468 162.408C171.839 162.408 171.343 162.605 170.98 163C170.617 163.384 170.436 163.955 170.436 164.712V169H168.708V161H170.436V162.024C170.969 161.203 171.796 160.792 172.916 160.792ZM181.737 160.792C182.665 160.792 183.406 161.091 183.961 161.688C184.526 162.275 184.809 163.075 184.809 164.088V169H183.081V164.264C183.081 163.667 182.921 163.208 182.601 162.888C182.281 162.568 181.843 162.408 181.289 162.408C180.659 162.408 180.163 162.605 179.801 163C179.438 163.384 179.257 163.955 179.257 164.712V169H177.529V161H179.257V162.024C179.79 161.203 180.617 160.792 181.737 160.792ZM194.077 165.736H187.709C187.837 166.333 188.125 166.797 188.573 167.128C189.032 167.459 189.597 167.624 190.269 167.624C191.176 167.624 191.864 167.293 192.333 166.632L193.757 167.464C192.979 168.627 191.811 169.208 190.253 169.208C188.963 169.208 187.912 168.813 187.101 168.024C186.301 167.224 185.901 166.216 185.901 165C185.901 163.816 186.296 162.819 187.085 162.008C187.864 161.197 188.877 160.792 190.125 160.792C191.288 160.792 192.248 161.203 193.005 162.024C193.763 162.845 194.141 163.843 194.141 165.016C194.141 165.229 194.12 165.469 194.077 165.736ZM187.693 164.328H192.397C192.28 163.699 192.013 163.213 191.597 162.872C191.192 162.531 190.696 162.36 190.109 162.36C189.469 162.36 188.936 162.536 188.509 162.888C188.083 163.24 187.811 163.72 187.693 164.328ZM199.071 169.208C197.866 169.208 196.858 168.803 196.047 167.992C195.247 167.171 194.847 166.173 194.847 165C194.847 163.805 195.247 162.808 196.047 162.008C196.858 161.197 197.866 160.792 199.071 160.792C199.85 160.792 200.559 160.979 201.199 161.352C201.839 161.725 202.319 162.227 202.639 162.856L201.151 163.72C200.97 163.336 200.692 163.037 200.319 162.824C199.956 162.6 199.535 162.488 199.055 162.488C198.351 162.488 197.759 162.728 197.279 163.208C196.81 163.699 196.575 164.296 196.575 165C196.575 165.704 196.81 166.301 197.279 166.792C197.759 167.272 198.351 167.512 199.055 167.512C199.524 167.512 199.946 167.405 200.319 167.192C200.703 166.968 200.991 166.664 201.183 166.28L202.671 167.128C202.33 167.768 201.834 168.275 201.183 168.648C200.543 169.021 199.839 169.208 199.071 169.208ZM208.064 161V162.664H206.08V166.504C206.08 166.835 206.155 167.075 206.304 167.224C206.453 167.363 206.672 167.443 206.96 167.464C207.259 167.475 207.627 167.469 208.064 167.448V169C206.741 169.16 205.792 169.048 205.216 168.664C204.64 168.269 204.352 167.549 204.352 166.504V162.664H202.88V161H204.352V159.272L206.08 158.76V161H208.064ZM210.943 159.48C210.73 159.693 210.474 159.8 210.175 159.8C209.876 159.8 209.615 159.693 209.391 159.48C209.178 159.256 209.071 158.995 209.071 158.696C209.071 158.397 209.178 158.141 209.391 157.928C209.604 157.704 209.866 157.592 210.175 157.592C210.484 157.592 210.746 157.704 210.959 157.928C211.172 158.141 211.279 158.397 211.279 158.696C211.279 158.995 211.167 159.256 210.943 159.48ZM211.039 169H209.311V161H211.039V169ZM216.933 160.792C217.861 160.792 218.603 161.091 219.157 161.688C219.723 162.275 220.005 163.075 220.005 164.088V169H218.277V164.264C218.277 163.667 218.117 163.208 217.797 162.888C217.477 162.568 217.04 162.408 216.485 162.408C215.856 162.408 215.36 162.605 214.997 163C214.635 163.384 214.453 163.955 214.453 164.712V169H212.725V161H214.453V162.024C214.987 161.203 215.813 160.792 216.933 160.792ZM227.914 162.184V161H229.61V168.632C229.61 169.848 229.21 170.781 228.41 171.432C227.621 172.083 226.65 172.408 225.498 172.408C223.653 172.408 222.389 171.763 221.706 170.472L223.194 169.608C223.61 170.429 224.389 170.84 225.53 170.84C226.277 170.84 226.858 170.643 227.274 170.248C227.701 169.864 227.914 169.325 227.914 168.632V167.656C227.263 168.584 226.335 169.048 225.13 169.048C224.01 169.048 223.055 168.648 222.266 167.848C221.487 167.037 221.098 166.061 221.098 164.92C221.098 163.768 221.487 162.797 222.266 162.008C223.045 161.197 223.999 160.792 225.13 160.792C226.335 160.792 227.263 161.256 227.914 162.184ZM223.546 166.712C224.037 167.192 224.645 167.432 225.37 167.432C226.095 167.432 226.698 167.192 227.178 166.712C227.669 166.232 227.914 165.635 227.914 164.92C227.914 164.205 227.669 163.608 227.178 163.128C226.698 162.648 226.095 162.408 225.37 162.408C224.645 162.408 224.037 162.648 223.546 163.128C223.066 163.608 222.826 164.205 222.826 164.92C222.826 165.635 223.066 166.232 223.546 166.712ZM239.192 160.792C240.12 160.792 240.862 161.091 241.416 161.688C241.982 162.275 242.264 163.075 242.264 164.088V169H240.536V164.264C240.536 163.667 240.376 163.208 240.056 162.888C239.736 162.568 239.299 162.408 238.744 162.408C238.115 162.408 237.619 162.605 237.256 163C236.894 163.384 236.712 163.955 236.712 164.712V169H234.984V161H236.712V162.024C237.246 161.203 238.072 160.792 239.192 160.792ZM250.573 167.992C249.762 168.803 248.765 169.208 247.581 169.208C246.397 169.208 245.4 168.803 244.589 167.992C243.768 167.171 243.357 166.173 243.357 165C243.357 163.827 243.768 162.829 244.589 162.008C245.4 161.197 246.397 160.792 247.581 160.792C248.765 160.792 249.762 161.197 250.573 162.008C251.394 162.829 251.805 163.827 251.805 165C251.805 166.173 251.394 167.171 250.573 167.992ZM245.085 165C245.085 165.725 245.325 166.328 245.805 166.808C246.285 167.288 246.877 167.528 247.581 167.528C248.285 167.528 248.877 167.288 249.357 166.808C249.837 166.328 250.077 165.725 250.077 165C250.077 164.275 249.837 163.672 249.357 163.192C248.877 162.712 248.285 162.472 247.581 162.472C246.877 162.472 246.285 162.712 245.805 163.192C245.325 163.672 245.085 164.275 245.085 165ZM259.383 162.136V157.8H261.111V169H259.383V167.848C258.733 168.755 257.799 169.208 256.583 169.208C255.485 169.208 254.546 168.803 253.767 167.992C252.989 167.181 252.599 166.184 252.599 165C252.599 163.816 252.989 162.819 253.767 162.008C254.546 161.197 255.485 160.792 256.583 160.792C257.799 160.792 258.733 161.24 259.383 162.136ZM255.047 166.84C255.527 167.32 256.13 167.56 256.855 167.56C257.581 167.56 258.183 167.32 258.663 166.84C259.143 166.349 259.383 165.736 259.383 165C259.383 164.264 259.143 163.656 258.663 163.176C258.183 162.685 257.581 162.44 256.855 162.44C256.13 162.44 255.527 162.685 255.047 163.176C254.567 163.656 254.327 164.264 254.327 165C254.327 165.725 254.567 166.339 255.047 166.84ZM270.534 165.736H264.166C264.294 166.333 264.582 166.797 265.03 167.128C265.488 167.459 266.054 167.624 266.726 167.624C267.632 167.624 268.32 167.293 268.79 166.632L270.214 167.464C269.435 168.627 268.267 169.208 266.71 169.208C265.419 169.208 264.368 168.813 263.558 168.024C262.758 167.224 262.358 166.216 262.358 165C262.358 163.816 262.752 162.819 263.542 162.008C264.32 161.197 265.334 160.792 266.582 160.792C267.744 160.792 268.704 161.203 269.462 162.024C270.219 162.845 270.598 163.843 270.598 165.016C270.598 165.229 270.576 165.469 270.534 165.736ZM264.15 164.328H268.854C268.736 163.699 268.47 163.213 268.054 162.872C267.648 162.531 267.152 162.36 266.566 162.36C265.926 162.36 265.392 162.536 264.966 162.888C264.539 163.24 264.267 163.72 264.15 164.328ZM273.037 163.208C273.037 163.453 273.165 163.656 273.421 163.816C273.677 163.965 274.051 164.109 274.541 164.248C274.915 164.333 275.24 164.424 275.517 164.52C275.795 164.616 276.088 164.76 276.397 164.952C276.707 165.133 276.941 165.379 277.101 165.688C277.272 165.987 277.352 166.339 277.341 166.744C277.341 167.512 277.043 168.115 276.445 168.552C275.848 168.989 275.107 169.208 274.221 169.208C273.432 169.208 272.755 169.043 272.189 168.712C271.624 168.381 271.213 167.923 270.957 167.336L272.445 166.472C272.712 167.24 273.304 167.624 274.221 167.624C275.128 167.624 275.581 167.325 275.581 166.728C275.581 166.291 275.075 165.949 274.061 165.704C273.677 165.608 273.352 165.512 273.085 165.416C272.829 165.32 272.541 165.181 272.221 165C271.912 164.819 271.672 164.579 271.501 164.28C271.341 163.981 271.267 163.635 271.277 163.24C271.277 162.504 271.555 161.912 272.109 161.464C272.675 161.016 273.373 160.792 274.205 160.792C274.867 160.792 275.453 160.941 275.965 161.24C276.488 161.528 276.888 161.933 277.165 162.456L275.709 163.272C275.443 162.664 274.941 162.36 274.205 162.36C273.864 162.36 273.581 162.435 273.357 162.584C273.144 162.733 273.037 162.941 273.037 163.208Z" fill="white"/>
<rect y="199.5" width="333" height="48" rx="24" fill="#1E302D"/>
<path d="M24 224.5L29 229.5L40 217.5" stroke="#46DC82" stroke-width="1.5" stroke-linecap="round" stroke-linejoin="round"/>
<path d="M59.84 225.4V217.8H61.68V229H60.24L54.96 221.4V229H53.12V217.8H54.56L59.84 225.4ZM71.2129 225.736H64.8449C64.9729 226.333 65.2609 226.797 65.7089 227.128C66.1675 227.459 66.7329 227.624 67.4049 227.624C68.3115 227.624 68.9995 227.293 69.4689 226.632L70.8929 227.464C70.1142 228.627 68.9462 229.208 67.3889 229.208C66.0982 229.208 65.0475 228.813 64.2369 228.024C63.4369 227.224 63.0369 226.216 63.0369 225C63.0369 223.816 63.4315 222.819 64.2209 222.008C64.9995 221.197 66.0129 220.792 67.2609 220.792C68.4235 220.792 69.3835 221.203 70.1409 222.024C70.8982 222.845 71.2769 223.843 71.2769 225.016C71.2769 225.229 71.2555 225.469 71.2129 225.736ZM64.8289 224.328H69.5329C69.4155 223.699 69.1489 223.213 68.7329 222.872C68.3275 222.531 67.8315 222.36 67.2449 222.36C66.6049 222.36 66.0715 222.536 65.6449 222.888C65.2182 223.24 64.9462 223.72 64.8289 224.328ZM79.8129 226.52L81.3809 221H83.2049L80.6929 229H78.9969L77.3329 223.608L75.6529 229H73.9569L71.4449 221H73.2689L74.8209 226.52L76.5009 221H78.1489L79.8129 226.52ZM92.0454 220.792C92.9734 220.792 93.7147 221.091 94.2694 221.688C94.8347 222.275 95.1174 223.075 95.1174 224.088V229H93.3894V224.264C93.3894 223.667 93.2294 223.208 92.9094 222.888C92.5894 222.568 92.152 222.408 91.5974 222.408C90.968 222.408 90.472 222.605 90.1094 223C89.7467 223.384 89.5654 223.955 89.5654 224.712V229H87.8374V221H89.5654V222.024C90.0987 221.203 90.9254 220.792 92.0454 220.792ZM103.426 227.992C102.615 228.803 101.618 229.208 100.434 229.208C99.25 229.208 98.2527 228.803 97.442 227.992C96.6207 227.171 96.21 226.173 96.21 225C96.21 223.827 96.6207 222.829 97.442 222.008C98.2527 221.197 99.25 220.792 100.434 220.792C101.618 220.792 102.615 221.197 103.426 222.008C104.247 222.829 104.658 223.827 104.658 225C104.658 226.173 104.247 227.171 103.426 227.992ZM97.938 225C97.938 225.725 98.178 226.328 98.658 226.808C99.138 227.288 99.73 227.528 100.434 227.528C101.138 227.528 101.73 227.288 102.21 226.808C102.69 226.328 102.93 225.725 102.93 225C102.93 224.275 102.69 223.672 102.21 223.192C101.73 222.712 101.138 222.472 100.434 222.472C99.73 222.472 99.138 222.712 98.658 223.192C98.178 223.672 97.938 224.275 97.938 225ZM112.237 222.136V217.8H113.965V229H112.237V227.848C111.586 228.755 110.653 229.208 109.437 229.208C108.338 229.208 107.399 228.803 106.621 227.992C105.842 227.181 105.453 226.184 105.453 225C105.453 223.816 105.842 222.819 106.621 222.008C107.399 221.197 108.338 220.792 109.437 220.792C110.653 220.792 111.586 221.24 112.237 222.136ZM107.901 226.84C108.381 227.32 108.983 227.56 109.709 227.56C110.434 227.56 111.037 227.32 111.517 226.84C111.997 226.349 112.237 225.736 112.237 225C112.237 224.264 111.997 223.656 111.517 223.176C111.037 222.685 110.434 222.44 109.709 222.44C108.983 222.44 108.381 222.685 107.901 223.176C107.421 223.656 107.181 224.264 107.181 225C107.181 225.725 107.421 226.339 107.901 226.84ZM123.387 225.736H117.019C117.147 226.333 117.435 226.797 117.883 227.128C118.341 227.459 118.907 227.624 119.579 227.624C120.485 227.624 121.173 227.293 121.643 226.632L123.067 227.464C122.288 228.627 121.12 229.208 119.563 229.208C118.272 229.208 117.221 228.813 116.411 228.024C115.611 227.224 115.211 226.216 115.211 225C115.211 223.816 115.605 222.819 116.395 222.008C117.173 221.197 118.187 220.792 119.435 220.792C120.597 220.792 121.557 221.203 122.315 222.024C123.072 222.845 123.451 223.843 123.451 225.016C123.451 225.229 123.429 225.469 123.387 225.736ZM117.003 224.328H121.707C121.589 223.699 121.323 223.213 120.907 222.872C120.501 222.531 120.005 222.36 119.419 222.36C118.779 222.36 118.245 222.536 117.819 222.888C117.392 223.24 117.12 223.72 117.003 224.328ZM125.891 223.208C125.891 223.453 126.019 223.656 126.275 223.816C126.531 223.965 126.904 224.109 127.395 224.248C127.768 224.333 128.093 224.424 128.371 224.52C128.648 224.616 128.941 224.76 129.251 224.952C129.56 225.133 129.795 225.379 129.955 225.688C130.125 225.987 130.205 226.339 130.195 226.744C130.195 227.512 129.896 228.115 129.299 228.552C128.701 228.989 127.96 229.208 127.075 229.208C126.285 229.208 125.608 229.043 125.043 228.712C124.477 228.381 124.067 227.923 123.811 227.336L125.299 226.472C125.565 227.24 126.157 227.624 127.075 227.624C127.981 227.624 128.435 227.325 128.435 226.728C128.435 226.291 127.928 225.949 126.915 225.704C126.531 225.608 126.205 225.512 125.939 225.416C125.683 225.32 125.395 225.181 125.075 225C124.765 224.819 124.525 224.579 124.355 224.28C124.195 223.981 124.12 223.635 124.131 223.24C124.131 222.504 124.408 221.912 124.963 221.464C125.528 221.016 126.227 220.792 127.059 220.792C127.72 220.792 128.307 220.941 128.819 221.24C129.341 221.528 129.741 221.933 130.019 222.456L128.563 223.272C128.296 222.664 127.795 222.36 127.059 222.36C126.717 222.36 126.435 222.435 126.211 222.584C125.997 222.733 125.891 222.941 125.891 223.208ZM141.41 222.136V221H143.138V229H141.41V227.848C140.759 228.755 139.826 229.208 138.61 229.208C137.511 229.208 136.572 228.803 135.794 227.992C135.015 227.181 134.626 226.184 134.626 225C134.626 223.816 135.015 222.819 135.794 222.008C136.572 221.197 137.511 220.792 138.61 220.792C139.826 220.792 140.759 221.24 141.41 222.136ZM137.074 226.84C137.554 227.32 138.156 227.56 138.882 227.56C139.607 227.56 140.21 227.32 140.69 226.84C141.17 226.349 141.41 225.736 141.41 225C141.41 224.264 141.17 223.656 140.69 223.176C140.21 222.685 139.607 222.44 138.882 222.44C138.156 222.44 137.554 222.685 137.074 223.176C136.594 223.656 136.354 224.264 136.354 225C136.354 225.725 136.594 226.339 137.074 226.84ZM149.04 220.792C149.968 220.792 150.709 221.091 151.264 221.688C151.829 222.275 152.112 223.075 152.112 224.088V229H150.384V224.264C150.384 223.667 150.224 223.208 149.904 222.888C149.584 222.568 149.146 222.408 148.592 222.408C147.962 222.408 147.466 222.605 147.104 223C146.741 223.384 146.56 223.955 146.56 224.712V229H144.832V221H146.56V222.024C147.093 221.203 147.92 220.792 149.04 220.792ZM159.988 222.136V217.8H161.716V229H159.988V227.848C159.338 228.755 158.404 229.208 157.188 229.208C156.09 229.208 155.151 228.803 154.372 227.992C153.594 227.181 153.204 226.184 153.204 225C153.204 223.816 153.594 222.819 154.372 222.008C155.151 221.197 156.09 220.792 157.188 220.792C158.404 220.792 159.338 221.24 159.988 222.136ZM155.652 226.84C156.132 227.32 156.735 227.56 157.46 227.56C158.186 227.56 158.788 227.32 159.268 226.84C159.748 226.349 159.988 225.736 159.988 225C159.988 224.264 159.748 223.656 159.268 223.176C158.788 222.685 158.186 222.44 157.46 222.44C156.735 222.44 156.132 222.685 155.652 223.176C155.172 223.656 154.932 224.264 154.932 225C154.932 225.725 155.172 226.339 155.652 226.84ZM170.866 229.208C169.661 229.208 168.653 228.803 167.842 227.992C167.042 227.171 166.642 226.173 166.642 225C166.642 223.805 167.042 222.808 167.842 222.008C168.653 221.197 169.661 220.792 170.866 220.792C171.645 220.792 172.354 220.979 172.994 221.352C173.634 221.725 174.114 222.227 174.434 222.856L172.946 223.72C172.765 223.336 172.488 223.037 172.114 222.824C171.752 222.6 171.33 222.488 170.85 222.488C170.146 222.488 169.554 222.728 169.074 223.208C168.605 223.699 168.37 224.296 168.37 225C168.37 225.704 168.605 226.301 169.074 226.792C169.554 227.272 170.146 227.512 170.85 227.512C171.32 227.512 171.741 227.405 172.114 227.192C172.498 226.968 172.786 226.664 172.978 226.28L174.466 227.128C174.125 227.768 173.629 228.275 172.978 228.648C172.338 229.021 171.634 229.208 170.866 229.208ZM182.038 227.992C181.228 228.803 180.23 229.208 179.046 229.208C177.862 229.208 176.865 228.803 176.054 227.992C175.233 227.171 174.822 226.173 174.822 225C174.822 223.827 175.233 222.829 176.054 222.008C176.865 221.197 177.862 220.792 179.046 220.792C180.23 220.792 181.228 221.197 182.038 222.008C182.86 222.829 183.27 223.827 183.27 225C183.27 226.173 182.86 227.171 182.038 227.992ZM176.55 225C176.55 225.725 176.79 226.328 177.27 226.808C177.75 227.288 178.342 227.528 179.046 227.528C179.75 227.528 180.342 227.288 180.822 226.808C181.302 226.328 181.542 225.725 181.542 225C181.542 224.275 181.302 223.672 180.822 223.192C180.342 222.712 179.75 222.472 179.046 222.472C178.342 222.472 177.75 222.712 177.27 223.192C176.79 223.672 176.55 224.275 176.55 225ZM188.721 220.792C189.649 220.792 190.39 221.091 190.945 221.688C191.51 222.275 191.793 223.075 191.793 224.088V229H190.065V224.264C190.065 223.667 189.905 223.208 189.585 222.888C189.265 222.568 188.828 222.408 188.273 222.408C187.644 222.408 187.148 222.605 186.785 223C186.422 223.384 186.241 223.955 186.241 224.712V229H184.513V221H186.241V222.024C186.774 221.203 187.601 220.792 188.721 220.792ZM197.542 220.792C198.47 220.792 199.211 221.091 199.766 221.688C200.331 222.275 200.614 223.075 200.614 224.088V229H198.886V224.264C198.886 223.667 198.726 223.208 198.406 222.888C198.086 222.568 197.648 222.408 197.094 222.408C196.464 222.408 195.968 222.605 195.606 223C195.243 223.384 195.062 223.955 195.062 224.712V229H193.334V221H195.062V222.024C195.595 221.203 196.422 220.792 197.542 220.792ZM209.882 225.736H203.514C203.642 226.333 203.93 226.797 204.378 227.128C204.837 227.459 205.402 227.624 206.074 227.624C206.981 227.624 207.669 227.293 208.138 226.632L209.562 227.464C208.784 228.627 207.616 229.208 206.058 229.208C204.768 229.208 203.717 228.813 202.906 228.024C202.106 227.224 201.706 226.216 201.706 225C201.706 223.816 202.101 222.819 202.89 222.008C203.669 221.197 204.682 220.792 205.93 220.792C207.093 220.792 208.053 221.203 208.81 222.024C209.568 222.845 209.946 223.843 209.946 225.016C209.946 225.229 209.925 225.469 209.882 225.736ZM203.498 224.328H208.202C208.085 223.699 207.818 223.213 207.402 222.872C206.997 222.531 206.501 222.36 205.914 222.36C205.274 222.36 204.741 222.536 204.314 222.888C203.888 223.24 203.616 223.72 203.498 224.328ZM214.876 229.208C213.671 229.208 212.663 228.803 211.852 227.992C211.052 227.171 210.652 226.173 210.652 225C210.652 223.805 211.052 222.808 211.852 222.008C212.663 221.197 213.671 220.792 214.876 220.792C215.655 220.792 216.364 220.979 217.004 221.352C217.644 221.725 218.124 222.227 218.444 222.856L216.956 223.72C216.775 223.336 216.497 223.037 216.124 222.824C215.761 222.6 215.34 222.488 214.86 222.488C214.156 222.488 213.564 222.728 213.084 223.208C212.615 223.699 212.38 224.296 212.38 225C212.38 225.704 212.615 226.301 213.084 226.792C213.564 227.272 214.156 227.512 214.86 227.512C215.329 227.512 215.751 227.405 216.124 227.192C216.508 226.968 216.796 226.664 216.988 226.28L218.476 227.128C218.135 227.768 217.639 228.275 216.988 228.648C216.348 229.021 215.644 229.208 214.876 229.208ZM223.869 221V222.664H221.885V226.504C221.885 226.835 221.96 227.075 222.109 227.224C222.258 227.363 222.477 227.443 222.765 227.464C223.064 227.475 223.432 227.469 223.869 227.448V229C222.546 229.16 221.597 229.048 221.021 228.664C220.445 228.269 220.157 227.549 220.157 226.504V222.664H218.685V221H220.157V219.272L221.885 218.76V221H223.869ZM226.748 219.48C226.535 219.693 226.279 219.8 225.98 219.8C225.681 219.8 225.42 219.693 225.196 219.48C224.983 219.256 224.876 218.995 224.876 218.696C224.876 218.397 224.983 218.141 225.196 217.928C225.409 217.704 225.671 217.592 225.98 217.592C226.289 217.592 226.551 217.704 226.764 217.928C226.977 218.141 227.084 218.397 227.084 218.696C227.084 218.995 226.972 219.256 226.748 219.48ZM226.844 229H225.116V221H226.844V229ZM235.299 227.992C234.488 228.803 233.491 229.208 232.307 229.208C231.123 229.208 230.125 228.803 229.315 227.992C228.493 227.171 228.083 226.173 228.083 225C228.083 223.827 228.493 222.829 229.315 222.008C230.125 221.197 231.123 220.792 232.307 220.792C233.491 220.792 234.488 221.197 235.299 222.008C236.12 222.829 236.531 223.827 236.531 225C236.531 226.173 236.12 227.171 235.299 227.992ZM229.811 225C229.811 225.725 230.051 226.328 230.531 226.808C231.011 227.288 231.603 227.528 232.307 227.528C233.011 227.528 233.603 227.288 234.083 226.808C234.563 226.328 234.803 225.725 234.803 225C234.803 224.275 234.563 223.672 234.083 223.192C233.603 222.712 233.011 222.472 232.307 222.472C231.603 222.472 231.011 222.712 230.531 223.192C230.051 223.672 229.811 224.275 229.811 225ZM241.981 220.792C242.909 220.792 243.65 221.091 244.205 221.688C244.77 222.275 245.053 223.075 245.053 224.088V229H243.325V224.264C243.325 223.667 243.165 223.208 242.845 222.888C242.525 222.568 242.088 222.408 241.533 222.408C240.904 222.408 240.408 222.605 240.045 223C239.682 223.384 239.501 223.955 239.501 224.712V229H237.773V221H239.501V222.024C240.034 221.203 240.861 220.792 241.981 220.792ZM248.146 223.208C248.146 223.453 248.274 223.656 248.53 223.816C248.786 223.965 249.159 224.109 249.65 224.248C250.023 224.333 250.348 224.424 250.626 224.52C250.903 224.616 251.196 224.76 251.506 224.952C251.815 225.133 252.05 225.379 252.21 225.688C252.38 225.987 252.46 226.339 252.45 226.744C252.45 227.512 252.151 228.115 251.554 228.552C250.956 228.989 250.215 229.208 249.33 229.208C248.54 229.208 247.863 229.043 247.298 228.712C246.732 228.381 246.322 227.923 246.066 227.336L247.554 226.472C247.82 227.24 248.412 227.624 249.33 227.624C250.236 227.624 250.69 227.325 250.69 226.728C250.69 226.291 250.183 225.949 249.17 225.704C248.786 225.608 248.46 225.512 248.194 225.416C247.938 225.32 247.65 225.181 247.33 225C247.02 224.819 246.78 224.579 246.61 224.28C246.45 223.981 246.375 223.635 246.386 223.24C246.386 222.504 246.663 221.912 247.218 221.464C247.783 221.016 248.482 220.792 249.314 220.792C249.975 220.792 250.562 220.941 251.074 221.24C251.596 221.528 251.996 221.933 252.274 222.456L250.818 223.272C250.551 222.664 250.05 222.36 249.314 222.36C248.972 222.36 248.69 222.435 248.466 222.584C248.252 222.733 248.146 222.941 248.146 223.208ZM261.105 229.208C259.899 229.208 258.891 228.803 258.081 227.992C257.281 227.171 256.881 226.173 256.881 225C256.881 223.805 257.281 222.808 258.081 222.008C258.891 221.197 259.899 220.792 261.105 220.792C261.883 220.792 262.593 220.979 263.233 221.352C263.873 221.725 264.353 222.227 264.673 222.856L263.185 223.72C263.003 223.336 262.726 223.037 262.353 222.824C261.99 222.6 261.569 222.488 261.089 222.488C260.385 222.488 259.793 222.728 259.313 223.208C258.843 223.699 258.609 224.296 258.609 225C258.609 225.704 258.843 226.301 259.313 226.792C259.793 227.272 260.385 227.512 261.089 227.512C261.558 227.512 261.979 227.405 262.353 227.192C262.737 226.968 263.025 226.664 263.217 226.28L264.705 227.128C264.363 227.768 263.867 228.275 263.217 228.648C262.577 229.021 261.873 229.208 261.105 229.208ZM267.409 221V222.344C267.846 221.352 268.667 220.856 269.873 220.856V222.728C269.222 222.685 268.646 222.845 268.145 223.208C267.654 223.56 267.409 224.147 267.409 224.968V229H265.681V221H267.409ZM278.182 225.736H271.814C271.942 226.333 272.23 226.797 272.678 227.128C273.137 227.459 273.702 227.624 274.374 227.624C275.281 227.624 275.969 227.293 276.438 226.632L277.862 227.464C277.084 228.627 275.916 229.208 274.358 229.208C273.068 229.208 272.017 228.813 271.206 228.024C270.406 227.224 270.006 226.216 270.006 225C270.006 223.816 270.401 222.819 271.19 222.008C271.969 221.197 272.982 220.792 274.23 220.792C275.393 220.792 276.353 221.203 277.11 222.024C277.868 222.845 278.246 223.843 278.246 225.016C278.246 225.229 278.225 225.469 278.182 225.736ZM271.798 224.328H276.502C276.385 223.699 276.118 223.213 275.702 222.872C275.297 222.531 274.801 222.36 274.214 222.36C273.574 222.36 273.041 222.536 272.614 222.888C272.188 223.24 271.916 223.72 271.798 224.328ZM285.736 222.136V221H287.464V229H285.736V227.848C285.085 228.755 284.152 229.208 282.936 229.208C281.837 229.208 280.899 228.803 280.12 227.992C279.341 227.181 278.952 226.184 278.952 225C278.952 223.816 279.341 222.819 280.12 222.008C280.899 221.197 281.837 220.792 282.936 220.792C284.152 220.792 285.085 221.24 285.736 222.136ZM281.4 226.84C281.88 227.32 282.483 227.56 283.208 227.56C283.933 227.56 284.536 227.32 285.016 226.84C285.496 226.349 285.736 225.736 285.736 225C285.736 224.264 285.496 223.656 285.016 223.176C284.536 222.685 283.933 222.44 283.208 222.44C282.483 222.44 281.88 222.685 281.4 223.176C280.92 223.656 280.68 224.264 280.68 225C280.68 225.725 280.92 226.339 281.4 226.84ZM293.622 221V222.664H291.638V226.504C291.638 226.835 291.713 227.075 291.862 227.224C292.011 227.363 292.23 227.443 292.518 227.464C292.817 227.475 293.185 227.469 293.622 227.448V229C292.299 229.16 291.35 229.048 290.774 228.664C290.198 228.269 289.91 227.549 289.91 226.504V222.664H288.438V221H289.91V219.272L291.638 218.76V221H293.622ZM302.269 225.736H295.901C296.029 226.333 296.317 226.797 296.765 227.128C297.224 227.459 297.789 227.624 298.461 227.624C299.368 227.624 300.056 227.293 300.525 226.632L301.949 227.464C301.17 228.627 300.002 229.208 298.445 229.208C297.154 229.208 296.104 228.813 295.293 228.024C294.493 227.224 294.093 226.216 294.093 225C294.093 223.816 294.488 222.819 295.277 222.008C296.056 221.197 297.069 220.792 298.317 220.792C299.48 220.792 300.44 221.203 301.197 222.024C301.954 222.845 302.333 223.843 302.333 225.016C302.333 225.229 302.312 225.469 302.269 225.736ZM295.885 224.328H300.589C300.472 223.699 300.205 223.213 299.789 222.872C299.384 222.531 298.888 222.36 298.301 222.36C297.661 222.36 297.128 222.536 296.701 222.888C296.274 223.24 296.002 223.72 295.885 224.328ZM309.823 222.136V217.8H311.551V229H309.823V227.848C309.172 228.755 308.239 229.208 307.023 229.208C305.924 229.208 304.985 228.803 304.207 227.992C303.428 227.181 303.039 226.184 303.039 225C303.039 223.816 303.428 222.819 304.207 222.008C304.985 221.197 305.924 220.792 307.023 220.792C308.239 220.792 309.172 221.24 309.823 222.136ZM305.487 226.84C305.967 227.32 306.569 227.56 307.295 227.56C308.02 227.56 308.623 227.32 309.103 226.84C309.583 226.349 309.823 225.736 309.823 225C309.823 224.264 309.583 223.656 309.103 223.176C308.623 222.685 308.02 222.44 307.295 222.44C306.569 222.44 305.967 222.685 305.487 223.176C305.007 223.656 304.767 224.264 304.767 225C304.767 225.725 305.007 226.339 305.487 226.84Z" fill="white"/>
<rect x="147.5" y="53" width="372" height="74" rx="31.5" fill="#14181F"/>
<rect x="147.5" y="53" width="372" height="74" rx="31.5" stroke="url(#paint0_linear_5280_10637)"/>
<path d="M181.1 81.9257C181.1 80.8577 181.1 80.3238 180.9 80.1051C180.728 79.9158 180.471 79.8259 180.218 79.8657C179.925 79.9117 179.592 80.3287 178.925 81.1627L171.763 90.1153C171.254 90.7506 171 91.0682 171 91.3356C171 91.5681 171.105 91.788 171.287 91.933C171.496 92.0998 171.903 92.0998 172.716 92.0998H175.68C176.107 92.0998 176.321 92.0998 176.484 92.183C176.628 92.2562 176.745 92.373 176.818 92.5167C176.901 92.68 176.901 92.8937 176.901 93.3213V98.0751C176.901 99.143 176.901 99.677 177.101 99.8957C177.274 100.085 177.53 100.175 177.783 100.135C178.076 100.089 178.409 99.6721 179.077 98.8381L186.239 89.8855C186.747 89.2502 187.001 88.9325 187.001 88.6652C187.001 88.4327 186.896 88.2128 186.714 88.0677C186.505 87.9009 186.098 87.9009 185.285 87.9009H182.322C181.894 87.9009 181.68 87.9009 181.517 87.8177C181.373 87.7445 181.256 87.6278 181.183 87.4841C181.1 87.3208 181.1 87.107 181.1 86.6795V81.9257Z" fill="white"/>
<path d="M209.416 83.708C207.731 83.708 206.333 83.1533 205.224 82.044C204.115 80.9133 203.56 79.532 203.56 77.9C203.56 76.2573 204.115 74.8813 205.224 73.772C206.323 72.652 207.72 72.092 209.416 72.092C210.429 72.092 211.363 72.332 212.216 72.812C213.08 73.292 213.752 73.9427 214.232 74.764L212.632 75.692C212.333 75.1373 211.896 74.7 211.32 74.38C210.755 74.0493 210.12 73.884 209.416 73.884C208.232 73.884 207.261 74.2627 206.504 75.02C205.768 75.7667 205.4 76.7267 205.4 77.9C205.4 79.0733 205.768 80.0333 206.504 80.78C207.261 81.5373 208.232 81.916 209.416 81.916C210.12 81.916 210.76 81.756 211.336 81.436C211.912 81.1053 212.344 80.6627 212.632 80.108L214.232 81.02C213.773 81.8307 213.107 82.4867 212.232 82.988C211.389 83.468 210.451 83.708 209.416 83.708ZM217.135 75.5V76.844C217.572 75.852 218.393 75.356 219.599 75.356V77.228C218.948 77.1853 218.372 77.3453 217.871 77.708C217.38 78.06 217.135 78.6467 217.135 79.468V83.5H215.407V75.5H217.135ZM227.909 80.236H221.541C221.669 80.8333 221.957 81.2973 222.405 81.628C222.863 81.9587 223.429 82.124 224.101 82.124C225.007 82.124 225.695 81.7933 226.165 81.132L227.589 81.964C226.81 83.1267 225.642 83.708 224.085 83.708C222.794 83.708 221.743 83.3133 220.933 82.524C220.133 81.724 219.733 80.716 219.733 79.5C219.733 78.316 220.127 77.3187 220.917 76.508C221.695 75.6973 222.709 75.292 223.957 75.292C225.119 75.292 226.079 75.7027 226.837 76.524C227.594 77.3453 227.973 78.3427 227.973 79.516C227.973 79.7293 227.951 79.9693 227.909 80.236ZM221.525 78.828H226.229C226.111 78.1987 225.845 77.7133 225.429 77.372C225.023 77.0307 224.527 76.86 223.941 76.86C223.301 76.86 222.767 77.036 222.341 77.388C221.914 77.74 221.642 78.22 221.525 78.828ZM235.462 76.636V75.5H237.19V83.5H235.462V82.348C234.811 83.2547 233.878 83.708 232.662 83.708C231.563 83.708 230.625 83.3027 229.846 82.492C229.067 81.6813 228.678 80.684 228.678 79.5C228.678 78.316 229.067 77.3187 229.846 76.508C230.625 75.6973 231.563 75.292 232.662 75.292C233.878 75.292 234.811 75.74 235.462 76.636ZM231.126 81.34C231.606 81.82 232.209 82.06 232.934 82.06C233.659 82.06 234.262 81.82 234.742 81.34C235.222 80.8493 235.462 80.236 235.462 79.5C235.462 78.764 235.222 78.156 234.742 77.676C234.262 77.1853 233.659 76.94 232.934 76.94C232.209 76.94 231.606 77.1853 231.126 77.676C230.646 78.156 230.406 78.764 230.406 79.5C230.406 80.2253 230.646 80.8387 231.126 81.34ZM243.348 75.5V77.164H241.364V81.004C241.364 81.3347 241.439 81.5747 241.588 81.724C241.738 81.8627 241.956 81.9427 242.244 81.964C242.543 81.9747 242.911 81.9693 243.348 81.948V83.5C242.026 83.66 241.076 83.548 240.5 83.164C239.924 82.7693 239.636 82.0493 239.636 81.004V77.164H238.164V75.5H239.636V73.772L241.364 73.26V75.5H243.348ZM251.995 80.236H245.627C245.755 80.8333 246.043 81.2973 246.491 81.628C246.95 81.9587 247.515 82.124 248.187 82.124C249.094 82.124 249.782 81.7933 250.251 81.132L251.675 81.964C250.897 83.1267 249.729 83.708 248.171 83.708C246.881 83.708 245.83 83.3133 245.019 82.524C244.219 81.724 243.819 80.716 243.819 79.5C243.819 78.316 244.214 77.3187 245.003 76.508C245.782 75.6973 246.795 75.292 248.043 75.292C249.206 75.292 250.166 75.7027 250.923 76.524C251.681 77.3453 252.059 78.3427 252.059 79.516C252.059 79.7293 252.038 79.9693 251.995 80.236ZM245.611 78.828H250.315C250.198 78.1987 249.931 77.7133 249.515 77.372C249.11 77.0307 248.614 76.86 248.027 76.86C247.387 76.86 246.854 77.036 246.427 77.388C246.001 77.74 245.729 78.22 245.611 78.828ZM263.276 76.636V75.5H265.004V83.5H263.276V82.348C262.625 83.2547 261.692 83.708 260.476 83.708C259.377 83.708 258.439 83.3027 257.66 82.492C256.881 81.6813 256.492 80.684 256.492 79.5C256.492 78.316 256.881 77.3187 257.66 76.508C258.439 75.6973 259.377 75.292 260.476 75.292C261.692 75.292 262.625 75.74 263.276 76.636ZM258.94 81.34C259.42 81.82 260.023 82.06 260.748 82.06C261.473 82.06 262.076 81.82 262.556 81.34C263.036 80.8493 263.276 80.236 263.276 79.5C263.276 78.764 263.036 78.156 262.556 77.676C262.076 77.1853 261.473 76.94 260.748 76.94C260.023 76.94 259.42 77.1853 258.94 77.676C258.46 78.156 258.22 78.764 258.22 79.5C258.22 80.2253 258.46 80.8387 258.94 81.34ZM274.154 83.708C272.949 83.708 271.941 83.3027 271.13 82.492C270.33 81.6707 269.93 80.6733 269.93 79.5C269.93 78.3053 270.33 77.308 271.13 76.508C271.941 75.6973 272.949 75.292 274.154 75.292C274.933 75.292 275.642 75.4787 276.282 75.852C276.922 76.2253 277.402 76.7267 277.722 77.356L276.234 78.22C276.053 77.836 275.775 77.5373 275.402 77.324C275.039 77.1 274.618 76.988 274.138 76.988C273.434 76.988 272.842 77.228 272.362 77.708C271.893 78.1987 271.658 78.796 271.658 79.5C271.658 80.204 271.893 80.8013 272.362 81.292C272.842 81.772 273.434 82.012 274.138 82.012C274.607 82.012 275.029 81.9053 275.402 81.692C275.786 81.468 276.074 81.164 276.266 80.78L277.754 81.628C277.413 82.268 276.917 82.7747 276.266 83.148C275.626 83.5213 274.922 83.708 274.154 83.708ZM285.326 82.492C284.515 83.3027 283.518 83.708 282.334 83.708C281.15 83.708 280.153 83.3027 279.342 82.492C278.521 81.6707 278.11 80.6733 278.11 79.5C278.11 78.3267 278.521 77.3293 279.342 76.508C280.153 75.6973 281.15 75.292 282.334 75.292C283.518 75.292 284.515 75.6973 285.326 76.508C286.147 77.3293 286.558 78.3267 286.558 79.5C286.558 80.6733 286.147 81.6707 285.326 82.492ZM279.838 79.5C279.838 80.2253 280.078 80.828 280.558 81.308C281.038 81.788 281.63 82.028 282.334 82.028C283.038 82.028 283.63 81.788 284.11 81.308C284.59 80.828 284.83 80.2253 284.83 79.5C284.83 78.7747 284.59 78.172 284.11 77.692C283.63 77.212 283.038 76.972 282.334 76.972C281.63 76.972 281.038 77.212 280.558 77.692C280.078 78.172 279.838 78.7747 279.838 79.5ZM292.009 75.292C292.937 75.292 293.678 75.5907 294.233 76.188C294.798 76.7747 295.081 77.5747 295.081 78.588V83.5H293.353V78.764C293.353 78.1667 293.193 77.708 292.873 77.388C292.553 77.068 292.115 76.908 291.561 76.908C290.931 76.908 290.435 77.1053 290.073 77.5C289.71 77.884 289.529 78.4547 289.529 79.212V83.5H287.801V75.5H289.529V76.524C290.062 75.7027 290.889 75.292 292.009 75.292ZM300.829 75.292C301.757 75.292 302.498 75.5907 303.053 76.188C303.618 76.7747 303.901 77.5747 303.901 78.588V83.5H302.173V78.764C302.173 78.1667 302.013 77.708 301.693 77.388C301.373 77.068 300.936 76.908 300.381 76.908C299.752 76.908 299.256 77.1053 298.893 77.5C298.53 77.884 298.349 78.4547 298.349 79.212V83.5H296.621V75.5H298.349V76.524C298.882 75.7027 299.709 75.292 300.829 75.292ZM313.17 80.236H306.802C306.93 80.8333 307.218 81.2973 307.666 81.628C308.124 81.9587 308.69 82.124 309.362 82.124C310.268 82.124 310.956 81.7933 311.426 81.132L312.85 81.964C312.071 83.1267 310.903 83.708 309.346 83.708C308.055 83.708 307.004 83.3133 306.194 82.524C305.394 81.724 304.994 80.716 304.994 79.5C304.994 78.316 305.388 77.3187 306.178 76.508C306.956 75.6973 307.97 75.292 309.218 75.292C310.38 75.292 311.34 75.7027 312.098 76.524C312.855 77.3453 313.234 78.3427 313.234 79.516C313.234 79.7293 313.212 79.9693 313.17 80.236ZM306.786 78.828H311.49C311.372 78.1987 311.106 77.7133 310.69 77.372C310.284 77.0307 309.788 76.86 309.202 76.86C308.562 76.86 308.028 77.036 307.602 77.388C307.175 77.74 306.903 78.22 306.786 78.828ZM318.163 83.708C316.958 83.708 315.95 83.3027 315.139 82.492C314.339 81.6707 313.939 80.6733 313.939 79.5C313.939 78.3053 314.339 77.308 315.139 76.508C315.95 75.6973 316.958 75.292 318.163 75.292C318.942 75.292 319.651 75.4787 320.291 75.852C320.931 76.2253 321.411 76.7267 321.731 77.356L320.243 78.22C320.062 77.836 319.785 77.5373 319.411 77.324C319.049 77.1 318.627 76.988 318.147 76.988C317.443 76.988 316.851 77.228 316.371 77.708C315.902 78.1987 315.667 78.796 315.667 79.5C315.667 80.204 315.902 80.8013 316.371 81.292C316.851 81.772 317.443 82.012 318.147 82.012C318.617 82.012 319.038 81.9053 319.411 81.692C319.795 81.468 320.083 81.164 320.275 80.78L321.763 81.628C321.422 82.268 320.926 82.7747 320.275 83.148C319.635 83.5213 318.931 83.708 318.163 83.708ZM327.156 75.5V77.164H325.172V81.004C325.172 81.3347 325.247 81.5747 325.396 81.724C325.546 81.8627 325.764 81.9427 326.052 81.964C326.351 81.9747 326.719 81.9693 327.156 81.948V83.5C325.834 83.66 324.884 83.548 324.308 83.164C323.732 82.7693 323.444 82.0493 323.444 81.004V77.164H321.972V75.5H323.444V73.772L325.172 73.26V75.5H327.156ZM330.036 73.98C329.822 74.1933 329.566 74.3 329.268 74.3C328.969 74.3 328.708 74.1933 328.484 73.98C328.27 73.756 328.164 73.4947 328.164 73.196C328.164 72.8973 328.27 72.6413 328.484 72.428C328.697 72.204 328.958 72.092 329.268 72.092C329.577 72.092 329.838 72.204 330.052 72.428C330.265 72.6413 330.372 72.8973 330.372 73.196C330.372 73.4947 330.26 73.756 330.036 73.98ZM330.132 83.5H328.404V75.5H330.132V83.5ZM338.586 82.492C337.775 83.3027 336.778 83.708 335.594 83.708C334.41 83.708 333.413 83.3027 332.602 82.492C331.781 81.6707 331.37 80.6733 331.37 79.5C331.37 78.3267 331.781 77.3293 332.602 76.508C333.413 75.6973 334.41 75.292 335.594 75.292C336.778 75.292 337.775 75.6973 338.586 76.508C339.407 77.3293 339.818 78.3267 339.818 79.5C339.818 80.6733 339.407 81.6707 338.586 82.492ZM333.098 79.5C333.098 80.2253 333.338 80.828 333.818 81.308C334.298 81.788 334.89 82.028 335.594 82.028C336.298 82.028 336.89 81.788 337.37 81.308C337.85 80.828 338.09 80.2253 338.09 79.5C338.09 78.7747 337.85 78.172 337.37 77.692C336.89 77.212 336.298 76.972 335.594 76.972C334.89 76.972 334.298 77.212 333.818 77.692C333.338 78.172 333.098 78.7747 333.098 79.5ZM345.269 75.292C346.197 75.292 346.938 75.5907 347.493 76.188C348.058 76.7747 348.341 77.5747 348.341 78.588V83.5H346.613V78.764C346.613 78.1667 346.453 77.708 346.133 77.388C345.813 77.068 345.375 76.908 344.821 76.908C344.191 76.908 343.695 77.1053 343.333 77.5C342.97 77.884 342.789 78.4547 342.789 79.212V83.5H341.061V75.5H342.789V76.524C343.322 75.7027 344.149 75.292 345.269 75.292ZM358.025 75.5V77.164H356.041V81.004C356.041 81.3347 356.116 81.5747 356.265 81.724C356.414 81.8627 356.633 81.9427 356.921 81.964C357.22 81.9747 357.588 81.9693 358.025 81.948V83.5C356.702 83.66 355.753 83.548 355.177 83.164C354.601 82.7693 354.313 82.0493 354.313 81.004V77.164H352.841V75.5H354.313V73.772L356.041 73.26V75.5H358.025ZM363.48 75.292C364.408 75.292 365.15 75.5907 365.704 76.188C366.27 76.7747 366.552 77.5747 366.552 78.588V83.5H364.824V78.764C364.824 78.1667 364.664 77.708 364.344 77.388C364.024 77.068 363.587 76.908 363.032 76.908C362.403 76.908 361.907 77.1053 361.544 77.5C361.182 77.884 361 78.4547 361 79.212V83.5H359.272V72.3H361V76.524C361.534 75.7027 362.36 75.292 363.48 75.292ZM374.429 76.636V75.5H376.157V83.5H374.429V82.348C373.778 83.2547 372.845 83.708 371.629 83.708C370.53 83.708 369.592 83.3027 368.813 82.492C368.034 81.6813 367.645 80.684 367.645 79.5C367.645 78.316 368.034 77.3187 368.813 76.508C369.592 75.6973 370.53 75.292 371.629 75.292C372.845 75.292 373.778 75.74 374.429 76.636ZM370.093 81.34C370.573 81.82 371.176 82.06 371.901 82.06C372.626 82.06 373.229 81.82 373.709 81.34C374.189 80.8493 374.429 80.236 374.429 79.5C374.429 78.764 374.189 78.156 373.709 77.676C373.229 77.1853 372.626 76.94 371.901 76.94C371.176 76.94 370.573 77.1853 370.093 77.676C369.613 78.156 369.373 78.764 369.373 79.5C369.373 80.2253 369.613 80.8387 370.093 81.34ZM382.315 75.5V77.164H380.331V81.004C380.331 81.3347 380.406 81.5747 380.555 81.724C380.704 81.8627 380.923 81.9427 381.211 81.964C381.51 81.9747 381.878 81.9693 382.315 81.948V83.5C380.992 83.66 380.043 83.548 379.467 83.164C378.891 82.7693 378.603 82.0493 378.603 81.004V77.164H377.131V75.5H378.603V73.772L380.331 73.26V75.5H382.315ZM394.969 81.02L396.537 75.5H398.361L395.849 83.5H394.153L392.489 78.108L390.809 83.5H389.113L386.601 75.5H388.424L389.977 81.02L391.657 75.5H393.305L394.969 81.02ZM400.945 73.98C400.732 74.1933 400.476 74.3 400.177 74.3C399.878 74.3 399.617 74.1933 399.393 73.98C399.18 73.756 399.073 73.4947 399.073 73.196C399.073 72.8973 399.18 72.6413 399.393 72.428C399.606 72.204 399.868 72.092 400.177 72.092C400.486 72.092 400.748 72.204 400.961 72.428C401.174 72.6413 401.281 72.8973 401.281 73.196C401.281 73.4947 401.169 73.756 400.945 73.98ZM401.041 83.5H399.313V75.5H401.041V83.5ZM404.455 83.5H402.727V71.82H404.455V83.5ZM407.87 83.5H406.142V71.82H407.87V83.5ZM419.572 76.636V75.5H421.3V83.5H419.572V82.348C418.921 83.2547 417.988 83.708 416.772 83.708C415.673 83.708 414.735 83.3027 413.956 82.492C413.177 81.6813 412.788 80.684 412.788 79.5C412.788 78.316 413.177 77.3187 413.956 76.508C414.735 75.6973 415.673 75.292 416.772 75.292C417.988 75.292 418.921 75.74 419.572 76.636ZM415.236 81.34C415.716 81.82 416.319 82.06 417.044 82.06C417.769 82.06 418.372 81.82 418.852 81.34C419.332 80.8493 419.572 80.236 419.572 79.5C419.572 78.764 419.332 78.156 418.852 77.676C418.372 77.1853 417.769 76.94 417.044 76.94C416.319 76.94 415.716 77.1853 415.236 77.676C414.756 78.156 414.516 78.764 414.516 79.5C414.516 80.2253 414.756 80.8387 415.236 81.34ZM429.33 76.636V72.3H431.058V83.5H429.33V82.348C428.68 83.2547 427.746 83.708 426.53 83.708C425.432 83.708 424.493 83.3027 423.714 82.492C422.936 81.6813 422.546 80.684 422.546 79.5C422.546 78.316 422.936 77.3187 423.714 76.508C424.493 75.6973 425.432 75.292 426.53 75.292C427.746 75.292 428.68 75.74 429.33 76.636ZM424.994 81.34C425.474 81.82 426.077 82.06 426.802 82.06C427.528 82.06 428.13 81.82 428.61 81.34C429.09 80.8493 429.33 80.236 429.33 79.5C429.33 78.764 429.09 78.156 428.61 77.676C428.13 77.1853 427.528 76.94 426.802 76.94C426.077 76.94 425.474 77.1853 424.994 77.676C424.514 78.156 424.274 78.764 424.274 79.5C424.274 80.2253 424.514 80.8387 424.994 81.34ZM439.088 76.636V72.3H440.816V83.5H439.088V82.348C438.438 83.2547 437.504 83.708 436.288 83.708C435.19 83.708 434.251 83.3027 433.472 82.492C432.694 81.6813 432.304 80.684 432.304 79.5C432.304 78.316 432.694 77.3187 433.472 76.508C434.251 75.6973 435.19 75.292 436.288 75.292C437.504 75.292 438.438 75.74 439.088 76.636ZM434.752 81.34C435.232 81.82 435.835 82.06 436.56 82.06C437.286 82.06 437.888 81.82 438.368 81.34C438.848 80.8493 439.088 80.236 439.088 79.5C439.088 78.764 438.848 78.156 438.368 77.676C437.888 77.1853 437.286 76.94 436.56 76.94C435.835 76.94 435.232 77.1853 434.752 77.676C434.272 78.156 434.032 78.764 434.032 79.5C434.032 80.2253 434.272 80.8387 434.752 81.34ZM452.526 76.636V75.5H454.254V83.5H452.526V82.348C451.876 83.2547 450.942 83.708 449.726 83.708C448.628 83.708 447.689 83.3027 446.91 82.492C446.132 81.6813 445.742 80.684 445.742 79.5C445.742 78.316 446.132 77.3187 446.91 76.508C447.689 75.6973 448.628 75.292 449.726 75.292C450.942 75.292 451.876 75.74 452.526 76.636ZM448.19 81.34C448.67 81.82 449.273 82.06 449.998 82.06C450.724 82.06 451.326 81.82 451.806 81.34C452.286 80.8493 452.526 80.236 452.526 79.5C452.526 78.764 452.286 78.156 451.806 77.676C451.326 77.1853 450.724 76.94 449.998 76.94C449.273 76.94 448.67 77.1853 448.19 77.676C447.71 78.156 447.47 78.764 447.47 79.5C447.47 80.2253 447.71 80.8387 448.19 81.34ZM464.157 75.292C465.255 75.292 466.194 75.6973 466.973 76.508C467.751 77.3187 468.141 78.316 468.141 79.5C468.141 80.684 467.751 81.6813 466.973 82.492C466.194 83.3027 465.255 83.708 464.157 83.708C462.941 83.708 462.007 83.2547 461.357 82.348V83.5H459.629V72.3H461.357V76.636C462.018 75.74 462.951 75.292 464.157 75.292ZM462.077 81.34C462.557 81.82 463.159 82.06 463.885 82.06C464.61 82.06 465.213 81.82 465.693 81.34C466.173 80.8493 466.413 80.236 466.413 79.5C466.413 78.764 466.173 78.156 465.693 77.676C465.213 77.1853 464.61 76.94 463.885 76.94C463.159 76.94 462.557 77.1853 462.077 77.676C461.597 78.156 461.357 78.764 461.357 79.5C461.357 80.2253 461.597 80.8387 462.077 81.34ZM474.779 79.788V75.5H476.507V83.5H474.779V82.476C474.245 83.2973 473.419 83.708 472.299 83.708C471.371 83.708 470.624 83.4147 470.059 82.828C469.504 82.2307 469.227 81.4253 469.227 80.412V75.5H470.955V80.236C470.955 80.8333 471.115 81.292 471.435 81.612C471.755 81.932 472.192 82.092 472.747 82.092C473.376 82.092 473.872 81.9 474.235 81.516C474.597 81.1213 474.779 80.5453 474.779 79.788ZM481.551 81.308L483.599 75.5H485.439L482.367 83.756C481.599 85.8253 480.298 86.8067 478.463 86.7V85.084C478.997 85.116 479.429 85.004 479.759 84.748C480.09 84.492 480.367 84.0813 480.591 83.516L480.671 83.356L477.279 75.5H479.167L481.551 81.308ZM210.776 106.492C209.965 107.303 208.968 107.708 207.784 107.708C206.6 107.708 205.603 107.303 204.792 106.492C203.971 105.671 203.56 104.673 203.56 103.5C203.56 102.327 203.971 101.329 204.792 100.508C205.603 99.6973 206.6 99.292 207.784 99.292C208.968 99.292 209.965 99.6973 210.776 100.508C211.597 101.329 212.008 102.327 212.008 103.5C212.008 104.673 211.597 105.671 210.776 106.492ZM205.288 103.5C205.288 104.225 205.528 104.828 206.008 105.308C206.488 105.788 207.08 106.028 207.784 106.028C208.488 106.028 209.08 105.788 209.56 105.308C210.04 104.828 210.28 104.225 210.28 103.5C210.28 102.775 210.04 102.172 209.56 101.692C209.08 101.212 208.488 100.972 207.784 100.972C207.08 100.972 206.488 101.212 206.008 101.692C205.528 102.172 205.288 102.775 205.288 103.5ZM214.979 99.5V100.844C215.416 99.852 216.237 99.356 217.443 99.356V101.228C216.792 101.185 216.216 101.345 215.715 101.708C215.224 102.06 214.979 102.647 214.979 103.468V107.5H213.251V99.5H214.979ZM224.36 100.636V96.3H226.088V107.5H224.36V106.348C223.71 107.255 222.776 107.708 221.56 107.708C220.462 107.708 219.523 107.303 218.744 106.492C217.966 105.681 217.576 104.684 217.576 103.5C217.576 102.316 217.966 101.319 218.744 100.508C219.523 99.6973 220.462 99.292 221.56 99.292C222.776 99.292 223.71 99.74 224.36 100.636ZM220.024 105.34C220.504 105.82 221.107 106.06 221.832 106.06C222.558 106.06 223.16 105.82 223.64 105.34C224.12 104.849 224.36 104.236 224.36 103.5C224.36 102.764 224.12 102.156 223.64 101.676C223.16 101.185 222.558 100.94 221.832 100.94C221.107 100.94 220.504 101.185 220.024 101.676C219.544 102.156 219.304 102.764 219.304 103.5C219.304 104.225 219.544 104.839 220.024 105.34ZM235.51 104.236H229.142C229.27 104.833 229.558 105.297 230.006 105.628C230.465 105.959 231.03 106.124 231.702 106.124C232.609 106.124 233.297 105.793 233.766 105.132L235.19 105.964C234.412 107.127 233.244 107.708 231.686 107.708C230.396 107.708 229.345 107.313 228.534 106.524C227.734 105.724 227.334 104.716 227.334 103.5C227.334 102.316 227.729 101.319 228.518 100.508C229.297 99.6973 230.31 99.292 231.558 99.292C232.721 99.292 233.681 99.7027 234.438 100.524C235.196 101.345 235.574 102.343 235.574 103.516C235.574 103.729 235.553 103.969 235.51 104.236ZM229.126 102.828H233.83C233.713 102.199 233.446 101.713 233.03 101.372C232.625 101.031 232.129 100.86 231.542 100.86C230.902 100.86 230.369 101.036 229.942 101.388C229.516 101.74 229.244 102.22 229.126 102.828ZM238.503 99.5V100.844C238.94 99.852 239.762 99.356 240.967 99.356V101.228C240.316 101.185 239.74 101.345 239.239 101.708C238.748 102.06 238.503 102.647 238.503 103.468V107.5H236.775V99.5H238.503ZM251.94 100.636V99.5H253.668V107.5H251.94V106.348C251.289 107.255 250.356 107.708 249.14 107.708C248.041 107.708 247.102 107.303 246.324 106.492C245.545 105.681 245.156 104.684 245.156 103.5C245.156 102.316 245.545 101.319 246.324 100.508C247.102 99.6973 248.041 99.292 249.14 99.292C250.356 99.292 251.289 99.74 251.94 100.636ZM247.604 105.34C248.084 105.82 248.686 106.06 249.412 106.06C250.137 106.06 250.74 105.82 251.22 105.34C251.7 104.849 251.94 104.236 251.94 103.5C251.94 102.764 251.7 102.156 251.22 101.676C250.74 101.185 250.137 100.94 249.412 100.94C248.686 100.94 248.084 101.185 247.604 101.676C247.124 102.156 246.884 102.764 246.884 103.5C246.884 104.225 247.124 104.839 247.604 105.34ZM259.138 107.708C257.932 107.708 256.924 107.303 256.114 106.492C255.314 105.671 254.914 104.673 254.914 103.5C254.914 102.305 255.314 101.308 256.114 100.508C256.924 99.6973 257.932 99.292 259.138 99.292C259.916 99.292 260.626 99.4787 261.266 99.852C261.906 100.225 262.386 100.727 262.706 101.356L261.218 102.22C261.036 101.836 260.759 101.537 260.386 101.324C260.023 101.1 259.602 100.988 259.122 100.988C258.418 100.988 257.826 101.228 257.346 101.708C256.876 102.199 256.642 102.796 256.642 103.5C256.642 104.204 256.876 104.801 257.346 105.292C257.826 105.772 258.418 106.012 259.122 106.012C259.591 106.012 260.012 105.905 260.386 105.692C260.77 105.468 261.058 105.164 261.25 104.78L262.738 105.628C262.396 106.268 261.9 106.775 261.25 107.148C260.61 107.521 259.906 107.708 259.138 107.708ZM267.318 107.708C266.112 107.708 265.104 107.303 264.294 106.492C263.494 105.671 263.094 104.673 263.094 103.5C263.094 102.305 263.494 101.308 264.294 100.508C265.104 99.6973 266.112 99.292 267.318 99.292C268.096 99.292 268.806 99.4787 269.446 99.852C270.086 100.225 270.566 100.727 270.886 101.356L269.398 102.22C269.216 101.836 268.939 101.537 268.566 101.324C268.203 101.1 267.782 100.988 267.302 100.988C266.598 100.988 266.006 101.228 265.526 101.708C265.056 102.199 264.822 102.796 264.822 103.5C264.822 104.204 265.056 104.801 265.526 105.292C266.006 105.772 266.598 106.012 267.302 106.012C267.771 106.012 268.192 105.905 268.566 105.692C268.95 105.468 269.238 105.164 269.43 104.78L270.918 105.628C270.576 106.268 270.08 106.775 269.43 107.148C268.79 107.521 268.086 107.708 267.318 107.708ZM278.49 106.492C277.679 107.303 276.682 107.708 275.498 107.708C274.314 107.708 273.316 107.303 272.506 106.492C271.684 105.671 271.274 104.673 271.274 103.5C271.274 102.327 271.684 101.329 272.506 100.508C273.316 99.6973 274.314 99.292 275.498 99.292C276.682 99.292 277.679 99.6973 278.49 100.508C279.311 101.329 279.722 102.327 279.722 103.5C279.722 104.673 279.311 105.671 278.49 106.492ZM273.002 103.5C273.002 104.225 273.242 104.828 273.722 105.308C274.202 105.788 274.794 106.028 275.498 106.028C276.202 106.028 276.794 105.788 277.274 105.308C277.754 104.828 277.994 104.225 277.994 103.5C277.994 102.775 277.754 102.172 277.274 101.692C276.794 101.212 276.202 100.972 275.498 100.972C274.794 100.972 274.202 101.212 273.722 101.692C273.242 102.172 273.002 102.775 273.002 103.5ZM282.692 99.5V100.844C283.13 99.852 283.951 99.356 285.156 99.356V101.228C284.506 101.185 283.93 101.345 283.428 101.708C282.938 102.06 282.692 102.647 282.692 103.468V107.5H280.964V99.5H282.692ZM292.074 100.636V96.3H293.802V107.5H292.074V106.348C291.423 107.255 290.49 107.708 289.274 107.708C288.175 107.708 287.237 107.303 286.458 106.492C285.679 105.681 285.29 104.684 285.29 103.5C285.29 102.316 285.679 101.319 286.458 100.508C287.237 99.6973 288.175 99.292 289.274 99.292C290.49 99.292 291.423 99.74 292.074 100.636ZM287.738 105.34C288.218 105.82 288.821 106.06 289.546 106.06C290.271 106.06 290.874 105.82 291.354 105.34C291.834 104.849 292.074 104.236 292.074 103.5C292.074 102.764 291.834 102.156 291.354 101.676C290.874 101.185 290.271 100.94 289.546 100.94C288.821 100.94 288.218 101.185 287.738 101.676C287.258 102.156 287.018 102.764 287.018 103.5C287.018 104.225 287.258 104.839 287.738 105.34ZM297.128 97.98C296.915 98.1933 296.659 98.3 296.36 98.3C296.061 98.3 295.8 98.1933 295.576 97.98C295.363 97.756 295.256 97.4947 295.256 97.196C295.256 96.8973 295.363 96.6413 295.576 96.428C295.789 96.204 296.051 96.092 296.36 96.092C296.669 96.092 296.931 96.204 297.144 96.428C297.357 96.6413 297.464 96.8973 297.464 97.196C297.464 97.4947 297.352 97.756 297.128 97.98ZM297.224 107.5H295.496V99.5H297.224V107.5ZM303.118 99.292C304.046 99.292 304.788 99.5907 305.342 100.188C305.908 100.775 306.19 101.575 306.19 102.588V107.5H304.462V102.764C304.462 102.167 304.302 101.708 303.982 101.388C303.662 101.068 303.225 100.908 302.67 100.908C302.041 100.908 301.545 101.105 301.182 101.5C300.82 101.884 300.638 102.455 300.638 103.212V107.5H298.91V99.5H300.638V100.524C301.172 99.7027 301.998 99.292 303.118 99.292ZM314.099 100.684V99.5H315.795V107.132C315.795 108.348 315.395 109.281 314.595 109.932C313.806 110.583 312.835 110.908 311.683 110.908C309.838 110.908 308.574 110.263 307.891 108.972L309.379 108.108C309.795 108.929 310.574 109.34 311.715 109.34C312.462 109.34 313.043 109.143 313.459 108.748C313.886 108.364 314.099 107.825 314.099 107.132V106.156C313.448 107.084 312.52 107.548 311.315 107.548C310.195 107.548 309.24 107.148 308.451 106.348C307.672 105.537 307.283 104.561 307.283 103.42C307.283 102.268 307.672 101.297 308.451 100.508C309.23 99.6973 310.184 99.292 311.315 99.292C312.52 99.292 313.448 99.756 314.099 100.684ZM309.731 105.212C310.222 105.692 310.83 105.932 311.555 105.932C312.28 105.932 312.883 105.692 313.363 105.212C313.854 104.732 314.099 104.135 314.099 103.42C314.099 102.705 313.854 102.108 313.363 101.628C312.883 101.148 312.28 100.908 311.555 100.908C310.83 100.908 310.222 101.148 309.731 101.628C309.251 102.108 309.011 102.705 309.011 103.42C309.011 104.135 309.251 104.732 309.731 105.212ZM325.633 99.5V101.164H323.649V105.004C323.649 105.335 323.724 105.575 323.873 105.724C324.023 105.863 324.241 105.943 324.529 105.964C324.828 105.975 325.196 105.969 325.633 105.948V107.5C324.311 107.66 323.361 107.548 322.785 107.164C322.209 106.769 321.921 106.049 321.921 105.004V101.164H320.449V99.5H321.921V97.772L323.649 97.26V99.5H325.633ZM333.32 106.492C332.51 107.303 331.512 107.708 330.328 107.708C329.144 107.708 328.147 107.303 327.336 106.492C326.515 105.671 326.104 104.673 326.104 103.5C326.104 102.327 326.515 101.329 327.336 100.508C328.147 99.6973 329.144 99.292 330.328 99.292C331.512 99.292 332.51 99.6973 333.32 100.508C334.142 101.329 334.552 102.327 334.552 103.5C334.552 104.673 334.142 105.671 333.32 106.492ZM327.832 103.5C327.832 104.225 328.072 104.828 328.552 105.308C329.032 105.788 329.624 106.028 330.328 106.028C331.032 106.028 331.624 105.788 332.104 105.308C332.584 104.828 332.824 104.225 332.824 103.5C332.824 102.775 332.584 102.172 332.104 101.692C331.624 101.212 331.032 100.972 330.328 100.972C329.624 100.972 329.032 101.212 328.552 101.692C328.072 102.172 327.832 102.775 327.832 103.5ZM341.203 99.5V100.844C341.64 99.852 342.462 99.356 343.667 99.356V101.228C343.016 101.185 342.44 101.345 341.939 101.708C341.448 102.06 341.203 102.647 341.203 103.468V107.5H339.475V99.5H341.203ZM351.017 106.492C350.206 107.303 349.209 107.708 348.025 107.708C346.841 107.708 345.843 107.303 345.033 106.492C344.211 105.671 343.801 104.673 343.801 103.5C343.801 102.327 344.211 101.329 345.033 100.508C345.843 99.6973 346.841 99.292 348.025 99.292C349.209 99.292 350.206 99.6973 351.017 100.508C351.838 101.329 352.249 102.327 352.249 103.5C352.249 104.673 351.838 105.671 351.017 106.492ZM345.529 103.5C345.529 104.225 345.769 104.828 346.249 105.308C346.729 105.788 347.321 106.028 348.025 106.028C348.729 106.028 349.321 105.788 349.801 105.308C350.281 104.828 350.521 104.225 350.521 103.5C350.521 102.775 350.281 102.172 349.801 101.692C349.321 101.212 348.729 100.972 348.025 100.972C347.321 100.972 346.729 101.212 346.249 101.692C345.769 102.172 345.529 102.775 345.529 103.5ZM358.883 103.788V99.5H360.611V107.5H358.883V106.476C358.35 107.297 357.523 107.708 356.403 107.708C355.475 107.708 354.728 107.415 354.163 106.828C353.608 106.231 353.331 105.425 353.331 104.412V99.5H355.059V104.236C355.059 104.833 355.219 105.292 355.539 105.612C355.859 105.932 356.296 106.092 356.851 106.092C357.48 106.092 357.976 105.9 358.339 105.516C358.702 105.121 358.883 104.545 358.883 103.788ZM366.52 99.292C367.448 99.292 368.189 99.5907 368.744 100.188C369.309 100.775 369.592 101.575 369.592 102.588V107.5H367.864V102.764C367.864 102.167 367.704 101.708 367.384 101.388C367.064 101.068 366.626 100.908 366.072 100.908C365.442 100.908 364.946 101.105 364.584 101.5C364.221 101.884 364.04 102.455 364.04 103.212V107.5H362.312V99.5H364.04V100.524C364.573 99.7027 365.4 99.292 366.52 99.292ZM377.468 100.636V96.3H379.196V107.5H377.468V106.348C376.818 107.255 375.884 107.708 374.668 107.708C373.57 107.708 372.631 107.303 371.852 106.492C371.074 105.681 370.684 104.684 370.684 103.5C370.684 102.316 371.074 101.319 371.852 100.508C372.631 99.6973 373.57 99.292 374.668 99.292C375.884 99.292 376.818 99.74 377.468 100.636ZM373.132 105.34C373.612 105.82 374.215 106.06 374.94 106.06C375.666 106.06 376.268 105.82 376.748 105.34C377.228 104.849 377.468 104.236 377.468 103.5C377.468 102.764 377.228 102.156 376.748 101.676C376.268 101.185 375.666 100.94 374.94 100.94C374.215 100.94 373.612 101.185 373.132 101.676C372.652 102.156 372.412 102.764 372.412 103.5C372.412 104.225 372.652 104.839 373.132 105.34ZM388.619 104.236H382.251C382.379 104.833 382.667 105.297 383.115 105.628C383.573 105.959 384.139 106.124 384.811 106.124C385.717 106.124 386.405 105.793 386.875 105.132L388.299 105.964C387.52 107.127 386.352 107.708 384.795 107.708C383.504 107.708 382.453 107.313 381.643 106.524C380.843 105.724 380.443 104.716 380.443 103.5C380.443 102.316 380.837 101.319 381.627 100.508C382.405 99.6973 383.419 99.292 384.667 99.292C385.829 99.292 386.789 99.7027 387.547 100.524C388.304 101.345 388.683 102.343 388.683 103.516C388.683 103.729 388.661 103.969 388.619 104.236ZM382.235 102.828H386.939C386.821 102.199 386.555 101.713 386.139 101.372C385.733 101.031 385.237 100.86 384.651 100.86C384.011 100.86 383.477 101.036 383.051 101.388C382.624 101.74 382.352 102.22 382.235 102.828ZM396.172 100.636V96.3H397.9V107.5H396.172V106.348C395.521 107.255 394.588 107.708 393.372 107.708C392.273 107.708 391.335 107.303 390.556 106.492C389.777 105.681 389.388 104.684 389.388 103.5C389.388 102.316 389.777 101.319 390.556 100.508C391.335 99.6973 392.273 99.292 393.372 99.292C394.588 99.292 395.521 99.74 396.172 100.636ZM391.836 105.34C392.316 105.82 392.919 106.06 393.644 106.06C394.369 106.06 394.972 105.82 395.452 105.34C395.932 104.849 396.172 104.236 396.172 103.5C396.172 102.764 395.932 102.156 395.452 101.676C394.972 101.185 394.369 100.94 393.644 100.94C392.919 100.94 392.316 101.185 391.836 101.676C391.356 102.156 391.116 102.764 391.116 103.5C391.116 104.225 391.356 104.839 391.836 105.34ZM407.802 99.292C408.89 99.292 409.829 99.7027 410.618 100.524C411.397 101.335 411.786 102.327 411.786 103.5C411.786 104.684 411.397 105.681 410.618 106.492C409.84 107.303 408.901 107.708 407.802 107.708C406.597 107.708 405.664 107.26 405.002 106.364V110.7H403.274V99.5H405.002V100.652C405.653 99.7453 406.586 99.292 407.802 99.292ZM405.722 105.34C406.202 105.82 406.805 106.06 407.53 106.06C408.256 106.06 408.858 105.82 409.338 105.34C409.818 104.849 410.058 104.236 410.058 103.5C410.058 102.764 409.818 102.156 409.338 101.676C408.858 101.185 408.256 100.94 407.53 100.94C406.805 100.94 406.202 101.185 405.722 101.676C405.242 102.156 405.002 102.764 405.002 103.5C405.002 104.225 405.242 104.839 405.722 105.34ZM414.76 99.5V100.844C415.198 99.852 416.019 99.356 417.224 99.356V101.228C416.574 101.185 415.998 101.345 415.496 101.708C415.006 102.06 414.76 102.647 414.76 103.468V107.5H413.032V99.5H414.76ZM419.813 97.98C419.6 98.1933 419.344 98.3 419.045 98.3C418.746 98.3 418.485 98.1933 418.261 97.98C418.048 97.756 417.941 97.4947 417.941 97.196C417.941 96.8973 418.048 96.6413 418.261 96.428C418.474 96.204 418.736 96.092 419.045 96.092C419.354 96.092 419.616 96.204 419.829 96.428C420.042 96.6413 420.149 96.8973 420.149 97.196C420.149 97.4947 420.037 97.756 419.813 97.98ZM419.909 107.5H418.181V99.5H419.909V107.5ZM425.371 107.708C424.166 107.708 423.158 107.303 422.347 106.492C421.547 105.671 421.147 104.673 421.147 103.5C421.147 102.305 421.547 101.308 422.347 100.508C423.158 99.6973 424.166 99.292 425.371 99.292C426.15 99.292 426.859 99.4787 427.499 99.852C428.139 100.225 428.619 100.727 428.939 101.356L427.451 102.22C427.27 101.836 426.993 101.537 426.619 101.324C426.257 101.1 425.835 100.988 425.355 100.988C424.651 100.988 424.059 101.228 423.579 101.708C423.11 102.199 422.875 102.796 422.875 103.5C422.875 104.204 423.11 104.801 423.579 105.292C424.059 105.772 424.651 106.012 425.355 106.012C425.825 106.012 426.246 105.905 426.619 105.692C427.003 105.468 427.291 105.164 427.483 104.78L428.971 105.628C428.63 106.268 428.134 106.775 427.483 107.148C426.843 107.521 426.139 107.708 425.371 107.708ZM437.504 104.236H431.136C431.264 104.833 431.552 105.297 432 105.628C432.458 105.959 433.024 106.124 433.696 106.124C434.602 106.124 435.29 105.793 435.76 105.132L437.184 105.964C436.405 107.127 435.237 107.708 433.68 107.708C432.389 107.708 431.338 107.313 430.528 106.524C429.728 105.724 429.328 104.716 429.328 103.5C429.328 102.316 429.722 101.319 430.512 100.508C431.29 99.6973 432.304 99.292 433.552 99.292C434.714 99.292 435.674 99.7027 436.432 100.524C437.189 101.345 437.568 102.343 437.568 103.516C437.568 103.729 437.546 103.969 437.504 104.236ZM431.12 102.828H435.824C435.706 102.199 435.44 101.713 435.024 101.372C434.618 101.031 434.122 100.86 433.536 100.86C432.896 100.86 432.362 101.036 431.936 101.388C431.509 101.74 431.237 102.22 431.12 102.828Z" fill="white"/>
<rect width="519.5" height="80" fill="url(#paint1_linear_5280_10637)"/>
<rect width="519.5" height="80" transform="matrix(1 0 0 -1 0 300)" fill="url(#paint2_linear_5280_10637)"/>
</g>
<defs>
<linearGradient id="paint0_linear_5280_10637" x1="521.834" y1="90" x2="148.834" y2="90" gradientUnits="userSpaceOnUse">
<stop stop-color="#69D2FF"/>
<stop offset="1" stop-color="#1967EE"/>
</linearGradient>
<linearGradient id="paint1_linear_5280_10637" x1="259.75" y1="0" x2="259.75" y2="80" gradientUnits="userSpaceOnUse">
<stop stop-color="#0E1219"/>
<stop offset="1" stop-color="#0E1219" stop-opacity="0"/>
</linearGradient>
<linearGradient id="paint2_linear_5280_10637" x1="259.75" y1="0" x2="259.75" y2="80" gradientUnits="userSpaceOnUse">
<stop stop-color="#0E1219"/>
<stop offset="1" stop-color="#0E1219" stop-opacity="0"/>
</linearGradient>
<clipPath id="clip0_5280_10637">
<rect width="520" height="300" fill="white"/>
</clipPath>
<clipPath id="clip1_5280_10637">
<rect x="10" width="500" height="300" rx="12" fill="white"/>
</clipPath>
</defs>
</svg>
