<svg width="520" height="300" viewBox="0 0 520 300" fill="none" xmlns="http://www.w3.org/2000/svg">
<g clip-path="url(#clip0_5280_11409)">
<circle cx="260" cy="150" r="259.5" fill="url(#paint0_radial_5280_11409)"/>
<rect x="-32.5" y="-145.5" width="192.281" height="192.23" rx="15.5" stroke="#302B44"/>
<rect x="163.859" y="-145.5" width="192.281" height="192.23" rx="15.5" stroke="#302B44"/>
<rect x="360.219" y="-145.5" width="192.281" height="192.23" rx="15.5" stroke="#302B44"/>
<rect x="-32.5" y="53.8853" width="192.281" height="192.23" rx="15.5" stroke="#302B44"/>
<rect x="163.859" y="53.8853" width="192.281" height="192.23" rx="15.5" stroke="#302B44"/>
<rect x="360.219" y="53.8853" width="192.281" height="192.23" rx="15.5" stroke="#302B44"/>
<rect x="-32.5" y="253.271" width="192.281" height="192.23" rx="15.5" stroke="#302B44"/>
<rect x="163.859" y="253.271" width="192.281" height="192.23" rx="15.5" stroke="#302B44"/>
<rect x="360.219" y="253.271" width="192.281" height="192.23" rx="15.5" stroke="#302B44"/>
<path d="M198.3 46.6543H202.274L192.798 62.5886V73.4026H189.244V62.5504L179.806 46.6543H183.78L191.04 59.1878L198.3 46.6543ZM216.256 70.9952C214.32 72.9313 211.938 73.8993 209.111 73.8993C206.283 73.8993 203.901 72.9313 201.965 70.9952C200.029 69.0592 199.061 66.6773 199.061 63.8496C199.061 61.0219 200.029 58.6401 201.965 56.704C203.901 54.7679 206.283 53.7999 209.111 53.7999C211.938 53.7999 214.32 54.7679 216.256 56.704C218.218 58.6655 219.199 61.0474 219.199 63.8496C219.199 66.6518 218.218 69.0337 216.256 70.9952ZM209.111 70.6513C211.021 70.6513 212.626 70.0017 213.925 68.7025C215.225 67.4033 215.874 65.7857 215.874 63.8496C215.874 61.9135 215.225 60.2959 213.925 58.9967C212.626 57.6975 211.021 57.0479 209.111 57.0479C207.226 57.0479 205.633 57.6975 204.334 58.9967C203.035 60.2959 202.385 61.9135 202.385 63.8496C202.385 65.7857 203.035 67.4033 204.334 68.7025C205.633 70.0017 207.226 70.6513 209.111 70.6513ZM235.154 64.4228V54.2966H238.479V73.4026H235.154V70.6513C233.83 72.8167 231.766 73.8993 228.964 73.8993C226.722 73.8993 224.926 73.1988 223.576 71.7977C222.226 70.3711 221.551 68.4478 221.551 66.0277V54.2966H224.875V65.8366C224.875 67.3651 225.296 68.5624 226.136 69.4286C226.977 70.2947 228.136 70.7278 229.614 70.7278C231.321 70.7278 232.671 70.2055 233.664 69.1611C234.658 68.0911 235.154 66.5117 235.154 64.4228ZM245.718 54.2966V57.5064C246.814 55.1373 248.801 53.9527 251.679 53.9527V57.43C250.049 57.3536 248.648 57.7867 247.476 58.7292C246.304 59.6718 245.718 61.1875 245.718 63.2764V73.4026H242.394V54.2966H245.718ZM265.058 59.4552C265.058 60.678 266.319 61.6333 268.841 62.3211C269.784 62.5249 270.573 62.7415 271.21 62.9707C271.873 63.1745 272.586 63.493 273.35 63.926C274.14 64.3591 274.739 64.9323 275.146 65.6456C275.554 66.3589 275.758 67.1995 275.758 68.1676C275.758 69.8998 275.082 71.2882 273.732 72.3327C272.382 73.3771 270.675 73.8993 268.612 73.8993C266.778 73.8993 265.186 73.5045 263.835 72.7148C262.511 71.8996 261.568 70.8042 261.008 69.4286L263.874 67.7854C264.179 68.7025 264.753 69.4286 265.593 69.9635C266.434 70.4985 267.44 70.766 268.612 70.766C269.758 70.766 270.675 70.5494 271.363 70.1164C272.051 69.6833 272.395 69.0337 272.395 68.1676C272.395 66.8684 271.134 65.9258 268.612 65.3399C267.771 65.1106 267.134 64.9323 266.701 64.8049C266.268 64.6775 265.67 64.4483 264.905 64.1171C264.167 63.7859 263.606 63.442 263.224 63.0854C262.842 62.7033 262.485 62.2065 262.154 61.5951C261.848 60.9582 261.696 60.2577 261.696 59.4935C261.696 57.8376 262.332 56.4747 263.606 55.4048C264.905 54.3348 266.523 53.7999 268.459 53.7999C270.013 53.7999 271.389 54.1565 272.586 54.8698C273.809 55.5576 274.726 56.5257 275.337 57.7739L272.548 59.3406C271.86 57.7102 270.497 56.895 268.459 56.895C267.491 56.895 266.676 57.1243 266.014 57.5829C265.377 58.0414 265.058 58.6655 265.058 59.4552ZM288.195 54.2966V57.5064H283.112V67.8619C283.112 68.8044 283.291 69.4795 283.647 69.8871C284.03 70.2692 284.603 70.473 285.367 70.4985C286.131 70.4985 287.074 70.473 288.195 70.4221V73.4026C285.265 73.7847 283.125 73.5427 281.775 72.6766C280.45 71.8104 279.788 70.2055 279.788 67.8619V57.5064H276.005V54.2966H279.788V49.9405L283.112 48.947V54.2966H288.195ZM305.834 57.5829V54.2966H309.158V73.4026H305.834V70.1164C304.203 72.6383 301.796 73.8993 298.612 73.8993C295.911 73.8993 293.631 72.9313 291.772 70.9952C289.887 69.0337 288.944 66.6518 288.944 63.8496C288.944 61.0729 289.887 58.7037 291.772 56.7422C293.657 54.7807 295.937 53.7999 298.612 53.7999C301.796 53.7999 304.203 55.0609 305.834 57.5829ZM299.032 70.6895C300.968 70.6895 302.586 70.0399 303.885 68.7407C305.184 67.3906 305.834 65.7602 305.834 63.8496C305.834 61.9135 305.184 60.2959 303.885 58.9967C302.586 57.672 300.968 57.0097 299.032 57.0097C297.121 57.0097 295.516 57.672 294.217 58.9967C292.918 60.2959 292.268 61.9135 292.268 63.8496C292.268 65.7602 292.918 67.3906 294.217 68.7407C295.516 70.0399 297.121 70.6895 299.032 70.6895ZM323.442 54.2966V57.5064H318.36V67.8619C318.36 68.8044 318.538 69.4795 318.895 69.8871C319.277 70.2692 319.85 70.473 320.614 70.4985C321.379 70.4985 322.321 70.473 323.442 70.4221V73.4026C320.513 73.7847 318.373 73.5427 317.023 72.6766C315.698 71.8104 315.036 70.2055 315.036 67.8619V57.5064H311.253V54.2966H315.036V49.9405L318.36 48.947V54.2966H323.442ZM328.165 59.4552C328.165 60.678 329.426 61.6333 331.948 62.3211C332.89 62.5249 333.68 62.7415 334.317 62.9707C334.979 63.1745 335.692 63.493 336.457 63.926C337.246 64.3591 337.845 64.9323 338.253 65.6456C338.66 66.3589 338.864 67.1995 338.864 68.1676C338.864 69.8998 338.189 71.2882 336.839 72.3327C335.489 73.3771 333.782 73.8993 331.718 73.8993C329.884 73.8993 328.292 73.5045 326.942 72.7148C325.617 71.8996 324.675 70.8042 324.114 69.4286L326.98 67.7854C327.286 68.7025 327.859 69.4286 328.7 69.9635C329.54 70.4985 330.546 70.766 331.718 70.766C332.865 70.766 333.782 70.5494 334.47 70.1164C335.157 69.6833 335.501 69.0337 335.501 68.1676C335.501 66.8684 334.24 65.9258 331.718 65.3399C330.878 65.1106 330.241 64.9323 329.808 64.8049C329.375 64.6775 328.776 64.4483 328.012 64.1171C327.273 63.7859 326.713 63.442 326.33 63.0854C325.948 62.7033 325.592 62.2065 325.26 61.5951C324.955 60.9582 324.802 60.2577 324.802 59.4935C324.802 57.8376 325.439 56.4747 326.713 55.4048C328.012 54.3348 329.629 53.7999 331.565 53.7999C333.119 53.7999 334.495 54.1565 335.692 54.8698C336.915 55.5576 337.832 56.5257 338.444 57.7739L335.654 59.3406C334.966 57.7102 333.603 56.895 331.565 56.895C330.597 56.895 329.782 57.1243 329.12 57.5829C328.483 58.0414 328.165 58.6655 328.165 59.4552Z" fill="white"/>
<g filter="url(#filter0_b_5280_11409)">
<rect x="39.0859" y="98.1086" width="218.524" height="100.988" rx="19.1059" fill="#16111C"/>
<rect x="39.683" y="98.7057" width="217.33" height="99.7943" rx="18.5089" stroke="#302B44" stroke-width="1.19412"/>
<path d="M62.0069 136.215V126.034H58.2789V124.094H68.1423V126.034H64.3976V136.215H62.0069ZM71.3623 124.094V136.215H68.9717V124.094H71.3623ZM73.2086 136.215V124.094H82.0355V126.034H75.5992V129.043H81.6845V130.982H75.5992V134.275H82.0355V136.215H73.2086ZM90.5313 136.215L88.1239 131.467H87.5555H85.5828V136.215H83.1922V124.094H87.171C91.1665 124.094 92.6879 125.231 92.6879 127.772C92.6879 129.176 92.0191 130.313 90.4978 130.965L93.1894 136.215H90.5313ZM87.4385 125.967H85.5828V129.611H87.5555C89.4279 129.611 90.2304 128.993 90.2304 127.789C90.2304 126.385 89.0601 125.967 87.4385 125.967Z" fill="white"/>
<path d="M66.1052 173.991H63.096V157.942H58.3673V155.907C61.3191 155.821 62.924 155.449 63.9558 153.213H66.1052V173.991Z" fill="white"/>
<path d="M91.4333 173.991H88.4241V157.942H83.6954V155.907C86.6473 155.821 88.2522 155.449 89.2839 153.213H91.4333V173.991ZM93.4482 155.936V153.213H108.093V155.936C102.906 160.493 99.8678 166.282 99.4092 173.991H95.9128C96.2854 166.626 99.7818 160.349 104.797 155.936H93.4482ZM108.221 173.991H104.639V170.409H108.221V173.991ZM117.381 171.956C119.789 171.956 121.766 170.237 121.766 167.227C121.766 163.96 119.502 162.499 117.324 162.499C115.289 162.499 113.885 163.588 113.426 164.734L110.532 164.562L111.907 153.213H124.059V155.936H114.343L113.656 161.496C114.716 160.55 116.235 160.063 118.04 160.063C121.651 160.063 124.89 162.527 124.89 167.199C124.89 171.899 121.336 174.364 117.353 174.364C112.567 174.364 110.188 171.24 109.873 167.801H112.853C113.197 170.323 114.544 171.956 117.381 171.956ZM135.019 171.956C138.2 171.956 140.035 169.176 140.035 163.588C140.035 158.057 138.2 155.219 135.019 155.219C131.895 155.219 130.004 158.057 130.004 163.588C130.004 169.176 131.895 171.956 135.019 171.956ZM135.019 174.364C129.488 174.364 126.851 170.093 126.851 163.588C126.851 157.111 129.488 152.841 135.019 152.841C140.579 152.841 143.187 157.111 143.187 163.588C143.187 170.093 140.579 174.364 135.019 174.364ZM149.669 165.107C146.545 165.107 144.912 162.642 144.912 159.06C144.912 155.477 146.545 153.013 149.669 153.013C152.879 153.013 154.484 155.477 154.484 159.06C154.484 162.642 152.879 165.107 149.669 165.107ZM149.669 163.416C151.274 163.416 152.134 161.926 152.134 159.06C152.134 156.194 151.274 154.704 149.669 154.704C148.15 154.704 147.262 156.194 147.262 159.06C147.262 161.926 148.15 163.416 149.669 163.416ZM152.908 173.991H149.669L163.999 153.213H167.237L152.908 173.991ZM167.294 174.192C164.113 174.192 162.508 171.727 162.508 168.145C162.508 164.562 164.113 162.098 167.294 162.098C170.476 162.098 172.08 164.562 172.08 168.145C172.08 171.727 170.476 174.192 167.294 174.192ZM167.294 172.501C168.871 172.501 169.73 171.01 169.73 168.145C169.73 165.279 168.871 163.788 167.294 163.788C165.718 163.788 164.858 165.279 164.858 168.145C164.858 171.01 165.718 172.501 167.294 172.501Z" fill="#A569FF"/>
</g>
<g filter="url(#filter1_b_5280_11409)">
<rect x="262.391" y="98.1086" width="218.524" height="100.988" rx="19.1059" fill="#16111C"/>
<rect x="262.988" y="98.7057" width="217.33" height="99.7943" rx="18.5089" stroke="#302B44" stroke-width="1.19412"/>
<path d="M282.587 136.215V124.094H291.414V126.034H284.977V129.043H291.063V130.982H284.977V134.275H291.414V136.215H282.587ZM291.484 136.215L295.997 124.094H298.405L302.935 136.215H300.344L299.491 133.757H294.777L293.924 136.215H291.484ZM297.134 127.02L295.462 131.801H298.806L297.134 127.02ZM311.019 136.215L308.612 131.467H308.044H306.071V136.215H303.68V124.094H307.659C311.655 124.094 313.176 125.231 313.176 127.772C313.176 129.176 312.507 130.313 310.986 130.965L313.678 136.215H311.019ZM307.927 125.967H306.071V129.611H308.044C309.916 129.611 310.718 128.993 310.718 127.789C310.718 126.385 309.548 125.967 307.927 125.967ZM324.874 136.215H321.765L316.917 126.97V136.215H314.66V124.094H317.769L322.617 133.339V124.094H324.874V136.215ZM329.107 124.094V136.215H326.717V124.094H329.107ZM341.168 136.215H338.059L333.211 126.97V136.215H330.954V124.094H334.063L338.911 133.339V124.094H341.168V136.215ZM348.528 123.877C351.386 123.877 353.292 125.532 353.693 127.772H351.42C351.035 126.435 349.865 125.783 348.511 125.783C346.488 125.783 345.067 127.204 345.067 130.096C345.067 132.988 346.421 134.526 348.494 134.526C349.781 134.526 351.52 133.874 351.52 131.935V131.734H348.494V129.778H353.727V136.215H351.838L351.771 134.794C351.085 135.797 349.848 136.432 348.126 136.432C344.716 136.432 342.593 133.974 342.593 130.096C342.593 126.334 344.816 123.877 348.528 123.877ZM360.24 131.183L358.702 130.898C356.746 130.497 355.075 129.494 355.075 127.388C355.075 124.947 357.683 123.877 359.906 123.877C362.414 123.877 364.537 125.348 364.671 127.672H362.364C362.18 126.251 360.943 125.783 359.806 125.783C358.686 125.783 357.465 126.201 357.465 127.287C357.465 128.14 358.167 128.608 359.154 128.792L360.742 129.076C362.715 129.444 364.888 130.196 364.888 132.721C364.888 135.212 362.414 136.432 359.973 136.432C356.997 136.432 355.024 134.827 354.807 132.219H357.114C357.382 134.008 358.619 134.526 360.056 134.526C361.126 134.526 362.481 134.125 362.481 132.838C362.481 131.818 361.528 131.4 360.24 131.183Z" fill="white"/>
<path d="M289.181 150.749H290.785V152.841C294.74 153.156 297.32 155.735 297.234 159.49H294.225C294.139 156.767 292.591 155.449 290.785 155.219V162.04L291.158 162.126C294.282 162.957 297.664 164.161 297.664 168.231C297.664 172.128 294.454 174.106 290.785 174.335V176.771H289.181V174.335C285.168 174.02 282.36 171.182 282.446 167.313H285.484C285.484 170.208 287.289 171.727 289.181 171.956V164.534L288.407 164.333C285.369 163.588 282.933 161.725 282.933 158.401C282.933 154.961 286.028 153.156 289.181 152.841V150.749ZM294.683 168.574C294.683 166.339 293.193 165.651 290.785 164.963V171.985C292.878 171.899 294.683 170.753 294.683 168.574ZM285.913 158.343C285.913 160.034 287.003 161.037 289.066 161.61L289.181 161.639V155.191C287.49 155.277 285.913 156.308 285.913 158.343ZM306.28 171.956C308.888 171.956 310.751 170.581 310.751 168.173C310.751 165.307 308.344 164.39 305.134 164.39H304.417V161.782H305.019C308.487 161.782 310.206 160.751 310.206 158.458C310.206 156.28 308.458 155.219 306.366 155.219C303.729 155.219 302.297 156.824 301.981 159.232H299.001C299.316 155.42 302.039 152.841 306.509 152.841C310.034 152.841 313.33 154.302 313.33 158.2C313.33 160.292 312.155 162.069 310.092 162.957C312.9 163.874 313.875 165.995 313.875 168.116C313.875 172.329 310.264 174.364 306.223 174.364C301.408 174.364 298.943 171.268 298.714 167.715H301.695C302.01 170.122 303.443 171.956 306.28 171.956ZM327.309 159.862C327.309 157.025 325.589 155.219 323.038 155.219C320.488 155.219 318.711 157.025 318.711 159.862C318.711 162.671 320.488 164.562 323.01 164.562C325.532 164.562 327.309 162.671 327.309 159.862ZM322.78 171.956C325.818 171.956 327.481 168.947 327.624 164.39C326.678 165.88 324.93 167.056 322.379 167.056C318.539 167.056 315.587 164.19 315.587 159.948C315.587 155.936 318.539 152.841 323.01 152.841C328.283 152.841 330.69 156.681 330.69 162.929C330.69 168.89 328.541 174.364 322.494 174.364C318.338 174.364 316.275 171.698 315.96 168.976H319.083C319.399 170.924 320.746 171.956 322.78 171.956ZM331.82 173.991V170.409H335.403V174.249L333.54 178.232H331.677L333.397 173.991H331.82ZM344.191 171.956C346.798 171.956 348.661 170.581 348.661 168.173C348.661 165.307 346.254 164.39 343.044 164.39H342.328V161.782H342.93C346.397 161.782 348.117 160.751 348.117 158.458C348.117 156.28 346.369 155.219 344.276 155.219C341.64 155.219 340.207 156.824 339.892 159.232H336.911C337.226 155.42 339.949 152.841 344.42 152.841C347.945 152.841 351.241 154.302 351.241 158.2C351.241 160.292 350.066 162.069 348.002 162.957C350.811 163.874 351.785 165.995 351.785 168.116C351.785 172.329 348.174 174.364 344.133 174.364C339.318 174.364 336.854 171.268 336.625 167.715H339.605C339.92 170.122 341.353 171.956 344.191 171.956ZM363.07 157.197L356.077 166.282H363.07V157.197ZM369.804 166.282V168.976H366.079V173.991H363.07V168.976H352.781V166.339L363.07 153.213H366.079V166.282H369.804ZM369.778 155.936V153.213H384.422V155.936C379.235 160.493 376.197 166.282 375.739 173.991H372.242C372.615 166.626 376.111 160.349 381.127 155.936H369.778ZM384.551 173.991H380.968V170.409H384.551V173.991ZM394.55 152.841C398.391 152.841 401.228 154.789 401.228 158.315C401.228 162.871 396.643 167.027 390.596 171.297H401.773V173.991H386.727V171.412C393.863 165.966 398.104 162.241 398.104 158.63C398.104 156.538 396.729 155.219 394.465 155.219C392.344 155.219 390.28 156.423 390.28 159.776H387.242C387.156 155.621 390.108 152.841 394.55 152.841ZM414.899 159.862C414.899 157.025 413.179 155.219 410.628 155.219C408.078 155.219 406.301 157.025 406.301 159.862C406.301 162.671 408.078 164.562 410.6 164.562C413.122 164.562 414.899 162.671 414.899 159.862ZM410.37 171.956C413.408 171.956 415.071 168.947 415.214 164.39C414.268 165.88 412.52 167.056 409.969 167.056C406.129 167.056 403.177 164.19 403.177 159.948C403.177 155.936 406.129 152.841 410.6 152.841C415.873 152.841 418.28 156.681 418.28 162.929C418.28 168.89 416.131 174.364 410.084 174.364C405.928 174.364 403.865 171.698 403.55 168.976H406.673C406.989 170.924 408.336 171.956 410.37 171.956ZM427.232 171.956C429.84 171.956 431.703 170.581 431.703 168.173C431.703 165.307 429.295 164.39 426.086 164.39H425.369V161.782H425.971C429.439 161.782 431.158 160.751 431.158 158.458C431.158 156.28 429.41 155.219 427.318 155.219C424.681 155.219 423.248 156.824 422.933 159.232H419.953C420.268 155.42 422.99 152.841 427.461 152.841C430.986 152.841 434.282 154.302 434.282 158.2C434.282 160.292 433.107 162.069 431.044 162.957C433.852 163.874 434.827 165.995 434.827 168.116C434.827 172.329 431.216 174.364 427.175 174.364C422.36 174.364 419.895 171.268 419.666 167.715H422.647C422.962 170.122 424.395 171.956 427.232 171.956ZM448.26 159.862C448.26 157.025 446.541 155.219 443.99 155.219C441.44 155.219 439.663 157.025 439.663 159.862C439.663 162.671 441.44 164.562 443.962 164.562C446.484 164.562 448.26 162.671 448.26 159.862ZM443.732 171.956C446.77 171.956 448.432 168.947 448.576 164.39C447.63 165.88 445.882 167.056 443.331 167.056C439.491 167.056 436.539 164.19 436.539 159.948C436.539 155.936 439.491 152.841 443.962 152.841C449.235 152.841 451.642 156.681 451.642 162.929C451.642 168.89 449.493 174.364 443.446 174.364C439.29 174.364 437.227 171.698 436.912 168.976H440.035C440.351 170.924 441.698 171.956 443.732 171.956Z" fill="white"/>
</g>
<rect x="72.4375" y="214.466" width="375.12" height="38.3044" rx="19.1522" fill="url(#paint1_linear_5280_11409)"/>
<path d="M235.005 238.843C233.296 238.843 231.879 238.28 230.755 237.156C229.63 236.009 229.068 234.609 229.068 232.954C229.068 231.289 229.63 229.894 230.755 228.769C231.869 227.634 233.285 227.066 235.005 227.066C236.032 227.066 236.978 227.309 237.844 227.796C238.719 228.283 239.401 228.942 239.887 229.775L238.265 230.716C237.962 230.153 237.519 229.71 236.935 229.386C236.362 229.05 235.719 228.883 235.005 228.883C233.804 228.883 232.82 229.267 232.052 230.034C231.306 230.791 230.933 231.765 230.933 232.954C230.933 234.144 231.306 235.117 232.052 235.874C232.82 236.642 233.804 237.026 235.005 237.026C235.719 237.026 236.367 236.864 236.951 236.539C237.535 236.204 237.973 235.755 238.265 235.193L239.887 236.118C239.422 236.939 238.747 237.604 237.86 238.113C237.005 238.599 236.054 238.843 235.005 238.843ZM242.83 238.632H241.078V226.79H242.83V238.632ZM250.964 231.673V230.521H252.716V238.632H250.964V237.464C250.304 238.383 249.358 238.843 248.125 238.843C247.011 238.843 246.059 238.432 245.27 237.61C244.481 236.788 244.086 235.777 244.086 234.576C244.086 233.376 244.481 232.365 245.27 231.543C246.059 230.721 247.011 230.31 248.125 230.31C249.358 230.31 250.304 230.764 250.964 231.673ZM246.568 236.442C247.054 236.929 247.665 237.172 248.401 237.172C249.136 237.172 249.747 236.929 250.234 236.442C250.72 235.944 250.964 235.323 250.964 234.576C250.964 233.83 250.72 233.214 250.234 232.727C249.747 232.23 249.136 231.981 248.401 231.981C247.665 231.981 247.054 232.23 246.568 232.727C246.081 233.214 245.838 233.83 245.838 234.576C245.838 235.312 246.081 235.934 246.568 236.442ZM256.088 228.98C255.872 229.196 255.612 229.305 255.309 229.305C255.006 229.305 254.741 229.196 254.514 228.98C254.298 228.753 254.19 228.488 254.19 228.185C254.19 227.882 254.298 227.623 254.514 227.407C254.731 227.18 254.996 227.066 255.309 227.066C255.623 227.066 255.888 227.18 256.104 227.407C256.32 227.623 256.428 227.882 256.428 228.185C256.428 228.488 256.315 228.753 256.088 228.98ZM256.185 238.632H254.433V230.521H256.185V238.632ZM266.752 230.31C267.671 230.31 268.412 230.608 268.974 231.202C269.536 231.797 269.818 232.597 269.818 233.603V238.632H268.066V233.717C268.066 233.165 267.925 232.733 267.644 232.419C267.363 232.105 266.979 231.949 266.492 231.949C265.941 231.949 265.508 232.132 265.194 232.5C264.881 232.857 264.724 233.387 264.724 234.09V238.632H262.972V233.717C262.972 233.154 262.837 232.722 262.567 232.419C262.307 232.105 261.934 231.949 261.447 231.949C260.907 231.949 260.469 232.132 260.133 232.5C259.809 232.868 259.647 233.398 259.647 234.09V238.632H257.895V230.521H259.647V231.494C260.166 230.705 260.939 230.31 261.966 230.31C263.005 230.31 263.772 230.737 264.27 231.592C264.8 230.737 265.627 230.31 266.752 230.31ZM281.523 231.673V230.521H283.275V238.632H281.523V237.464C280.863 238.383 279.917 238.843 278.684 238.843C277.57 238.843 276.618 238.432 275.829 237.61C275.04 236.788 274.645 235.777 274.645 234.576C274.645 233.376 275.04 232.365 275.829 231.543C276.618 230.721 277.57 230.31 278.684 230.31C279.917 230.31 280.863 230.764 281.523 231.673ZM277.127 236.442C277.613 236.929 278.224 237.172 278.96 237.172C279.695 237.172 280.306 236.929 280.793 236.442C281.279 235.944 281.523 235.323 281.523 234.576C281.523 233.83 281.279 233.214 280.793 232.727C280.306 232.23 279.695 231.981 278.96 231.981C278.224 231.981 277.613 232.23 277.127 232.727C276.64 233.214 276.397 233.83 276.397 234.576C276.397 235.312 276.64 235.934 277.127 236.442ZM286.744 238.632H284.992V226.79H286.744V238.632ZM290.206 238.632H288.454V226.79H290.206V238.632Z" fill="white"/>
<rect width="519.5" height="80" fill="url(#paint2_linear_5280_11409)"/>
<path d="M1.31134e-05 300L0 3.49691e-06L80 0L80 300H1.31134e-05Z" fill="url(#paint3_linear_5280_11409)"/>
<path d="M520 300L520 3.49691e-06L440 0L440 300H520Z" fill="url(#paint4_linear_5280_11409)"/>
<rect width="519.5" height="80" transform="matrix(1 0 0 -1 0 300)" fill="url(#paint5_linear_5280_11409)"/>
</g>
<defs>
<filter id="filter0_b_5280_11409" x="-8.67894" y="50.3438" width="314.053" height="196.518" filterUnits="userSpaceOnUse" color-interpolation-filters="sRGB">
<feFlood flood-opacity="0" result="BackgroundImageFix"/>
<feGaussianBlur in="BackgroundImageFix" stdDeviation="23.8824"/>
<feComposite in2="SourceAlpha" operator="in" result="effect1_backgroundBlur_5280_11409"/>
<feBlend mode="normal" in="SourceGraphic" in2="effect1_backgroundBlur_5280_11409" result="shape"/>
</filter>
<filter id="filter1_b_5280_11409" x="214.626" y="50.3438" width="314.053" height="196.518" filterUnits="userSpaceOnUse" color-interpolation-filters="sRGB">
<feFlood flood-opacity="0" result="BackgroundImageFix"/>
<feGaussianBlur in="BackgroundImageFix" stdDeviation="23.8824"/>
<feComposite in2="SourceAlpha" operator="in" result="effect1_backgroundBlur_5280_11409"/>
<feBlend mode="normal" in="SourceGraphic" in2="effect1_backgroundBlur_5280_11409" result="shape"/>
</filter>
<radialGradient id="paint0_radial_5280_11409" cx="0" cy="0" r="1" gradientUnits="userSpaceOnUse" gradientTransform="translate(260 150) rotate(90) scale(259.5)">
<stop stop-color="#282230"/>
<stop offset="1" stop-color="#15101B"/>
</radialGradient>
<linearGradient id="paint1_linear_5280_11409" x1="449.402" y1="233.618" x2="74.2821" y2="233.618" gradientUnits="userSpaceOnUse">
<stop stop-color="#7C40FF"/>
<stop offset="1" stop-color="#4E01F4"/>
</linearGradient>
<linearGradient id="paint2_linear_5280_11409" x1="259.75" y1="0" x2="259.75" y2="80" gradientUnits="userSpaceOnUse">
<stop stop-color="#15101B"/>
<stop offset="1" stop-color="#15101B" stop-opacity="0"/>
</linearGradient>
<linearGradient id="paint3_linear_5280_11409" x1="-6.55671e-06" y1="150" x2="80" y2="150" gradientUnits="userSpaceOnUse">
<stop stop-color="#15101B"/>
<stop offset="1" stop-color="#15101B" stop-opacity="0"/>
</linearGradient>
<linearGradient id="paint4_linear_5280_11409" x1="520" y1="150" x2="440" y2="150" gradientUnits="userSpaceOnUse">
<stop stop-color="#15101B"/>
<stop offset="1" stop-color="#15101B" stop-opacity="0"/>
</linearGradient>
<linearGradient id="paint5_linear_5280_11409" x1="259.75" y1="0" x2="259.75" y2="80" gradientUnits="userSpaceOnUse">
<stop stop-color="#15101B"/>
<stop offset="1" stop-color="#15101B" stop-opacity="0"/>
</linearGradient>
<clipPath id="clip0_5280_11409">
<rect width="520" height="300" fill="white"/>
</clipPath>
</defs>
</svg>
