<svg width="520" height="300" viewBox="0 0 520 300" fill="none" xmlns="http://www.w3.org/2000/svg">
<g clip-path="url(#clip0_5280_10476)">
<rect x="83" y="7" width="323" height="39" rx="12" fill="#1E2229"/>
<path fill-rule="evenodd" clip-rule="evenodd" d="M96.0391 26.5C96.0391 21.5524 100.05 17.5416 104.997 17.5416C109.945 17.5416 113.956 21.5524 113.956 26.5C113.956 31.4475 109.945 35.4583 104.997 35.4583C100.05 35.4583 96.0391 31.4475 96.0391 26.5ZM105.747 23.1666C105.747 22.7524 105.412 22.4166 104.997 22.4166C104.583 22.4166 104.247 22.7524 104.247 23.1666V26.5C104.247 26.7507 104.373 26.9849 104.581 27.124L107.081 28.7907C107.426 29.0204 107.892 28.9273 108.121 28.5827C108.351 28.238 108.258 27.7724 107.913 27.5426L105.747 26.0986V23.1666Z" fill="white"/>
<path d="M123.24 20.8H131.4V22.56H128.248V32H126.408V22.56H123.24V20.8ZM133.961 22.48C133.747 22.6933 133.491 22.8 133.193 22.8C132.894 22.8 132.633 22.6933 132.409 22.48C132.195 22.256 132.089 21.9947 132.089 21.696C132.089 21.3973 132.195 21.1413 132.409 20.928C132.622 20.704 132.883 20.592 133.193 20.592C133.502 20.592 133.763 20.704 133.977 20.928C134.19 21.1413 134.297 21.3973 134.297 21.696C134.297 21.9947 134.185 22.256 133.961 22.48ZM134.057 32H132.329V24H134.057V32ZM144.479 23.792C145.386 23.792 146.116 24.0853 146.671 24.672C147.226 25.2587 147.503 26.048 147.503 27.04V32H145.775V27.152C145.775 26.608 145.636 26.1813 145.359 25.872C145.082 25.5627 144.703 25.408 144.223 25.408C143.679 25.408 143.252 25.5893 142.943 25.952C142.634 26.304 142.479 26.8267 142.479 27.52V32H140.751V27.152C140.751 26.5973 140.618 26.1707 140.351 25.872C140.095 25.5627 139.727 25.408 139.247 25.408C138.714 25.408 138.282 25.5893 137.951 25.952C137.631 26.3147 137.471 26.8373 137.471 27.52V32H135.743V24H137.471V24.96C137.983 24.1813 138.746 23.792 139.759 23.792C140.783 23.792 141.54 24.2133 142.031 25.056C142.554 24.2133 143.37 23.792 144.479 23.792ZM156.76 28.736H150.392C150.52 29.3333 150.808 29.7973 151.256 30.128C151.715 30.4587 152.28 30.624 152.952 30.624C153.859 30.624 154.547 30.2933 155.016 29.632L156.44 30.464C155.662 31.6267 154.494 32.208 152.936 32.208C151.646 32.208 150.595 31.8133 149.784 31.024C148.984 30.224 148.584 29.216 148.584 28C148.584 26.816 148.979 25.8187 149.768 25.008C150.547 24.1973 151.56 23.792 152.808 23.792C153.971 23.792 154.931 24.2027 155.688 25.024C156.446 25.8453 156.824 26.8427 156.824 28.016C156.824 28.2293 156.803 28.4693 156.76 28.736ZM150.376 27.328H155.08C154.963 26.6987 154.696 26.2133 154.28 25.872C153.875 25.5307 153.379 25.36 152.792 25.36C152.152 25.36 151.619 25.536 151.192 25.888C150.766 26.24 150.494 26.72 150.376 27.328ZM159.753 24V25.344C160.19 24.352 161.012 23.856 162.217 23.856V25.728C161.566 25.6853 160.99 25.8453 160.489 26.208C159.998 26.56 159.753 27.1467 159.753 27.968V32H158.025V24H159.753Z" fill="white"/>
<rect x="400" y="21" width="11" height="11" rx="5.5" fill="#FCC537" stroke="#0F131A" stroke-width="3"/>
<rect x="83" y="54" width="323" height="39" rx="12" fill="#1E2229"/>
<path d="M101.116 71.9041L105 68.0203L108.886 71.9062L111.146 69.6462L105 63.5L98.856 69.6442L101.116 71.9041Z" fill="white"/>
<path d="M99.52 73.4995L97.2601 71.2396L95 73.4997L97.2599 75.7596L99.52 73.4995Z" fill="white"/>
<path d="M101.116 75.0959L105 78.9797L108.886 75.094L111.147 77.3527L111.146 77.354L105 83.5L98.853 77.3528L101.116 75.0959Z" fill="white"/>
<path d="M112.74 75.7607L115 73.5006L112.74 71.2407L110.48 73.5007L112.74 75.7607Z" fill="white"/>
<path d="M107.293 73.4988L105 71.2055L102.706 73.4999L102.709 73.5032L105 75.7945L107.294 73.5012L107.295 73.4999L107.293 73.4988Z" fill="white"/>
<path d="M130.712 73.192C131.203 73.448 131.587 73.8053 131.864 74.264C132.141 74.712 132.28 75.224 132.28 75.8C132.28 76.7173 131.955 77.48 131.304 78.088C130.653 78.696 129.859 79 128.92 79H124.12V67.8H128.568C129.485 67.8 130.259 68.0987 130.888 68.696C131.528 69.2933 131.848 70.0293 131.848 70.904C131.848 71.864 131.469 72.6267 130.712 73.192ZM128.568 69.528H125.96V72.472H128.568C128.973 72.472 129.315 72.3333 129.592 72.056C129.869 71.768 130.008 71.416 130.008 71C130.008 70.584 129.869 70.2373 129.592 69.96C129.315 69.672 128.973 69.528 128.568 69.528ZM125.96 77.272H128.92C129.347 77.272 129.704 77.1227 129.992 76.824C130.291 76.5147 130.44 76.1413 130.44 75.704C130.44 75.2667 130.291 74.8987 129.992 74.6C129.704 74.2907 129.347 74.136 128.92 74.136H125.96V77.272ZM135.086 69.48C134.872 69.6933 134.616 69.8 134.318 69.8C134.019 69.8 133.758 69.6933 133.534 69.48C133.32 69.256 133.214 68.9947 133.214 68.696C133.214 68.3973 133.32 68.1413 133.534 67.928C133.747 67.704 134.008 67.592 134.318 67.592C134.627 67.592 134.888 67.704 135.102 67.928C135.315 68.1413 135.422 68.3973 135.422 68.696C135.422 68.9947 135.31 69.256 135.086 69.48ZM135.182 79H133.454V71H135.182V79ZM141.076 70.792C142.004 70.792 142.745 71.0907 143.3 71.688C143.865 72.2747 144.148 73.0747 144.148 74.088V79H142.42V74.264C142.42 73.6667 142.26 73.208 141.94 72.888C141.62 72.568 141.183 72.408 140.628 72.408C139.999 72.408 139.503 72.6053 139.14 73C138.777 73.384 138.596 73.9547 138.596 74.712V79H136.868V71H138.596V72.024C139.129 71.2027 139.956 70.792 141.076 70.792ZM152.025 72.136V71H153.753V79H152.025V77.848C151.374 78.7547 150.441 79.208 149.225 79.208C148.126 79.208 147.187 78.8027 146.409 77.992C145.63 77.1813 145.241 76.184 145.241 75C145.241 73.816 145.63 72.8187 146.409 72.008C147.187 71.1973 148.126 70.792 149.225 70.792C150.441 70.792 151.374 71.24 152.025 72.136ZM147.689 76.84C148.169 77.32 148.771 77.56 149.497 77.56C150.222 77.56 150.825 77.32 151.305 76.84C151.785 76.3493 152.025 75.736 152.025 75C152.025 74.264 151.785 73.656 151.305 73.176C150.825 72.6853 150.222 72.44 149.497 72.44C148.771 72.44 148.169 72.6853 147.689 73.176C147.209 73.656 146.969 74.264 146.969 75C146.969 75.7253 147.209 76.3387 147.689 76.84ZM159.655 70.792C160.583 70.792 161.324 71.0907 161.879 71.688C162.444 72.2747 162.727 73.0747 162.727 74.088V79H160.999V74.264C160.999 73.6667 160.839 73.208 160.519 72.888C160.199 72.568 159.761 72.408 159.207 72.408C158.577 72.408 158.081 72.6053 157.719 73C157.356 73.384 157.175 73.9547 157.175 74.712V79H155.447V71H157.175V72.024C157.708 71.2027 158.535 70.792 159.655 70.792ZM168.043 79.208C166.838 79.208 165.83 78.8027 165.019 77.992C164.219 77.1707 163.819 76.1733 163.819 75C163.819 73.8053 164.219 72.808 165.019 72.008C165.83 71.1973 166.838 70.792 168.043 70.792C168.822 70.792 169.531 70.9787 170.171 71.352C170.811 71.7253 171.291 72.2267 171.611 72.856L170.123 73.72C169.942 73.336 169.665 73.0373 169.291 72.824C168.929 72.6 168.507 72.488 168.027 72.488C167.323 72.488 166.731 72.728 166.251 73.208C165.782 73.6987 165.547 74.296 165.547 75C165.547 75.704 165.782 76.3013 166.251 76.792C166.731 77.272 167.323 77.512 168.027 77.512C168.497 77.512 168.918 77.4053 169.291 77.192C169.675 76.968 169.963 76.664 170.155 76.28L171.643 77.128C171.302 77.768 170.806 78.2747 170.155 78.648C169.515 79.0213 168.811 79.208 168.043 79.208ZM180.175 75.736H173.807C173.935 76.3333 174.223 76.7973 174.671 77.128C175.13 77.4587 175.695 77.624 176.367 77.624C177.274 77.624 177.962 77.2933 178.431 76.632L179.855 77.464C179.077 78.6267 177.909 79.208 176.351 79.208C175.061 79.208 174.01 78.8133 173.199 78.024C172.399 77.224 171.999 76.216 171.999 75C171.999 73.816 172.394 72.8187 173.183 72.008C173.962 71.1973 174.975 70.792 176.223 70.792C177.386 70.792 178.346 71.2027 179.103 72.024C179.861 72.8453 180.239 73.8427 180.239 75.016C180.239 75.2293 180.218 75.4693 180.175 75.736ZM173.791 74.328H178.495C178.378 73.6987 178.111 73.2133 177.695 72.872C177.29 72.5307 176.794 72.36 176.207 72.36C175.567 72.36 175.034 72.536 174.607 72.888C174.181 73.24 173.909 73.72 173.791 74.328ZM190.528 79.208C188.843 79.208 187.445 78.6533 186.336 77.544C185.227 76.4133 184.672 75.032 184.672 73.4C184.672 71.7573 185.227 70.3813 186.336 69.272C187.435 68.152 188.832 67.592 190.528 67.592C191.541 67.592 192.475 67.832 193.328 68.312C194.192 68.792 194.864 69.4427 195.344 70.264L193.744 71.192C193.445 70.6373 193.008 70.2 192.432 69.88C191.867 69.5493 191.232 69.384 190.528 69.384C189.344 69.384 188.373 69.7627 187.616 70.52C186.88 71.2667 186.512 72.2267 186.512 73.4C186.512 74.5733 186.88 75.5333 187.616 76.28C188.373 77.0373 189.344 77.416 190.528 77.416C191.232 77.416 191.872 77.256 192.448 76.936C193.024 76.6053 193.456 76.1627 193.744 75.608L195.344 76.52C194.885 77.3307 194.219 77.9867 193.344 78.488C192.501 78.968 191.563 79.208 190.528 79.208ZM203.193 77.992C202.382 78.8027 201.385 79.208 200.201 79.208C199.017 79.208 198.02 78.8027 197.209 77.992C196.388 77.1707 195.977 76.1733 195.977 75C195.977 73.8267 196.388 72.8293 197.209 72.008C198.02 71.1973 199.017 70.792 200.201 70.792C201.385 70.792 202.382 71.1973 203.193 72.008C204.014 72.8293 204.425 73.8267 204.425 75C204.425 76.1733 204.014 77.1707 203.193 77.992ZM197.705 75C197.705 75.7253 197.945 76.328 198.425 76.808C198.905 77.288 199.497 77.528 200.201 77.528C200.905 77.528 201.497 77.288 201.977 76.808C202.457 76.328 202.697 75.7253 202.697 75C202.697 74.2747 202.457 73.672 201.977 73.192C201.497 72.712 200.905 72.472 200.201 72.472C199.497 72.472 198.905 72.712 198.425 73.192C197.945 73.672 197.705 74.2747 197.705 75ZM209.875 70.792C210.803 70.792 211.545 71.0907 212.099 71.688C212.665 72.2747 212.947 73.0747 212.947 74.088V79H211.219V74.264C211.219 73.6667 211.059 73.208 210.739 72.888C210.419 72.568 209.982 72.408 209.427 72.408C208.798 72.408 208.302 72.6053 207.939 73C207.577 73.384 207.395 73.9547 207.395 74.712V79H205.667V71H207.395V72.024C207.929 71.2027 208.755 70.792 209.875 70.792ZM218.696 70.792C219.624 70.792 220.365 71.0907 220.92 71.688C221.485 72.2747 221.768 73.0747 221.768 74.088V79H220.04V74.264C220.04 73.6667 219.88 73.208 219.56 72.888C219.24 72.568 218.803 72.408 218.248 72.408C217.619 72.408 217.123 72.6053 216.76 73C216.397 73.384 216.216 73.9547 216.216 74.712V79H214.488V71H216.216V72.024C216.749 71.2027 217.576 70.792 218.696 70.792ZM231.037 75.736H224.669C224.797 76.3333 225.085 76.7973 225.533 77.128C225.991 77.4587 226.557 77.624 227.229 77.624C228.135 77.624 228.823 77.2933 229.293 76.632L230.717 77.464C229.938 78.6267 228.77 79.208 227.213 79.208C225.922 79.208 224.871 78.8133 224.061 78.024C223.261 77.224 222.861 76.216 222.861 75C222.861 73.816 223.255 72.8187 224.045 72.008C224.823 71.1973 225.837 70.792 227.085 70.792C228.247 70.792 229.207 71.2027 229.965 72.024C230.722 72.8453 231.101 73.8427 231.101 75.016C231.101 75.2293 231.079 75.4693 231.037 75.736ZM224.653 74.328H229.357C229.239 73.6987 228.973 73.2133 228.557 72.872C228.151 72.5307 227.655 72.36 227.069 72.36C226.429 72.36 225.895 72.536 225.469 72.888C225.042 73.24 224.77 73.72 224.653 74.328ZM236.03 79.208C234.825 79.208 233.817 78.8027 233.006 77.992C232.206 77.1707 231.806 76.1733 231.806 75C231.806 73.8053 232.206 72.808 233.006 72.008C233.817 71.1973 234.825 70.792 236.03 70.792C236.809 70.792 237.518 70.9787 238.158 71.352C238.798 71.7253 239.278 72.2267 239.598 72.856L238.11 73.72C237.929 73.336 237.652 73.0373 237.278 72.824C236.916 72.6 236.494 72.488 236.014 72.488C235.31 72.488 234.718 72.728 234.238 73.208C233.769 73.6987 233.534 74.296 233.534 75C233.534 75.704 233.769 76.3013 234.238 76.792C234.718 77.272 235.31 77.512 236.014 77.512C236.484 77.512 236.905 77.4053 237.278 77.192C237.662 76.968 237.95 76.664 238.142 76.28L239.63 77.128C239.289 77.768 238.793 78.2747 238.142 78.648C237.502 79.0213 236.798 79.208 236.03 79.208ZM245.023 71V72.664H243.039V76.504C243.039 76.8347 243.114 77.0747 243.263 77.224C243.413 77.3627 243.631 77.4427 243.919 77.464C244.218 77.4747 244.586 77.4693 245.023 77.448V79C243.701 79.16 242.751 79.048 242.175 78.664C241.599 78.2693 241.311 77.5493 241.311 76.504V72.664H239.839V71H241.311V69.272L243.039 68.76V71H245.023ZM252.71 77.992C251.9 78.8027 250.902 79.208 249.718 79.208C248.534 79.208 247.537 78.8027 246.726 77.992C245.905 77.1707 245.494 76.1733 245.494 75C245.494 73.8267 245.905 72.8293 246.726 72.008C247.537 71.1973 248.534 70.792 249.718 70.792C250.902 70.792 251.9 71.1973 252.71 72.008C253.532 72.8293 253.942 73.8267 253.942 75C253.942 76.1733 253.532 77.1707 252.71 77.992ZM247.222 75C247.222 75.7253 247.462 76.328 247.942 76.808C248.422 77.288 249.014 77.528 249.718 77.528C250.422 77.528 251.014 77.288 251.494 76.808C251.974 76.328 252.214 75.7253 252.214 75C252.214 74.2747 251.974 73.672 251.494 73.192C251.014 72.712 250.422 72.472 249.718 72.472C249.014 72.472 248.422 72.712 247.942 73.192C247.462 73.672 247.222 74.2747 247.222 75ZM256.913 71V72.344C257.35 71.352 258.172 70.856 259.377 70.856V72.728C258.726 72.6853 258.15 72.8453 257.649 73.208C257.158 73.56 256.913 74.1467 256.913 74.968V79H255.185V71H256.913Z" fill="white"/>
<rect x="400" y="68" width="11" height="11" rx="5.5" fill="#46DCDC" stroke="#0F131A" stroke-width="3"/>
<rect x="83" y="101" width="323" height="39" rx="12" fill="#1E2229"/>
<path d="M101.116 118.904L105 115.02L108.886 118.906L111.146 116.646L105 110.5L98.856 116.644L101.116 118.904Z" fill="white"/>
<path d="M99.52 120.5L97.2601 118.24L95 120.5L97.2599 122.76L99.52 120.5Z" fill="white"/>
<path d="M101.116 122.096L105 125.98L108.886 122.094L111.147 124.353L111.146 124.354L105 130.5L98.853 124.353L101.116 122.096Z" fill="white"/>
<path d="M112.74 122.761L115 120.501L112.74 118.241L110.48 120.501L112.74 122.761Z" fill="white"/>
<path d="M107.293 120.499L105 118.206L102.706 120.5L102.709 120.503L105 122.795L107.294 120.501L107.295 120.5L107.293 120.499Z" fill="white"/>
<path d="M129.416 120.208H135.016V120.976C135.016 122.512 134.509 123.771 133.496 124.752C132.493 125.723 131.171 126.208 129.528 126.208C127.8 126.208 126.371 125.648 125.24 124.528C124.12 123.408 123.56 122.032 123.56 120.4C123.56 118.779 124.12 117.408 125.24 116.288C126.371 115.157 127.768 114.592 129.432 114.592C130.467 114.592 131.416 114.832 132.28 115.312C133.155 115.781 133.832 116.427 134.312 117.248L132.728 118.16C132.429 117.616 131.987 117.184 131.4 116.864C130.813 116.544 130.157 116.384 129.432 116.384C128.259 116.384 127.293 116.768 126.536 117.536C125.779 118.315 125.4 119.275 125.4 120.416C125.4 121.568 125.779 122.523 126.536 123.28C127.315 124.037 128.317 124.416 129.544 124.416C130.525 124.416 131.331 124.187 131.96 123.728C132.589 123.269 132.989 122.645 133.16 121.856H129.416V120.208ZM143.994 122.736H137.626C137.754 123.333 138.042 123.797 138.49 124.128C138.949 124.459 139.514 124.624 140.186 124.624C141.093 124.624 141.781 124.293 142.25 123.632L143.674 124.464C142.895 125.627 141.727 126.208 140.17 126.208C138.879 126.208 137.829 125.813 137.018 125.024C136.218 124.224 135.818 123.216 135.818 122C135.818 120.816 136.213 119.819 137.002 119.008C137.781 118.197 138.794 117.792 140.042 117.792C141.205 117.792 142.165 118.203 142.922 119.024C143.679 119.845 144.058 120.843 144.058 122.016C144.058 122.229 144.037 122.469 143.994 122.736ZM137.61 121.328H142.314C142.197 120.699 141.93 120.213 141.514 119.872C141.109 119.531 140.613 119.36 140.026 119.36C139.386 119.36 138.853 119.536 138.426 119.888C137.999 120.24 137.727 120.72 137.61 121.328ZM149.473 118V119.664H147.489V123.504C147.489 123.835 147.563 124.075 147.713 124.224C147.862 124.363 148.081 124.443 148.369 124.464C148.667 124.475 149.035 124.469 149.473 124.448V126C148.15 126.16 147.201 126.048 146.625 125.664C146.049 125.269 145.761 124.549 145.761 123.504V119.664H144.289V118H145.761V116.272L147.489 115.76V118H149.473ZM161.182 120.192C161.673 120.448 162.057 120.805 162.334 121.264C162.611 121.712 162.75 122.224 162.75 122.8C162.75 123.717 162.425 124.48 161.774 125.088C161.123 125.696 160.329 126 159.39 126H154.59V114.8H159.038C159.955 114.8 160.729 115.099 161.358 115.696C161.998 116.293 162.318 117.029 162.318 117.904C162.318 118.864 161.939 119.627 161.182 120.192ZM159.038 116.528H156.43V119.472H159.038C159.443 119.472 159.785 119.333 160.062 119.056C160.339 118.768 160.478 118.416 160.478 118C160.478 117.584 160.339 117.237 160.062 116.96C159.785 116.672 159.443 116.528 159.038 116.528ZM156.43 124.272H159.39C159.817 124.272 160.174 124.123 160.462 123.824C160.761 123.515 160.91 123.141 160.91 122.704C160.91 122.267 160.761 121.899 160.462 121.6C160.174 121.291 159.817 121.136 159.39 121.136H156.43V124.272ZM165.556 116.48C165.342 116.693 165.086 116.8 164.788 116.8C164.489 116.8 164.228 116.693 164.004 116.48C163.79 116.256 163.684 115.995 163.684 115.696C163.684 115.397 163.79 115.141 164.004 114.928C164.217 114.704 164.478 114.592 164.788 114.592C165.097 114.592 165.358 114.704 165.572 114.928C165.785 115.141 165.892 115.397 165.892 115.696C165.892 115.995 165.78 116.256 165.556 116.48ZM165.652 126H163.924V118H165.652V126ZM171.546 117.792C172.474 117.792 173.215 118.091 173.77 118.688C174.335 119.275 174.618 120.075 174.618 121.088V126H172.89V121.264C172.89 120.667 172.73 120.208 172.41 119.888C172.09 119.568 171.653 119.408 171.098 119.408C170.469 119.408 169.973 119.605 169.61 120C169.247 120.384 169.066 120.955 169.066 121.712V126H167.338V118H169.066V119.024C169.599 118.203 170.426 117.792 171.546 117.792ZM182.495 119.136V118H184.223V126H182.495V124.848C181.844 125.755 180.911 126.208 179.695 126.208C178.596 126.208 177.657 125.803 176.879 124.992C176.1 124.181 175.711 123.184 175.711 122C175.711 120.816 176.1 119.819 176.879 119.008C177.657 118.197 178.596 117.792 179.695 117.792C180.911 117.792 181.844 118.24 182.495 119.136ZM178.159 123.84C178.639 124.32 179.241 124.56 179.967 124.56C180.692 124.56 181.295 124.32 181.775 123.84C182.255 123.349 182.495 122.736 182.495 122C182.495 121.264 182.255 120.656 181.775 120.176C181.295 119.685 180.692 119.44 179.967 119.44C179.241 119.44 178.639 119.685 178.159 120.176C177.679 120.656 177.439 121.264 177.439 122C177.439 122.725 177.679 123.339 178.159 123.84ZM190.125 117.792C191.053 117.792 191.794 118.091 192.349 118.688C192.914 119.275 193.197 120.075 193.197 121.088V126H191.469V121.264C191.469 120.667 191.309 120.208 190.989 119.888C190.669 119.568 190.231 119.408 189.677 119.408C189.047 119.408 188.551 119.605 188.189 120C187.826 120.384 187.645 120.955 187.645 121.712V126H185.917V118H187.645V119.024C188.178 118.203 189.005 117.792 190.125 117.792ZM198.513 126.208C197.308 126.208 196.3 125.803 195.489 124.992C194.689 124.171 194.289 123.173 194.289 122C194.289 120.805 194.689 119.808 195.489 119.008C196.3 118.197 197.308 117.792 198.513 117.792C199.292 117.792 200.001 117.979 200.641 118.352C201.281 118.725 201.761 119.227 202.081 119.856L200.593 120.72C200.412 120.336 200.135 120.037 199.761 119.824C199.399 119.6 198.977 119.488 198.497 119.488C197.793 119.488 197.201 119.728 196.721 120.208C196.252 120.699 196.017 121.296 196.017 122C196.017 122.704 196.252 123.301 196.721 123.792C197.201 124.272 197.793 124.512 198.497 124.512C198.967 124.512 199.388 124.405 199.761 124.192C200.145 123.968 200.433 123.664 200.625 123.28L202.113 124.128C201.772 124.768 201.276 125.275 200.625 125.648C199.985 126.021 199.281 126.208 198.513 126.208ZM210.645 122.736H204.277C204.405 123.333 204.693 123.797 205.141 124.128C205.6 124.459 206.165 124.624 206.837 124.624C207.744 124.624 208.432 124.293 208.901 123.632L210.325 124.464C209.547 125.627 208.379 126.208 206.821 126.208C205.531 126.208 204.48 125.813 203.669 125.024C202.869 124.224 202.469 123.216 202.469 122C202.469 120.816 202.864 119.819 203.653 119.008C204.432 118.197 205.445 117.792 206.693 117.792C207.856 117.792 208.816 118.203 209.573 119.024C210.331 119.845 210.709 120.843 210.709 122.016C210.709 122.229 210.688 122.469 210.645 122.736ZM204.261 121.328H208.965C208.848 120.699 208.581 120.213 208.165 119.872C207.76 119.531 207.264 119.36 206.677 119.36C206.037 119.36 205.504 119.536 205.077 119.888C204.651 120.24 204.379 120.72 204.261 121.328ZM224.454 114.8H226.422V126H224.582V118.016L221.174 123.648H220.95L217.542 118V126H215.702V114.8H217.686L221.062 120.4L224.454 114.8ZM234.559 119.136V118H236.287V126H234.559V124.848C233.908 125.755 232.975 126.208 231.759 126.208C230.66 126.208 229.722 125.803 228.943 124.992C228.164 124.181 227.775 123.184 227.775 122C227.775 120.816 228.164 119.819 228.943 119.008C229.722 118.197 230.66 117.792 231.759 117.792C232.975 117.792 233.908 118.24 234.559 119.136ZM230.223 123.84C230.703 124.32 231.306 124.56 232.031 124.56C232.756 124.56 233.359 124.32 233.839 123.84C234.319 123.349 234.559 122.736 234.559 122C234.559 121.264 234.319 120.656 233.839 120.176C233.359 119.685 232.756 119.44 232.031 119.44C231.306 119.44 230.703 119.685 230.223 120.176C229.743 120.656 229.503 121.264 229.503 122C229.503 122.725 229.743 123.339 230.223 123.84ZM239.709 118V119.344C240.146 118.352 240.968 117.856 242.173 117.856V119.728C241.522 119.685 240.946 119.845 240.445 120.208C239.954 120.56 239.709 121.147 239.709 121.968V126H237.981V118H239.709ZM246.554 121.92L250.202 126H248.138L244.858 122.304V126H243.13V114.8H244.858V121.536L247.962 118H250.074L246.554 121.92ZM258.132 122.736H251.764C251.892 123.333 252.18 123.797 252.628 124.128C253.086 124.459 253.652 124.624 254.324 124.624C255.23 124.624 255.918 124.293 256.388 123.632L257.812 124.464C257.033 125.627 255.865 126.208 254.308 126.208C253.017 126.208 251.966 125.813 251.156 125.024C250.356 124.224 249.956 123.216 249.956 122C249.956 120.816 250.35 119.819 251.14 119.008C251.918 118.197 252.932 117.792 254.18 117.792C255.342 117.792 256.302 118.203 257.06 119.024C257.817 119.845 258.196 120.843 258.196 122.016C258.196 122.229 258.174 122.469 258.132 122.736ZM251.748 121.328H256.452C256.334 120.699 256.068 120.213 255.652 119.872C255.246 119.531 254.75 119.36 254.164 119.36C253.524 119.36 252.99 119.536 252.564 119.888C252.137 120.24 251.865 120.72 251.748 121.328ZM263.61 118V119.664H261.626V123.504C261.626 123.835 261.701 124.075 261.85 124.224C261.999 124.363 262.218 124.443 262.506 124.464C262.805 124.475 263.173 124.469 263.61 124.448V126C262.287 126.16 261.338 126.048 260.762 125.664C260.186 125.269 259.898 124.549 259.898 123.504V119.664H258.426V118H259.898V116.272L261.626 115.76V118H263.61ZM277.127 126H275.111L272.743 121.92H270.567V126H268.727V114.8H273.207C274.21 114.8 275.058 115.152 275.751 115.856C276.455 116.539 276.807 117.387 276.807 118.4C276.807 119.115 276.599 119.771 276.183 120.368C275.778 120.955 275.245 121.381 274.583 121.648L277.127 126ZM273.207 116.528H270.567V120.272H273.207C273.698 120.272 274.114 120.091 274.455 119.728C274.797 119.365 274.967 118.923 274.967 118.4C274.967 117.877 274.797 117.435 274.455 117.072C274.114 116.709 273.698 116.528 273.207 116.528ZM281.792 126.208C280.714 126.208 279.797 125.968 279.04 125.488C278.293 124.997 277.77 124.32 277.472 123.456L279.056 122.528C279.504 123.787 280.432 124.416 281.84 124.416C282.522 124.416 283.04 124.283 283.392 124.016C283.744 123.749 283.92 123.392 283.92 122.944C283.92 122.496 283.733 122.149 283.36 121.904C282.986 121.659 282.325 121.392 281.376 121.104C280.405 120.816 279.621 120.475 279.024 120.08C278.298 119.568 277.936 118.816 277.936 117.824C277.936 116.832 278.288 116.048 278.992 115.472C279.685 114.885 280.533 114.592 281.536 114.592C282.421 114.592 283.2 114.811 283.872 115.248C284.554 115.675 285.077 116.277 285.44 117.056L283.888 117.952C283.418 116.907 282.634 116.384 281.536 116.384C281.002 116.384 280.576 116.512 280.256 116.768C279.936 117.013 279.776 117.349 279.776 117.776C279.776 118.192 279.936 118.523 280.256 118.768C280.576 119.003 281.168 119.253 282.032 119.52C282.565 119.701 282.874 119.808 282.96 119.84C283.098 119.883 283.376 119.989 283.792 120.16C284.133 120.299 284.405 120.448 284.608 120.608C285.44 121.259 285.824 122.027 285.76 122.912C285.76 123.925 285.392 124.731 284.656 125.328C283.941 125.915 282.986 126.208 281.792 126.208ZM286.947 126V114.8H288.787V126H286.947Z" fill="white"/>
<rect x="400" y="115" width="11" height="11" rx="5.5" fill="#4682DC" stroke="#0F131A" stroke-width="3"/>
<rect x="83" y="148" width="323" height="39" rx="12" fill="#1E2229"/>
<path fill-rule="evenodd" clip-rule="evenodd" d="M99.7732 158.986C100.863 158.542 102.241 158.542 104.997 158.542C107.754 158.542 109.132 158.542 110.222 158.986C111.716 159.595 112.902 160.781 113.511 162.276C113.956 163.365 113.956 164.743 113.956 167.5C113.956 170.256 113.956 171.635 113.511 172.724C112.902 174.219 111.716 175.405 110.222 176.014C109.132 176.458 107.754 176.458 104.997 176.458C102.241 176.458 100.863 176.458 99.7732 176.014C98.2787 175.405 97.0928 174.219 96.4833 172.724C96.0391 171.635 96.0391 170.256 96.0391 167.5C96.0391 164.743 96.0391 163.365 96.4833 162.276C97.0929 160.781 98.2788 159.595 99.7732 158.986ZM104.494 163.408C104.535 162.996 104.234 162.628 103.822 162.587C103.41 162.546 103.042 162.847 103.001 163.259L102.819 165.083H101.352C100.937 165.083 100.602 165.419 100.602 165.833C100.602 166.248 100.937 166.583 101.352 166.583H102.669L102.485 168.417H100.831C100.417 168.417 100.081 168.752 100.081 169.167C100.081 169.581 100.417 169.917 100.831 169.917H102.335L102.168 171.592C102.127 172.004 102.427 172.372 102.839 172.413C103.252 172.454 103.619 172.153 103.66 171.741L103.843 169.917H105.669L105.501 171.592C105.46 172.004 105.761 172.372 106.173 172.413C106.585 172.454 106.952 172.153 106.994 171.741L107.176 169.917H108.643C109.057 169.917 109.393 169.581 109.393 169.167C109.393 168.752 109.057 168.417 108.643 168.417H107.326L107.509 166.583H109.164C109.578 166.583 109.914 166.248 109.914 165.833C109.914 165.419 109.578 165.083 109.164 165.083H107.659L107.827 163.408C107.868 162.996 107.568 162.628 107.155 162.587C106.743 162.546 106.376 162.847 106.334 163.259L106.152 165.083H104.326L104.494 163.408ZM103.993 168.417L104.176 166.583H106.002L105.819 168.417H103.993Z" fill="white"/>
<path d="M124.12 161.8H128.52C130.056 161.8 131.331 162.339 132.344 163.416C133.368 164.493 133.88 165.821 133.88 167.4C133.88 168.968 133.368 170.296 132.344 171.384C131.331 172.461 130.056 173 128.52 173H124.12V161.8ZM125.96 171.24H128.52C129.576 171.24 130.435 170.877 131.096 170.152C131.768 169.427 132.104 168.509 132.104 167.4C132.104 166.291 131.768 165.373 131.096 164.648C130.435 163.923 129.576 163.56 128.52 163.56H125.96V171.24ZM142.854 169.736H136.486C136.614 170.333 136.902 170.797 137.35 171.128C137.808 171.459 138.374 171.624 139.046 171.624C139.952 171.624 140.64 171.293 141.11 170.632L142.534 171.464C141.755 172.627 140.587 173.208 139.03 173.208C137.739 173.208 136.688 172.813 135.878 172.024C135.078 171.224 134.678 170.216 134.678 169C134.678 167.816 135.072 166.819 135.862 166.008C136.64 165.197 137.654 164.792 138.902 164.792C140.064 164.792 141.024 165.203 141.782 166.024C142.539 166.845 142.918 167.843 142.918 169.016C142.918 169.229 142.896 169.469 142.854 169.736ZM136.47 168.328H141.174C141.056 167.699 140.79 167.213 140.374 166.872C139.968 166.531 139.472 166.36 138.886 166.36C138.246 166.36 137.712 166.536 137.286 166.888C136.859 167.24 136.587 167.72 136.47 168.328ZM147.847 173.208C146.642 173.208 145.634 172.803 144.823 171.992C144.023 171.171 143.623 170.173 143.623 169C143.623 167.805 144.023 166.808 144.823 166.008C145.634 165.197 146.642 164.792 147.847 164.792C148.626 164.792 149.335 164.979 149.975 165.352C150.615 165.725 151.095 166.227 151.415 166.856L149.927 167.72C149.746 167.336 149.468 167.037 149.095 166.824C148.732 166.6 148.311 166.488 147.831 166.488C147.127 166.488 146.535 166.728 146.055 167.208C145.586 167.699 145.351 168.296 145.351 169C145.351 169.704 145.586 170.301 146.055 170.792C146.535 171.272 147.127 171.512 147.831 171.512C148.3 171.512 148.722 171.405 149.095 171.192C149.479 170.968 149.767 170.664 149.959 170.28L151.447 171.128C151.106 171.768 150.61 172.275 149.959 172.648C149.319 173.021 148.615 173.208 147.847 173.208ZM154.008 163.48C153.795 163.693 153.539 163.8 153.24 163.8C152.941 163.8 152.68 163.693 152.456 163.48C152.243 163.256 152.136 162.995 152.136 162.696C152.136 162.397 152.243 162.141 152.456 161.928C152.669 161.704 152.931 161.592 153.24 161.592C153.549 161.592 153.811 161.704 154.024 161.928C154.237 162.141 154.344 162.397 154.344 162.696C154.344 162.995 154.232 163.256 154.008 163.48ZM154.104 173H152.376V165H154.104V173ZM164.526 164.792C165.433 164.792 166.164 165.085 166.719 165.672C167.273 166.259 167.55 167.048 167.55 168.04V173H165.823V168.152C165.823 167.608 165.684 167.181 165.406 166.872C165.129 166.563 164.75 166.408 164.271 166.408C163.727 166.408 163.3 166.589 162.99 166.952C162.681 167.304 162.526 167.827 162.526 168.52V173H160.798V168.152C160.798 167.597 160.665 167.171 160.398 166.872C160.142 166.563 159.774 166.408 159.294 166.408C158.761 166.408 158.329 166.589 157.998 166.952C157.678 167.315 157.518 167.837 157.518 168.52V173H155.79V165H157.518V165.96C158.03 165.181 158.793 164.792 159.806 164.792C160.83 164.792 161.588 165.213 162.078 166.056C162.601 165.213 163.417 164.792 164.526 164.792ZM175.416 166.136V165H177.144V173H175.416V171.848C174.765 172.755 173.832 173.208 172.616 173.208C171.517 173.208 170.579 172.803 169.8 171.992C169.021 171.181 168.632 170.184 168.632 169C168.632 167.816 169.021 166.819 169.8 166.008C170.579 165.197 171.517 164.792 172.616 164.792C173.832 164.792 174.765 165.24 175.416 166.136ZM171.08 170.84C171.56 171.32 172.163 171.56 172.888 171.56C173.613 171.56 174.216 171.32 174.696 170.84C175.176 170.349 175.416 169.736 175.416 169C175.416 168.264 175.176 167.656 174.696 167.176C174.216 166.685 173.613 166.44 172.888 166.44C172.163 166.44 171.56 166.685 171.08 167.176C170.6 167.656 170.36 168.264 170.36 169C170.36 169.725 170.6 170.339 171.08 170.84ZM180.566 173H178.838V161.32H180.566V173ZM190.46 164.792C191.559 164.792 192.498 165.197 193.276 166.008C194.055 166.819 194.444 167.816 194.444 169C194.444 170.184 194.055 171.181 193.276 171.992C192.498 172.803 191.559 173.208 190.46 173.208C189.244 173.208 188.311 172.755 187.66 171.848V173H185.932V161.8H187.66V166.136C188.322 165.24 189.255 164.792 190.46 164.792ZM188.38 170.84C188.86 171.32 189.463 171.56 190.188 171.56C190.914 171.56 191.516 171.32 191.996 170.84C192.476 170.349 192.716 169.736 192.716 169C192.716 168.264 192.476 167.656 191.996 167.176C191.516 166.685 190.914 166.44 190.188 166.44C189.463 166.44 188.86 166.685 188.38 167.176C187.9 167.656 187.66 168.264 187.66 169C187.66 169.725 187.9 170.339 188.38 170.84ZM197.419 165V166.344C197.856 165.352 198.677 164.856 199.883 164.856V166.728C199.232 166.685 198.656 166.845 198.155 167.208C197.664 167.56 197.419 168.147 197.419 168.968V173H195.691V165H197.419ZM206.8 166.136V165H208.528V173H206.8V171.848C206.15 172.755 205.216 173.208 204 173.208C202.902 173.208 201.963 172.803 201.184 171.992C200.406 171.181 200.016 170.184 200.016 169C200.016 167.816 200.406 166.819 201.184 166.008C201.963 165.197 202.902 164.792 204 164.792C205.216 164.792 206.15 165.24 206.8 166.136ZM202.464 170.84C202.944 171.32 203.547 171.56 204.272 171.56C204.998 171.56 205.6 171.32 206.08 170.84C206.56 170.349 206.8 169.736 206.8 169C206.8 168.264 206.56 167.656 206.08 167.176C205.6 166.685 204.998 166.44 204.272 166.44C203.547 166.44 202.944 166.685 202.464 167.176C201.984 167.656 201.744 168.264 201.744 169C201.744 169.725 201.984 170.339 202.464 170.84ZM214.43 164.792C215.358 164.792 216.1 165.091 216.654 165.688C217.22 166.275 217.502 167.075 217.502 168.088V173H215.774V168.264C215.774 167.667 215.614 167.208 215.294 166.888C214.974 166.568 214.537 166.408 213.982 166.408C213.353 166.408 212.857 166.605 212.494 167C212.132 167.384 211.95 167.955 211.95 168.712V173H210.222V165H211.95V166.024C212.484 165.203 213.31 164.792 214.43 164.792ZM222.819 173.208C221.614 173.208 220.606 172.803 219.795 171.992C218.995 171.171 218.595 170.173 218.595 169C218.595 167.805 218.995 166.808 219.795 166.008C220.606 165.197 221.614 164.792 222.819 164.792C223.598 164.792 224.307 164.979 224.947 165.352C225.587 165.725 226.067 166.227 226.387 166.856L224.899 167.72C224.718 167.336 224.44 167.037 224.067 166.824C223.704 166.6 223.283 166.488 222.803 166.488C222.099 166.488 221.507 166.728 221.027 167.208C220.558 167.699 220.323 168.296 220.323 169C220.323 169.704 220.558 170.301 221.027 170.792C221.507 171.272 222.099 171.512 222.803 171.512C223.272 171.512 223.694 171.405 224.067 171.192C224.451 170.968 224.739 170.664 224.931 170.28L226.419 171.128C226.078 171.768 225.582 172.275 224.931 172.648C224.291 173.021 223.587 173.208 222.819 173.208ZM231.556 164.792C232.484 164.792 233.225 165.091 233.78 165.688C234.345 166.275 234.628 167.075 234.628 168.088V173H232.9V168.264C232.9 167.667 232.74 167.208 232.42 166.888C232.1 166.568 231.663 166.408 231.108 166.408C230.479 166.408 229.983 166.605 229.62 167C229.257 167.384 229.076 167.955 229.076 168.712V173H227.348V161.8H229.076V166.024C229.609 165.203 230.436 164.792 231.556 164.792Z" fill="white"/>
<rect x="400" y="162" width="11" height="11" rx="5.5" fill="#DC46D6" stroke="#0F131A" stroke-width="3"/>
<rect x="83" y="195" width="323" height="39" rx="12" fill="#1E2229"/>
<path d="M105.139 204.5L105.004 204.956V218.18L105.139 218.314L111.277 214.685L105.139 204.5Z" fill="white"/>
<path d="M105.139 204.5L99 214.685L105.139 218.314L105.139 211.895L105.139 204.5Z" fill="white"/>
<path d="M105.139 219.476L105.063 219.568V224.279L105.139 224.5L111.281 215.85L105.139 219.476Z" fill="white"/>
<path d="M105.139 224.5V219.476L99 215.85L105.139 224.5Z" fill="white"/>
<path d="M105.139 218.314L111.277 214.685L105.139 211.895L105.139 218.314Z" fill="white"/>
<path d="M99 214.685L105.139 218.314L105.139 211.895L99 214.685Z" fill="white"/>
<path d="M125.96 215.216V218.24H130.92V220H124.12V208.8H130.84V210.56H125.96V213.472H130.44V215.216H125.96ZM136.636 212V213.664H134.652V217.504C134.652 217.835 134.727 218.075 134.876 218.224C135.026 218.363 135.244 218.443 135.532 218.464C135.831 218.475 136.199 218.469 136.636 218.448V220C135.314 220.16 134.364 220.048 133.788 219.664C133.212 219.269 132.924 218.549 132.924 217.504V213.664H131.452V212H132.924V210.272L134.652 209.76V212H136.636ZM142.092 211.792C143.02 211.792 143.761 212.091 144.316 212.688C144.881 213.275 145.164 214.075 145.164 215.088V220H143.436V215.264C143.436 214.667 143.276 214.208 142.956 213.888C142.636 213.568 142.198 213.408 141.644 213.408C141.014 213.408 140.518 213.605 140.156 214C139.793 214.384 139.612 214.955 139.612 215.712V220H137.884V208.8H139.612V213.024C140.145 212.203 140.972 211.792 142.092 211.792ZM154.432 216.736H148.064C148.192 217.333 148.48 217.797 148.928 218.128C149.387 218.459 149.952 218.624 150.624 218.624C151.531 218.624 152.219 218.293 152.688 217.632L154.112 218.464C153.334 219.627 152.166 220.208 150.608 220.208C149.318 220.208 148.267 219.813 147.456 219.024C146.656 218.224 146.256 217.216 146.256 216C146.256 214.816 146.651 213.819 147.44 213.008C148.219 212.197 149.232 211.792 150.48 211.792C151.643 211.792 152.603 212.203 153.36 213.024C154.118 213.845 154.496 214.843 154.496 216.016C154.496 216.229 154.475 216.469 154.432 216.736ZM148.048 215.328H152.752C152.635 214.699 152.368 214.213 151.952 213.872C151.547 213.531 151.051 213.36 150.464 213.36C149.824 213.36 149.291 213.536 148.864 213.888C148.438 214.24 148.166 214.72 148.048 215.328ZM157.425 212V213.344C157.862 212.352 158.683 211.856 159.889 211.856V213.728C159.238 213.685 158.662 213.845 158.161 214.208C157.67 214.56 157.425 215.147 157.425 215.968V220H155.697V212H157.425ZM168.199 216.736H161.831C161.959 217.333 162.247 217.797 162.695 218.128C163.153 218.459 163.719 218.624 164.391 218.624C165.297 218.624 165.985 218.293 166.455 217.632L167.879 218.464C167.1 219.627 165.932 220.208 164.375 220.208C163.084 220.208 162.033 219.813 161.223 219.024C160.423 218.224 160.023 217.216 160.023 216C160.023 214.816 160.417 213.819 161.207 213.008C161.985 212.197 162.999 211.792 164.247 211.792C165.409 211.792 166.369 212.203 167.127 213.024C167.884 213.845 168.263 214.843 168.263 216.016C168.263 216.229 168.241 216.469 168.199 216.736ZM161.815 215.328H166.519C166.401 214.699 166.135 214.213 165.719 213.872C165.313 213.531 164.817 213.36 164.231 213.36C163.591 213.36 163.057 213.536 162.631 213.888C162.204 214.24 161.932 214.72 161.815 215.328ZM174.855 216.288V212H176.583V220H174.855V218.976C174.322 219.797 173.495 220.208 172.375 220.208C171.447 220.208 170.7 219.915 170.135 219.328C169.58 218.731 169.303 217.925 169.303 216.912V212H171.031V216.736C171.031 217.333 171.191 217.792 171.511 218.112C171.831 218.432 172.268 218.592 172.823 218.592C173.452 218.592 173.948 218.4 174.311 218.016C174.674 217.621 174.855 217.045 174.855 216.288ZM187.02 211.792C187.926 211.792 188.657 212.085 189.212 212.672C189.766 213.259 190.044 214.048 190.044 215.04V220H188.316V215.152C188.316 214.608 188.177 214.181 187.9 213.872C187.622 213.563 187.244 213.408 186.764 213.408C186.22 213.408 185.793 213.589 185.484 213.952C185.174 214.304 185.02 214.827 185.02 215.52V220H183.292V215.152C183.292 214.597 183.158 214.171 182.892 213.872C182.636 213.563 182.268 213.408 181.788 213.408C181.254 213.408 180.822 213.589 180.492 213.952C180.172 214.315 180.012 214.837 180.012 215.52V220H178.284V212H180.012V212.96C180.524 212.181 181.286 211.792 182.3 211.792C183.324 211.792 184.081 212.213 184.572 213.056C185.094 212.213 185.91 211.792 187.02 211.792ZM200.661 220.208C198.976 220.208 197.578 219.653 196.469 218.544C195.36 217.413 194.805 216.032 194.805 214.4C194.805 212.757 195.36 211.381 196.469 210.272C197.568 209.152 198.965 208.592 200.661 208.592C201.674 208.592 202.608 208.832 203.461 209.312C204.325 209.792 204.997 210.443 205.477 211.264L203.877 212.192C203.578 211.637 203.141 211.2 202.565 210.88C202 210.549 201.365 210.384 200.661 210.384C199.477 210.384 198.506 210.763 197.749 211.52C197.013 212.267 196.645 213.227 196.645 214.4C196.645 215.573 197.013 216.533 197.749 217.28C198.506 218.037 199.477 218.416 200.661 218.416C201.365 218.416 202.005 218.256 202.581 217.936C203.157 217.605 203.589 217.163 203.877 216.608L205.477 217.52C205.018 218.331 204.352 218.987 203.477 219.488C202.634 219.968 201.696 220.208 200.661 220.208ZM213.326 218.992C212.515 219.803 211.518 220.208 210.334 220.208C209.15 220.208 208.153 219.803 207.342 218.992C206.521 218.171 206.11 217.173 206.11 216C206.11 214.827 206.521 213.829 207.342 213.008C208.153 212.197 209.15 211.792 210.334 211.792C211.518 211.792 212.515 212.197 213.326 213.008C214.147 213.829 214.558 214.827 214.558 216C214.558 217.173 214.147 218.171 213.326 218.992ZM207.838 216C207.838 216.725 208.078 217.328 208.558 217.808C209.038 218.288 209.63 218.528 210.334 218.528C211.038 218.528 211.63 218.288 212.11 217.808C212.59 217.328 212.83 216.725 212.83 216C212.83 215.275 212.59 214.672 212.11 214.192C211.63 213.712 211.038 213.472 210.334 213.472C209.63 213.472 209.038 213.712 208.558 214.192C208.078 214.672 207.838 215.275 207.838 216ZM220.009 211.792C220.937 211.792 221.678 212.091 222.233 212.688C222.798 213.275 223.081 214.075 223.081 215.088V220H221.353V215.264C221.353 214.667 221.193 214.208 220.873 213.888C220.553 213.568 220.115 213.408 219.561 213.408C218.931 213.408 218.435 213.605 218.073 214C217.71 214.384 217.529 214.955 217.529 215.712V220H215.801V212H217.529V213.024C218.062 212.203 218.889 211.792 220.009 211.792ZM228.829 211.792C229.757 211.792 230.498 212.091 231.053 212.688C231.618 213.275 231.901 214.075 231.901 215.088V220H230.173V215.264C230.173 214.667 230.013 214.208 229.693 213.888C229.373 213.568 228.936 213.408 228.381 213.408C227.752 213.408 227.256 213.605 226.893 214C226.53 214.384 226.349 214.955 226.349 215.712V220H224.621V212H226.349V213.024C226.882 212.203 227.709 211.792 228.829 211.792ZM241.17 216.736H234.802C234.93 217.333 235.218 217.797 235.666 218.128C236.124 218.459 236.69 218.624 237.362 218.624C238.268 218.624 238.956 218.293 239.426 217.632L240.85 218.464C240.071 219.627 238.903 220.208 237.346 220.208C236.055 220.208 235.004 219.813 234.194 219.024C233.394 218.224 232.994 217.216 232.994 216C232.994 214.816 233.388 213.819 234.178 213.008C234.956 212.197 235.97 211.792 237.218 211.792C238.38 211.792 239.34 212.203 240.098 213.024C240.855 213.845 241.234 214.843 241.234 216.016C241.234 216.229 241.212 216.469 241.17 216.736ZM234.786 215.328H239.49C239.372 214.699 239.106 214.213 238.69 213.872C238.284 213.531 237.788 213.36 237.202 213.36C236.562 213.36 236.028 213.536 235.602 213.888C235.175 214.24 234.903 214.72 234.786 215.328ZM246.163 220.208C244.958 220.208 243.95 219.803 243.139 218.992C242.339 218.171 241.939 217.173 241.939 216C241.939 214.805 242.339 213.808 243.139 213.008C243.95 212.197 244.958 211.792 246.163 211.792C246.942 211.792 247.651 211.979 248.291 212.352C248.931 212.725 249.411 213.227 249.731 213.856L248.243 214.72C248.062 214.336 247.785 214.037 247.411 213.824C247.049 213.6 246.627 213.488 246.147 213.488C245.443 213.488 244.851 213.728 244.371 214.208C243.902 214.699 243.667 215.296 243.667 216C243.667 216.704 243.902 217.301 244.371 217.792C244.851 218.272 245.443 218.512 246.147 218.512C246.617 218.512 247.038 218.405 247.411 218.192C247.795 217.968 248.083 217.664 248.275 217.28L249.763 218.128C249.422 218.768 248.926 219.275 248.275 219.648C247.635 220.021 246.931 220.208 246.163 220.208ZM255.156 212V213.664H253.172V217.504C253.172 217.835 253.247 218.075 253.396 218.224C253.546 218.363 253.764 218.443 254.052 218.464C254.351 218.475 254.719 218.469 255.156 218.448V220C253.834 220.16 252.884 220.048 252.308 219.664C251.732 219.269 251.444 218.549 251.444 217.504V213.664H249.972V212H251.444V210.272L253.172 209.76V212H255.156ZM262.844 218.992C262.033 219.803 261.036 220.208 259.852 220.208C258.668 220.208 257.67 219.803 256.86 218.992C256.038 218.171 255.628 217.173 255.628 216C255.628 214.827 256.038 213.829 256.86 213.008C257.67 212.197 258.668 211.792 259.852 211.792C261.036 211.792 262.033 212.197 262.844 213.008C263.665 213.829 264.076 214.827 264.076 216C264.076 217.173 263.665 218.171 262.844 218.992ZM257.356 216C257.356 216.725 257.596 217.328 258.076 217.808C258.556 218.288 259.148 218.528 259.852 218.528C260.556 218.528 261.148 218.288 261.628 217.808C262.108 217.328 262.348 216.725 262.348 216C262.348 215.275 262.108 214.672 261.628 214.192C261.148 213.712 260.556 213.472 259.852 213.472C259.148 213.472 258.556 213.712 258.076 214.192C257.596 214.672 257.356 215.275 257.356 216ZM267.046 212V213.344C267.483 212.352 268.305 211.856 269.51 211.856V213.728C268.859 213.685 268.283 213.845 267.782 214.208C267.291 214.56 267.046 215.147 267.046 215.968V220H265.318V212H267.046Z" fill="white"/>
<rect x="400" y="209" width="11" height="11" rx="5.5" fill="#46DCDC" stroke="#0F131A" stroke-width="3"/>
<rect x="83" y="242" width="323" height="39" rx="12" fill="#1E2229"/>
<path d="M105.139 251.5L105.004 251.956V265.18L105.139 265.314L111.277 261.685L105.139 251.5Z" fill="white"/>
<path d="M105.139 251.5L99 261.685L105.139 265.314L105.139 258.895L105.139 251.5Z" fill="white"/>
<path d="M105.139 266.476L105.063 266.568V271.279L105.139 271.5L111.281 262.85L105.139 266.476Z" fill="white"/>
<path d="M105.139 271.5V266.476L99 262.85L105.139 271.5Z" fill="white"/>
<path d="M105.139 265.314L111.277 261.685L105.139 258.895L105.139 265.314Z" fill="white"/>
<path d="M99 261.685L105.139 265.314L105.139 258.895L99 261.685Z" fill="white"/>
<path d="M133.48 265.528C132.36 266.648 130.989 267.208 129.368 267.208C127.747 267.208 126.371 266.648 125.24 265.528C124.12 264.397 123.56 263.021 123.56 261.4C123.56 259.779 124.12 258.408 125.24 257.288C126.371 256.157 127.747 255.592 129.368 255.592C130.989 255.592 132.36 256.157 133.48 257.288C134.611 258.408 135.176 259.779 135.176 261.4C135.176 263.021 134.611 264.397 133.48 265.528ZM126.536 264.28C127.315 265.037 128.259 265.416 129.368 265.416C130.488 265.416 131.427 265.037 132.184 264.28C132.952 263.512 133.336 262.552 133.336 261.4C133.336 260.248 132.952 259.293 132.184 258.536C131.427 257.768 130.488 257.384 129.368 257.384C128.248 257.384 127.304 257.768 126.536 258.536C125.779 259.293 125.4 260.248 125.4 261.4C125.4 262.541 125.779 263.501 126.536 264.28ZM140.63 258.792C141.558 258.792 142.3 259.091 142.854 259.688C143.42 260.275 143.702 261.075 143.702 262.088V267H141.974V262.264C141.974 261.667 141.814 261.208 141.494 260.888C141.174 260.568 140.737 260.408 140.182 260.408C139.553 260.408 139.057 260.605 138.694 261C138.332 261.384 138.15 261.955 138.15 262.712V267H136.422V259H138.15V260.024C138.684 259.203 139.51 258.792 140.63 258.792ZM150.875 262.216V265.24H155.835V267H149.035V255.8H155.755V257.56H150.875V260.472H155.355V262.216H150.875ZM161.551 259V260.664H159.567V264.504C159.567 264.835 159.642 265.075 159.791 265.224C159.941 265.363 160.159 265.443 160.447 265.464C160.746 265.475 161.114 265.469 161.551 265.448V267C160.229 267.16 159.279 267.048 158.703 266.664C158.127 266.269 157.839 265.549 157.839 264.504V260.664H156.367V259H157.839V257.272L159.567 256.76V259H161.551ZM167.007 258.792C167.935 258.792 168.676 259.091 169.231 259.688C169.796 260.275 170.079 261.075 170.079 262.088V267H168.351V262.264C168.351 261.667 168.191 261.208 167.871 260.888C167.551 260.568 167.113 260.408 166.559 260.408C165.929 260.408 165.433 260.605 165.071 261C164.708 261.384 164.527 261.955 164.527 262.712V267H162.799V255.8H164.527V260.024C165.06 259.203 165.887 258.792 167.007 258.792ZM179.347 263.736H172.979C173.107 264.333 173.395 264.797 173.843 265.128C174.302 265.459 174.867 265.624 175.539 265.624C176.446 265.624 177.134 265.293 177.603 264.632L179.027 265.464C178.249 266.627 177.081 267.208 175.523 267.208C174.233 267.208 173.182 266.813 172.371 266.024C171.571 265.224 171.171 264.216 171.171 263C171.171 261.816 171.566 260.819 172.355 260.008C173.134 259.197 174.147 258.792 175.395 258.792C176.558 258.792 177.518 259.203 178.275 260.024C179.033 260.845 179.411 261.843 179.411 263.016C179.411 263.229 179.39 263.469 179.347 263.736ZM172.963 262.328H177.667C177.55 261.699 177.283 261.213 176.867 260.872C176.462 260.531 175.966 260.36 175.379 260.36C174.739 260.36 174.206 260.536 173.779 260.888C173.353 261.24 173.081 261.72 172.963 262.328ZM182.34 259V260.344C182.777 259.352 183.598 258.856 184.804 258.856V260.728C184.153 260.685 183.577 260.845 183.076 261.208C182.585 261.56 182.34 262.147 182.34 262.968V267H180.612V259H182.34ZM193.113 263.736H186.745C186.873 264.333 187.161 264.797 187.609 265.128C188.068 265.459 188.633 265.624 189.305 265.624C190.212 265.624 190.9 265.293 191.369 264.632L192.793 265.464C192.015 266.627 190.847 267.208 189.289 267.208C187.999 267.208 186.948 266.813 186.137 266.024C185.337 265.224 184.937 264.216 184.937 263C184.937 261.816 185.332 260.819 186.121 260.008C186.9 259.197 187.913 258.792 189.161 258.792C190.324 258.792 191.284 259.203 192.041 260.024C192.799 260.845 193.177 261.843 193.177 263.016C193.177 263.229 193.156 263.469 193.113 263.736ZM186.729 262.328H191.433C191.316 261.699 191.049 261.213 190.633 260.872C190.228 260.531 189.732 260.36 189.145 260.36C188.505 260.36 187.972 260.536 187.545 260.888C187.119 261.24 186.847 261.72 186.729 262.328ZM199.77 263.288V259H201.498V267H199.77V265.976C199.237 266.797 198.41 267.208 197.29 267.208C196.362 267.208 195.615 266.915 195.05 266.328C194.495 265.731 194.218 264.925 194.218 263.912V259H195.946V263.736C195.946 264.333 196.106 264.792 196.426 265.112C196.746 265.432 197.183 265.592 197.738 265.592C198.367 265.592 198.863 265.4 199.226 265.016C199.589 264.621 199.77 264.045 199.77 263.288ZM211.935 258.792C212.841 258.792 213.572 259.085 214.127 259.672C214.681 260.259 214.959 261.048 214.959 262.04V267H213.231V262.152C213.231 261.608 213.092 261.181 212.815 260.872C212.537 260.563 212.159 260.408 211.679 260.408C211.135 260.408 210.708 260.589 210.399 260.952C210.089 261.304 209.935 261.827 209.935 262.52V267H208.207V262.152C208.207 261.597 208.073 261.171 207.807 260.872C207.551 260.563 207.183 260.408 206.703 260.408C206.169 260.408 205.737 260.589 205.407 260.952C205.087 261.315 204.927 261.837 204.927 262.52V267H203.199V259H204.927V259.96C205.439 259.181 206.201 258.792 207.215 258.792C208.239 258.792 208.996 259.213 209.487 260.056C210.009 259.213 210.825 258.792 211.935 258.792ZM224.776 267H222.648L219.48 255.8H221.416L223.768 264.552L226.312 255.8H228.008L230.536 264.552L232.888 255.8H234.824L231.656 267H229.528L227.16 258.824L224.776 267ZM241.215 260.136V259H242.943V267H241.215V265.848C240.565 266.755 239.631 267.208 238.415 267.208C237.317 267.208 236.378 266.803 235.599 265.992C234.821 265.181 234.431 264.184 234.431 263C234.431 261.816 234.821 260.819 235.599 260.008C236.378 259.197 237.317 258.792 238.415 258.792C239.631 258.792 240.565 259.24 241.215 260.136ZM236.879 264.84C237.359 265.32 237.962 265.56 238.687 265.56C239.413 265.56 240.015 265.32 240.495 264.84C240.975 264.349 241.215 263.736 241.215 263C241.215 262.264 240.975 261.656 240.495 261.176C240.015 260.685 239.413 260.44 238.687 260.44C237.962 260.44 237.359 260.685 236.879 261.176C236.399 261.656 236.159 262.264 236.159 263C236.159 263.725 236.399 264.339 236.879 264.84ZM246.365 267H244.637V255.32H246.365V267ZM249.78 267H248.052V255.32H249.78V267ZM259.194 263.736H252.826C252.954 264.333 253.242 264.797 253.69 265.128C254.149 265.459 254.714 265.624 255.386 265.624C256.293 265.624 256.981 265.293 257.45 264.632L258.874 265.464C258.095 266.627 256.927 267.208 255.37 267.208C254.079 267.208 253.029 266.813 252.218 266.024C251.418 265.224 251.018 264.216 251.018 263C251.018 261.816 251.413 260.819 252.202 260.008C252.981 259.197 253.994 258.792 255.242 258.792C256.405 258.792 257.365 259.203 258.122 260.024C258.879 260.845 259.258 261.843 259.258 263.016C259.258 263.229 259.237 263.469 259.194 263.736ZM252.81 262.328H257.514C257.397 261.699 257.13 261.213 256.714 260.872C256.309 260.531 255.813 260.36 255.226 260.36C254.586 260.36 254.053 260.536 253.626 260.888C253.199 261.24 252.927 261.72 252.81 262.328ZM264.673 259V260.664H262.689V264.504C262.689 264.835 262.763 265.075 262.913 265.224C263.062 265.363 263.281 265.443 263.569 265.464C263.867 265.475 264.235 265.469 264.673 265.448V267C263.35 267.16 262.401 267.048 261.825 266.664C261.249 266.269 260.961 265.549 260.961 264.504V260.664H259.489V259H260.961V257.272L262.689 256.76V259H264.673ZM268.91 255.8H277.07V257.56H273.918V267H272.078V257.56H268.91V255.8ZM278.68 259V260.344C279.117 259.352 279.938 258.856 281.144 258.856V260.728C280.493 260.685 279.917 260.845 279.416 261.208C278.925 261.56 278.68 262.147 278.68 262.968V267H276.952V259H278.68ZM288.061 260.136V259H289.789V267H288.061V265.848C287.411 266.755 286.477 267.208 285.261 267.208C284.163 267.208 283.224 266.803 282.445 265.992C281.667 265.181 281.277 264.184 281.277 263C281.277 261.816 281.667 260.819 282.445 260.008C283.224 259.197 284.163 258.792 285.261 258.792C286.477 258.792 287.411 259.24 288.061 260.136ZM283.725 264.84C284.205 265.32 284.808 265.56 285.533 265.56C286.259 265.56 286.861 265.32 287.341 264.84C287.821 264.349 288.061 263.736 288.061 263C288.061 262.264 287.821 261.656 287.341 261.176C286.861 260.685 286.259 260.44 285.533 260.44C284.808 260.44 284.205 260.685 283.725 261.176C283.245 261.656 283.005 262.264 283.005 263C283.005 263.725 283.245 264.339 283.725 264.84ZM295.692 258.792C296.62 258.792 297.361 259.091 297.916 259.688C298.481 260.275 298.764 261.075 298.764 262.088V267H297.036V262.264C297.036 261.667 296.876 261.208 296.556 260.888C296.236 260.568 295.798 260.408 295.244 260.408C294.614 260.408 294.118 260.605 293.756 261C293.393 261.384 293.212 261.955 293.212 262.712V267H291.484V259H293.212V260.024C293.745 259.203 294.572 258.792 295.692 258.792ZM301.856 261.208C301.856 261.453 301.984 261.656 302.24 261.816C302.496 261.965 302.87 262.109 303.36 262.248C303.734 262.333 304.059 262.424 304.336 262.52C304.614 262.616 304.907 262.76 305.216 262.952C305.526 263.133 305.76 263.379 305.92 263.688C306.091 263.987 306.171 264.339 306.16 264.744C306.16 265.512 305.862 266.115 305.264 266.552C304.667 266.989 303.926 267.208 303.04 267.208C302.251 267.208 301.574 267.043 301.008 266.712C300.443 266.381 300.032 265.923 299.776 265.336L301.264 264.472C301.531 265.24 302.123 265.624 303.04 265.624C303.947 265.624 304.4 265.325 304.4 264.728C304.4 264.291 303.894 263.949 302.88 263.704C302.496 263.608 302.171 263.512 301.904 263.416C301.648 263.32 301.36 263.181 301.04 263C300.731 262.819 300.491 262.579 300.32 262.28C300.16 261.981 300.086 261.635 300.096 261.24C300.096 260.504 300.374 259.912 300.928 259.464C301.494 259.016 302.192 258.792 303.024 258.792C303.686 258.792 304.272 258.941 304.784 259.24C305.307 259.528 305.707 259.933 305.984 260.456L304.528 261.272C304.262 260.664 303.76 260.36 303.024 260.36C302.683 260.36 302.4 260.435 302.176 260.584C301.963 260.733 301.856 260.941 301.856 261.208ZM313.492 260.136V259H315.22V267H313.492V265.848C312.841 266.755 311.908 267.208 310.692 267.208C309.593 267.208 308.655 266.803 307.876 265.992C307.097 265.181 306.708 264.184 306.708 263C306.708 261.816 307.097 260.819 307.876 260.008C308.655 259.197 309.593 258.792 310.692 258.792C311.908 258.792 312.841 259.24 313.492 260.136ZM309.156 264.84C309.636 265.32 310.239 265.56 310.964 265.56C311.689 265.56 312.292 265.32 312.772 264.84C313.252 264.349 313.492 263.736 313.492 263C313.492 262.264 313.252 261.656 312.772 261.176C312.292 260.685 311.689 260.44 310.964 260.44C310.239 260.44 309.636 260.685 309.156 261.176C308.676 261.656 308.436 262.264 308.436 263C308.436 263.725 308.676 264.339 309.156 264.84ZM320.69 267.208C319.485 267.208 318.477 266.803 317.666 265.992C316.866 265.171 316.466 264.173 316.466 263C316.466 261.805 316.866 260.808 317.666 260.008C318.477 259.197 319.485 258.792 320.69 258.792C321.469 258.792 322.178 258.979 322.818 259.352C323.458 259.725 323.938 260.227 324.258 260.856L322.77 261.72C322.589 261.336 322.312 261.037 321.938 260.824C321.576 260.6 321.154 260.488 320.674 260.488C319.97 260.488 319.378 260.728 318.898 261.208C318.429 261.699 318.194 262.296 318.194 263C318.194 263.704 318.429 264.301 318.898 264.792C319.378 265.272 319.97 265.512 320.674 265.512C321.144 265.512 321.565 265.405 321.938 265.192C322.322 264.968 322.61 264.664 322.802 264.28L324.29 265.128C323.949 265.768 323.453 266.275 322.802 266.648C322.162 267.021 321.458 267.208 320.69 267.208ZM329.683 259V260.664H327.699V264.504C327.699 264.835 327.774 265.075 327.923 265.224C328.073 265.363 328.291 265.443 328.579 265.464C328.878 265.475 329.246 265.469 329.683 265.448V267C328.361 267.16 327.411 267.048 326.835 266.664C326.259 266.269 325.971 265.549 325.971 264.504V260.664H324.499V259H325.971V257.272L327.699 256.76V259H329.683ZM332.563 257.48C332.349 257.693 332.093 257.8 331.795 257.8C331.496 257.8 331.235 257.693 331.011 257.48C330.797 257.256 330.691 256.995 330.691 256.696C330.691 256.397 330.797 256.141 331.011 255.928C331.224 255.704 331.485 255.592 331.795 255.592C332.104 255.592 332.365 255.704 332.579 255.928C332.792 256.141 332.899 256.397 332.899 256.696C332.899 256.995 332.787 257.256 332.563 257.48ZM332.659 267H330.931V259H332.659V267ZM341.113 265.992C340.302 266.803 339.305 267.208 338.121 267.208C336.937 267.208 335.94 266.803 335.129 265.992C334.308 265.171 333.897 264.173 333.897 263C333.897 261.827 334.308 260.829 335.129 260.008C335.94 259.197 336.937 258.792 338.121 258.792C339.305 258.792 340.302 259.197 341.113 260.008C341.934 260.829 342.345 261.827 342.345 263C342.345 264.173 341.934 265.171 341.113 265.992ZM335.625 263C335.625 263.725 335.865 264.328 336.345 264.808C336.825 265.288 337.417 265.528 338.121 265.528C338.825 265.528 339.417 265.288 339.897 264.808C340.377 264.328 340.617 263.725 340.617 263C340.617 262.275 340.377 261.672 339.897 261.192C339.417 260.712 338.825 260.472 338.121 260.472C337.417 260.472 336.825 260.712 336.345 261.192C335.865 261.672 335.625 262.275 335.625 263ZM347.795 258.792C348.723 258.792 349.465 259.091 350.019 259.688C350.585 260.275 350.867 261.075 350.867 262.088V267H349.139V262.264C349.139 261.667 348.979 261.208 348.659 260.888C348.339 260.568 347.902 260.408 347.347 260.408C346.718 260.408 346.222 260.605 345.859 261C345.497 261.384 345.315 261.955 345.315 262.712V267H343.587V259H345.315V260.024C345.849 259.203 346.675 258.792 347.795 258.792Z" fill="white"/>
<rect x="400" y="256" width="11" height="11" rx="5.5" fill="#FCC537" stroke="#0F131A" stroke-width="3"/>
<rect x="83" y="289" width="323" height="39" rx="12" fill="#1E2229"/>
<path fill-rule="evenodd" clip-rule="evenodd" d="M99.7732 299.986C100.863 299.542 102.241 299.542 104.997 299.542C107.754 299.542 109.132 299.542 110.222 299.986C111.716 300.595 112.902 301.781 113.511 303.276C113.956 304.365 113.956 305.743 113.956 308.5C113.956 311.256 113.956 312.635 113.511 313.724C112.902 315.219 111.716 316.405 110.222 317.014C109.132 317.458 107.754 317.458 104.997 317.458C102.241 317.458 100.863 317.458 99.7732 317.014C98.2787 316.405 97.0928 315.219 96.4833 313.724C96.0391 312.635 96.0391 311.256 96.0391 308.5C96.0391 305.743 96.0391 304.365 96.4833 303.276C97.0929 301.781 98.2788 300.595 99.7732 299.986ZM104.494 304.408C104.535 303.996 104.234 303.628 103.822 303.587C103.41 303.546 103.042 303.847 103.001 304.259L102.819 306.083H101.352C100.937 306.083 100.602 306.419 100.602 306.833C100.602 307.248 100.937 307.583 101.352 307.583H102.669L102.485 309.417H100.831C100.417 309.417 100.081 309.752 100.081 310.167C100.081 310.581 100.417 310.917 100.831 310.917H102.335L102.168 312.592C102.127 313.004 102.427 313.372 102.839 313.413C103.252 313.454 103.619 313.153 103.66 312.741L103.843 310.917H105.669L105.501 312.592C105.46 313.004 105.761 313.372 106.173 313.413C106.585 313.454 106.952 313.153 106.994 312.741L107.176 310.917H108.643C109.057 310.917 109.393 310.581 109.393 310.167C109.393 309.752 109.057 309.417 108.643 309.417H107.326L107.509 307.583H109.164C109.578 307.583 109.914 307.248 109.914 306.833C109.914 306.419 109.578 306.083 109.164 306.083H107.659L107.827 304.408C107.868 303.996 107.568 303.628 107.155 303.587C106.743 303.546 106.376 303.847 106.334 304.259L106.152 306.083H104.326L104.494 304.408ZM103.993 309.417L104.176 307.583H106.002L105.819 309.417H103.993Z" fill="white"/>
<path d="M690 97H652.426C651.321 97 650.426 96.1046 650.426 95V-18.5C650.426 -19.6046 649.53 -20.5 648.426 -20.5H413.5" stroke="#46DC82" stroke-width="2" stroke-linecap="round" stroke-linejoin="bevel"/>
<path d="M690 97H655.742C654.638 97 653.742 96.1046 653.742 95V28.5C653.742 27.3954 652.847 26.5 651.742 26.5H413.5" stroke="#FCC537" stroke-width="2" stroke-linecap="round" stroke-linejoin="bevel"/>
<path d="M690 144H652.539C651.434 144 650.539 143.105 650.539 142V75.5C650.539 74.3954 649.644 73.5 648.539 73.5H413.5" stroke="#46DCDC" stroke-width="2" stroke-linecap="round" stroke-linejoin="bevel"/>
<path d="M690 144H649.352C648.247 144 647.352 143.105 647.352 142V122.5C647.352 121.395 646.456 120.5 645.352 120.5H413.5" stroke="#4682DC" stroke-width="2" stroke-linecap="round" stroke-linejoin="bevel"/>
<path d="M690 191H649.352C648.247 191 647.352 190.105 647.352 189V169.5C647.352 168.395 646.456 167.5 645.352 167.5H413.5" stroke="#DC46D6" stroke-width="2" stroke-linecap="round" stroke-linejoin="bevel"/>
<path d="M690 191H649.359C648.255 191 647.359 191.895 647.359 193V212.5C647.359 213.605 646.464 214.5 645.359 214.5H413.5" stroke="#46DCDC" stroke-width="2" stroke-linecap="round" stroke-linejoin="bevel"/>
<path d="M690 238H649.426C648.321 238 647.426 238.895 647.426 240V259.5C647.426 260.605 646.53 261.5 645.426 261.5H413.5" stroke="#FCC537" stroke-width="2" stroke-linecap="round" stroke-linejoin="bevel"/>
<path d="M690 238H652.297C651.192 238 650.297 238.895 650.297 240V306.5C650.297 307.605 649.401 308.5 648.297 308.5H413.5" stroke="#DC46D6" stroke-width="2" stroke-linecap="round" stroke-linejoin="bevel"/>
<path d="M690 285H655.883C654.778 285 653.883 285.895 653.883 287V353.5C653.883 354.605 652.987 355.5 651.883 355.5H413.5" stroke="#4682DC" stroke-width="2" stroke-linecap="round" stroke-linejoin="bevel"/>
<path d="M690 285H656.133C655.028 285 654.133 285.895 654.133 287V400.5C654.133 401.605 653.237 402.5 652.133 402.5H413.5" stroke="#4682DC" stroke-width="2" stroke-linecap="round" stroke-linejoin="bevel"/>
<rect width="519.5" height="80" fill="url(#paint0_linear_5280_10476)"/>
<rect width="519.5" height="80" transform="matrix(1 0 0 -1 0 300)" fill="url(#paint1_linear_5280_10476)"/>
<path d="M1.31134e-05 300L0 3.49691e-06L80 0L80 300H1.31134e-05Z" fill="url(#paint2_linear_5280_10476)"/>
<path d="M520 300L520 3.49691e-06L440 0L440 300H520Z" fill="url(#paint3_linear_5280_10476)"/>
</g>
<defs>
<linearGradient id="paint0_linear_5280_10476" x1="259.75" y1="0" x2="259.75" y2="80" gradientUnits="userSpaceOnUse">
<stop stop-color="#0E1219"/>
<stop offset="1" stop-color="#0E1219" stop-opacity="0"/>
</linearGradient>
<linearGradient id="paint1_linear_5280_10476" x1="259.75" y1="0" x2="259.75" y2="80" gradientUnits="userSpaceOnUse">
<stop stop-color="#0E1219"/>
<stop offset="1" stop-color="#0E1219" stop-opacity="0"/>
</linearGradient>
<linearGradient id="paint2_linear_5280_10476" x1="1.19209e-06" y1="150" x2="80" y2="150" gradientUnits="userSpaceOnUse">
<stop stop-color="#0E1219"/>
<stop offset="1" stop-color="#0E1219" stop-opacity="0"/>
</linearGradient>
<linearGradient id="paint3_linear_5280_10476" x1="520" y1="150" x2="440" y2="150" gradientUnits="userSpaceOnUse">
<stop stop-color="#0E1219"/>
<stop offset="1" stop-color="#0E1219" stop-opacity="0"/>
</linearGradient>
<clipPath id="clip0_5280_10476">
<rect width="520" height="300" fill="white"/>
</clipPath>
</defs>
</svg>
