<svg width="268" height="155" viewBox="0 0 268 155" fill="none" xmlns="http://www.w3.org/2000/svg">
<rect y="0.792969" width="281" height="36.2894" rx="7.16596" fill="#19141F"/>
<g opacity="0.45" filter="url(#filter0_f_5279_4895)">
<path d="M22.516 22.4375H20.8699L20.2194 20.5656H16.2632L15.6127 22.4375H13.9533L17.3253 13.1446H19.1573L22.516 22.4375ZM18.2413 14.9368L16.7677 19.1319H19.7149L18.2413 14.9368ZM23.2959 19.3576V13.1446H24.8226V19.2646C24.8226 19.8399 24.9907 20.2957 25.327 20.632C25.6722 20.9595 26.1678 21.1232 26.8139 21.1232C27.46 21.1232 27.9512 20.9595 28.2875 20.632C28.6327 20.2957 28.8053 19.8399 28.8053 19.2646V13.1446H30.3319V19.3576C30.3319 20.34 30.0045 21.1321 29.3496 21.7339C28.7035 22.318 27.8583 22.6101 26.8139 22.6101C25.7696 22.6101 24.9244 22.318 24.2783 21.7339C23.6233 21.1321 23.2959 20.34 23.2959 19.3576ZM35.3139 22.6101C34.42 22.6101 33.6589 22.4109 33.0305 22.0127C32.411 21.6056 31.9773 21.0436 31.7295 20.3267L33.0438 19.5567C33.4155 20.601 34.1855 21.1232 35.3537 21.1232C35.9202 21.1232 36.3494 21.0126 36.6415 20.7913C36.9335 20.5701 37.0796 20.2736 37.0796 19.9019C37.0796 19.5301 36.9247 19.2425 36.6149 19.0389C36.3052 18.8354 35.7564 18.6141 34.9688 18.3752C34.1634 18.1362 33.5129 17.853 33.0172 17.5255C32.4154 17.1007 32.1145 16.4768 32.1145 15.6537C32.1145 14.8306 32.4066 14.1801 32.9907 13.7022C33.566 13.2154 34.2696 12.972 35.1015 12.972C35.8361 12.972 36.4822 13.1534 37.0397 13.5163C37.6062 13.8703 38.0398 14.3704 38.3408 15.0164L37.053 15.7599C36.6636 14.8925 36.0131 14.4589 35.1015 14.4589C34.659 14.4589 34.305 14.5651 34.0395 14.7775C33.774 14.981 33.6412 15.2598 33.6412 15.6138C33.6412 15.959 33.774 16.2334 34.0395 16.4369C34.305 16.6316 34.7962 16.8396 35.5131 17.0609C35.9556 17.2113 36.2122 17.2998 36.283 17.3264C36.3981 17.3618 36.6282 17.4503 36.9734 17.5919C37.2566 17.707 37.4823 17.8309 37.6504 17.9636C38.3408 18.5035 38.6594 19.1407 38.6063 19.8753C38.6063 20.7161 38.3009 21.3843 37.6903 21.8799C37.0973 22.3667 36.3052 22.6101 35.3139 22.6101ZM38.9871 13.1446H45.7577V14.6049H43.1424V22.4375H41.6157V14.6049H38.9871V13.1446ZM53.989 22.4375H52.3163L50.3515 19.0522H48.5461V22.4375H47.0194V13.1446H50.7365C51.5685 13.1446 52.2721 13.4366 52.8473 14.0208C53.4315 14.5872 53.7235 15.2908 53.7235 16.1316C53.7235 16.7246 53.551 17.2689 53.2058 17.7645C52.8695 18.2513 52.427 18.6053 51.8782 18.8265L53.989 22.4375ZM50.7365 14.5784H48.5461V17.6848H50.7365C51.1436 17.6848 51.4888 17.5344 51.772 17.2335C52.0552 16.9326 52.1968 16.5653 52.1968 16.1316C52.1968 15.6979 52.0552 15.3306 51.772 15.0297C51.4888 14.7288 51.1436 14.5784 50.7365 14.5784ZM62.9936 22.4375H61.3475L60.697 20.5656H56.7408L56.0903 22.4375H54.4309L57.8029 13.1446H59.6349L62.9936 22.4375ZM58.7189 14.9368L57.2453 19.1319H60.1925L58.7189 14.9368ZM65.6524 13.1446V20.9772H69.4359V22.4375H64.1257V13.1446H65.6524ZM70.7018 22.4375V13.1446H72.2285V22.4375H70.7018ZM81.9181 22.4375H80.2719L79.6214 20.5656H75.6653L75.0148 22.4375H73.3553L76.7273 13.1446H78.5594L81.9181 22.4375ZM77.6433 14.9368L76.1698 19.1319H79.1169L77.6433 14.9368Z" fill="white"/>
</g>
<rect y="40.6655" width="246.705" height="36.2894" rx="7.16596" fill="#231E29"/>
<g opacity="0.45" filter="url(#filter1_f_5279_4895)">
<path d="M17.9073 62.4826C17.0134 62.4826 16.2523 62.2835 15.6239 61.8852C15.0043 61.4781 14.5707 60.9161 14.3229 60.1992L15.6371 59.4293C16.0089 60.4736 16.7789 60.9958 17.9471 60.9958C18.5135 60.9958 18.9428 60.8851 19.2348 60.6639C19.5269 60.4426 19.6729 60.1461 19.6729 59.7744C19.6729 59.4027 19.518 59.1151 19.2083 58.9115C18.8985 58.7079 18.3498 58.4867 17.5621 58.2477C16.7567 58.0088 16.1062 57.7256 15.6106 57.3981C15.0088 56.9733 14.7079 56.3493 14.7079 55.5262C14.7079 54.7031 14.9999 54.0526 15.584 53.5747C16.1593 53.0879 16.8629 52.8446 17.6949 52.8446C18.4294 52.8446 19.0755 53.026 19.6331 53.3889C20.1995 53.7429 20.6332 54.2429 20.9341 54.889L19.6464 55.6324C19.257 54.7651 18.6065 54.3314 17.6949 54.3314C17.2523 54.3314 16.8983 54.4376 16.6328 54.65C16.3673 54.8536 16.2346 55.1324 16.2346 55.4864C16.2346 55.8316 16.3673 56.1059 16.6328 56.3095C16.8983 56.5042 17.3895 56.7122 18.1064 56.9334C18.5489 57.0839 18.8056 57.1724 18.8764 57.199C18.9914 57.2344 19.2216 57.3229 19.5667 57.4645C19.8499 57.5795 20.0756 57.7034 20.2438 57.8362C20.9341 58.3761 21.2527 59.0133 21.1996 59.7479C21.1996 60.5887 20.8943 61.2569 20.2836 61.7525C19.6906 62.2393 18.8985 62.4826 17.9073 62.4826ZM22.5677 59.2301V53.0171H24.0944V59.1372C24.0944 59.7125 24.2626 60.1683 24.5989 60.5046C24.9441 60.832 25.4397 60.9958 26.0858 60.9958C26.7318 60.9958 27.223 60.832 27.5594 60.5046C27.9045 60.1683 28.0771 59.7125 28.0771 59.1372V53.0171H29.6038V59.2301C29.6038 60.2125 29.2763 61.0046 28.6214 61.6065C27.9753 62.1906 27.1301 62.4826 26.0858 62.4826C25.0414 62.4826 24.1962 62.1906 23.5501 61.6065C22.8952 61.0046 22.5677 60.2125 22.5677 59.2301ZM31.4926 62.3101V53.0171H33.0193V62.3101H31.4926ZM40.6512 54.2783L36.4826 60.8497H40.7574V62.3101H34.5842V61.0489L38.7528 54.4775H34.6771V53.0171H40.6512V54.2783ZM49.9202 62.3101H48.274L47.6235 60.4382H43.6674L43.0169 62.3101H41.3575L44.7295 53.0171H46.5615L49.9202 62.3101ZM45.6455 54.8094L44.1719 59.0044H47.1191L45.6455 54.8094Z" fill="white"/>
</g>
<rect y="80.5376" width="219.047" height="36.2894" rx="7.16596" fill="#2D2833"/>
<g opacity="0.45" filter="url(#filter2_f_5279_4895)">
<path d="M14.7446 92.8892H18.1697C19.0459 92.8892 19.7761 93.1813 20.3602 93.7654C20.9532 94.3495 21.2497 95.0753 21.2497 95.9426C21.2497 96.8011 20.9532 97.5268 20.3602 98.1198C19.7761 98.7039 19.0459 98.996 18.1697 98.996H16.2713V102.182H14.7446V92.8892ZM16.2713 97.5622H18.1697C18.6211 97.5622 18.9928 97.4118 19.2849 97.1109C19.577 96.8011 19.723 96.4117 19.723 95.9426C19.723 95.4735 19.577 95.0885 19.2849 94.7876C18.9928 94.4779 18.6211 94.323 18.1697 94.323H16.2713V97.5622ZM29.4743 102.182H27.8281L27.1776 100.31H23.2215L22.571 102.182H20.9116L24.2836 92.8892H26.1156L29.4743 102.182ZM25.1996 94.6814L23.726 98.8765H26.6732L25.1996 94.6814ZM30.4471 92.0263H31.8277L33.2349 90.2341H31.5091L30.4471 92.0263ZM30.6064 92.8892H32.1331V102.182H30.6064V92.8892ZM37.0864 102.355C36.1925 102.355 35.4314 102.156 34.803 101.757C34.1835 101.35 33.7498 100.788 33.502 100.071L34.8163 99.3013C35.188 100.346 35.958 100.868 37.1262 100.868C37.6927 100.868 38.1219 100.757 38.414 100.536C38.706 100.315 38.8521 100.018 38.8521 99.6465C38.8521 99.2748 38.6972 98.9871 38.3874 98.7836C38.0777 98.58 37.5289 98.3588 36.7413 98.1198C35.9359 97.8808 35.2854 97.5976 34.7897 97.2702C34.1879 96.8453 33.887 96.2214 33.887 95.3983C33.887 94.5752 34.1791 93.9247 34.7632 93.4468C35.3385 92.96 36.0421 92.7166 36.874 92.7166C37.6086 92.7166 38.2547 92.8981 38.8122 93.2609C39.3787 93.6149 39.8123 94.115 40.1133 94.7611L38.8255 95.5045C38.4361 94.6372 37.7856 94.2035 36.874 94.2035C36.4315 94.2035 36.0775 94.3097 35.812 94.5221C35.5465 94.7257 35.4137 95.0045 35.4137 95.3585C35.4137 95.7036 35.5465 95.978 35.812 96.1816C36.0775 96.3763 36.5687 96.5843 37.2856 96.8055C37.7281 96.956 37.9847 97.0445 38.0555 97.071C38.1706 97.1064 38.4007 97.1949 38.7459 97.3365C39.0291 97.4516 39.2548 97.5755 39.4229 97.7083C40.1133 98.2481 40.4319 98.8854 40.3788 99.6199C40.3788 100.461 40.0734 101.129 39.4628 101.625C38.8698 102.111 38.0777 102.355 37.0864 102.355ZM43.2887 98.2127V100.722H47.4041V102.182H41.762V92.8892H47.3378V94.3495H43.2887V96.7657H47.0059V98.2127H43.2887ZM52.0277 102.355C51.1338 102.355 50.3727 102.156 49.7443 101.757C49.1248 101.35 48.6911 100.788 48.4433 100.071L49.7576 99.3013C50.1293 100.346 50.8993 100.868 52.0675 100.868C52.6339 100.868 53.0632 100.757 53.3552 100.536C53.6473 100.315 53.7933 100.018 53.7933 99.6465C53.7933 99.2748 53.6385 98.9871 53.3287 98.7836C53.0189 98.58 52.4702 98.3588 51.6825 98.1198C50.8771 97.8808 50.2266 97.5976 49.731 97.2702C49.1292 96.8453 48.8283 96.2214 48.8283 95.3983C48.8283 94.5752 49.1203 93.9247 49.7045 93.4468C50.2797 92.96 50.9833 92.7166 51.8153 92.7166C52.5499 92.7166 53.1959 92.8981 53.7535 93.2609C54.3199 93.6149 54.7536 94.115 55.0545 94.7611L53.7668 95.5045C53.3774 94.6372 52.7269 94.2035 51.8153 94.2035C51.3728 94.2035 51.0187 94.3097 50.7532 94.5221C50.4877 94.7257 50.355 95.0045 50.355 95.3585C50.355 95.7036 50.4877 95.978 50.7532 96.1816C51.0187 96.3763 51.5099 96.5843 52.2268 96.8055C52.6693 96.956 52.926 97.0445 52.9968 97.071C53.1119 97.1064 53.342 97.1949 53.6871 97.3365C53.9703 97.4516 54.196 97.5755 54.3642 97.7083C55.0545 98.2481 55.3731 98.8854 55.32 99.6199C55.32 100.461 55.0147 101.129 54.404 101.625C53.811 102.111 53.0189 102.355 52.0277 102.355ZM65.7023 97.3631C66.1094 97.5755 66.428 97.872 66.6581 98.2526C66.8882 98.6243 67.0033 99.0491 67.0033 99.527C67.0033 100.288 66.7333 100.921 66.1935 101.425C65.6536 101.93 64.9942 102.182 64.2154 102.182H60.2327V92.8892H63.9233C64.6845 92.8892 65.3261 93.137 65.8483 93.6326C66.3793 94.1283 66.6448 94.7389 66.6448 95.4647C66.6448 96.2612 66.3306 96.894 65.7023 97.3631ZM63.9233 94.323H61.7594V96.7657H63.9233C64.2597 96.7657 64.5429 96.6506 64.773 96.4205C65.0031 96.1816 65.1181 95.8895 65.1181 95.5443C65.1181 95.1992 65.0031 94.9115 64.773 94.6814C64.5429 94.4425 64.2597 94.323 63.9233 94.323ZM61.7594 100.748H64.2154C64.5694 100.748 64.8659 100.624 65.1049 100.377C65.3527 100.12 65.4766 99.8102 65.4766 99.4474C65.4766 99.0845 65.3527 98.7792 65.1049 98.5313C64.8659 98.2747 64.5694 98.1463 64.2154 98.1463H61.7594V100.748ZM76.1681 102.182H74.5219L73.8714 100.31H69.9153L69.2648 102.182H67.6053L70.9773 92.8892H72.8094L76.1681 102.182ZM71.8934 94.6814L70.4198 98.8765H73.367L71.8934 94.6814ZM79.8225 102.355C78.3799 102.355 77.3842 101.788 76.8355 100.655L78.1498 99.8855C78.4596 100.54 79.0216 100.868 79.8358 100.868C80.3668 100.868 80.7739 100.74 81.0571 100.483C81.3492 100.217 81.4952 99.8456 81.4952 99.3677V92.8892H83.0219V99.3677C83.0219 100.324 82.721 101.063 82.1192 101.585C81.5262 102.098 80.7607 102.355 79.8225 102.355ZM92.6926 100.961C91.7633 101.89 90.626 102.355 89.2808 102.355C87.9355 102.355 86.7938 101.89 85.8557 100.961C84.9264 100.023 84.4617 98.8809 84.4617 97.5357C84.4617 96.1904 84.9264 95.0531 85.8557 94.1238C86.7938 93.1857 87.9355 92.7166 89.2808 92.7166C90.626 92.7166 91.7633 93.1857 92.6926 94.1238C93.6307 95.0531 94.0998 96.1904 94.0998 97.5357C94.0998 98.8809 93.6307 100.023 92.6926 100.961ZM86.931 99.9253C87.5771 100.554 88.3603 100.868 89.2808 100.868C90.21 100.868 90.9889 100.554 91.6173 99.9253C92.2545 99.2881 92.5731 98.4915 92.5731 97.5357C92.5731 96.5798 92.2545 95.7877 91.6173 95.1593C90.9889 94.5221 90.21 94.2035 89.2808 94.2035C88.3515 94.2035 87.5682 94.5221 86.931 95.1593C86.3026 95.7877 85.9884 96.5798 85.9884 97.5357C85.9884 98.4827 86.3026 99.2792 86.931 99.9253ZM98.3683 102.355C97.4744 102.355 96.7133 102.156 96.0849 101.757C95.4654 101.35 95.0317 100.788 94.7839 100.071L96.0982 99.3013C96.4699 100.346 97.2399 100.868 98.4081 100.868C98.9746 100.868 99.4038 100.757 99.6959 100.536C99.9879 100.315 100.134 100.018 100.134 99.6465C100.134 99.2748 99.9791 98.9871 99.6693 98.7836C99.3596 98.58 98.8108 98.3588 98.0231 98.1198C97.2178 97.8808 96.5673 97.5976 96.0716 97.2702C95.4698 96.8453 95.1689 96.2214 95.1689 95.3983C95.1689 94.5752 95.461 93.9247 96.0451 93.4468C96.6204 92.96 97.324 92.7166 98.1559 92.7166C98.8905 92.7166 99.5366 92.8981 100.094 93.2609C100.661 93.6149 101.094 94.115 101.395 94.7611L100.107 95.5045C99.718 94.6372 99.0675 94.2035 98.1559 94.2035C97.7134 94.2035 97.3594 94.3097 97.0939 94.5221C96.8283 94.7257 96.6956 95.0045 96.6956 95.3585C96.6956 95.7036 96.8283 95.978 97.0939 96.1816C97.3594 96.3763 97.8506 96.5843 98.5674 96.8055C99.01 96.956 99.2666 97.0445 99.3374 97.071C99.4525 97.1064 99.6826 97.1949 100.028 97.3365C100.311 97.4516 100.537 97.5755 100.705 97.7083C101.395 98.2481 101.714 98.8854 101.661 99.6199C101.661 100.461 101.355 101.129 100.745 101.625C100.152 102.111 99.3596 102.355 98.3683 102.355Z" fill="white"/>
</g>
<rect y="120.41" width="145.872" height="33.6021" rx="7.16596" fill="url(#paint0_linear_5279_4895)"/>
<path d="M19.1667 137.249H23.8132V137.886C23.8132 139.161 23.3928 140.205 22.552 141.019C21.7201 141.825 20.6226 142.227 19.2597 142.227C17.8259 142.227 16.64 141.763 15.7018 140.833C14.7725 139.904 14.3079 138.762 14.3079 137.408C14.3079 136.063 14.7725 134.926 15.7018 133.996C16.64 133.058 17.7994 132.589 19.18 132.589C20.0385 132.589 20.8262 132.788 21.5431 133.187C22.2688 133.576 22.8308 134.111 23.2291 134.793L21.9148 135.55C21.667 135.098 21.2997 134.74 20.8129 134.474C20.3261 134.209 19.7818 134.076 19.18 134.076C18.2065 134.076 17.4055 134.395 16.7771 135.032C16.1488 135.678 15.8346 136.475 15.8346 137.422C15.8346 138.377 16.1488 139.169 16.7771 139.798C17.4232 140.426 18.2552 140.74 19.273 140.74C20.0872 140.74 20.7554 140.55 21.2776 140.17C21.7997 139.789 22.1316 139.271 22.2732 138.616H19.1667V137.249ZM32.3113 142.055H30.6386L28.6738 138.669H26.8684V142.055H25.3417V132.762H29.0588C29.8908 132.762 30.5944 133.054 31.1696 133.638C31.7538 134.204 32.0458 134.908 32.0458 135.749C32.0458 136.342 31.8732 136.886 31.5281 137.382C31.1918 137.868 30.7492 138.222 30.2005 138.444L32.3113 142.055ZM29.0588 134.196H26.8684V137.302H29.0588C29.4659 137.302 29.8111 137.152 30.0943 136.851C30.3775 136.55 30.5191 136.182 30.5191 135.749C30.5191 135.315 30.3775 134.948 30.0943 134.647C29.8111 134.346 29.4659 134.196 29.0588 134.196ZM41.3159 142.055H39.6698L39.0193 140.183H35.0631L34.4126 142.055H32.7532L36.1252 132.762H37.9572L41.3159 142.055ZM37.0412 134.554L35.5676 138.749H38.5148L37.0412 134.554ZM42.448 132.762H45.8731C46.7493 132.762 47.4794 133.054 48.0636 133.638C48.6565 134.222 48.953 134.948 48.953 135.815C48.953 136.674 48.6565 137.399 48.0636 137.992C47.4794 138.576 46.7493 138.869 45.8731 138.869H43.9747V142.055H42.448V132.762ZM43.9747 137.435H45.8731C46.3245 137.435 46.6962 137.284 46.9882 136.983C47.2803 136.674 47.4263 136.284 47.4263 135.815C47.4263 135.346 47.2803 134.961 46.9882 134.66C46.6962 134.35 46.3245 134.196 45.8731 134.196H43.9747V137.435ZM55.9206 136.572V132.762H57.4473V142.055H55.9206V138.032H51.938V142.055H50.4113V132.762H51.938V136.572H55.9206ZM60.9643 132.762V140.594H64.7479V142.055H59.4376V132.762H60.9643ZM66.0137 142.055V132.762H67.5404V142.055H66.0137ZM75.1059 139.068V132.762H76.6326V142.055H75.4378L71.0569 135.749V142.055H69.5302V132.762H70.725L75.1059 139.068ZM87.7948 137.408C87.7948 138.638 87.3877 139.709 86.5734 140.621L87.5558 141.63L86.4805 142.599L85.4583 141.55C84.6706 142.002 83.8431 142.227 82.9758 142.227C81.6482 142.227 80.5109 141.763 79.5639 140.833C78.6258 139.895 78.1567 138.753 78.1567 137.408C78.1567 136.063 78.6258 134.926 79.5639 133.996C80.5021 133.058 81.6394 132.589 82.9758 132.589C84.3122 132.589 85.4494 133.058 86.3876 133.996C87.3257 134.926 87.7948 136.063 87.7948 137.408ZM82.9758 140.74C83.4537 140.74 83.9183 140.639 84.3697 140.435L82.6704 138.696L83.7457 137.727L85.5247 139.546C86.0203 138.926 86.2681 138.214 86.2681 137.408C86.2681 136.461 85.9495 135.669 85.3123 135.032C84.675 134.395 83.8962 134.076 82.9758 134.076C82.0553 134.076 81.2765 134.395 80.6393 135.032C80.002 135.669 79.6834 136.461 79.6834 137.408C79.6834 138.355 80.002 139.147 80.6393 139.785C81.2765 140.422 82.0553 140.74 82.9758 140.74ZM97.2308 142.227C95.8325 142.227 94.6731 141.767 93.7526 140.847C92.8322 139.908 92.372 138.762 92.372 137.408C92.372 136.045 92.8322 134.904 93.7526 133.983C94.6642 133.054 95.8236 132.589 97.2308 132.589C98.0716 132.589 98.846 132.788 99.5541 133.187C100.271 133.585 100.829 134.125 101.227 134.806L99.8992 135.576C99.6514 135.116 99.2886 134.753 98.8106 134.488C98.3416 134.213 97.815 134.076 97.2308 134.076C96.2485 134.076 95.4431 134.39 94.8147 135.019C94.204 135.638 93.8987 136.435 93.8987 137.408C93.8987 138.382 94.204 139.178 94.8147 139.798C95.4431 140.426 96.2485 140.74 97.2308 140.74C97.815 140.74 98.346 140.608 98.8239 140.342C99.3018 140.068 99.6603 139.7 99.8992 139.24L101.227 139.997C100.846 140.67 100.293 141.214 99.5673 141.63C98.8682 142.028 98.0893 142.227 97.2308 142.227ZM108.137 136.572V132.762H109.664V142.055H108.137V138.032H104.155V142.055H102.628V132.762H104.155V136.572H108.137ZM119.354 142.055H117.708L117.057 140.183H113.101L112.451 142.055H110.791L114.163 132.762H115.995L119.354 142.055ZM115.079 134.554L113.606 138.749H116.553L115.079 134.554ZM120.486 142.055V132.762H122.013V142.055H120.486ZM129.578 139.068V132.762H131.105V142.055H129.91L125.529 135.749V142.055H124.003V132.762H125.197L129.578 139.068Z" fill="white"/>
<defs>
<filter id="filter0_f_5279_4895" x="4.99567" y="4.01471" width="85.8837" height="27.5526" filterUnits="userSpaceOnUse" color-interpolation-filters="sRGB">
<feFlood flood-opacity="0" result="BackgroundImageFix"/>
<feBlend mode="normal" in="SourceGraphic" in2="BackgroundImageFix" result="shape"/>
<feGaussianBlur stdDeviation="4.47873" result="effect1_foregroundBlur_5279_4895"/>
</filter>
<filter id="filter1_f_5279_4895" x="5.36286" y="43.8873" width="53.5165" height="27.5526" filterUnits="userSpaceOnUse" color-interpolation-filters="sRGB">
<feFlood flood-opacity="0" result="BackgroundImageFix"/>
<feBlend mode="normal" in="SourceGraphic" in2="BackgroundImageFix" result="shape"/>
<feGaussianBlur stdDeviation="4.47873" result="effect1_foregroundBlur_5279_4895"/>
</filter>
<filter id="filter2_f_5279_4895" x="5.78473" y="81.2764" width="104.915" height="30.0355" filterUnits="userSpaceOnUse" color-interpolation-filters="sRGB">
<feFlood flood-opacity="0" result="BackgroundImageFix"/>
<feBlend mode="normal" in="SourceGraphic" in2="BackgroundImageFix" result="shape"/>
<feGaussianBlur stdDeviation="4.47873" result="effect1_foregroundBlur_5279_4895"/>
</filter>
<linearGradient id="paint0_linear_5279_4895" x1="146.59" y1="137.211" x2="0.717311" y2="137.211" gradientUnits="userSpaceOnUse">
<stop stop-color="#7C40FF"/>
<stop offset="1" stop-color="#4E01F4"/>
</linearGradient>
</defs>
</svg>
