<svg width="928" height="521" viewBox="0 0 928 521" fill="none" xmlns="http://www.w3.org/2000/svg">
<g clip-path="url(#clip0_5279_4870)">
<circle cx="834" cy="261.902" r="566" stroke="url(#paint0_radial_5279_4870)" stroke-width="150"/>
<circle cx="937.5" cy="261.402" r="439.5" stroke="url(#paint1_radial_5279_4870)" stroke-width="150"/>
<circle cx="976" cy="261.902" r="244" stroke="url(#paint2_radial_5279_4870)" stroke-width="150"/>
<g filter="url(#filter0_di_5279_4870)">
<path d="M927.067 117.229C927.499 118.429 926.877 119.753 925.677 120.185C924.476 120.618 923.153 119.995 922.72 118.795L919.588 110.102C919.155 108.902 919.778 107.578 920.978 107.146C922.178 106.713 923.502 107.336 923.934 108.536L927.067 117.229Z" fill="#7C40FF"/>
<path d="M919.283 120.14C919.779 121.315 919.228 122.67 918.052 123.166C916.876 123.662 915.522 123.111 915.026 121.935L911.435 113.421C910.939 112.246 911.49 110.891 912.666 110.395C913.841 109.899 915.196 110.45 915.692 111.626L919.283 120.14Z" fill="#7C40FF"/>
<path d="M911.672 123.458C912.229 124.605 911.751 125.988 910.604 126.545C909.456 127.103 908.074 126.625 907.516 125.477L903.478 117.166C902.92 116.019 903.399 114.636 904.546 114.079C905.694 113.521 907.076 113.999 907.634 115.147L911.672 123.458Z" fill="#7C40FF"/>
<path d="M904.187 127.216C904.806 128.332 904.403 129.738 903.288 130.357C902.172 130.976 900.766 130.574 900.147 129.458L895.663 121.379C895.043 120.264 895.446 118.858 896.561 118.238C897.677 117.619 899.083 118.022 899.702 119.137L904.187 127.216Z" fill="#7C40FF"/>
<path d="M896.982 131.33C897.659 132.411 897.332 133.836 896.251 134.514C895.17 135.192 893.745 134.864 893.067 133.783L888.16 125.954C887.482 124.873 887.809 123.447 888.89 122.77C889.971 122.092 891.397 122.419 892.074 123.5L896.982 131.33Z" fill="#7C40FF"/>
<path d="M889.957 135.861C890.692 136.904 890.443 138.345 889.401 139.08C888.358 139.816 886.917 139.567 886.181 138.524L880.855 130.974C880.12 129.931 880.369 128.49 881.411 127.754C882.454 127.019 883.895 127.268 884.631 128.31L889.957 135.861Z" fill="#7C40FF"/>
<path d="M883.194 140.758C883.985 141.759 883.815 143.212 882.814 144.003C881.813 144.794 880.36 144.624 879.569 143.623L873.839 136.374C873.048 135.373 873.218 133.921 874.219 133.13C875.22 132.338 876.673 132.508 877.464 133.509L883.194 140.758Z" fill="#7C40FF"/>
<path d="M876.709 146.016C877.554 146.973 877.464 148.432 876.507 149.277C875.551 150.122 874.091 150.031 873.247 149.075L867.129 142.15C866.285 141.194 866.375 139.734 867.331 138.889C868.287 138.045 869.747 138.135 870.592 139.091L876.709 146.016Z" fill="#7C40FF"/>
<path d="M870.548 151.596C871.442 152.506 871.43 153.969 870.521 154.863C869.611 155.758 868.149 155.746 867.254 154.836L860.775 148.248C859.88 147.339 859.892 145.876 860.802 144.982C861.711 144.087 863.174 144.099 864.068 145.009L870.548 151.596Z" fill="#7C40FF"/>
<path d="M864.671 157.528C865.615 158.387 865.683 159.848 864.824 160.792C863.965 161.735 862.504 161.803 861.561 160.944L854.729 154.723C853.785 153.864 853.717 152.403 854.576 151.459C855.435 150.516 856.896 150.448 857.839 151.307L864.671 157.528Z" fill="#7C40FF"/>
<path d="M859.02 163.898C860.009 164.704 860.158 166.159 859.352 167.148C858.547 168.137 857.091 168.286 856.102 167.481L848.937 161.646C847.948 160.84 847.799 159.385 848.605 158.396C849.41 157.407 850.865 157.258 851.855 158.063L859.02 163.898Z" fill="#7C40FF"/>
<path d="M853.836 170.433C854.869 171.183 855.098 172.628 854.348 173.66C853.598 174.692 852.153 174.921 851.121 174.171L843.645 168.741C842.613 167.991 842.384 166.547 843.134 165.514C843.884 164.482 845.328 164.253 846.36 165.003L853.836 170.433Z" fill="#7C40FF"/>
<path d="M849.023 177.236C850.095 177.928 850.403 179.357 849.711 180.429C849.019 181.501 847.589 181.81 846.518 181.118L838.754 176.108C837.682 175.416 837.373 173.986 838.065 172.914C838.757 171.842 840.187 171.534 841.259 172.226L849.023 177.236Z" fill="#7C40FF"/>
<path d="M844.597 184.286C845.704 184.919 846.089 186.33 845.456 187.437C844.823 188.545 843.411 188.93 842.304 188.297L834.282 183.711C833.174 183.078 832.789 181.667 833.423 180.559C834.056 179.451 835.467 179.067 836.574 179.7L844.597 184.286Z" fill="#7C40FF"/>
<path d="M840.557 191.576C841.698 192.147 842.159 193.535 841.588 194.675C841.017 195.816 839.629 196.278 838.488 195.707L830.226 191.57C829.085 190.998 828.624 189.611 829.195 188.47C829.766 187.329 831.154 186.867 832.295 187.438L840.557 191.576Z" fill="#7C40FF"/>
<path d="M836.924 199.075C838.095 199.582 838.632 200.943 838.125 202.113C837.617 203.284 836.257 203.821 835.086 203.314L826.609 199.638C825.438 199.13 824.901 197.77 825.409 196.599C825.916 195.429 827.276 194.891 828.447 195.399L836.924 199.075Z" fill="#7C40FF"/>
<path d="M833.71 206.761C834.907 207.203 835.518 208.532 835.076 209.729C834.634 210.925 833.305 211.537 832.108 211.095L823.441 207.891C822.245 207.449 821.633 206.12 822.075 204.924C822.518 203.727 823.846 203.115 825.043 203.558L833.71 206.761Z" fill="#7C40FF"/>
<path d="M830.923 214.612C832.143 214.987 832.827 216.28 832.451 217.5C832.076 218.719 830.783 219.403 829.563 219.027L820.733 216.307C819.513 215.932 818.829 214.639 819.205 213.419C819.581 212.2 820.873 211.516 822.093 211.892L830.923 214.612Z" fill="#7C40FF"/>
<path d="M828.574 222.597C829.813 222.904 830.567 224.157 830.259 225.396C829.952 226.634 828.699 227.388 827.461 227.081L818.493 224.853C817.255 224.546 816.5 223.293 816.808 222.054C817.116 220.816 818.369 220.062 819.607 220.369L828.574 222.597Z" fill="#7C40FF"/>
<path d="M826.669 230.714C827.922 230.954 828.743 232.164 828.503 233.417C828.263 234.67 827.053 235.491 825.8 235.251L816.725 233.513C815.472 233.273 814.65 232.062 814.891 230.809C815.131 229.556 816.341 228.735 817.594 228.975L826.669 230.714Z" fill="#7C40FF"/>
<path d="M825.184 239.102C826.449 239.27 827.337 240.432 827.169 241.696C827.001 242.961 825.839 243.85 824.574 243.681L815.415 242.462C814.15 242.293 813.262 241.132 813.43 239.867C813.598 238.602 814.76 237.714 816.025 237.882L825.184 239.102Z" fill="#7C40FF"/>
<path d="M824.191 247.371C825.463 247.469 826.415 248.579 826.317 249.852C826.219 251.124 825.109 252.075 823.837 251.977L814.624 251.267C813.352 251.169 812.4 250.059 812.498 248.787C812.596 247.515 813.707 246.563 814.979 246.661L824.191 247.371Z" fill="#7C40FF"/>
<path d="M823.656 255.684C824.931 255.712 825.943 256.768 825.915 258.043C825.888 259.319 824.832 260.331 823.556 260.303L814.318 260.104C813.043 260.076 812.031 259.02 812.058 257.744C812.086 256.469 813.142 255.457 814.418 255.485L823.656 255.684Z" fill="#7C40FF"/>
<path d="M823.58 264.01C824.855 263.967 825.923 264.966 825.966 266.241C826.009 267.516 825.01 268.584 823.735 268.627L814.5 268.938C813.225 268.981 812.156 267.982 812.114 266.707C812.071 265.432 813.07 264.363 814.345 264.321L823.58 264.01Z" fill="#7C40FF"/>
<path d="M823.965 272.326C825.236 272.214 826.357 273.154 826.468 274.425C826.58 275.696 825.64 276.817 824.369 276.928L815.164 277.735C813.893 277.847 812.772 276.907 812.661 275.636C812.549 274.365 813.489 273.244 814.76 273.133L823.965 272.326Z" fill="#7C40FF"/>
<path d="M824.803 280.611C826.066 280.43 827.237 281.307 827.418 282.57C827.599 283.833 826.722 285.003 825.459 285.185L816.313 286.497C815.05 286.678 813.879 285.802 813.698 284.539C813.517 283.276 814.394 282.105 815.657 281.924L824.803 280.611Z" fill="#7C40FF"/>
<path d="M826.094 288.844C827.345 288.594 828.562 289.405 828.813 290.656C829.063 291.907 828.252 293.124 827.001 293.375L817.941 295.188C816.69 295.439 815.472 294.628 815.222 293.377C814.972 292.126 815.783 290.909 817.034 290.658L826.094 288.844Z" fill="#7C40FF"/>
<path d="M827.836 296.988C829.071 296.669 830.331 297.412 830.65 298.647C830.969 299.883 830.226 301.143 828.991 301.462L820.044 303.771C818.808 304.09 817.548 303.347 817.23 302.112C816.911 300.877 817.653 299.617 818.889 299.298L827.836 296.988Z" fill="#7C40FF"/>
<path d="M830.021 305.03C831.237 304.643 832.536 305.315 832.922 306.531C833.309 307.747 832.637 309.046 831.421 309.433L822.615 312.232C821.399 312.618 820.1 311.946 819.714 310.73C819.327 309.514 819.999 308.215 821.215 307.829L830.021 305.03Z" fill="#7C40FF"/>
<path d="M832.64 312.924C833.834 312.473 835.167 313.074 835.618 314.267C836.07 315.461 835.469 316.794 834.275 317.245L825.633 320.515C824.44 320.967 823.107 320.365 822.655 319.172C822.204 317.979 822.805 316.646 823.998 316.194L832.64 312.924Z" fill="#7C40FF"/>
<path d="M835.77 320.863C836.936 320.345 838.301 320.87 838.82 322.036C839.338 323.201 838.813 324.567 837.647 325.085L829.203 328.837C828.037 329.356 826.672 328.831 826.154 327.665C825.636 326.499 826.161 325.134 827.327 324.616L835.77 320.863Z" fill="#7C40FF"/>
<path d="M839.24 328.417C840.376 327.837 841.768 328.288 842.348 329.425C842.928 330.561 842.477 331.952 841.34 332.532L833.11 336.733C831.974 337.313 830.583 336.862 830.003 335.726C829.423 334.589 829.874 333.198 831.01 332.618L839.24 328.417Z" fill="#7C40FF"/>
<path d="M843.128 335.795C844.231 335.153 845.645 335.527 846.286 336.63C846.928 337.733 846.553 339.147 845.451 339.788L837.463 344.434C836.36 345.075 834.946 344.701 834.305 343.598C833.663 342.495 834.037 341.081 835.14 340.44L843.128 335.795Z" fill="#7C40FF"/>
<path d="M847.413 342.956C848.479 342.256 849.911 342.552 850.612 343.618C851.312 344.684 851.016 346.117 849.95 346.817L842.228 351.892C841.162 352.593 839.729 352.296 839.029 351.23C838.328 350.164 838.624 348.732 839.691 348.031L847.413 342.956Z" fill="#7C40FF"/>
<path d="M852.052 349.83C853.08 349.074 854.526 349.293 855.282 350.321C856.039 351.348 855.819 352.794 854.792 353.551L847.351 359.029C846.323 359.785 844.877 359.566 844.121 358.538C843.364 357.511 843.584 356.065 844.611 355.309L852.052 349.83Z" fill="#7C40FF"/>
<path d="M857.087 356.49C858.072 355.679 859.528 355.82 860.339 356.804C861.15 357.789 861.009 359.245 860.025 360.056L852.893 365.931C851.908 366.742 850.452 366.602 849.641 365.617C848.83 364.632 848.97 363.177 849.955 362.365L857.087 356.49Z" fill="#7C40FF"/>
<path d="M862.482 362.869C863.421 362.005 864.882 362.066 865.746 363.006C866.609 363.945 866.548 365.406 865.609 366.27L858.807 372.524C857.868 373.387 856.407 373.326 855.543 372.387C854.68 371.448 854.741 369.987 855.68 369.123L862.482 362.869Z" fill="#7C40FF"/>
<path d="M868.166 368.905C869.058 367.992 870.521 367.976 871.433 368.868C872.345 369.76 872.362 371.222 871.47 372.134L865.01 378.741C864.118 379.654 862.656 379.67 861.743 378.778C860.831 377.886 860.815 376.424 861.707 375.511L868.166 368.905Z" fill="#7C40FF"/>
<path d="M874.232 374.692C875.073 373.732 876.532 373.636 877.492 374.477C878.451 375.318 878.547 376.777 877.706 377.737L871.615 384.686C870.774 385.645 869.315 385.741 868.355 384.9C867.396 384.059 867.3 382.6 868.141 381.64L874.232 374.692Z" fill="#7C40FF"/>
<path d="M880.545 380.089C881.333 379.086 882.786 378.913 883.789 379.701C884.791 380.49 884.965 381.942 884.176 382.945L878.464 390.208C877.676 391.211 876.223 391.385 875.22 390.596C874.218 389.807 874.044 388.355 874.833 387.352L880.545 380.089Z" fill="#7C40FF"/>
<path d="M887.296 385.263C888.029 384.218 889.47 383.966 890.514 384.699C891.559 385.432 891.811 386.872 891.078 387.917L885.77 395.48C885.037 396.525 883.597 396.777 882.552 396.044C881.508 395.311 881.256 393.871 881.988 392.826L887.296 385.263Z" fill="#7C40FF"/>
<path d="M894.14 389.945C894.817 388.864 896.242 388.535 897.324 389.212C898.405 389.888 898.734 391.313 898.057 392.395L893.158 400.229C892.481 401.311 891.056 401.639 889.974 400.963C888.893 400.286 888.564 398.861 889.241 397.779L894.14 389.945Z" fill="#7C40FF"/>
<path d="M901.322 394.311C901.939 393.194 903.344 392.789 904.461 393.406C905.578 394.023 905.983 395.428 905.366 396.545L900.897 404.633C900.28 405.75 898.875 406.155 897.758 405.538C896.641 404.921 896.236 403.515 896.853 402.399L901.322 394.311Z" fill="#7C40FF"/>
<path d="M908.609 398.223C909.166 397.076 910.549 396.597 911.696 397.154C912.844 397.711 913.323 399.094 912.765 400.241L908.729 408.553C908.172 409.701 906.79 410.18 905.642 409.623C904.495 409.065 904.016 407.683 904.573 406.536L908.609 398.223Z" fill="#7C40FF"/>
<path d="M916.219 401.804C916.714 400.628 918.068 400.076 919.244 400.57C920.42 401.065 920.973 402.419 920.478 403.595L916.896 412.113C916.402 413.289 915.047 413.841 913.871 413.347C912.695 412.852 912.143 411.498 912.637 410.322L916.219 401.804Z" fill="#7C40FF"/>
<path d="M923.873 404.918C924.305 403.718 925.629 403.095 926.829 403.527C928.03 403.959 928.653 405.282 928.221 406.482L925.092 415.177C924.66 416.377 923.336 417 922.136 416.568C920.935 416.136 920.313 414.813 920.745 413.612L923.873 404.918Z" fill="#7C40FF"/>
<path d="M931.841 407.678C932.208 406.456 933.496 405.763 934.718 406.13C935.94 406.496 936.633 407.784 936.266 409.006L933.61 417.856C933.243 419.078 931.956 419.772 930.734 419.405C929.512 419.038 928.818 417.75 929.185 416.529L931.841 407.678Z" fill="#7C40FF"/>
<path d="M939.794 409.962C940.096 408.722 941.345 407.962 942.585 408.264C943.824 408.566 944.585 409.815 944.283 411.055L942.097 420.033C941.795 421.272 940.545 422.032 939.306 421.731C938.066 421.429 937.306 420.179 937.608 418.94L939.794 409.962Z" fill="#7C40FF"/>
<path d="M947.866 411.827C948.102 410.573 949.31 409.748 950.564 409.984C951.818 410.22 952.643 411.428 952.407 412.682L950.698 421.762C950.462 423.016 949.254 423.841 948 423.605C946.746 423.369 945.921 422.162 946.157 420.908L947.866 411.827Z" fill="#7C40FF"/>
<path d="M956.241 413.293C956.409 412.028 957.57 411.139 958.834 411.306C960.099 411.474 960.989 412.635 960.821 413.9L959.608 423.06C959.44 424.325 958.279 425.214 957.015 425.047C955.75 424.879 954.86 423.718 955.028 422.453L956.241 413.293Z" fill="#7C40FF"/>
<path d="M964.656 414.294C964.748 413.022 965.854 412.065 967.127 412.157C968.399 412.249 969.356 413.355 969.264 414.627L968.598 423.843C968.506 425.116 967.4 426.073 966.127 425.981C964.855 425.889 963.898 424.783 963.99 423.51L964.656 414.294Z" fill="#7C40FF"/>
<path d="M972.856 414.784C972.876 413.509 973.925 412.49 975.201 412.509C976.477 412.529 977.495 413.578 977.476 414.854L977.337 424.093C977.318 425.369 976.269 426.387 974.993 426.368C973.717 426.349 972.699 425.299 972.718 424.024L972.856 414.784Z" fill="#7C40FF"/>
<path d="M981.265 414.803C981.211 413.528 982.201 412.451 983.476 412.397C984.75 412.343 985.827 413.333 985.881 414.607L986.273 423.839C986.327 425.114 985.337 426.191 984.063 426.245C982.788 426.299 981.711 425.31 981.657 424.035L981.265 414.803Z" fill="#7C40FF"/>
<path d="M989.408 414.359C989.284 413.089 990.213 411.959 991.483 411.836C992.753 411.712 993.882 412.641 994.006 413.911L994.903 423.107C995.026 424.377 994.097 425.507 992.828 425.631C991.558 425.754 990.428 424.825 990.304 423.556L989.408 414.359Z" fill="#7C40FF"/>
<path d="M997.754 413.443C997.56 412.182 998.426 411.003 999.687 410.81C1000.95 410.617 1002.13 411.483 1002.32 412.744L1003.72 421.877C1003.91 423.138 1003.05 424.317 1001.79 424.51C1000.52 424.704 999.346 423.838 999.153 422.577L997.754 413.443Z" fill="#7C40FF"/>
<path d="M1006.06 412.071C1005.8 410.822 1006.6 409.598 1007.85 409.338C1009.09 409.078 1010.32 409.879 1010.58 411.128L1012.46 420.174C1012.72 421.423 1011.92 422.647 1010.67 422.907C1009.42 423.167 1008.2 422.366 1007.94 421.117L1006.06 412.071Z" fill="#7C40FF"/>
<path d="M1014.03 410.316C1013.71 409.081 1014.45 407.819 1015.68 407.495C1016.92 407.172 1018.18 407.91 1018.5 409.145L1020.85 418.083C1021.17 419.317 1020.43 420.58 1019.2 420.903C1017.96 421.227 1016.7 420.488 1016.38 419.254L1014.03 410.316Z" fill="#7C40FF"/>
<path d="M1022.21 408.07C1021.83 406.854 1022.5 405.555 1023.72 405.17C1024.93 404.784 1026.23 405.458 1026.62 406.674L1029.41 415.482C1029.8 416.698 1029.12 417.997 1027.91 418.382C1026.69 418.768 1025.39 418.094 1025.01 416.878L1022.21 408.07Z" fill="#7C40FF"/>
<path d="M1030.04 405.505C1029.59 404.308 1030.2 402.979 1031.4 402.535C1032.6 402.092 1033.93 402.702 1034.37 403.898L1037.58 412.561C1038.03 413.757 1037.42 415.087 1036.22 415.53C1035.02 415.974 1033.7 415.364 1033.25 414.168L1030.04 405.505Z" fill="#7C40FF"/>
<path d="M1036.59 403.024C1036.09 401.846 1036.65 400.494 1037.83 400.004C1039.01 399.513 1040.36 400.071 1040.85 401.248L1044.4 409.779C1044.89 410.957 1044.34 412.309 1043.16 412.799C1041.98 413.29 1040.63 412.732 1040.14 411.555L1036.59 403.024Z" fill="#7C40FF"/>
</g>
<g filter="url(#filter1_di_5279_4870)">
<path d="M830.022 -50.3764C830.954 -47.79 829.613 -44.9378 827.026 -44.0058C824.44 -43.0738 821.588 -44.4151 820.656 -47.0015L813.906 -65.7343C812.974 -68.3207 814.315 -71.173 816.902 -72.1049C819.488 -73.0369 822.34 -71.6956 823.272 -69.1092L830.022 -50.3764Z" fill="#A569FF"/>
<path d="M813.249 -44.1035C814.317 -41.5704 813.129 -38.6507 810.596 -37.5823C808.063 -36.514 805.144 -37.7014 804.075 -40.2346L796.337 -58.5814C795.269 -61.1146 796.457 -64.0342 798.99 -65.1026C801.523 -66.1709 804.442 -64.9835 805.511 -62.4503L813.249 -44.1035Z" fill="#A569FF"/>
<path d="M796.848 -36.9537C798.049 -34.4809 797.019 -31.5022 794.546 -30.3007C792.073 -29.0992 789.095 -30.1297 787.893 -32.6025L779.191 -50.512C777.989 -52.9848 779.02 -55.9634 781.493 -57.1649C783.965 -58.3664 786.944 -57.3359 788.145 -54.8631L796.848 -36.9537Z" fill="#A569FF"/>
<path d="M780.718 -28.8551C782.052 -26.4513 781.185 -23.4211 778.781 -22.0869C776.377 -20.7526 773.347 -21.6196 772.013 -24.0234L762.349 -41.4329C761.015 -43.8367 761.882 -46.8669 764.286 -48.2012C766.69 -49.5355 769.72 -48.6684 771.054 -46.2647L780.718 -28.8551Z" fill="#A569FF"/>
<path d="M765.192 -19.9904C766.652 -17.6609 765.947 -14.5888 763.618 -13.1288C761.288 -11.6687 758.216 -12.3735 756.756 -14.703L746.181 -31.5746C744.721 -33.9041 745.426 -36.9761 747.756 -38.4361C750.085 -39.8962 753.157 -39.1915 754.617 -36.862L765.192 -19.9904Z" fill="#A569FF"/>
<path d="M750.054 -10.2257C751.638 -7.97914 751.102 -4.87332 748.855 -3.28861C746.609 -1.7039 743.503 -2.24047 741.918 -4.487L730.441 -20.758C728.856 -23.0046 729.393 -26.1104 731.639 -27.6951C733.886 -29.2798 736.992 -28.7433 738.576 -26.4967L750.054 -10.2257Z" fill="#A569FF"/>
<path d="M735.48 0.32753C737.185 2.48439 736.818 5.61484 734.661 7.31965C732.505 9.02447 729.374 8.65805 727.669 6.50125L715.322 -9.11991C713.617 -11.2767 713.983 -14.4072 716.14 -16.112C718.297 -17.8169 721.428 -17.4504 723.132 -15.2936L735.48 0.32753Z" fill="#A569FF"/>
<path d="M721.507 11.6581C723.327 13.7185 723.132 16.8644 721.072 18.6845C719.011 20.5046 715.865 20.3098 714.045 18.2494L700.863 3.32624C699.043 1.2658 699.237 -1.88006 701.298 -3.70016C703.358 -5.52026 706.504 -5.32548 708.324 -3.26498L721.507 11.6581Z" fill="#A569FF"/>
<path d="M708.229 23.6825C710.157 25.6425 710.131 28.7942 708.171 30.722C706.211 32.6499 703.059 32.6237 701.131 30.6637L687.169 16.4677C685.241 14.5076 685.267 11.3559 687.227 9.42805C689.187 7.50022 692.339 7.52641 694.267 9.48642L708.229 23.6825Z" fill="#A569FF"/>
<path d="M695.566 36.4649C697.599 38.3159 697.746 41.4644 695.895 43.497C694.044 45.5298 690.895 45.677 688.863 43.826L674.14 30.4194C672.108 28.5684 671.961 25.42 673.812 23.3873C675.663 21.3546 678.811 21.2073 680.844 23.0584L695.566 36.4649Z" fill="#A569FF"/>
<path d="M683.387 50.1915C685.519 51.9275 685.839 55.0629 684.103 57.1948C682.367 59.3266 679.232 59.6474 677.1 57.9114L661.66 45.3381C659.528 43.6021 659.208 40.4666 660.944 38.3349C662.68 36.2031 665.815 35.8822 667.947 37.6182L683.387 50.1915Z" fill="#A569FF"/>
<path d="M672.218 64.2745C674.442 65.8902 674.935 69.0032 673.32 71.2276C671.704 73.4519 668.591 73.9453 666.367 72.3296L650.256 60.6274C648.032 59.0117 647.539 55.8987 649.154 53.6744C650.77 51.45 653.883 50.9566 656.107 52.5723L672.218 64.2745Z" fill="#A569FF"/>
<path d="M661.844 78.9331C664.154 80.4238 664.819 83.5049 663.328 85.8149C661.837 88.1249 658.756 88.7891 656.446 87.2983L639.716 76.5017C637.406 75.011 636.741 71.9299 638.232 69.6199C639.723 67.3099 642.804 66.6457 645.114 68.1364L661.844 78.9331Z" fill="#A569FF"/>
<path d="M652.307 94.1245C654.693 95.4888 655.522 98.5297 654.158 100.917C652.793 103.303 649.753 104.132 647.366 102.768L630.079 92.8864C627.692 91.5221 626.863 88.4812 628.228 86.0944C629.592 83.7075 632.633 82.8786 635.02 84.243L652.307 94.1245Z" fill="#A569FF"/>
<path d="M643.602 109.834C646.06 111.065 647.055 114.056 645.824 116.514C644.593 118.972 641.602 119.967 639.144 118.736L621.34 109.821C618.881 108.59 617.886 105.599 619.117 103.141C620.348 100.683 623.339 99.6879 625.797 100.919L643.602 109.834Z" fill="#A569FF"/>
<path d="M635.774 125.994C638.296 127.088 639.454 130.019 638.36 132.542C637.267 135.064 634.335 136.222 631.813 135.128L613.545 127.207C611.023 126.113 609.864 123.182 610.958 120.659C612.052 118.137 614.983 116.979 617.506 118.073L635.774 125.994Z" fill="#A569FF"/>
<path d="M628.847 142.557C631.426 143.511 632.744 146.374 631.791 148.952C630.837 151.531 627.974 152.849 625.396 151.896L606.719 144.993C604.14 144.04 602.822 141.177 603.775 138.598C604.728 136.019 607.591 134.701 610.17 135.654L628.847 142.557Z" fill="#A569FF"/>
<path d="M622.842 159.475C625.47 160.284 626.944 163.07 626.134 165.698C625.325 168.325 622.539 169.799 619.911 168.99L600.882 163.128C598.255 162.319 596.781 159.533 597.59 156.905C598.399 154.278 601.185 152.804 603.813 153.614L622.842 159.475Z" fill="#A569FF"/>
<path d="M617.78 176.682C620.448 177.345 622.074 180.045 621.411 182.713C620.749 185.381 618.048 187.007 615.38 186.344L596.056 181.544C593.388 180.881 591.762 178.181 592.425 175.513C593.087 172.845 595.788 171.219 598.456 171.882L617.78 176.682Z" fill="#A569FF"/>
<path d="M613.674 194.173C616.375 194.69 618.144 197.298 617.627 199.999C617.11 202.699 614.501 204.468 611.801 203.951L592.245 200.205C589.545 199.688 587.775 197.079 588.293 194.379C588.81 191.679 591.418 189.91 594.118 190.427L613.674 194.173Z" fill="#A569FF"/>
<path d="M610.474 212.248C613.199 212.611 615.114 215.115 614.752 217.84C614.389 220.565 611.885 222.48 609.16 222.117L589.423 219.489C586.697 219.126 584.782 216.623 585.145 213.898C585.508 211.173 588.011 209.257 590.737 209.62L610.474 212.248Z" fill="#A569FF"/>
<path d="M608.335 230.068C611.076 230.279 613.127 232.672 612.916 235.413C612.705 238.154 610.312 240.205 607.571 239.994L587.718 238.464C584.977 238.253 582.926 235.86 583.137 233.119C583.348 230.378 585.741 228.327 588.482 228.538L608.335 230.068Z" fill="#A569FF"/>
<path d="M607.181 247.982C609.93 248.041 612.11 250.318 612.05 253.066C611.991 255.815 609.715 257.995 606.966 257.936L587.059 257.506C584.311 257.447 582.131 255.17 582.19 252.422C582.249 249.673 584.525 247.493 587.274 247.552L607.181 247.982Z" fill="#A569FF"/>
<path d="M607.017 265.923C609.765 265.831 612.067 267.983 612.159 270.731C612.252 273.479 610.099 275.781 607.352 275.874L587.451 276.543C584.703 276.635 582.401 274.483 582.309 271.735C582.216 268.987 584.369 266.685 587.116 266.593L607.017 265.923Z" fill="#A569FF"/>
<path d="M607.848 283.843C610.586 283.603 613.001 285.628 613.241 288.367C613.481 291.106 611.456 293.52 608.717 293.761L588.882 295.5C586.143 295.74 583.728 293.715 583.488 290.976C583.248 288.237 585.273 285.822 588.012 285.582L607.848 283.843Z" fill="#A569FF"/>
<path d="M609.654 301.698C612.375 301.307 614.898 303.197 615.288 305.918C615.679 308.64 613.789 311.162 611.068 311.553L591.358 314.381C588.637 314.772 586.114 312.882 585.723 310.161C585.333 307.44 587.222 304.917 589.944 304.526L609.654 301.698Z" fill="#A569FF"/>
<path d="M612.435 319.439C615.131 318.9 617.754 320.647 618.294 323.343C618.833 326.039 617.085 328.662 614.39 329.201L594.865 333.11C592.17 333.65 589.547 331.902 589.007 329.206C588.467 326.51 590.215 323.888 592.911 323.348L612.435 319.439Z" fill="#A569FF"/>
<path d="M616.188 336.989C618.85 336.301 621.565 337.902 622.252 340.564C622.94 343.226 621.339 345.941 618.677 346.628L599.397 351.606C596.735 352.293 594.02 350.692 593.333 348.03C592.646 345.368 594.247 342.653 596.909 341.966L616.188 336.989Z" fill="#A569FF"/>
<path d="M620.898 354.317C623.518 353.484 626.317 354.933 627.15 357.553C627.983 360.173 626.534 362.972 623.914 363.805L604.938 369.837C602.318 370.67 599.519 369.221 598.686 366.601C597.853 363.981 599.302 361.182 601.922 360.349L620.898 354.317Z" fill="#A569FF"/>
<path d="M626.542 371.329C629.113 370.356 631.987 371.652 632.96 374.224C633.932 376.795 632.637 379.668 630.065 380.641L611.442 387.687C608.871 388.66 605.998 387.365 605.025 384.793C604.052 382.222 605.348 379.349 607.919 378.376L626.542 371.329Z" fill="#A569FF"/>
<path d="M633.287 388.436C635.799 387.32 638.741 388.451 639.858 390.963C640.974 393.476 639.843 396.418 637.33 397.534L619.135 405.621C616.622 406.737 613.681 405.606 612.564 403.094C611.448 400.581 612.579 397.64 615.091 396.523L633.287 388.436Z" fill="#A569FF"/>
<path d="M640.764 404.716C643.212 403.466 646.211 404.438 647.46 406.886C648.71 409.335 647.738 412.333 645.29 413.583L627.555 422.635C625.106 423.885 622.108 422.913 620.858 420.465C619.608 418.016 620.58 415.018 623.028 413.768L640.764 404.716Z" fill="#A569FF"/>
<path d="M649.142 420.613C651.518 419.231 654.565 420.037 655.948 422.413C657.33 424.79 656.523 427.837 654.147 429.219L636.934 439.229C634.558 440.611 631.511 439.805 630.129 437.429C628.746 435.052 629.553 432.005 631.929 430.623L649.142 420.613Z" fill="#A569FF"/>
<path d="M658.375 436.046C660.672 434.536 663.759 435.175 665.269 437.472C666.779 439.77 666.14 442.856 663.843 444.366L647.202 455.301C644.905 456.811 641.818 456.172 640.308 453.875C638.799 451.577 639.437 448.491 641.735 446.981L658.375 436.046Z" fill="#A569FF"/>
<path d="M668.373 450.858C670.587 449.228 673.703 449.702 675.333 451.916C676.963 454.129 676.49 457.246 674.276 458.876L658.241 470.681C656.027 472.311 652.911 471.838 651.281 469.624C649.651 467.41 650.125 464.294 652.338 462.664L668.373 450.858Z" fill="#A569FF"/>
<path d="M679.222 465.21C681.344 463.462 684.481 463.765 686.229 465.887C687.977 468.009 687.674 471.146 685.552 472.894L670.184 485.555C668.062 487.303 664.925 487 663.177 484.878C661.429 482.756 661.732 479.618 663.854 477.87L679.222 465.21Z" fill="#A569FF"/>
<path d="M690.848 478.955C692.871 477.094 696.02 477.226 697.881 479.25C699.742 481.274 699.61 484.423 697.586 486.284L682.929 499.761C680.905 501.622 677.756 501.49 675.895 499.466C674.035 497.442 674.167 494.293 676.19 492.433L690.848 478.955Z" fill="#A569FF"/>
<path d="M703.098 491.962C705.02 489.996 708.171 489.961 710.137 491.883C712.103 493.805 712.138 496.956 710.216 498.922L696.296 513.159C694.374 515.125 691.222 515.16 689.256 513.238C687.29 511.316 687.255 508.165 689.177 506.199L703.098 491.962Z" fill="#A569FF"/>
<path d="M716.168 504.432C717.98 502.365 721.125 502.158 723.192 503.97C725.26 505.782 725.467 508.927 723.654 510.995L710.53 525.968C708.717 528.036 705.572 528.243 703.505 526.431C701.437 524.619 701.23 521.473 703.043 519.406L716.168 504.432Z" fill="#A569FF"/>
<path d="M729.772 516.064C731.471 513.903 734.601 513.529 736.762 515.228C738.923 516.928 739.297 520.057 737.597 522.218L725.288 537.87C723.589 540.031 720.459 540.405 718.298 538.705C716.137 537.006 715.763 533.876 717.463 531.715L729.772 516.064Z" fill="#A569FF"/>
<path d="M744.321 527.212C745.9 524.962 749.005 524.418 751.255 525.997C753.505 527.576 754.049 530.681 752.47 532.931L741.032 549.23C739.453 551.48 736.348 552.024 734.098 550.445C731.847 548.866 731.303 545.761 732.883 543.511L744.321 527.212Z" fill="#A569FF"/>
<path d="M759.069 537.303C760.526 534.972 763.598 534.264 765.929 535.721C768.26 537.179 768.968 540.251 767.51 542.581L756.952 559.464C755.494 561.795 752.423 562.502 750.092 561.045C747.761 559.587 747.053 556.516 748.511 554.185L759.069 537.303Z" fill="#A569FF"/>
<path d="M774.544 546.71C775.874 544.304 778.902 543.431 781.309 544.76C783.715 546.09 784.588 549.118 783.258 551.524L773.629 568.953C772.3 571.359 769.271 572.232 766.865 570.903C764.458 569.573 763.586 566.545 764.915 564.139L774.544 546.71Z" fill="#A569FF"/>
<path d="M790.248 555.141C791.449 552.668 794.427 551.636 796.9 552.837C799.373 554.038 800.405 557.016 799.204 559.49L790.507 577.402C789.306 579.875 786.328 580.906 783.855 579.705C781.382 578.505 780.35 575.526 781.551 573.053L790.248 555.141Z" fill="#A569FF"/>
<path d="M806.647 562.858C807.713 560.323 810.631 559.133 813.166 560.199C815.7 561.264 816.89 564.183 815.824 566.717L808.106 585.072C807.04 587.606 804.121 588.796 801.587 587.731C799.053 586.665 797.863 583.747 798.928 581.212L806.647 562.858Z" fill="#A569FF"/>
<path d="M823.141 569.567C824.072 566.981 826.924 565.638 829.511 566.569C832.097 567.5 833.44 570.352 832.509 572.939L825.766 591.674C824.835 594.261 821.984 595.603 819.397 594.672C816.81 593.741 815.468 590.89 816.399 588.303L823.141 569.567Z" fill="#A569FF"/>
<path d="M840.31 575.516C841.101 572.882 843.876 571.388 846.509 572.179C849.142 572.969 850.636 575.744 849.846 578.377L844.123 597.449C843.333 600.082 840.557 601.576 837.924 600.786C835.291 599.996 833.797 597.22 834.587 594.587L840.31 575.516Z" fill="#A569FF"/>
<path d="M857.448 580.436C858.099 577.765 860.791 576.127 863.462 576.777C866.134 577.428 867.772 580.12 867.121 582.792L862.411 602.138C861.76 604.809 859.068 606.448 856.397 605.797C853.725 605.147 852.087 602.454 852.738 599.783L857.448 580.436Z" fill="#A569FF"/>
<path d="M874.843 584.456C875.352 581.754 877.954 579.976 880.656 580.485C883.358 580.993 885.136 583.596 884.628 586.297L880.945 605.866C880.436 608.567 877.834 610.346 875.132 609.837C872.43 609.329 870.652 606.726 871.161 604.024L874.843 584.456Z" fill="#A569FF"/>
<path d="M892.89 587.615C893.251 584.889 895.753 582.973 898.479 583.334C901.204 583.695 903.121 586.197 902.76 588.922L900.146 608.661C899.785 611.387 897.283 613.304 894.557 612.943C891.832 612.582 889.915 610.08 890.276 607.354L892.89 587.615Z" fill="#A569FF"/>
<path d="M911.024 589.772C911.222 587.03 913.606 584.968 916.348 585.166C919.09 585.365 921.152 587.748 920.954 590.49L919.518 610.35C919.32 613.092 916.936 615.154 914.194 614.956C911.452 614.758 909.39 612.374 909.588 609.632L911.024 589.772Z" fill="#A569FF"/>
<path d="M928.695 590.829C928.736 588.08 930.998 585.885 933.747 585.926C936.496 585.968 938.691 588.229 938.65 590.978L938.351 610.888C938.31 613.637 936.048 615.832 933.299 615.791C930.55 615.749 928.355 613.487 928.396 610.738L928.695 590.829Z" fill="#A569FF"/>
<path d="M946.816 590.869C946.699 588.122 948.832 585.801 951.578 585.685C954.325 585.568 956.646 587.701 956.763 590.447L957.606 610.341C957.722 613.088 955.59 615.409 952.843 615.526C950.096 615.642 947.775 613.51 947.659 610.763L946.816 590.869Z" fill="#A569FF"/>
<path d="M964.362 589.912C964.095 587.176 966.097 584.741 968.833 584.474C971.569 584.208 974.004 586.21 974.27 588.946L976.203 608.764C976.469 611.5 974.467 613.934 971.731 614.201C968.995 614.468 966.56 612.466 966.294 609.73L964.362 589.912Z" fill="#A569FF"/>
<path d="M982.346 587.938C981.93 585.221 983.795 582.68 986.513 582.264C989.23 581.848 991.771 583.713 992.187 586.431L995.202 606.113C995.618 608.831 993.752 611.371 991.035 611.787C988.317 612.204 985.777 610.338 985.361 607.621L982.346 587.938Z" fill="#A569FF"/>
<path d="M1000.24 584.981C999.675 582.29 1001.4 579.653 1004.09 579.093C1006.79 578.532 1009.42 580.259 1009.98 582.95L1014.04 602.444C1014.6 605.135 1012.88 607.771 1010.19 608.332C1007.49 608.893 1004.86 607.166 1004.3 604.474L1000.24 584.981Z" fill="#A569FF"/>
<path d="M1017.43 581.199C1016.73 578.539 1018.32 575.819 1020.98 575.122C1023.64 574.425 1026.36 576.016 1027.06 578.675L1032.11 597.937C1032.8 600.596 1031.21 603.317 1028.55 604.014C1025.89 604.711 1023.17 603.12 1022.48 600.46L1017.43 581.199Z" fill="#A569FF"/>
<path d="M1035.06 576.36C1034.22 573.739 1035.68 570.941 1038.3 570.11C1040.92 569.279 1043.72 570.731 1044.55 573.351L1050.56 592.332C1051.39 594.953 1049.94 597.751 1047.32 598.582C1044.7 599.412 1041.9 597.961 1041.07 595.341L1035.06 576.36Z" fill="#A569FF"/>
<path d="M1051.92 570.831C1050.96 568.254 1052.27 565.389 1054.85 564.433C1057.43 563.477 1060.29 564.791 1061.25 567.369L1068.18 586.038C1069.13 588.615 1067.82 591.48 1065.24 592.436C1062.66 593.392 1059.8 592.078 1058.84 589.5L1051.92 570.831Z" fill="#A569FF"/>
<path d="M1066.03 565.487C1064.97 562.948 1066.17 560.034 1068.71 558.978C1071.25 557.921 1074.16 559.122 1075.22 561.66L1082.87 580.042C1083.93 582.58 1082.73 585.494 1080.19 586.551C1077.65 587.608 1074.73 586.407 1073.68 583.869L1066.03 565.487Z" fill="#A569FF"/>
</g>
<g filter="url(#filter2_di_5279_4870)">
<path d="M708.419 -177.891C709.732 -174.248 707.843 -170.23 704.2 -168.917C700.556 -167.604 696.539 -169.494 695.226 -173.137L685.718 -199.523C684.405 -203.167 686.295 -207.184 689.938 -208.497C693.581 -209.81 697.599 -207.921 698.912 -204.277L708.419 -177.891Z" fill="#DED2FF"/>
<path d="M684.792 -169.055C686.297 -165.487 684.625 -161.374 681.056 -159.869C677.488 -158.364 673.376 -160.037 671.871 -163.605L660.972 -189.448C659.467 -193.016 661.139 -197.129 664.708 -198.634C668.276 -200.139 672.388 -198.466 673.893 -194.898L684.792 -169.055Z" fill="#DED2FF"/>
<path d="M661.691 -158.984C663.383 -155.501 661.931 -151.305 658.448 -149.613C654.965 -147.92 650.77 -149.372 649.077 -152.855L636.819 -178.082C635.127 -181.565 636.578 -185.76 640.061 -187.453C643.545 -189.145 647.74 -187.694 649.433 -184.211L661.691 -158.984Z" fill="#DED2FF"/>
<path d="M638.97 -147.576C640.849 -144.19 639.628 -139.922 636.242 -138.043C632.856 -136.163 628.588 -137.384 626.709 -140.77L613.097 -165.293C611.217 -168.679 612.439 -172.947 615.825 -174.827C619.21 -176.706 623.479 -175.485 625.358 -172.099L638.97 -147.576Z" fill="#DED2FF"/>
<path d="M617.101 -135.09C619.157 -131.808 618.165 -127.481 614.883 -125.424C611.602 -123.368 607.275 -124.361 605.218 -127.642L590.323 -151.407C588.266 -154.688 589.259 -159.015 592.54 -161.072C595.821 -163.129 600.149 -162.136 602.205 -158.855L617.101 -135.09Z" fill="#DED2FF"/>
<path d="M595.777 -121.335C598.01 -118.171 597.254 -113.796 594.089 -111.564C590.925 -109.332 586.55 -110.087 584.318 -113.252L568.151 -136.171C565.919 -139.335 566.675 -143.71 569.839 -145.942C573.004 -148.175 577.378 -147.419 579.611 -144.254L595.777 -121.335Z" fill="#DED2FF"/>
<path d="M575.249 -106.47C577.65 -103.432 577.134 -99.0226 574.096 -96.6213C571.058 -94.2198 566.649 -94.736 564.247 -97.7741L546.855 -119.778C544.454 -122.816 544.97 -127.225 548.008 -129.627C551.046 -132.028 555.455 -131.512 557.857 -128.474L575.249 -106.47Z" fill="#DED2FF"/>
<path d="M555.567 -90.5102C558.13 -87.6079 557.856 -83.1767 554.954 -80.6129C552.051 -78.0492 547.62 -78.3236 545.057 -81.2259L526.488 -102.246C523.924 -105.149 524.199 -109.58 527.101 -112.144C530.003 -114.707 534.434 -114.433 536.998 -111.531L555.567 -90.5102Z" fill="#DED2FF"/>
<path d="M536.864 -73.573C539.58 -70.8121 539.543 -66.3726 536.782 -63.6571C534.021 -60.9416 529.582 -60.9785 526.866 -63.7394L507.199 -83.7355C504.483 -86.4965 504.52 -90.9359 507.281 -93.6514C510.042 -96.3669 514.482 -96.33 517.197 -93.5692L536.864 -73.573Z" fill="#DED2FF"/>
<path d="M519.027 -55.5679C521.89 -52.9605 522.098 -48.5257 519.49 -45.6625C516.883 -42.7993 512.448 -42.5918 509.585 -45.1992L488.848 -64.0834C485.984 -66.6907 485.777 -71.1255 488.384 -73.9887C490.992 -76.852 495.426 -77.0594 498.29 -74.452L519.027 -55.5679Z" fill="#DED2FF"/>
<path d="M501.872 -36.2329C504.875 -33.7876 505.327 -29.371 502.881 -26.3682C500.436 -23.3654 496.019 -22.9135 493.017 -25.3588L471.268 -43.0692C468.265 -45.5145 467.814 -49.9311 470.259 -52.9339C472.704 -55.9367 477.121 -56.3886 480.123 -53.9433L501.872 -36.2329Z" fill="#DED2FF"/>
<path d="M486.139 -16.3958C489.272 -14.12 489.967 -9.73507 487.691 -6.60189C485.415 -3.46876 481.031 -2.77377 477.897 -5.04961L455.205 -21.533C452.072 -23.8089 451.377 -28.1938 453.653 -31.327C455.929 -34.4602 460.313 -35.1551 463.447 -32.8793L486.139 -16.3958Z" fill="#DED2FF"/>
<path d="M471.528 4.25191C474.781 6.35171 475.717 10.6917 473.617 13.9455C471.517 17.1993 467.177 18.1349 463.924 16.0351L440.357 0.827059C437.104 -1.27268 436.168 -5.61262 438.268 -8.86644C440.368 -12.1203 444.708 -13.0558 447.961 -10.956L471.528 4.25191Z" fill="#DED2FF"/>
<path d="M458.093 25.6502C461.455 27.5719 462.622 31.8553 460.701 35.2173C458.779 38.5794 454.495 39.7469 451.133 37.8251L426.783 23.9063C423.421 21.9845 422.254 17.7011 424.176 14.3392C426.098 10.9771 430.381 9.80956 433.743 11.7314L458.093 25.6502Z" fill="#DED2FF"/>
<path d="M445.831 47.7783C449.294 49.5122 450.695 53.7248 448.961 57.1874C447.228 60.6501 443.015 62.0516 439.552 60.3177L414.473 47.76C411.011 46.0262 409.609 41.8135 411.343 38.3508C413.077 34.8881 417.29 33.4867 420.752 35.2205L445.831 47.7783Z" fill="#DED2FF"/>
<path d="M434.805 70.5413C438.358 72.0819 439.989 76.211 438.449 79.7639C436.908 83.3168 432.779 84.948 429.226 83.4074L403.494 72.2492C399.941 70.7086 398.31 66.5795 399.85 63.0266C401.391 59.4737 405.52 57.8425 409.073 59.3831L434.805 70.5413Z" fill="#DED2FF"/>
<path d="M425.048 93.8718C428.681 95.2143 430.537 99.2473 429.194 102.88C427.852 106.512 423.819 108.368 420.187 107.026L393.879 97.3024C390.246 95.9599 388.39 91.927 389.733 88.2946C391.075 84.6622 395.108 82.8059 398.74 84.1485L425.048 93.8718Z" fill="#DED2FF"/>
<path d="M416.59 117.702C420.291 118.842 422.367 122.766 421.227 126.467C420.087 130.168 416.163 132.244 412.462 131.104L385.657 122.847C381.956 121.707 379.88 117.783 381.02 114.082C382.16 110.381 386.085 108.305 389.786 109.445L416.59 117.702Z" fill="#DED2FF"/>
<path d="M409.46 141.939C413.218 142.872 415.508 146.676 414.574 150.434C413.641 154.193 409.837 156.483 406.079 155.549L378.859 148.788C375.101 147.854 372.811 144.051 373.744 140.292C374.678 136.534 378.481 134.244 382.24 135.178L409.46 141.939Z" fill="#DED2FF"/>
<path d="M403.676 166.576C407.48 167.305 409.972 170.979 409.244 174.782C408.515 178.586 404.841 181.078 401.038 180.35L373.492 175.073C369.688 174.344 367.196 170.67 367.924 166.867C368.653 163.064 372.327 160.571 376.13 161.3L403.676 166.576Z" fill="#DED2FF"/>
<path d="M399.169 192.037C403.007 192.548 405.705 196.074 405.194 199.913C404.683 203.752 401.156 206.449 397.318 205.938L369.516 202.236C365.677 201.725 362.98 198.199 363.491 194.36C364.002 190.522 367.528 187.824 371.367 188.335L399.169 192.037Z" fill="#DED2FF"/>
<path d="M396.156 217.137C400.017 217.434 402.906 220.806 402.608 224.667C402.311 228.528 398.94 231.417 395.079 231.119L367.114 228.964C363.253 228.667 360.364 225.296 360.662 221.435C360.959 217.574 364.331 214.685 368.192 214.982L396.156 217.137Z" fill="#DED2FF"/>
<path d="M394.53 242.371C398.402 242.454 401.473 245.66 401.389 249.532C401.305 253.404 398.099 256.475 394.228 256.391L366.187 255.786C362.315 255.702 359.244 252.496 359.328 248.624C359.411 244.753 362.618 241.682 366.489 241.765L394.53 242.371Z" fill="#DED2FF"/>
<path d="M394.299 267.642C398.169 267.512 401.412 270.544 401.542 274.414C401.673 278.285 398.641 281.528 394.77 281.658L366.739 282.601C362.869 282.731 359.625 279.699 359.495 275.829C359.365 271.959 362.397 268.716 366.267 268.585L394.299 267.642Z" fill="#DED2FF"/>
<path d="M395.469 292.883C399.327 292.545 402.728 295.398 403.066 299.256C403.405 303.114 400.552 306.515 396.694 306.853L368.754 309.303C364.896 309.642 361.495 306.789 361.156 302.931C360.818 299.073 363.671 295.672 367.529 295.333L395.469 292.883Z" fill="#DED2FF"/>
<path d="M398.013 318.034C401.846 317.484 405.399 320.145 405.95 323.979C406.5 327.812 403.838 331.365 400.005 331.915L372.242 335.899C368.409 336.449 364.855 333.788 364.305 329.955C363.755 326.121 366.417 322.568 370.25 322.018L398.013 318.034Z" fill="#DED2FF"/>
<path d="M401.931 343.024C405.728 342.264 409.423 344.726 410.183 348.523C410.943 352.32 408.481 356.015 404.684 356.775L377.182 362.28C373.385 363.041 369.691 360.579 368.93 356.781C368.17 352.984 370.632 349.29 374.429 348.53L401.931 343.024Z" fill="#DED2FF"/>
<path d="M407.217 367.743C410.967 366.775 414.791 369.03 415.759 372.78C416.727 376.529 414.472 380.354 410.723 381.322L383.566 388.333C379.816 389.301 375.992 387.046 375.024 383.297C374.056 379.547 376.311 375.723 380.06 374.755L407.217 367.743Z" fill="#DED2FF"/>
<path d="M413.851 392.152C417.542 390.979 421.485 393.019 422.658 396.71C423.831 400.401 421.79 404.343 418.1 405.517L391.37 414.014C387.68 415.187 383.737 413.146 382.564 409.455C381.391 405.765 383.431 401.822 387.122 400.649L413.851 392.152Z" fill="#DED2FF"/>
<path d="M421.802 416.115C425.424 414.745 429.471 416.57 430.841 420.192C432.211 423.814 430.386 427.861 426.764 429.231L400.532 439.157C396.91 440.527 392.863 438.702 391.493 435.08C390.122 431.458 391.947 427.411 395.569 426.041L421.802 416.115Z" fill="#DED2FF"/>
<path d="M431.302 440.212C434.841 438.639 438.985 440.233 440.557 443.771C442.13 447.31 440.536 451.454 436.998 453.027L411.368 464.417C407.829 465.99 403.685 464.396 402.112 460.858C400.54 457.319 402.133 453.175 405.672 451.602L431.302 440.212Z" fill="#DED2FF"/>
<path d="M441.834 463.142C445.283 461.382 449.506 462.751 451.267 466.2C453.027 469.649 451.658 473.873 448.209 475.633L423.228 488.384C419.778 490.144 415.555 488.775 413.795 485.326C412.034 481.877 413.403 477.654 416.852 475.893L441.834 463.142Z" fill="#DED2FF"/>
<path d="M453.635 485.535C456.983 483.588 461.275 484.724 463.221 488.071C465.168 491.419 464.033 495.711 460.685 497.657L436.44 511.757C433.092 513.704 428.8 512.569 426.853 509.221C424.907 505.873 426.042 501.582 429.39 499.635L453.635 485.535Z" fill="#DED2FF"/>
<path d="M466.641 507.273C469.877 505.147 474.224 506.046 476.351 509.282C478.478 512.519 477.578 516.866 474.342 518.993L450.903 534.396C447.667 536.523 443.319 535.623 441.192 532.387C439.066 529.151 439.965 524.803 443.201 522.677L466.641 507.273Z" fill="#DED2FF"/>
<path d="M480.724 528.138C483.842 525.842 488.231 526.509 490.527 529.627C492.823 532.746 492.157 537.135 489.038 539.431L466.452 556.06C463.334 558.356 458.944 557.689 456.648 554.571C454.353 551.452 455.019 547.063 458.138 544.767L480.724 528.138Z" fill="#DED2FF"/>
<path d="M496.006 548.353C498.995 545.891 503.414 546.318 505.876 549.307C508.338 552.296 507.911 556.715 504.922 559.177L483.275 577.01C480.286 579.473 475.867 579.046 473.404 576.057C470.942 573.068 471.369 568.649 474.358 566.187L496.006 548.353Z" fill="#DED2FF"/>
<path d="M512.381 567.714C515.231 565.093 519.667 565.279 522.288 568.13C524.91 570.98 524.724 575.416 521.873 578.037L501.227 597.021C498.377 599.643 493.941 599.457 491.32 596.606C488.698 593.755 488.884 589.32 491.735 586.699L512.381 567.714Z" fill="#DED2FF"/>
<path d="M529.636 586.035C532.343 583.266 536.783 583.217 539.552 585.924C542.32 588.631 542.37 593.071 539.663 595.839L520.055 615.894C517.348 618.663 512.908 618.712 510.139 616.005C507.37 613.298 507.321 608.858 510.028 606.09L529.636 586.035Z" fill="#DED2FF"/>
<path d="M548.046 603.601C550.599 600.689 555.029 600.397 557.941 602.95C560.853 605.503 561.145 609.933 558.592 612.845L540.104 633.937C537.552 636.849 533.122 637.14 530.21 634.588C527.298 632.035 527.006 627.605 529.559 624.693L548.046 603.601Z" fill="#DED2FF"/>
<path d="M567.209 619.985C569.602 616.941 574.011 616.414 577.055 618.808C580.099 621.202 580.626 625.61 578.232 628.654L560.893 650.7C558.5 653.744 554.091 654.271 551.047 651.877C548.003 649.483 547.476 645.075 549.87 642.031L567.209 619.985Z" fill="#DED2FF"/>
<path d="M587.702 635.689C589.927 632.519 594.3 631.752 597.469 633.977C600.639 636.201 601.406 640.574 599.181 643.744L583.07 666.702C580.845 669.872 576.472 670.638 573.302 668.414C570.132 666.189 569.366 661.816 571.591 658.647L587.702 635.689Z" fill="#DED2FF"/>
<path d="M608.476 649.901C610.529 646.618 614.855 645.621 618.139 647.674C621.422 649.728 622.419 654.054 620.366 657.337L605.494 681.117C603.441 684.4 599.114 685.398 595.831 683.344C592.548 681.291 591.551 676.965 593.604 673.681L608.476 649.901Z" fill="#DED2FF"/>
<path d="M630.274 663.152C632.147 659.763 636.413 658.533 639.802 660.406C643.192 662.279 644.422 666.545 642.549 669.934L628.986 694.484C627.113 697.873 622.847 699.103 619.457 697.23C616.068 695.358 614.838 691.092 616.711 687.702L630.274 663.152Z" fill="#DED2FF"/>
<path d="M652.394 675.029C654.086 671.545 658.281 670.092 661.764 671.783C665.248 673.475 666.701 677.67 665.01 681.154L652.759 706.384C651.068 709.868 646.873 711.321 643.389 709.629C639.906 707.938 638.453 703.743 640.144 700.259L652.394 675.029Z" fill="#DED2FF"/>
<path d="M675.494 685.898C676.995 682.328 681.106 680.651 684.675 682.152C688.245 683.654 689.922 687.764 688.421 691.334L677.548 717.188C676.047 720.758 671.936 722.435 668.367 720.934C664.797 719.432 663.12 715.322 664.621 711.752L675.494 685.898Z" fill="#DED2FF"/>
<path d="M698.727 695.349C700.038 691.705 704.055 689.815 707.699 691.126C711.343 692.437 713.233 696.454 711.922 700.098L702.425 726.488C701.113 730.132 697.096 732.023 693.453 730.711C689.809 729.4 687.918 725.383 689.229 721.739L698.727 695.349Z" fill="#DED2FF"/>
<path d="M722.911 703.728C724.024 700.019 727.933 697.914 731.643 699.027C735.352 700.14 737.456 704.049 736.343 707.759L728.281 734.622C727.168 738.331 723.259 740.436 719.55 739.323C715.841 738.21 713.736 734.3 714.849 730.591L722.911 703.728Z" fill="#DED2FF"/>
<path d="M747.051 710.659C747.967 706.896 751.76 704.589 755.523 705.505C759.285 706.421 761.593 710.214 760.677 713.977L754.041 741.228C753.125 744.99 749.332 747.298 745.57 746.382C741.807 745.465 739.5 741.673 740.416 737.91L747.051 710.659Z" fill="#DED2FF"/>
<path d="M771.554 716.321C772.27 712.515 775.936 710.011 779.741 710.727C783.547 711.443 786.052 715.109 785.335 718.915L780.148 746.478C779.432 750.284 775.766 752.788 771.96 752.072C768.155 751.356 765.65 747.69 766.366 743.884L771.554 716.321Z" fill="#DED2FF"/>
<path d="M796.974 720.77C797.483 716.931 801.007 714.232 804.846 714.74C808.685 715.248 811.385 718.773 810.876 722.612L807.194 750.416C806.685 754.255 803.161 756.955 799.322 756.447C795.483 755.938 792.783 752.414 793.292 748.575L796.974 720.77Z" fill="#DED2FF"/>
<path d="M822.516 723.809C822.796 719.947 826.153 717.042 830.016 717.321C833.878 717.601 836.783 720.958 836.503 724.821L834.481 752.795C834.202 756.657 830.844 759.562 826.982 759.283C823.119 759.004 820.215 755.646 820.494 751.784L822.516 723.809Z" fill="#DED2FF"/>
<path d="M847.408 725.298C847.466 721.426 850.652 718.334 854.524 718.392C858.396 718.45 861.488 721.636 861.43 725.508L861.009 753.552C860.951 757.424 857.765 760.516 853.893 760.458C850.021 760.4 846.929 757.214 846.987 753.342L847.408 725.298Z" fill="#DED2FF"/>
<path d="M872.932 725.354C872.768 721.485 875.772 718.216 879.641 718.052C883.51 717.888 886.779 720.891 886.943 724.76L888.131 752.782C888.295 756.651 885.292 759.921 881.423 760.085C877.554 760.249 874.284 757.245 874.12 753.376L872.932 725.354Z" fill="#DED2FF"/>
<path d="M897.647 724.006C897.271 720.152 900.091 716.723 903.945 716.347C907.8 715.971 911.229 718.791 911.605 722.645L914.326 750.56C914.702 754.414 911.882 757.843 908.028 758.219C904.174 758.595 900.744 755.775 900.369 751.921L897.647 724.006Z" fill="#DED2FF"/>
<path d="M922.979 721.226C922.393 717.398 925.021 713.82 928.849 713.234C932.677 712.647 936.255 715.275 936.841 719.103L941.088 746.827C941.674 750.655 939.046 754.233 935.218 754.819C931.391 755.406 927.812 752.778 927.226 748.95L922.979 721.226Z" fill="#DED2FF"/>
<path d="M948.179 717.061C947.389 713.27 949.822 709.556 953.613 708.766C957.404 707.976 961.118 710.409 961.908 714.2L967.629 741.658C968.419 745.449 965.986 749.163 962.195 749.952C958.404 750.742 954.69 748.309 953.9 744.518L948.179 717.061Z" fill="#DED2FF"/>
<path d="M972.397 711.733C971.416 707.987 973.657 704.154 977.403 703.173C981.149 702.191 984.981 704.432 985.963 708.179L993.072 735.31C994.053 739.056 991.812 742.888 988.066 743.87C984.32 744.852 980.488 742.61 979.506 738.864L972.397 711.733Z" fill="#DED2FF"/>
<path d="M997.225 704.916C996.055 701.225 998.099 697.284 1001.79 696.114C1005.48 694.944 1009.42 696.987 1010.59 700.679L1019.07 727.415C1020.24 731.107 1018.19 735.048 1014.5 736.218C1010.81 737.388 1006.87 735.344 1005.7 731.653L997.225 704.916Z" fill="#DED2FF"/>
<path d="M1020.97 697.13C1019.63 693.499 1021.48 689.464 1025.11 688.117C1028.74 686.77 1032.78 688.621 1034.12 692.252L1043.88 718.549C1045.22 722.179 1043.37 726.214 1039.74 727.561C1036.11 728.908 1032.08 727.057 1030.73 723.426L1020.97 697.13Z" fill="#DED2FF"/>
<path d="M1040.85 689.601C1039.36 686.026 1041.05 681.921 1044.63 680.433C1048.2 678.944 1052.31 680.636 1053.79 684.211L1064.57 710.104C1066.06 713.679 1064.37 717.783 1060.8 719.272C1057.22 720.76 1053.12 719.069 1051.63 715.494L1040.85 689.601Z" fill="#DED2FF"/>
</g>
<rect y="0.902344" width="928" height="80" fill="url(#paint3_linear_5279_4870)"/>
<rect width="928" height="80" transform="matrix(1 0 0 -1 0 520.902)" fill="url(#paint4_linear_5279_4870)"/>
<path d="M1.31134e-05 520.902L0 0.90235L80 0.902344L80 520.902H1.31134e-05Z" fill="url(#paint5_linear_5279_4870)"/>
<path d="M928 520.902L928 0.90235L848 0.902344L848 520.902H928Z" fill="url(#paint6_linear_5279_4870)"/>
<path d="M267 236.902H299.986V247.022H288.568V282.902H278.418V247.022H267V236.902Z" fill="#DED2FF"/>
<path d="M302.511 241.239L314.119 236.902H323V282.902H312.851V248.008L304.985 250.242L302.511 241.239Z" fill="#DED2FF"/>
<path d="M486 237.804H519.376V247.726H507.823V282.902H497.553V247.726H486V237.804Z" fill="#A569FF"/>
<path d="M552 282.902H521.448V275.429L536.531 259.709C539.569 256.531 541.089 253.868 541.089 251.72C541.089 250.303 540.661 249.165 539.805 248.306C538.949 247.404 537.772 246.953 536.275 246.953C533.279 246.953 531.076 248.585 529.664 251.849L520.999 246.759C522.368 243.624 524.4 241.197 527.096 239.479C529.792 237.761 532.809 236.902 536.146 236.902C540.382 236.902 543.955 238.212 546.865 240.832C549.86 243.409 551.358 246.888 551.358 251.269C551.358 256.037 549.026 260.761 544.362 265.443L536.916 272.981H552V282.902Z" fill="#A569FF"/>
<path d="M719 236.902H752.667V246.824H741.013V282H730.654V246.824H719V236.902Z" fill="#7C40FF"/>
<path d="M785.187 245.278L777.353 255.199C780.288 256.23 782.619 257.862 784.345 260.096C786.115 262.286 787 264.863 787 267.827C787 272.551 785.403 276.245 782.209 278.908C779.015 281.571 775.108 282.902 770.49 282.902C766.821 282.902 763.584 282.086 760.778 280.454C757.973 278.779 755.922 276.374 754.627 273.238L763.562 268.084C764.685 271.263 766.994 272.852 770.49 272.852C773.037 273.024 774.85 272.229 775.929 270.468C777.008 268.707 777.008 266.946 775.929 265.185C774.85 263.424 773.037 262.63 770.49 262.802H768.353L764.404 256.939L772.627 246.566H756.052V236.902H785.187V245.278Z" fill="#7C40FF"/>
</g>
<defs>
<filter id="filter0_di_5279_4870" x="802.055" y="97.0083" width="252.523" height="339.36" filterUnits="userSpaceOnUse" color-interpolation-filters="sRGB">
<feFlood flood-opacity="0" result="BackgroundImageFix"/>
<feColorMatrix in="SourceAlpha" type="matrix" values="0 0 0 0 0 0 0 0 0 0 0 0 0 0 0 0 0 0 127 0" result="hardAlpha"/>
<feOffset/>
<feGaussianBlur stdDeviation="5"/>
<feComposite in2="hardAlpha" operator="out"/>
<feColorMatrix type="matrix" values="0 0 0 0 0.356863 0 0 0 0 0.0784314 0 0 0 0 0.956863 0 0 0 1 0"/>
<feBlend mode="normal" in2="BackgroundImageFix" result="effect1_dropShadow_5279_4870"/>
<feBlend mode="normal" in="SourceGraphic" in2="effect1_dropShadow_5279_4870" result="shape"/>
<feColorMatrix in="SourceAlpha" type="matrix" values="0 0 0 0 0 0 0 0 0 0 0 0 0 0 0 0 0 0 127 0" result="hardAlpha"/>
<feOffset/>
<feGaussianBlur stdDeviation="1.5"/>
<feComposite in2="hardAlpha" operator="arithmetic" k2="-1" k3="1"/>
<feColorMatrix type="matrix" values="0 0 0 0 1 0 0 0 0 1 0 0 0 0 1 0 0 0 0.25 0"/>
<feBlend mode="normal" in2="shape" result="effect2_innerShadow_5279_4870"/>
</filter>
<filter id="filter1_di_5279_4870" x="572.188" y="-82.4009" width="521.062" height="708.192" filterUnits="userSpaceOnUse" color-interpolation-filters="sRGB">
<feFlood flood-opacity="0" result="BackgroundImageFix"/>
<feColorMatrix in="SourceAlpha" type="matrix" values="0 0 0 0 0 0 0 0 0 0 0 0 0 0 0 0 0 0 127 0" result="hardAlpha"/>
<feOffset/>
<feGaussianBlur stdDeviation="5"/>
<feComposite in2="hardAlpha" operator="out"/>
<feColorMatrix type="matrix" values="0 0 0 0 0.356863 0 0 0 0 0.0784314 0 0 0 0 0.956863 0 0 0 1 0"/>
<feBlend mode="normal" in2="BackgroundImageFix" result="effect1_dropShadow_5279_4870"/>
<feBlend mode="normal" in="SourceGraphic" in2="effect1_dropShadow_5279_4870" result="shape"/>
<feColorMatrix in="SourceAlpha" type="matrix" values="0 0 0 0 0 0 0 0 0 0 0 0 0 0 0 0 0 0 127 0" result="hardAlpha"/>
<feOffset/>
<feGaussianBlur stdDeviation="1.5"/>
<feComposite in2="hardAlpha" operator="arithmetic" k2="-1" k3="1"/>
<feColorMatrix type="matrix" values="0 0 0 0 1 0 0 0 0 1 0 0 0 0 1 0 0 0 0.25 0"/>
<feBlend mode="normal" in2="shape" result="effect2_innerShadow_5279_4870"/>
</filter>
<filter id="filter2_di_5279_4870" x="349.328" y="-218.914" width="725.789" height="989.373" filterUnits="userSpaceOnUse" color-interpolation-filters="sRGB">
<feFlood flood-opacity="0" result="BackgroundImageFix"/>
<feColorMatrix in="SourceAlpha" type="matrix" values="0 0 0 0 0 0 0 0 0 0 0 0 0 0 0 0 0 0 127 0" result="hardAlpha"/>
<feOffset/>
<feGaussianBlur stdDeviation="5"/>
<feComposite in2="hardAlpha" operator="out"/>
<feColorMatrix type="matrix" values="0 0 0 0 0.356863 0 0 0 0 0.0784314 0 0 0 0 0.956863 0 0 0 1 0"/>
<feBlend mode="normal" in2="BackgroundImageFix" result="effect1_dropShadow_5279_4870"/>
<feBlend mode="normal" in="SourceGraphic" in2="effect1_dropShadow_5279_4870" result="shape"/>
<feColorMatrix in="SourceAlpha" type="matrix" values="0 0 0 0 0 0 0 0 0 0 0 0 0 0 0 0 0 0 127 0" result="hardAlpha"/>
<feOffset/>
<feGaussianBlur stdDeviation="1.5"/>
<feComposite in2="hardAlpha" operator="arithmetic" k2="-1" k3="1"/>
<feColorMatrix type="matrix" values="0 0 0 0 1 0 0 0 0 1 0 0 0 0 1 0 0 0 0.25 0"/>
<feBlend mode="normal" in2="shape" result="effect2_innerShadow_5279_4870"/>
</filter>
<radialGradient id="paint0_radial_5279_4870" cx="0" cy="0" r="1" gradientUnits="userSpaceOnUse" gradientTransform="translate(834 261.902) rotate(90) scale(641)">
<stop stop-color="#DED2FF"/>
<stop offset="1" stop-color="#15101B" stop-opacity="0"/>
</radialGradient>
<radialGradient id="paint1_radial_5279_4870" cx="0" cy="0" r="1" gradientUnits="userSpaceOnUse" gradientTransform="translate(937.5 261.402) rotate(90) scale(514.5)">
<stop stop-color="#7C40FF"/>
<stop offset="1" stop-color="#15101B" stop-opacity="0"/>
</radialGradient>
<radialGradient id="paint2_radial_5279_4870" cx="0" cy="0" r="1" gradientUnits="userSpaceOnUse" gradientTransform="translate(976 261.902) rotate(90) scale(319)">
<stop stop-color="#5B14F4"/>
<stop offset="1" stop-color="#15101B" stop-opacity="0"/>
</radialGradient>
<linearGradient id="paint3_linear_5279_4870" x1="464" y1="0.902344" x2="464" y2="80.9023" gradientUnits="userSpaceOnUse">
<stop stop-color="#15101B"/>
<stop offset="1" stop-color="#15101B" stop-opacity="0"/>
</linearGradient>
<linearGradient id="paint4_linear_5279_4870" x1="464" y1="0" x2="464" y2="80" gradientUnits="userSpaceOnUse">
<stop stop-color="#15101B"/>
<stop offset="1" stop-color="#15101B" stop-opacity="0"/>
</linearGradient>
<linearGradient id="paint5_linear_5279_4870" x1="-6.55671e-06" y1="260.902" x2="80" y2="260.902" gradientUnits="userSpaceOnUse">
<stop stop-color="#15101B"/>
<stop offset="1" stop-color="#15101B" stop-opacity="0"/>
</linearGradient>
<linearGradient id="paint6_linear_5279_4870" x1="928" y1="260.902" x2="848" y2="260.902" gradientUnits="userSpaceOnUse">
<stop stop-color="#15101B"/>
<stop offset="1" stop-color="#15101B" stop-opacity="0"/>
</linearGradient>
<clipPath id="clip0_5279_4870">
<rect width="928" height="520" fill="white" transform="translate(0 0.902344)"/>
</clipPath>
</defs>
</svg>
