<svg width="239" height="214" viewBox="0 0 239 214" fill="none" xmlns="http://www.w3.org/2000/svg">
<path opacity="0.3" d="M7.76534 14.3366V6.809H9.58782V17.9023H8.16153L2.93181 10.3747V17.9023H1.10933V6.809H2.53562L7.76534 14.3366ZM21.2327 16.4444C20.1234 17.5537 18.7658 18.1084 17.1599 18.1084C15.554 18.1084 14.1911 17.5537 13.0712 16.4444C11.9619 15.3245 11.4072 13.9616 11.4072 12.3557C11.4072 10.7498 11.9619 9.39216 13.0712 8.28283C14.1911 7.16293 15.554 6.60298 17.1599 6.60298C18.7658 6.60298 20.1234 7.16293 21.2327 8.28283C22.3526 9.39216 22.9126 10.7498 22.9126 12.3557C22.9126 13.9616 22.3526 15.3245 21.2327 16.4444ZM14.3549 15.2082C15.1261 15.9584 16.0611 16.3334 17.1599 16.3334C18.2692 16.3334 19.199 15.9584 19.9491 15.2082C20.7098 14.4476 21.0901 13.4967 21.0901 12.3557C21.0901 11.2146 20.7098 10.2691 19.9491 9.51894C19.199 8.75826 18.2692 8.37791 17.1599 8.37791C16.0506 8.37791 15.1156 8.75826 14.3549 9.51894C13.6047 10.2691 13.2297 11.2146 13.2297 12.3557C13.2297 13.4861 13.6047 14.437 14.3549 15.2082ZM29.2616 17.9023H27.0746L23.2236 6.809H25.2204L28.1681 15.6995L31.1316 6.809H33.1125L29.2616 17.9023Z" fill="white"/>
<path opacity="0.3" d="M52.0937 6.809H56.4518C57.9732 6.809 59.2357 7.34253 60.2394 8.40961C61.2536 9.47668 61.7608 10.792 61.7608 12.3557C61.7608 13.9087 61.2536 15.2241 60.2394 16.3017C59.2357 17.3688 57.9732 17.9023 56.4518 17.9023H52.0937V6.809ZM53.9162 16.1591H56.4518C57.4978 16.1591 58.3482 15.7999 59.0033 15.0815C59.6689 14.363 60.0017 13.4544 60.0017 12.3557C60.0017 11.2569 59.6689 10.3483 59.0033 9.62988C58.3482 8.91145 57.4978 8.55224 56.4518 8.55224H53.9162V16.1591ZM65.4033 13.1639V16.1591H70.316V17.9023H63.5808V6.809H70.2368V8.55224H65.4033V11.4365H69.8406V13.1639H65.4033ZM77.2955 18.1084C75.6263 18.1084 74.2422 17.559 73.1435 16.4602C72.0447 15.3403 71.4953 13.9721 71.4953 12.3557C71.4953 10.7286 72.0447 9.36575 73.1435 8.26698C74.2317 7.15764 75.6157 6.60298 77.2955 6.60298C78.2992 6.60298 79.2237 6.84069 80.0689 7.31612C80.9247 7.79155 81.5903 8.43602 82.0657 9.24953L80.4809 10.1687C80.1851 9.61931 79.7519 9.18614 79.1814 8.86919C78.6215 8.54167 77.9928 8.37791 77.2955 8.37791C76.1228 8.37791 75.1614 8.75297 74.4113 9.50309C73.6823 10.2427 73.3178 11.1935 73.3178 12.3557C73.3178 13.5178 73.6823 14.4687 74.4113 15.2082C75.1614 15.9584 76.1228 16.3334 77.2955 16.3334C77.9928 16.3334 78.6267 16.175 79.1973 15.858C79.7678 15.5305 80.1957 15.092 80.4809 14.5426L82.0657 15.446C81.6114 16.2489 80.9511 16.8987 80.0847 17.3952C79.2501 17.8706 78.3204 18.1084 77.2955 18.1084Z" fill="white"/>
<path opacity="0.3" d="M104.089 18.1084C102.367 18.1084 101.178 17.4322 100.523 16.0799L102.092 15.1607C102.462 15.9425 103.133 16.3334 104.105 16.3334C104.739 16.3334 105.225 16.1802 105.563 15.8738C105.912 15.5569 106.086 15.1132 106.086 14.5426V6.809H107.908V14.5426C107.908 15.6837 107.549 16.5659 106.831 17.1892C106.123 17.802 105.209 18.1084 104.089 18.1084ZM119.064 17.9023H117.099L116.322 15.6678H111.6L110.823 17.9023H108.842L112.867 6.809H115.054L119.064 17.9023ZM113.961 8.94843L112.202 13.9563H115.72L113.961 8.94843ZM127.071 14.3366V6.809H128.894V17.9023H127.468L122.238 10.3747V17.9023H120.415V6.809H121.842L127.071 14.3366Z" fill="white"/>
<path opacity="0.3" d="M155.568 6.809V8.55224H150.893V11.6584H155.409V13.4016H150.893V17.9023H149.07V6.809H155.568ZM159.254 13.1639V16.1591H164.166V17.9023H157.431V6.809H164.087V8.55224H159.254V11.4365H163.691V13.1639H159.254ZM172.522 12.1497C173.008 12.4032 173.389 12.7571 173.663 13.2114C173.938 13.6552 174.075 14.1623 174.075 14.7328C174.075 15.6414 173.753 16.3968 173.109 16.999C172.464 17.6012 171.677 17.9023 170.747 17.9023H165.993V6.809H170.399C171.307 6.809 172.073 7.10482 172.697 7.69646C173.331 8.28811 173.648 9.0171 173.648 9.88344C173.648 10.8343 173.273 11.5897 172.522 12.1497ZM170.399 8.52054H167.816V11.4365H170.399C170.8 11.4365 171.138 11.2992 171.413 11.0245C171.688 10.7392 171.825 10.3906 171.825 9.97852C171.825 9.56649 171.688 9.22312 171.413 8.94843C171.138 8.66317 170.8 8.52054 170.399 8.52054ZM167.816 16.1908H170.747C171.17 16.1908 171.524 16.0429 171.809 15.7471C172.105 15.4407 172.253 15.0709 172.253 14.6377C172.253 14.2046 172.105 13.8401 171.809 13.5442C171.524 13.2379 171.17 13.0847 170.747 13.0847H167.816V16.1908Z" fill="white"/>
<path opacity="0.3" d="M201.723 6.809H203.673V17.9023H201.85V9.99437L198.475 15.5727H198.253L194.877 9.97852V17.9023H193.055V6.809H195.02L198.364 12.3557L201.723 6.809ZM215.235 17.9023H213.269L212.493 15.6678H207.77L206.994 17.9023H205.013L209.038 6.809H211.225L215.235 17.9023ZM210.132 8.94843L208.373 13.9563H211.891L210.132 8.94843ZM224.906 17.9023H222.909L220.564 13.8612H218.408V17.9023H216.586V6.809H221.023C222.016 6.809 222.856 7.15764 223.543 7.85494C224.24 8.53111 224.589 9.37103 224.589 10.3747C224.589 11.0826 224.383 11.7323 223.971 12.324C223.569 12.9051 223.041 13.3277 222.386 13.5918L224.906 17.9023ZM221.023 8.52054H218.408V12.2289H221.023C221.509 12.2289 221.921 12.0493 222.259 11.6901C222.597 11.3309 222.766 10.8924 222.766 10.3747C222.766 9.85703 222.597 9.41857 222.259 9.05936C221.921 8.70015 221.509 8.52054 221.023 8.52054Z" fill="white"/>
<g clip-path="url(#clip0_5279_4912)">
<rect y="35.7065" width="15.8476" height="15.8476" rx="4" fill="#29242F"/>
<rect x="25.7109" y="35.7065" width="15.8476" height="15.8476" rx="4" fill="#29242F"/>
<rect x="51.4141" y="35.7065" width="15.8476" height="15.8476" rx="4" fill="#29242F"/>
<rect x="77.125" y="35.7065" width="15.8476" height="15.8476" rx="4" fill="#29242F"/>
<rect x="102.836" y="35.7065" width="15.8476" height="15.8476" rx="4" fill="#29242F"/>
<rect x="128.539" y="35.7065" width="15.8476" height="15.8476" rx="4" fill="#29242F"/>
<rect x="154.25" y="35.7065" width="15.8476" height="15.8476" rx="4" fill="#29242F"/>
<rect x="179.961" y="35.7065" width="15.8476" height="15.8476" rx="4" fill="#29242F"/>
<rect x="205.664" y="35.7065" width="15.8476" height="15.8476" rx="4" fill="#29242F"/>
<rect x="231.375" y="35.7065" width="15.8476" height="15.8476" rx="4" fill="#29242F"/>
<rect y="60.3584" width="15.8476" height="15.8476" rx="4" fill="#29242F"/>
<rect x="25.7109" y="60.3584" width="15.8476" height="15.8476" rx="4" fill="#29242F"/>
<rect x="51.4141" y="60.3584" width="15.8476" height="15.8476" rx="4" fill="#29242F"/>
<rect x="77.125" y="60.3584" width="15.8476" height="15.8476" rx="4" fill="#A569FF"/>
<rect x="102.836" y="60.3584" width="15.8476" height="15.8476" rx="4" fill="#A569FF"/>
<rect x="128.539" y="60.3584" width="15.8476" height="15.8476" rx="4" fill="#29242F"/>
<rect x="154.25" y="60.3584" width="15.8476" height="15.8476" rx="4" fill="#29242F"/>
<rect x="179.961" y="60.3584" width="15.8476" height="15.8476" rx="4" fill="#5B14F4"/>
<rect x="205.664" y="60.3584" width="15.8476" height="15.8476" rx="4" fill="#29242F"/>
<rect x="231.375" y="60.3584" width="15.8476" height="15.8476" rx="4" fill="#29242F"/>
<rect y="85.0103" width="15.8476" height="15.8476" rx="4" fill="#29242F"/>
<rect x="25.7109" y="85.0103" width="15.8476" height="15.8476" rx="4" fill="#29242F"/>
<rect x="51.4141" y="85.0103" width="15.8476" height="15.8476" rx="4" fill="#29242F"/>
<rect x="77.125" y="85.0103" width="15.8476" height="15.8476" rx="4" fill="#29242F"/>
<rect x="102.836" y="85.0103" width="15.8476" height="15.8476" rx="4" fill="#A569FF"/>
<rect x="128.539" y="85.0103" width="15.8476" height="15.8476" rx="4" fill="#29242F"/>
<rect x="154.25" y="85.0103" width="15.8476" height="15.8476" rx="4" fill="#5B14F4"/>
<rect x="179.961" y="85.0103" width="15.8476" height="15.8476" rx="4" fill="#5B14F4"/>
<rect x="205.664" y="85.0103" width="15.8476" height="15.8476" rx="4" fill="#29242F"/>
<rect x="231.375" y="85.0103" width="15.8476" height="15.8476" rx="4" fill="#A569FF"/>
<rect y="109.662" width="15.8476" height="15.8476" rx="4" fill="#29242F"/>
<rect x="25.7109" y="109.662" width="15.8476" height="15.8476" rx="4" fill="#A569FF"/>
<rect x="51.4141" y="109.662" width="15.8476" height="15.8476" rx="4" fill="#29242F"/>
<rect x="77.125" y="109.662" width="15.8476" height="15.8476" rx="4" fill="#29242F"/>
<rect x="102.836" y="109.662" width="15.8476" height="15.8476" rx="4" fill="#5B14F4"/>
<rect x="128.539" y="109.662" width="15.8476" height="15.8476" rx="4" fill="#A569FF"/>
<rect x="154.25" y="109.662" width="15.8476" height="15.8476" rx="4" fill="#29242F"/>
<rect x="179.961" y="109.662" width="15.8476" height="15.8476" rx="4" fill="#29242F"/>
<rect x="205.664" y="109.662" width="15.8476" height="15.8476" rx="4" fill="#5B14F4"/>
<rect x="231.375" y="109.662" width="15.8476" height="15.8476" rx="4" fill="#5B14F4"/>
<rect y="134.314" width="15.8476" height="15.8476" rx="4" fill="#29242F"/>
<rect x="25.7109" y="134.314" width="15.8476" height="15.8476" rx="4" fill="#29242F"/>
<rect x="51.4141" y="134.314" width="15.8476" height="15.8476" rx="4" fill="#5B14F4"/>
<rect x="77.125" y="134.314" width="15.8476" height="15.8476" rx="4" fill="#29242F"/>
<rect x="102.836" y="134.314" width="15.8476" height="15.8476" rx="4" fill="#5B14F4"/>
<rect x="128.539" y="134.314" width="15.8476" height="15.8476" rx="4" fill="#A569FF"/>
<rect x="154.25" y="134.314" width="15.8476" height="15.8476" rx="4" fill="#A569FF"/>
<rect x="179.961" y="134.314" width="15.8476" height="15.8476" rx="4" fill="#5B14F4"/>
<rect x="205.664" y="134.314" width="15.8476" height="15.8476" rx="4" fill="#29242F"/>
<rect x="231.375" y="134.314" width="15.8476" height="15.8476" rx="4" fill="#29242F"/>
<rect y="158.966" width="15.8476" height="15.8476" rx="4" fill="#29242F"/>
<rect x="25.7109" y="158.966" width="15.8476" height="15.8476" rx="4" fill="#5B14F4"/>
<rect x="51.4141" y="158.966" width="15.8476" height="15.8476" rx="4" fill="#29242F"/>
<rect x="77.125" y="158.966" width="15.8476" height="15.8476" rx="4" fill="#5B14F4"/>
<rect x="102.836" y="158.966" width="15.8476" height="15.8476" rx="4" fill="#29242F"/>
<rect x="128.539" y="158.966" width="15.8476" height="15.8476" rx="4" fill="#29242F"/>
<rect x="154.25" y="158.966" width="15.8476" height="15.8476" rx="4" fill="#A569FF"/>
<rect x="179.961" y="158.966" width="15.8476" height="15.8476" rx="4" fill="#A569FF"/>
<rect x="205.664" y="158.966" width="15.8476" height="15.8476" rx="4" fill="#29242F"/>
<rect x="231.375" y="158.966" width="15.8476" height="15.8476" rx="4" fill="#29242F"/>
</g>
<defs>
<clipPath id="clip0_5279_4912">
<rect y="35.7065" width="272.932" height="139.107" rx="5.28255" fill="white"/>
</clipPath>
</defs>
</svg>
